M48
; DRILL file {KiCad 9.0.5} date 2026-01-02T15:51:15+0100
; FORMAT={-:-/ absolute / metric / decimal}
; #@! TF.CreationDate,2026-01-02T15:51:15+01:00
; #@! TF.GenerationSoftware,Kicad,Pcbnew,9.0.5
; #@! TF.FileFunction,Plated,1,2,PTH
FMAT,2
METRIC
; #@! TA.AperFunction,Plated,PTH,ViaDrill
T1C0.400
; #@! TA.AperFunction,Plated,PTH,ComponentDrill
T2C0.500
; #@! TA.AperFunction,Plated,PTH,ComponentDrill
T3C0.600
; #@! TA.AperFunction,Plated,PTH,ComponentDrill
T4C0.800
; #@! TA.AperFunction,Plated,PTH,ComponentDrill
T5C0.900
; #@! TA.AperFunction,Plated,PTH,ComponentDrill
T6C0.990
; #@! TA.AperFunction,Plated,PTH,ComponentDrill
T7C1.000
; #@! TA.AperFunction,Plated,PTH,ComponentDrill
T8C1.040
; #@! TA.AperFunction,Plated,PTH,ComponentDrill
T9C1.100
; #@! TA.AperFunction,Plated,PTH,ComponentDrill
T10C1.250
; #@! TA.AperFunction,Plated,PTH,ComponentDrill
T11C1.300
; #@! TA.AperFunction,Plated,PTH,ComponentDrill
T12C1.800
; #@! TA.AperFunction,Plated,PTH,ComponentDrill
T13C3.200
%
G90
G05
T1
X113.03Y-66.497
X131.04Y-85.61
X131.475Y-112.53
X131.475Y-121.39
X132.2Y-113.4
X132.2Y-122.09
X132.95Y-114.07
X132.95Y-121.36
X133.7Y-114.776
X133.7Y-120.6
X136.55Y-109.95
X136.55Y-110.95
X143.04Y-70.28
X145.0Y-76.75
X148.895Y-72.82
X159.87Y-95.69
X160.03Y-70.01
X168.25Y-102.6
X169.777Y-85.473
X177.72Y-121.475
X180.3Y-82.24
X190.49Y-110.49
X190.66Y-102.58
X193.42Y-95.48
X194.34Y-87.4
X197.65Y-87.73
X198.24Y-110.27
X198.95Y-95.15
X204.64Y-118.94
X208.67Y-117.2
T3
X141.473Y-67.5
X141.475Y-91.669
X143.473Y-67.5
X143.475Y-91.669
X200.31Y-61.35
X202.31Y-61.35
T4
X130.5Y-65.0
X130.5Y-67.54
X130.5Y-70.08
X130.5Y-72.62
X130.5Y-75.16
X130.5Y-77.7
X130.5Y-80.24
X130.5Y-82.78
X130.5Y-89.125
X130.5Y-91.665
X130.5Y-94.205
X130.5Y-96.745
X130.5Y-99.285
X130.5Y-101.825
X130.5Y-104.365
X130.5Y-106.905
X138.12Y-65.0
X138.12Y-67.54
X138.12Y-70.08
X138.12Y-72.62
X138.12Y-75.16
X138.12Y-77.7
X138.12Y-80.24
X138.12Y-82.78
X138.12Y-89.125
X138.12Y-91.665
X138.12Y-94.205
X138.12Y-96.745
X138.12Y-99.285
X138.12Y-101.825
X138.12Y-104.365
X138.12Y-106.905
X176.5Y-71.1
X176.5Y-80.1
X176.5Y-84.6
X176.5Y-89.1
X176.5Y-93.6
X176.5Y-98.1
X176.52Y-75.6
X176.6Y-102.6
X176.6Y-107.1
X186.66Y-71.1
X186.66Y-80.1
X186.66Y-84.6
X186.66Y-89.1
X186.66Y-93.6
X186.66Y-98.1
X186.68Y-75.6
X186.76Y-102.6
X186.76Y-107.1
X194.72Y-67.3
X204.88Y-67.3
T5
X138.3Y-124.4
X141.7Y-124.4
X177.0Y-57.023
X177.0Y-59.182
X177.0Y-61.341
X177.0Y-63.5
X190.0Y-76.779
X190.0Y-84.324
X190.0Y-91.869
X190.0Y-99.414
X190.0Y-106.959
X190.0Y-114.504
X192.54Y-76.779
X192.54Y-84.324
X192.54Y-91.869
X192.54Y-99.414
X192.54Y-106.959
X192.54Y-114.504
X196.0Y-76.779
X196.0Y-84.324
X196.0Y-91.869
X196.0Y-99.414
X196.0Y-106.959
X196.0Y-114.504
X198.54Y-76.779
X198.54Y-84.324
X198.54Y-91.869
X198.54Y-99.414
X198.54Y-106.959
X198.54Y-114.504
T6
X127.75Y-52.79
X132.25Y-52.79
X192.75Y-52.79
X197.25Y-52.79
T7
X104.5Y-63.3
X104.5Y-91.3
X107.0Y-63.3
X107.0Y-91.3
X109.5Y-63.3
X109.5Y-91.3
X116.1Y-116.9
X118.6Y-116.9
X121.1Y-116.9
X151.619Y-116.9
X154.119Y-116.9
X156.619Y-116.9
X174.0Y-116.9
X176.5Y-116.9
X179.0Y-116.9
X186.5Y-58.0
X186.5Y-65.0
X210.5Y-75.872
X210.5Y-101.5
X213.0Y-75.872
X213.0Y-101.5
X215.5Y-75.872
X215.5Y-101.5
T8
X147.05Y-55.04
X147.05Y-57.58
X147.05Y-60.12
X147.05Y-62.66
X147.05Y-65.2
X147.05Y-67.74
X147.05Y-70.28
X147.05Y-72.82
X147.05Y-75.36
X147.05Y-77.9
X147.05Y-80.44
X147.05Y-82.98
X147.05Y-85.52
X147.05Y-88.06
X147.05Y-90.6
X147.05Y-93.14
X147.05Y-95.68
X147.05Y-98.22
X147.05Y-100.76
X172.45Y-55.04
X172.45Y-57.58
X172.45Y-60.12
X172.45Y-62.66
X172.45Y-65.2
X172.45Y-67.74
X172.45Y-70.28
X172.45Y-72.82
X172.45Y-75.36
X172.45Y-77.9
X172.45Y-80.44
X172.45Y-82.98
X172.45Y-85.52
X172.45Y-88.06
X172.45Y-90.6
X172.45Y-93.14
X172.45Y-95.68
X172.45Y-98.22
X172.45Y-100.76
T9
X190.86Y-119.25
X190.86Y-123.75
X197.36Y-119.25
X197.36Y-123.75
T10
X100.898Y-51.089
X100.898Y-61.089
X100.899Y-78.984
X100.899Y-88.984
X100.979Y-126.6
X100.979Y-129.1
X103.398Y-51.089
X103.398Y-61.089
X103.399Y-78.984
X103.399Y-88.984
X105.979Y-121.6
X108.398Y-56.089
X108.399Y-83.984
X110.979Y-126.6
X110.979Y-129.1
X208.977Y-126.627
X208.977Y-129.127
X211.616Y-63.988
X213.977Y-121.627
X216.616Y-58.988
X216.616Y-68.988
X218.977Y-126.627
X218.977Y-129.127
X219.116Y-58.988
X219.116Y-68.988
T11
X126.5Y-55.28
X133.51Y-55.28
X191.5Y-55.28
X198.51Y-55.28
T13
X120.0Y-55.0
X120.0Y-112.0
X204.0Y-55.0
X204.0Y-112.0
T2
G00X100.979Y-121.25
M15
G01X100.979Y-121.95
M16
G05
G00X103.398Y-55.739
M15
G01X103.398Y-56.439
M16
G05
G00X103.399Y-83.634
M15
G01X103.399Y-84.334
M16
G05
G00X105.629Y-126.6
M15
G01X106.329Y-126.6
M16
G05
G00X108.748Y-51.089
M15
G01X108.048Y-51.089
M16
G05
G00X108.748Y-61.089
M15
G01X108.048Y-61.089
M16
G05
G00X108.749Y-78.984
M15
G01X108.049Y-78.984
M16
G05
G00X108.749Y-88.984
M15
G01X108.049Y-88.984
M16
G05
G00X110.979Y-121.25
M15
G01X110.979Y-121.95
M16
G05
G00X208.977Y-121.277
M15
G01X208.977Y-121.977
M16
G05
G00X211.266Y-58.988
M15
G01X211.966Y-58.988
M16
G05
G00X211.266Y-68.988
M15
G01X211.966Y-68.988
M16
G05
G00X213.627Y-126.627
M15
G01X214.327Y-126.627
M16
G05
G00X216.616Y-64.338
M15
G01X216.616Y-63.638
M16
G05
G00X218.977Y-121.277
M15
G01X218.977Y-121.977
M16
G05
T12
G00X102.6Y-70.15
M15
G01X102.6Y-70.45
M16
G05
G00X102.6Y-98.15
M15
G01X102.6Y-98.45
M16
G05
G00X111.4Y-70.15
M15
G01X111.4Y-70.45
M16
G05
G00X111.4Y-98.15
M15
G01X111.4Y-98.45
M16
G05
G00X114.2Y-123.75
M15
G01X114.2Y-124.05
M16
G05
G00X123.0Y-123.75
M15
G01X123.0Y-124.05
M16
G05
G00X149.719Y-123.75
M15
G01X149.719Y-124.05
M16
G05
G00X158.519Y-123.75
M15
G01X158.519Y-124.05
M16
G05
G00X172.1Y-123.75
M15
G01X172.1Y-124.05
M16
G05
G00X180.9Y-123.75
M15
G01X180.9Y-124.05
M16
G05
G00X208.6Y-82.722
M15
G01X208.6Y-83.022
M16
G05
G00X208.6Y-108.35
M15
G01X208.6Y-108.65
M16
G05
G00X217.4Y-82.722
M15
G01X217.4Y-83.022
M16
G05
G00X217.4Y-108.35
M15
G01X217.4Y-108.65
M16
G05
M30
