%TF.GenerationSoftware,KiCad,Pcbnew,9.0.4*%
%TF.CreationDate,2025-10-09T22:00:13+02:00*%
%TF.ProjectId,Spikeling_v3.0,5370696b-656c-4696-9e67-5f76332e302e,rev?*%
%TF.SameCoordinates,Original*%
%TF.FileFunction,OtherDrawing,Comment*%
%FSLAX46Y46*%
G04 Gerber Fmt 4.6, Leading zero omitted, Abs format (unit mm)*
G04 Created by KiCad (PCBNEW 9.0.4) date 2025-10-09 22:00:13*
%MOMM*%
%LPD*%
G01*
G04 APERTURE LIST*
%ADD10C,0.150000*%
%ADD11C,0.500000*%
%ADD12C,0.350000*%
%ADD13C,0.400000*%
%ADD14C,0.000000*%
%ADD15C,0.200000*%
%ADD16C,0.254000*%
%ADD17C,0.300000*%
%ADD18C,0.050000*%
%ADD19C,0.250000*%
G04 APERTURE END LIST*
D10*
X98000000Y-48000000D02*
X222000000Y-48000000D01*
X222000000Y-132000000D01*
X98000000Y-132000000D01*
X98000000Y-48000000D01*
D11*
%TO.C,U3*%
X131850000Y-75555000D02*
G75*
G02*
X131350000Y-75555000I-250000J0D01*
G01*
X131350000Y-75555000D02*
G75*
G02*
X131850000Y-75555000I250000J0D01*
G01*
D12*
%TO.C,J4*%
X102075000Y-84000000D02*
G75*
G02*
X101725000Y-84000000I-175000J0D01*
G01*
X101725000Y-84000000D02*
G75*
G02*
X102075000Y-84000000I175000J0D01*
G01*
D13*
X102260000Y-89260000D02*
G75*
G02*
X101860000Y-89260000I-200000J0D01*
G01*
X101860000Y-89260000D02*
G75*
G02*
X102260000Y-89260000I200000J0D01*
G01*
D12*
X108075000Y-84000000D02*
G75*
G02*
X107725000Y-84000000I-175000J0D01*
G01*
X107725000Y-84000000D02*
G75*
G02*
X108075000Y-84000000I175000J0D01*
G01*
%TO.C,J5*%
X214175000Y-122100000D02*
G75*
G02*
X213825000Y-122100000I-175000J0D01*
G01*
X213825000Y-122100000D02*
G75*
G02*
X214175000Y-122100000I175000J0D01*
G01*
X214175000Y-128100000D02*
G75*
G02*
X213825000Y-128100000I-175000J0D01*
G01*
X213825000Y-128100000D02*
G75*
G02*
X214175000Y-128100000I175000J0D01*
G01*
D13*
X219460000Y-127940000D02*
G75*
G02*
X219060000Y-127940000I-200000J0D01*
G01*
X219060000Y-127940000D02*
G75*
G02*
X219460000Y-127940000I200000J0D01*
G01*
%TO.C,U6*%
X141783000Y-60504000D02*
G75*
G02*
X141383000Y-60504000I-200000J0D01*
G01*
X141383000Y-60504000D02*
G75*
G02*
X141783000Y-60504000I200000J0D01*
G01*
%TO.C,U1*%
X169500000Y-85300500D02*
G75*
G02*
X169100000Y-85300500I-200000J0D01*
G01*
X169100000Y-85300500D02*
G75*
G02*
X169500000Y-85300500I200000J0D01*
G01*
D14*
%TO.C,D4*%
G36*
X172400000Y-62105000D02*
G01*
X171800000Y-62105000D01*
X172400000Y-61505000D01*
X172400000Y-62105000D01*
G37*
G36*
X172615000Y-61440000D02*
G01*
X172115000Y-61440000D01*
X172015000Y-61440000D01*
X172015000Y-61340000D01*
X172515000Y-61340000D01*
X172615000Y-61340000D01*
X172615000Y-61440000D01*
G37*
G36*
X169350000Y-59925000D02*
G01*
X169550000Y-59925000D01*
X169650000Y-59925000D01*
X169650000Y-60025000D01*
X169350000Y-60025000D01*
X169350000Y-60325000D01*
X169250000Y-60325000D01*
X169250000Y-60025000D01*
X168950000Y-60025000D01*
X168950000Y-59925000D01*
X169250000Y-59925000D01*
X169250000Y-59625000D01*
X169350000Y-59625000D01*
X169350000Y-59925000D01*
G37*
G36*
X169350000Y-61425000D02*
G01*
X169550000Y-61425000D01*
X169650000Y-61425000D01*
X169650000Y-61525000D01*
X169350000Y-61525000D01*
X169350000Y-61825000D01*
X169250000Y-61825000D01*
X169250000Y-61525000D01*
X168950000Y-61525000D01*
X168950000Y-61425000D01*
X169250000Y-61425000D01*
X169250000Y-61125000D01*
X169350000Y-61125000D01*
X169350000Y-61425000D01*
G37*
G36*
X172415000Y-59890000D02*
G01*
X172615000Y-59890000D01*
X172715000Y-59890000D01*
X172715000Y-59990000D01*
X172415000Y-59990000D01*
X172415000Y-60290000D01*
X172315000Y-60290000D01*
X172315000Y-59990000D01*
X172015000Y-59990000D01*
X172015000Y-59890000D01*
X172315000Y-59890000D01*
X172315000Y-59590000D01*
X172415000Y-59590000D01*
X172415000Y-59890000D01*
G37*
D15*
%TO.C,Q1*%
X132200000Y-60414000D02*
G75*
G02*
X132000000Y-60414000I-100000J0D01*
G01*
X132000000Y-60414000D02*
G75*
G02*
X132200000Y-60414000I100000J0D01*
G01*
D16*
%TO.C,U7*%
X132840500Y-67412000D02*
G75*
G02*
X132586500Y-67412000I-127000J0D01*
G01*
X132586500Y-67412000D02*
G75*
G02*
X132840500Y-67412000I127000J0D01*
G01*
D17*
%TO.C,U5*%
X131250000Y-123050000D02*
G75*
G02*
X130950000Y-123050000I-150000J0D01*
G01*
X130950000Y-123050000D02*
G75*
G02*
X131250000Y-123050000I150000J0D01*
G01*
D12*
%TO.C,J6*%
X212275000Y-64000000D02*
G75*
G02*
X211925000Y-64000000I-175000J0D01*
G01*
X211925000Y-64000000D02*
G75*
G02*
X212275000Y-64000000I175000J0D01*
G01*
D13*
X218140000Y-58740000D02*
G75*
G02*
X217740000Y-58740000I-200000J0D01*
G01*
X217740000Y-58740000D02*
G75*
G02*
X218140000Y-58740000I200000J0D01*
G01*
D12*
X218275000Y-64000000D02*
G75*
G02*
X217925000Y-64000000I-175000J0D01*
G01*
X217925000Y-64000000D02*
G75*
G02*
X218275000Y-64000000I175000J0D01*
G01*
%TO.C,J3*%
X102075000Y-56100000D02*
G75*
G02*
X101725000Y-56100000I-175000J0D01*
G01*
X101725000Y-56100000D02*
G75*
G02*
X102075000Y-56100000I175000J0D01*
G01*
D13*
X102260000Y-61360000D02*
G75*
G02*
X101860000Y-61360000I-200000J0D01*
G01*
X101860000Y-61360000D02*
G75*
G02*
X102260000Y-61360000I200000J0D01*
G01*
D12*
X108075000Y-56100000D02*
G75*
G02*
X107725000Y-56100000I-175000J0D01*
G01*
X107725000Y-56100000D02*
G75*
G02*
X108075000Y-56100000I175000J0D01*
G01*
D18*
%TO.C,J1*%
X164800000Y-48750000D02*
X155200000Y-48750000D01*
D14*
%TO.C,SW3*%
G36*
X181778000Y-48305000D02*
G01*
X181778000Y-50210000D01*
X181778000Y-50337000D01*
X181524000Y-50337000D01*
X181524000Y-48432000D01*
X178349000Y-48432000D01*
X178349000Y-50337000D01*
X178222000Y-50337000D01*
X178095000Y-50337000D01*
X178095000Y-48305000D01*
X178222000Y-48178000D01*
X181651000Y-48178000D01*
X181778000Y-48305000D01*
G37*
%TO.C,SW2*%
G36*
X141778000Y-48305000D02*
G01*
X141778000Y-50210000D01*
X141778000Y-50337000D01*
X141524000Y-50337000D01*
X141524000Y-48432000D01*
X138349000Y-48432000D01*
X138349000Y-50337000D01*
X138222000Y-50337000D01*
X138095000Y-50337000D01*
X138095000Y-48305000D01*
X138222000Y-48178000D01*
X141651000Y-48178000D01*
X141778000Y-48305000D01*
G37*
%TO.C,D3*%
G36*
X138650000Y-123562000D02*
G01*
X138650000Y-123562000D01*
G75*
G02*
X138650000Y-123714000I0J-76000D01*
G01*
X138226000Y-123714000D01*
X138226000Y-124349000D01*
X138650000Y-124349000D01*
G75*
G02*
X138650000Y-124501000I0J-76000D01*
G01*
X138150000Y-124501000D01*
G75*
G02*
X138074000Y-124425000I0J76000D01*
G01*
X138074000Y-123638000D01*
G75*
G02*
X138150000Y-123562000I76000J0D01*
G01*
X138650000Y-123562000D01*
G37*
G36*
X139250000Y-123149000D02*
G01*
X139250000Y-123149000D01*
G75*
G02*
X139250000Y-123301000I0J-76000D01*
G01*
X138726000Y-123301000D01*
X138726000Y-124749000D01*
X139250000Y-124749000D01*
G75*
G02*
X139250000Y-124901000I0J-76000D01*
G01*
X138650000Y-124901000D01*
G75*
G02*
X138574000Y-124825000I0J76000D01*
G01*
X138574000Y-123225000D01*
G75*
G02*
X138650000Y-123149000I76000J0D01*
G01*
X139250000Y-123149000D01*
G37*
G36*
X144550000Y-123149000D02*
G01*
X144550000Y-123149000D01*
G75*
G02*
X144626000Y-123225000I0J-76000D01*
G01*
X144626000Y-124825000D01*
G75*
G02*
X144550000Y-124901000I-76000J0D01*
G01*
X143550000Y-124901000D01*
G75*
G02*
X143550000Y-124749000I0J76000D01*
G01*
X144474000Y-124749000D01*
X144474000Y-123301000D01*
X143550000Y-123301000D01*
G75*
G02*
X143550000Y-123149000I0J76000D01*
G01*
X144550000Y-123149000D01*
G37*
D19*
%TO.C,U10*%
X149965000Y-61340000D02*
G75*
G02*
X149715000Y-61340000I-125000J0D01*
G01*
X149715000Y-61340000D02*
G75*
G02*
X149965000Y-61340000I125000J0D01*
G01*
D11*
%TO.C,U4*%
X181850000Y-75555000D02*
G75*
G02*
X181350000Y-75555000I-250000J0D01*
G01*
X181350000Y-75555000D02*
G75*
G02*
X181850000Y-75555000I250000J0D01*
G01*
D14*
%TO.C,SW4*%
G36*
X196778000Y-48305000D02*
G01*
X196778000Y-50210000D01*
X196778000Y-50337000D01*
X196524000Y-50337000D01*
X196524000Y-48432000D01*
X193349000Y-48432000D01*
X193349000Y-50337000D01*
X193222000Y-50337000D01*
X193095000Y-50337000D01*
X193095000Y-48305000D01*
X193222000Y-48178000D01*
X196651000Y-48178000D01*
X196778000Y-48305000D01*
G37*
D15*
%TO.C,U8*%
X122390000Y-63120000D02*
G75*
G02*
X122190000Y-63120000I-100000J0D01*
G01*
X122190000Y-63120000D02*
G75*
G02*
X122390000Y-63120000I100000J0D01*
G01*
D12*
%TO.C,J2*%
X106175000Y-122100000D02*
G75*
G02*
X105825000Y-122100000I-175000J0D01*
G01*
X105825000Y-122100000D02*
G75*
G02*
X106175000Y-122100000I175000J0D01*
G01*
X106175000Y-128100000D02*
G75*
G02*
X105825000Y-128100000I-175000J0D01*
G01*
X105825000Y-128100000D02*
G75*
G02*
X106175000Y-128100000I175000J0D01*
G01*
D13*
X111460000Y-127940000D02*
G75*
G02*
X111060000Y-127940000I-200000J0D01*
G01*
X111060000Y-127940000D02*
G75*
G02*
X111460000Y-127940000I200000J0D01*
G01*
D19*
%TO.C,U12*%
X122685000Y-69580000D02*
G75*
G02*
X122435000Y-69580000I-125000J0D01*
G01*
X122435000Y-69580000D02*
G75*
G02*
X122685000Y-69580000I125000J0D01*
G01*
D15*
%TO.C,TV1*%
X159210000Y-61050000D02*
G75*
G02*
X159010000Y-61050000I-100000J0D01*
G01*
X159010000Y-61050000D02*
G75*
G02*
X159210000Y-61050000I100000J0D01*
G01*
%TD*%
M02*
