%TF.GenerationSoftware,KiCad,Pcbnew,9.0.4*%
%TF.CreationDate,2025-10-09T22:00:13+02:00*%
%TF.ProjectId,Spikeling_v3.0,5370696b-656c-4696-9e67-5f76332e302e,rev?*%
%TF.SameCoordinates,Original*%
%TF.FileFunction,Other,User*%
%FSLAX46Y46*%
G04 Gerber Fmt 4.6, Leading zero omitted, Abs format (unit mm)*
G04 Created by KiCad (PCBNEW 9.0.4) date 2025-10-09 22:00:13*
%MOMM*%
%LPD*%
G01*
G04 APERTURE LIST*
%ADD10C,0.050000*%
G04 APERTURE END LIST*
D10*
%TO.C,R13*%
X143670000Y-64640000D02*
X146270000Y-64640000D01*
X143670000Y-65840000D02*
X143670000Y-64640000D01*
X146270000Y-64640000D02*
X146270000Y-65840000D01*
X146270000Y-65840000D02*
X143670000Y-65840000D01*
%TO.C,R18*%
X148390000Y-53540000D02*
X149590000Y-53540000D01*
X148390000Y-56140000D02*
X148390000Y-53540000D01*
X149590000Y-53540000D02*
X149590000Y-56140000D01*
X149590000Y-56140000D02*
X148390000Y-56140000D01*
%TO.C,C2*%
X131640000Y-86660000D02*
X134440000Y-86660000D01*
X131640000Y-87860000D02*
X131640000Y-86660000D01*
X134440000Y-86660000D02*
X134440000Y-87860000D01*
X134440000Y-87860000D02*
X131640000Y-87860000D01*
%TO.C,R9*%
X209425000Y-67525000D02*
X210625000Y-67525000D01*
X209425000Y-70125000D02*
X209425000Y-67525000D01*
X210625000Y-67525000D02*
X210625000Y-70125000D01*
X210625000Y-70125000D02*
X209425000Y-70125000D01*
%TO.C,C3*%
X118755000Y-89680000D02*
X121555000Y-89680000D01*
X118755000Y-90880000D02*
X118755000Y-89680000D01*
X121555000Y-89680000D02*
X121555000Y-90880000D01*
X121555000Y-90880000D02*
X118755000Y-90880000D01*
%TO.C,TP2*%
X111500000Y-51500000D02*
G75*
G02*
X108500000Y-51500000I-1500000J0D01*
G01*
X108500000Y-51500000D02*
G75*
G02*
X111500000Y-51500000I1500000J0D01*
G01*
%TO.C,R25*%
X119080000Y-63220000D02*
X121680000Y-63220000D01*
X119080000Y-64420000D02*
X119080000Y-63220000D01*
X121680000Y-63220000D02*
X121680000Y-64420000D01*
X121680000Y-64420000D02*
X119080000Y-64420000D01*
%TO.C,C25*%
X126920000Y-68240000D02*
X129720000Y-68240000D01*
X126920000Y-69440000D02*
X126920000Y-68240000D01*
X129720000Y-68240000D02*
X129720000Y-69440000D01*
X129720000Y-69440000D02*
X126920000Y-69440000D01*
%TO.C,C23*%
X126920000Y-69940000D02*
X129720000Y-69940000D01*
X126920000Y-71140000D02*
X126920000Y-69940000D01*
X129720000Y-69940000D02*
X129720000Y-71140000D01*
X129720000Y-71140000D02*
X126920000Y-71140000D01*
%TO.C,D1*%
X140800000Y-57350000D02*
X145200000Y-57350000D01*
X140800000Y-59650000D02*
X140800000Y-57350000D01*
X145200000Y-59650000D02*
X140800000Y-59650000D01*
X145200000Y-59650000D02*
X145200000Y-57350000D01*
%TO.C,C17*%
X126920000Y-71640000D02*
X129720000Y-71640000D01*
X126920000Y-72840000D02*
X126920000Y-71640000D01*
X129720000Y-71640000D02*
X129720000Y-72840000D01*
X129720000Y-72840000D02*
X126920000Y-72840000D01*
%TO.C,R28*%
X119080000Y-61520000D02*
X121680000Y-61520000D01*
X119080000Y-62720000D02*
X119080000Y-61520000D01*
X121680000Y-61520000D02*
X121680000Y-62720000D01*
X121680000Y-62720000D02*
X119080000Y-62720000D01*
%TO.C,R7*%
X132675000Y-119725000D02*
X135275000Y-119725000D01*
X132675000Y-120925000D02*
X132675000Y-119725000D01*
X135275000Y-119725000D02*
X135275000Y-120925000D01*
X135275000Y-120925000D02*
X132675000Y-120925000D01*
%TO.C,R15*%
X136390000Y-64920000D02*
X138990000Y-64920000D01*
X136390000Y-66120000D02*
X136390000Y-64920000D01*
X138990000Y-64920000D02*
X138990000Y-66120000D01*
X138990000Y-66120000D02*
X136390000Y-66120000D01*
%TO.C,R8*%
X217400000Y-116925000D02*
X218600000Y-116925000D01*
X217400000Y-119525000D02*
X217400000Y-116925000D01*
X218600000Y-116925000D02*
X218600000Y-119525000D01*
X218600000Y-119525000D02*
X217400000Y-119525000D01*
%TO.C,U2*%
X125165000Y-86070000D02*
X128665000Y-86070000D01*
X125165000Y-93070000D02*
X125165000Y-86070000D01*
X128665000Y-86070000D02*
X128665000Y-93070000D01*
X128665000Y-93070000D02*
X125165000Y-93070000D01*
%TO.C,R19*%
X136390000Y-68320000D02*
X138990000Y-68320000D01*
X136390000Y-69520000D02*
X136390000Y-68320000D01*
X138990000Y-68320000D02*
X138990000Y-69520000D01*
X138990000Y-69520000D02*
X136390000Y-69520000D01*
%TO.C,C5*%
X170125000Y-82320000D02*
X170125000Y-83120000D01*
X170125000Y-82320000D02*
X171925000Y-82320000D01*
X171925000Y-82320000D02*
X171925000Y-83120000D01*
X171925000Y-83120000D02*
X170125000Y-83120000D01*
%TO.C,R16*%
X127080000Y-61520000D02*
X129680000Y-61520000D01*
X127080000Y-62720000D02*
X127080000Y-61520000D01*
X129680000Y-61520000D02*
X129680000Y-62720000D01*
X129680000Y-62720000D02*
X127080000Y-62720000D01*
%TO.C,C14*%
X139500000Y-63220000D02*
X142300000Y-63220000D01*
X139500000Y-64420000D02*
X139500000Y-63220000D01*
X142300000Y-63220000D02*
X142300000Y-64420000D01*
X142300000Y-64420000D02*
X139500000Y-64420000D01*
%TO.C,JP1*%
X146240000Y-60800000D02*
X146240000Y-57500000D01*
X146240000Y-60800000D02*
X148740000Y-60800000D01*
X148740000Y-57500000D02*
X146240000Y-57500000D01*
X148740000Y-57500000D02*
X148740000Y-60800000D01*
%TO.C,H2*%
X207250000Y-55000000D02*
G75*
G02*
X200750000Y-55000000I-3250000J0D01*
G01*
X200750000Y-55000000D02*
G75*
G02*
X207250000Y-55000000I3250000J0D01*
G01*
%TO.C,R12*%
X196775000Y-57900000D02*
X199375000Y-57900000D01*
X196775000Y-59100000D02*
X196775000Y-57900000D01*
X199375000Y-57900000D02*
X199375000Y-59100000D01*
X199375000Y-59100000D02*
X196775000Y-59100000D01*
%TO.C,R5*%
X146400000Y-68670000D02*
X147600000Y-68670000D01*
X146400000Y-71270000D02*
X146400000Y-68670000D01*
X147600000Y-68670000D02*
X147600000Y-71270000D01*
X147600000Y-71270000D02*
X146400000Y-71270000D01*
%TO.C,C19*%
X165540000Y-50770000D02*
X168340000Y-50770000D01*
X165540000Y-51970000D02*
X165540000Y-50770000D01*
X168340000Y-50770000D02*
X168340000Y-51970000D01*
X168340000Y-51970000D02*
X165540000Y-51970000D01*
%TO.C,SW1*%
X142525000Y-68225000D02*
X142525000Y-74225000D01*
X142525000Y-74225000D02*
X145925000Y-74225000D01*
X145925000Y-68225000D02*
X142525000Y-68225000D01*
X145925000Y-74225000D02*
X145925000Y-68225000D01*
%TO.C,C7*%
X139100000Y-75150000D02*
X139100000Y-75950000D01*
X139100000Y-75150000D02*
X140900000Y-75150000D01*
X140900000Y-75150000D02*
X140900000Y-75950000D01*
X140900000Y-75950000D02*
X139100000Y-75950000D01*
%TO.C,C16*%
X118980000Y-59820000D02*
X121780000Y-59820000D01*
X118980000Y-61020000D02*
X118980000Y-59820000D01*
X121780000Y-59820000D02*
X121780000Y-61020000D01*
X121780000Y-61020000D02*
X118980000Y-61020000D01*
%TO.C,C18*%
X136250000Y-70020000D02*
X139050000Y-70020000D01*
X136250000Y-71220000D02*
X136250000Y-70020000D01*
X139050000Y-70020000D02*
X139050000Y-71220000D01*
X139050000Y-71220000D02*
X136250000Y-71220000D01*
%TO.C,C8*%
X189150000Y-75150000D02*
X190950000Y-75150000D01*
X189150000Y-75950000D02*
X189150000Y-75150000D01*
X190950000Y-75950000D02*
X189150000Y-75950000D01*
X190950000Y-75950000D02*
X190950000Y-75150000D01*
%TO.C,H1*%
X123250000Y-55000000D02*
G75*
G02*
X116750000Y-55000000I-3250000J0D01*
G01*
X116750000Y-55000000D02*
G75*
G02*
X123250000Y-55000000I3250000J0D01*
G01*
%TO.C,R17*%
X127080000Y-59820000D02*
X129680000Y-59820000D01*
X127080000Y-61020000D02*
X127080000Y-59820000D01*
X129680000Y-59820000D02*
X129680000Y-61020000D01*
X129680000Y-61020000D02*
X127080000Y-61020000D01*
%TO.C,R3*%
X145400000Y-53540000D02*
X146600000Y-53540000D01*
X145400000Y-56140000D02*
X145400000Y-53540000D01*
X146600000Y-53540000D02*
X146600000Y-56140000D01*
X146600000Y-56140000D02*
X145400000Y-56140000D01*
%TO.C,C11*%
X211900000Y-67380000D02*
X213100000Y-67380000D01*
X211900000Y-70180000D02*
X211900000Y-67380000D01*
X213100000Y-67380000D02*
X213100000Y-70180000D01*
X213100000Y-70180000D02*
X211900000Y-70180000D01*
%TO.C,J1*%
X155250000Y-48500000D02*
X164750000Y-48500000D01*
X155250000Y-56750000D02*
X155250000Y-48500000D01*
X164750000Y-48500000D02*
X164750000Y-56750000D01*
X164750000Y-56750000D02*
X155250000Y-56750000D01*
%TO.C,TP1*%
X114750000Y-51500000D02*
G75*
G02*
X111750000Y-51500000I-1500000J0D01*
G01*
X111750000Y-51500000D02*
G75*
G02*
X114750000Y-51500000I1500000J0D01*
G01*
%TO.C,C22*%
X126940000Y-64920000D02*
X129740000Y-64920000D01*
X126940000Y-66120000D02*
X126940000Y-64920000D01*
X129740000Y-64920000D02*
X129740000Y-66120000D01*
X129740000Y-66120000D02*
X126940000Y-66120000D01*
%TO.C,C10*%
X133075000Y-118325000D02*
X133075000Y-119125000D01*
X133075000Y-118325000D02*
X134875000Y-118325000D01*
X134875000Y-118325000D02*
X134875000Y-119125000D01*
X134875000Y-119125000D02*
X133075000Y-119125000D01*
%TO.C,R20*%
X165680000Y-52080000D02*
X168280000Y-52080000D01*
X165680000Y-53280000D02*
X165680000Y-52080000D01*
X168280000Y-52080000D02*
X168280000Y-53280000D01*
X168280000Y-53280000D02*
X165680000Y-53280000D01*
%TO.C,C9*%
X137610000Y-121060000D02*
X138410000Y-121060000D01*
X137610000Y-122860000D02*
X137610000Y-121060000D01*
X137610000Y-122860000D02*
X138410000Y-122860000D01*
X138410000Y-121060000D02*
X138410000Y-122860000D01*
%TO.C,R22*%
X136390000Y-59820000D02*
X138990000Y-59820000D01*
X136390000Y-61020000D02*
X136390000Y-59820000D01*
X138990000Y-59820000D02*
X138990000Y-61020000D01*
X138990000Y-61020000D02*
X136390000Y-61020000D01*
%TO.C,R21*%
X136390000Y-66620000D02*
X138990000Y-66620000D01*
X136390000Y-67820000D02*
X136390000Y-66620000D01*
X138990000Y-66620000D02*
X138990000Y-67820000D01*
X138990000Y-67820000D02*
X136390000Y-67820000D01*
%TO.C,D7*%
X148270000Y-50270000D02*
X149730000Y-50270000D01*
X148270000Y-53230000D02*
X148270000Y-50270000D01*
X149730000Y-50270000D02*
X149730000Y-53230000D01*
X149730000Y-53230000D02*
X148270000Y-53230000D01*
%TO.C,R15*%
X132240000Y-63220000D02*
X134840000Y-63220000D01*
X132240000Y-64420000D02*
X132240000Y-63220000D01*
X134840000Y-63220000D02*
X134840000Y-64420000D01*
X134840000Y-64420000D02*
X132240000Y-64420000D01*
%TO.C,R11*%
X181775000Y-57900000D02*
X184375000Y-57900000D01*
X181775000Y-59100000D02*
X181775000Y-57900000D01*
X184375000Y-57900000D02*
X184375000Y-59100000D01*
X184375000Y-59100000D02*
X181775000Y-59100000D01*
%TO.C,C4*%
X118750000Y-91360000D02*
X121550000Y-91360000D01*
X118750000Y-92560000D02*
X118750000Y-91360000D01*
X121550000Y-91360000D02*
X121550000Y-92560000D01*
X121550000Y-92560000D02*
X118750000Y-92560000D01*
%TO.C,R26*%
X127080000Y-58120000D02*
X129680000Y-58120000D01*
X127080000Y-59320000D02*
X127080000Y-58120000D01*
X129680000Y-58120000D02*
X129680000Y-59320000D01*
X129680000Y-59320000D02*
X127080000Y-59320000D01*
%TO.C,C1*%
X118755000Y-87980000D02*
X121555000Y-87980000D01*
X118755000Y-89180000D02*
X118755000Y-87980000D01*
X121555000Y-87980000D02*
X121555000Y-89180000D01*
X121555000Y-89180000D02*
X118755000Y-89180000D01*
%TO.C,R4*%
X171200000Y-52150000D02*
X173800000Y-52150000D01*
X171200000Y-53350000D02*
X171200000Y-52150000D01*
X173800000Y-52150000D02*
X173800000Y-53350000D01*
X173800000Y-53350000D02*
X171200000Y-53350000D01*
%TO.C,C12*%
X181600000Y-65100000D02*
X182400000Y-65100000D01*
X181600000Y-66900000D02*
X181600000Y-65100000D01*
X181600000Y-66900000D02*
X182400000Y-66900000D01*
X182400000Y-65100000D02*
X182400000Y-66900000D01*
%TO.C,L2*%
X118630000Y-64920000D02*
X122130000Y-64920000D01*
X118630000Y-66620000D02*
X118630000Y-64920000D01*
X122130000Y-64920000D02*
X122130000Y-66620000D01*
X122130000Y-66620000D02*
X118630000Y-66620000D01*
%TO.C,H3*%
X207250000Y-110000000D02*
G75*
G02*
X200750000Y-110000000I-3250000J0D01*
G01*
X200750000Y-110000000D02*
G75*
G02*
X207250000Y-110000000I3250000J0D01*
G01*
%TO.C,R24*%
X136390000Y-61520000D02*
X138990000Y-61520000D01*
X136390000Y-62720000D02*
X136390000Y-61520000D01*
X138990000Y-61520000D02*
X138990000Y-62720000D01*
X138990000Y-62720000D02*
X136390000Y-62720000D01*
%TO.C,C21*%
X126940000Y-66620000D02*
X129740000Y-66620000D01*
X126940000Y-67820000D02*
X126940000Y-66620000D01*
X129740000Y-66620000D02*
X129740000Y-67820000D01*
X129740000Y-67820000D02*
X126940000Y-67820000D01*
%TO.C,R10*%
X174775000Y-60825000D02*
X177375000Y-60825000D01*
X174775000Y-62025000D02*
X174775000Y-60825000D01*
X177375000Y-60825000D02*
X177375000Y-62025000D01*
X177375000Y-62025000D02*
X174775000Y-62025000D01*
%TO.C,Q2*%
X123630000Y-57930000D02*
X123630000Y-60930000D01*
X123630000Y-60930000D02*
X125130000Y-60930000D01*
X125130000Y-57930000D02*
X123630000Y-57930000D01*
X125130000Y-60930000D02*
X125130000Y-57930000D01*
%TO.C,TP3*%
X118000000Y-51500000D02*
G75*
G02*
X115000000Y-51500000I-1500000J0D01*
G01*
X115000000Y-51500000D02*
G75*
G02*
X118000000Y-51500000I1500000J0D01*
G01*
%TO.C,R6*%
X118850000Y-93080000D02*
X121450000Y-93080000D01*
X118850000Y-94280000D02*
X118850000Y-93080000D01*
X121450000Y-93080000D02*
X121450000Y-94280000D01*
X121450000Y-94280000D02*
X118850000Y-94280000D01*
%TO.C,R21*%
X136390000Y-58120000D02*
X138990000Y-58120000D01*
X136390000Y-59320000D02*
X136390000Y-58120000D01*
X138990000Y-58120000D02*
X138990000Y-59320000D01*
X138990000Y-59320000D02*
X136390000Y-59320000D01*
%TO.C,C20*%
X132180000Y-64920000D02*
X134980000Y-64920000D01*
X132180000Y-66120000D02*
X132180000Y-64920000D01*
X134980000Y-64920000D02*
X134980000Y-66120000D01*
X134980000Y-66120000D02*
X132180000Y-66120000D01*
%TO.C,R23*%
X136390000Y-63220000D02*
X138990000Y-63220000D01*
X136390000Y-64420000D02*
X136390000Y-63220000D01*
X138990000Y-63220000D02*
X138990000Y-64420000D01*
X138990000Y-64420000D02*
X136390000Y-64420000D01*
%TO.C,C6*%
X146600000Y-73650000D02*
X146600000Y-71850000D01*
X147400000Y-71850000D02*
X146600000Y-71850000D01*
X147400000Y-71850000D02*
X147400000Y-73650000D01*
X147400000Y-73650000D02*
X146600000Y-73650000D01*
%TO.C,H4*%
X123250000Y-110000000D02*
G75*
G02*
X116750000Y-110000000I-3250000J0D01*
G01*
X116750000Y-110000000D02*
G75*
G02*
X123250000Y-110000000I3250000J0D01*
G01*
%TO.C,R2*%
X157020000Y-57900000D02*
X159620000Y-57900000D01*
X157020000Y-59100000D02*
X157020000Y-57900000D01*
X159620000Y-57900000D02*
X159620000Y-59100000D01*
X159620000Y-59100000D02*
X157020000Y-59100000D01*
%TO.C,C13*%
X143660000Y-63220000D02*
X146460000Y-63220000D01*
X143660000Y-64420000D02*
X143660000Y-63220000D01*
X146460000Y-63220000D02*
X146460000Y-64420000D01*
X146460000Y-64420000D02*
X143660000Y-64420000D01*
%TO.C,R1*%
X161380000Y-57900000D02*
X163980000Y-57900000D01*
X161380000Y-59100000D02*
X161380000Y-57900000D01*
X163980000Y-57900000D02*
X163980000Y-59100000D01*
X163980000Y-59100000D02*
X161380000Y-59100000D01*
%TO.C,D2*%
X145270000Y-50270000D02*
X146730000Y-50270000D01*
X145270000Y-53230000D02*
X145270000Y-50270000D01*
X146730000Y-50270000D02*
X146730000Y-53230000D01*
X146730000Y-53230000D02*
X145270000Y-53230000D01*
%TO.C,R14*%
X127080000Y-63220000D02*
X129680000Y-63220000D01*
X127080000Y-64420000D02*
X127080000Y-63220000D01*
X129680000Y-63220000D02*
X129680000Y-64420000D01*
X129680000Y-64420000D02*
X127080000Y-64420000D01*
%TD*%
M02*
