%TF.GenerationSoftware,KiCad,Pcbnew,9.0.4*%
%TF.CreationDate,2025-10-09T22:00:13+02:00*%
%TF.ProjectId,Spikeling_v3.0,5370696b-656c-4696-9e67-5f76332e302e,rev?*%
%TF.SameCoordinates,Original*%
%TF.FileFunction,Soldermask,Top*%
%TF.FilePolarity,Negative*%
%FSLAX46Y46*%
G04 Gerber Fmt 4.6, Leading zero omitted, Abs format (unit mm)*
G04 Created by KiCad (PCBNEW 9.0.4) date 2025-10-09 22:00:13*
%MOMM*%
%LPD*%
G01*
G04 APERTURE LIST*
G04 Aperture macros list*
%AMRoundRect*
0 Rectangle with rounded corners*
0 $1 Rounding radius*
0 $2 $3 $4 $5 $6 $7 $8 $9 X,Y pos of 4 corners*
0 Add a 4 corners polygon primitive as box body*
4,1,4,$2,$3,$4,$5,$6,$7,$8,$9,$2,$3,0*
0 Add four circle primitives for the rounded corners*
1,1,$1+$1,$2,$3*
1,1,$1+$1,$4,$5*
1,1,$1+$1,$6,$7*
1,1,$1+$1,$8,$9*
0 Add four rect primitives between the rounded corners*
20,1,$1+$1,$2,$3,$4,$5,0*
20,1,$1+$1,$4,$5,$6,$7,0*
20,1,$1+$1,$6,$7,$8,$9,0*
20,1,$1+$1,$8,$9,$2,$3,0*%
%AMFreePoly0*
4,1,21,-0.180000,0.885000,0.180000,0.885000,0.180000,1.715000,0.470000,1.715000,0.470000,0.885000,0.760000,0.885000,0.760000,-0.885000,0.470000,-0.885000,0.470000,-1.705000,0.180000,-1.705000,0.180000,-0.885000,-0.180000,-0.885000,-0.180000,-1.705000,-0.470000,-1.705000,-0.470000,-0.885000,-0.760000,-0.885000,-0.760000,0.895000,-0.470000,0.895000,-0.470000,1.715000,-0.180000,1.715000,
-0.180000,0.885000,-0.180000,0.885000,$1*%
G04 Aperture macros list end*
%ADD10C,1.700000*%
%ADD11O,2.500000X3.000000*%
%ADD12RoundRect,0.219000X-0.219000X-0.294000X0.219000X-0.294000X0.219000X0.294000X-0.219000X0.294000X0*%
%ADD13RoundRect,0.219000X0.294000X-0.219000X0.294000X0.219000X-0.294000X0.219000X-0.294000X-0.219000X0*%
%ADD14RoundRect,0.244000X-0.244000X-0.269000X0.244000X-0.269000X0.244000X0.269000X-0.244000X0.269000X0*%
%ADD15O,1.971000X0.602000*%
%ADD16RoundRect,0.219000X-0.294000X0.219000X-0.294000X-0.219000X0.294000X-0.219000X0.294000X0.219000X0*%
%ADD17R,1.500000X3.000000*%
%ADD18RoundRect,0.244000X0.244000X0.269000X-0.244000X0.269000X-0.244000X-0.269000X0.244000X-0.269000X0*%
%ADD19C,2.000000*%
%ADD20RoundRect,0.219000X0.219000X0.294000X-0.219000X0.294000X-0.219000X-0.294000X0.219000X-0.294000X0*%
%ADD21RoundRect,0.267273X0.320727X0.570727X-0.320727X0.570727X-0.320727X-0.570727X0.320727X-0.570727X0*%
%ADD22R,3.000000X1.500000*%
%ADD23R,1.100000X0.600000*%
%ADD24R,1.500000X0.900000*%
%ADD25R,0.900000X1.500000*%
%ADD26R,0.900000X0.900000*%
%ADD27RoundRect,0.250000X-1.000000X-0.300000X1.000000X-0.300000X1.000000X0.300000X-1.000000X0.300000X0*%
%ADD28C,0.500000*%
%ADD29RoundRect,0.250000X-0.920000X-1.550000X0.920000X-1.550000X0.920000X1.550000X-0.920000X1.550000X0*%
%ADD30R,1.300000X0.800000*%
%ADD31RoundRect,0.159000X-0.159000X-0.189000X0.159000X-0.189000X0.159000X0.189000X-0.159000X0.189000X0*%
%ADD32C,1.524000*%
%ADD33R,1.500000X4.000000*%
%ADD34R,1.500000X1.000000*%
%ADD35R,0.840000X0.280000*%
%ADD36R,0.750000X0.280000*%
%ADD37C,3.000000*%
%ADD38O,1.450000X0.380000*%
%ADD39RoundRect,0.287778X-0.714222X0.489222X-0.714222X-0.489222X0.714222X-0.489222X0.714222X0.489222X0*%
%ADD40RoundRect,0.159000X0.159000X0.189000X-0.159000X0.189000X-0.159000X-0.189000X0.159000X-0.189000X0*%
%ADD41R,1.406500X3.499000*%
%ADD42RoundRect,0.244000X-0.269000X0.244000X-0.269000X-0.244000X0.269000X-0.244000X0.269000X0.244000X0*%
%ADD43C,0.600000*%
%ADD44R,0.300000X1.400000*%
%ADD45R,0.500000X1.400000*%
%ADD46O,1.300000X2.300000*%
%ADD47O,1.300000X2.100000*%
%ADD48RoundRect,0.500000X2.000000X1.000000X-2.000000X1.000000X-2.000000X-1.000000X2.000000X-1.000000X0*%
%ADD49RoundRect,0.159000X0.189000X-0.159000X0.189000X0.159000X-0.189000X0.159000X-0.189000X-0.159000X0*%
%ADD50RoundRect,0.239000X-0.274000X0.239000X-0.274000X-0.239000X0.274000X-0.239000X0.274000X0.239000X0*%
%ADD51R,1.199000X1.199000*%
%ADD52R,1.200000X1.800000*%
%ADD53R,0.850000X0.350000*%
%ADD54RoundRect,0.220000X-0.220000X-0.380000X0.220000X-0.380000X0.220000X0.380000X-0.220000X0.380000X0*%
%ADD55R,1.132500X1.377000*%
%ADD56RoundRect,0.175000X-0.450000X-0.175000X0.450000X-0.175000X0.450000X0.175000X-0.450000X0.175000X0*%
%ADD57R,0.850000X0.240000*%
%ADD58R,0.800000X0.230000*%
%ADD59FreePoly0,0.000000*%
%ADD60RoundRect,0.159000X-0.189000X0.159000X-0.189000X-0.159000X0.189000X-0.159000X0.189000X0.159000X0*%
%ADD61RoundRect,0.250000X0.600000X0.750000X-0.600000X0.750000X-0.600000X-0.750000X0.600000X-0.750000X0*%
%ADD62O,1.700000X2.000000*%
%ADD63R,1.800000X1.800000*%
%ADD64C,1.800000*%
G04 APERTURE END LIST*
%TO.C,JP1*%
G36*
X148240000Y-59000000D02*
G01*
X146740000Y-59000000D01*
X146740000Y-59300000D01*
X148240000Y-59300000D01*
X148240000Y-59000000D01*
G37*
%TD*%
D10*
%TO.C,VR2*%
X156620000Y-117000000D03*
X154120000Y-117000000D03*
X151620000Y-117000000D03*
D11*
X149720000Y-124000000D03*
X158520000Y-124000000D03*
%TD*%
D12*
%TO.C,R13*%
X144150000Y-65240000D03*
X145790000Y-65240000D03*
%TD*%
D13*
%TO.C,R18*%
X148990000Y-55660000D03*
X148990000Y-54020000D03*
%TD*%
D14*
%TO.C,C2*%
X132260000Y-87260000D03*
X133820000Y-87260000D03*
%TD*%
D15*
%TO.C,U3*%
X132264500Y-75555000D03*
X132264500Y-76825000D03*
X132264500Y-78095000D03*
X132264500Y-79365000D03*
X132264500Y-80635000D03*
X132264500Y-81905000D03*
X132264500Y-83175000D03*
X132264500Y-84445000D03*
X137735500Y-84445000D03*
X137735500Y-83175000D03*
X137735500Y-81905000D03*
X137735500Y-80635000D03*
X137735500Y-79365000D03*
X137735500Y-78095000D03*
X137735500Y-76825000D03*
X137735500Y-75555000D03*
%TD*%
D16*
%TO.C,R9*%
X210025000Y-68005000D03*
X210025000Y-69645000D03*
%TD*%
D17*
%TO.C,J4*%
X102000000Y-88000000D03*
X104000000Y-80000000D03*
X109000000Y-88000000D03*
%TD*%
D18*
%TO.C,C3*%
X120935000Y-90280000D03*
X119375000Y-90280000D03*
%TD*%
D19*
%TO.C,TP2*%
X110000000Y-51500000D03*
%TD*%
D20*
%TO.C,R25*%
X121200000Y-63820000D03*
X119560000Y-63820000D03*
%TD*%
D14*
%TO.C,C25*%
X127540000Y-68840000D03*
X129100000Y-68840000D03*
%TD*%
%TO.C,C23*%
X127540000Y-70540000D03*
X129100000Y-70540000D03*
%TD*%
D21*
%TO.C,D1*%
X144400000Y-58500000D03*
X141600000Y-58500000D03*
%TD*%
D14*
%TO.C,C17*%
X127540000Y-72240000D03*
X129100000Y-72240000D03*
%TD*%
D22*
%TO.C,J5*%
X218000000Y-128000000D03*
X210000000Y-126000000D03*
X218000000Y-121000000D03*
%TD*%
D20*
%TO.C,R28*%
X121200000Y-62120000D03*
X119560000Y-62120000D03*
%TD*%
%TO.C,R7*%
X134795000Y-120325000D03*
X133155000Y-120325000D03*
%TD*%
D23*
%TO.C,U6*%
X141680000Y-60570000D03*
X141680000Y-61520000D03*
X141680000Y-62470000D03*
X144280000Y-62470000D03*
X144280000Y-60570000D03*
%TD*%
D12*
%TO.C,R15*%
X136870000Y-65520000D03*
X138510000Y-65520000D03*
%TD*%
D13*
%TO.C,R8*%
X218000000Y-119045000D03*
X218000000Y-117405000D03*
%TD*%
D24*
%TO.C,U1*%
X168850000Y-85310000D03*
X168850000Y-84040000D03*
X168850000Y-82770000D03*
X168850000Y-81500000D03*
X168850000Y-80230000D03*
X168850000Y-78960000D03*
X168850000Y-77690000D03*
X168850000Y-76420000D03*
X168850000Y-75150000D03*
X168850000Y-73880000D03*
X168850000Y-72610000D03*
X168850000Y-71340000D03*
X168850000Y-70070000D03*
X168850000Y-68800000D03*
D25*
X166935000Y-67401000D03*
X165665000Y-67401000D03*
X164395000Y-67401000D03*
X163125000Y-67401000D03*
X161855000Y-67401000D03*
X160585000Y-67401000D03*
X159315000Y-67401000D03*
X158045000Y-67401000D03*
X156775000Y-67401000D03*
X155505000Y-67401000D03*
X154235000Y-67401000D03*
X152965000Y-67401000D03*
D24*
X151050000Y-68800000D03*
X151050000Y-70070000D03*
X151050000Y-71340000D03*
X151050000Y-72610000D03*
X151050000Y-73880000D03*
X151050000Y-75150000D03*
X151050000Y-76420000D03*
X151050000Y-77690000D03*
X151050000Y-78960000D03*
X151050000Y-80230000D03*
X151050000Y-81500000D03*
X151050000Y-82770000D03*
X151050000Y-84040000D03*
X151050000Y-85310000D03*
D26*
X162849500Y-78990500D03*
X162849500Y-77590500D03*
X162849500Y-76190500D03*
X161449500Y-78990500D03*
X161449500Y-77590500D03*
X161449500Y-76190500D03*
X160049500Y-78990500D03*
X160049500Y-77590500D03*
X160049500Y-76190500D03*
%TD*%
D27*
%TO.C,U2*%
X129885000Y-91870000D03*
X129885000Y-89570000D03*
X129885000Y-87270000D03*
D28*
X123915000Y-88570000D03*
X123915000Y-89570000D03*
D29*
X123915000Y-89570000D03*
D28*
X123915000Y-90570000D03*
%TD*%
D10*
%TO.C,VR1*%
X121050000Y-117000000D03*
X118550000Y-117000000D03*
X116050000Y-117000000D03*
D11*
X114150000Y-124000000D03*
X122950000Y-124000000D03*
%TD*%
D20*
%TO.C,R19*%
X138510000Y-68920000D03*
X136870000Y-68920000D03*
%TD*%
D30*
%TO.C,D4*%
X169300000Y-61425000D03*
X169300000Y-59925000D03*
X172300000Y-59925000D03*
X172300000Y-61425000D03*
%TD*%
D31*
%TO.C,C5*%
X170525000Y-82720000D03*
X171525000Y-82720000D03*
%TD*%
D20*
%TO.C,R16*%
X129200000Y-62120000D03*
X127560000Y-62120000D03*
%TD*%
D18*
%TO.C,C14*%
X141680000Y-63820000D03*
X140120000Y-63820000D03*
%TD*%
D32*
%TO.C,SW5*%
X125000000Y-52885034D03*
X127500000Y-52885034D03*
X130000000Y-52885034D03*
%TD*%
D10*
%TO.C,VR5*%
X215500000Y-101600000D03*
X213000000Y-101600000D03*
X210500000Y-101600000D03*
D11*
X208600000Y-108600000D03*
X217400000Y-108600000D03*
%TD*%
D33*
%TO.C,B1*%
X184925000Y-65500000D03*
X196425000Y-65500000D03*
%TD*%
D34*
%TO.C,JP1*%
X147490000Y-58500000D03*
X147490000Y-59800000D03*
%TD*%
D23*
%TO.C,Q1*%
X132150000Y-60414000D03*
X132150000Y-61364000D03*
X132150000Y-62314000D03*
X134850000Y-62314000D03*
X134850000Y-61364000D03*
X134850000Y-60414000D03*
%TD*%
D35*
%TO.C,U7*%
X133149000Y-67420000D03*
D36*
X133094000Y-67920000D03*
X133094000Y-68420000D03*
X134366000Y-68420000D03*
X134366000Y-67920000D03*
X134366000Y-67420000D03*
%TD*%
D37*
%TO.C,H2*%
X204000000Y-55000000D03*
%TD*%
D12*
%TO.C,R12*%
X197255000Y-58500000D03*
X198895000Y-58500000D03*
%TD*%
D13*
%TO.C,R5*%
X147000000Y-70790000D03*
X147000000Y-69150000D03*
%TD*%
D38*
%TO.C,U5*%
X131750000Y-123050000D03*
X131750000Y-123700000D03*
X131750000Y-124350000D03*
X131750000Y-125000000D03*
X136150000Y-125000000D03*
X136150000Y-124350000D03*
X136150000Y-123700000D03*
X136150000Y-123050000D03*
%TD*%
D14*
%TO.C,C19*%
X166160000Y-51370000D03*
X167720000Y-51370000D03*
%TD*%
D39*
%TO.C,SW1*%
X144225000Y-69150000D03*
X144225000Y-73300000D03*
%TD*%
D31*
%TO.C,C7*%
X139500000Y-75550000D03*
X140500000Y-75550000D03*
%TD*%
D18*
%TO.C,C16*%
X121160000Y-60420000D03*
X119600000Y-60420000D03*
%TD*%
D14*
%TO.C,C18*%
X136870000Y-70620000D03*
X138430000Y-70620000D03*
%TD*%
D40*
%TO.C,C8*%
X190550000Y-75550000D03*
X189550000Y-75550000D03*
%TD*%
D37*
%TO.C,H1*%
X120000000Y-55000000D03*
%TD*%
D12*
%TO.C,R17*%
X127560000Y-60420000D03*
X129200000Y-60420000D03*
%TD*%
D41*
%TO.C,U9*%
X153853500Y-58500000D03*
X150146500Y-58500000D03*
%TD*%
D13*
%TO.C,R3*%
X146000000Y-55660000D03*
X146000000Y-54020000D03*
%TD*%
D17*
%TO.C,J6*%
X218000000Y-60000000D03*
X216000000Y-68000000D03*
X211000000Y-60000000D03*
%TD*%
%TO.C,J3*%
X102000000Y-60100000D03*
X104000000Y-52100000D03*
X109000000Y-60100000D03*
%TD*%
D42*
%TO.C,C11*%
X212500000Y-68000000D03*
X212500000Y-69560000D03*
%TD*%
D43*
%TO.C,J1*%
X162890000Y-55050000D03*
X157110000Y-55050000D03*
D44*
X161250000Y-56250000D03*
X160250000Y-56250000D03*
X159750000Y-56250000D03*
X158750000Y-56250000D03*
D45*
X157600000Y-56250000D03*
X156800000Y-56250000D03*
D44*
X158250000Y-56250000D03*
X159250000Y-56250000D03*
X160750000Y-56250000D03*
X161750000Y-56250000D03*
D45*
X162400000Y-56250000D03*
X163200000Y-56250000D03*
D46*
X164330000Y-55570000D03*
D47*
X164330000Y-51370000D03*
D28*
X162000000Y-52750000D03*
X162000000Y-50750000D03*
D48*
X160000000Y-51750000D03*
D28*
X158000000Y-52750000D03*
X158000000Y-50750000D03*
D46*
X155670000Y-55570000D03*
D47*
X155670000Y-51370000D03*
%TD*%
D19*
%TO.C,TP1*%
X113250000Y-51500000D03*
%TD*%
D10*
%TO.C,SW3*%
X182250000Y-52750000D03*
X177750000Y-52750000D03*
D19*
X176400000Y-55250000D03*
X183600000Y-55250000D03*
%TD*%
D14*
%TO.C,C22*%
X127560000Y-65520000D03*
X129120000Y-65520000D03*
%TD*%
D31*
%TO.C,C10*%
X133475000Y-118725000D03*
X134475000Y-118725000D03*
%TD*%
D10*
%TO.C,SW2*%
X142250000Y-52750000D03*
X137750000Y-52750000D03*
D19*
X136400000Y-55250000D03*
X143600000Y-55250000D03*
%TD*%
D12*
%TO.C,R20*%
X166160000Y-52680000D03*
X167800000Y-52680000D03*
%TD*%
D49*
%TO.C,C9*%
X138010000Y-122460000D03*
X138010000Y-121460000D03*
%TD*%
D20*
%TO.C,R22*%
X138510000Y-60420000D03*
X136870000Y-60420000D03*
%TD*%
D12*
%TO.C,R21*%
X136870000Y-67220000D03*
X138510000Y-67220000D03*
%TD*%
D50*
%TO.C,D7*%
X149000000Y-50960000D03*
X149000000Y-52540000D03*
%TD*%
D20*
%TO.C,R15*%
X134360000Y-63820000D03*
X132720000Y-63820000D03*
%TD*%
D12*
%TO.C,R11*%
X182255000Y-58500000D03*
X183895000Y-58500000D03*
%TD*%
D51*
%TO.C,D3*%
X138300000Y-124025000D03*
D52*
X144400000Y-124025000D03*
%TD*%
D18*
%TO.C,C4*%
X120930000Y-91960000D03*
X119370000Y-91960000D03*
%TD*%
D20*
%TO.C,R26*%
X129200000Y-58720000D03*
X127560000Y-58720000D03*
%TD*%
D18*
%TO.C,C1*%
X120935000Y-88580000D03*
X119375000Y-88580000D03*
%TD*%
D53*
%TO.C,U10*%
X150150000Y-61350000D03*
X150150000Y-62000000D03*
X150150000Y-62650000D03*
X152350000Y-62650000D03*
X152350000Y-62000000D03*
X152350000Y-61350000D03*
%TD*%
D20*
%TO.C,R4*%
X173320000Y-52750000D03*
X171680000Y-52750000D03*
%TD*%
D49*
%TO.C,C12*%
X182000000Y-66500000D03*
X182000000Y-65500000D03*
%TD*%
D54*
%TO.C,L2*%
X119320000Y-65770000D03*
X121440000Y-65770000D03*
%TD*%
D37*
%TO.C,H3*%
X204000000Y-110000000D03*
%TD*%
D12*
%TO.C,R24*%
X136870000Y-62120000D03*
X138510000Y-62120000D03*
%TD*%
D10*
%TO.C,VR6*%
X109500000Y-63400000D03*
X107000000Y-63400000D03*
X104500000Y-63400000D03*
D11*
X102600000Y-70400000D03*
X111400000Y-70400000D03*
%TD*%
D10*
%TO.C,VR4*%
X215500000Y-75972000D03*
X213000000Y-75972000D03*
X210500000Y-75972000D03*
D11*
X208600000Y-82972000D03*
X217400000Y-82972000D03*
%TD*%
D55*
%TO.C,L1*%
X152066000Y-64630000D03*
X150134000Y-64630000D03*
%TD*%
D15*
%TO.C,U4*%
X182264500Y-75555000D03*
X182264500Y-76825000D03*
X182264500Y-78095000D03*
X182264500Y-79365000D03*
X182264500Y-80635000D03*
X182264500Y-81905000D03*
X182264500Y-83175000D03*
X182264500Y-84445000D03*
X187735500Y-84445000D03*
X187735500Y-83175000D03*
X187735500Y-81905000D03*
X187735500Y-80635000D03*
X187735500Y-79365000D03*
X187735500Y-78095000D03*
X187735500Y-76825000D03*
X187735500Y-75555000D03*
%TD*%
D10*
%TO.C,VR3*%
X179000000Y-117000000D03*
X176500000Y-117000000D03*
X174000000Y-117000000D03*
D11*
X172100000Y-124000000D03*
X180900000Y-124000000D03*
%TD*%
D14*
%TO.C,C21*%
X127560000Y-67220000D03*
X129120000Y-67220000D03*
%TD*%
D12*
%TO.C,R10*%
X175255000Y-61425000D03*
X176895000Y-61425000D03*
%TD*%
D56*
%TO.C,Q2*%
X125380000Y-60380000D03*
X125380000Y-58480000D03*
X123380000Y-59430000D03*
%TD*%
D19*
%TO.C,TP3*%
X116500000Y-51500000D03*
%TD*%
D10*
%TO.C,SW4*%
X197250000Y-52750000D03*
X192750000Y-52750000D03*
D19*
X191400000Y-55250000D03*
X198600000Y-55250000D03*
%TD*%
D12*
%TO.C,R6*%
X119330000Y-93680000D03*
X120970000Y-93680000D03*
%TD*%
D20*
%TO.C,R21*%
X138510000Y-58720000D03*
X136870000Y-58720000D03*
%TD*%
D18*
%TO.C,C20*%
X134360000Y-65520000D03*
X132800000Y-65520000D03*
%TD*%
D57*
%TO.C,U8*%
X122880000Y-63121000D03*
X122880000Y-63621000D03*
X122880000Y-64121000D03*
X122880000Y-64621000D03*
X122880000Y-65121000D03*
D58*
X125880000Y-65121000D03*
X125880000Y-64621000D03*
X125880000Y-64121000D03*
X125880000Y-63621000D03*
X125880000Y-63121000D03*
D59*
X124380000Y-64126000D03*
%TD*%
D10*
%TO.C,VR7*%
X109500000Y-91400000D03*
X107000000Y-91400000D03*
X104500000Y-91400000D03*
D11*
X102600000Y-98400000D03*
X111400000Y-98400000D03*
%TD*%
D20*
%TO.C,R23*%
X138510000Y-63820000D03*
X136870000Y-63820000D03*
%TD*%
D60*
%TO.C,C6*%
X147000000Y-72250000D03*
X147000000Y-73250000D03*
%TD*%
D37*
%TO.C,H4*%
X120000000Y-110000000D03*
%TD*%
D12*
%TO.C,R2*%
X157500000Y-58500000D03*
X159140000Y-58500000D03*
%TD*%
D22*
%TO.C,J2*%
X110000000Y-128000000D03*
X102000000Y-126000000D03*
X110000000Y-121000000D03*
%TD*%
D14*
%TO.C,C13*%
X144280000Y-63820000D03*
X145840000Y-63820000D03*
%TD*%
D20*
%TO.C,R1*%
X163500000Y-58500000D03*
X161860000Y-58500000D03*
%TD*%
D50*
%TO.C,D2*%
X146000000Y-50960000D03*
X146000000Y-52540000D03*
%TD*%
D53*
%TO.C,U12*%
X122870000Y-69590000D03*
X122870000Y-70240000D03*
X122870000Y-70890000D03*
X125070000Y-70890000D03*
X125070000Y-70240000D03*
X125070000Y-69590000D03*
%TD*%
D12*
%TO.C,R14*%
X127560000Y-63820000D03*
X129200000Y-63820000D03*
%TD*%
D23*
%TO.C,TV1*%
X159160000Y-61050000D03*
X159160000Y-62000000D03*
X159160000Y-62950000D03*
X161860000Y-62950000D03*
X161860000Y-62000000D03*
X161860000Y-61050000D03*
%TD*%
D61*
%TO.C,BT1*%
X128675000Y-56300000D03*
D62*
X126175000Y-56300000D03*
%TD*%
D63*
%TO.C,D5*%
X217234000Y-115350000D03*
D64*
X215075000Y-115350000D03*
X212916000Y-115350000D03*
X210757000Y-115350000D03*
%TD*%
M02*
