%TF.GenerationSoftware,KiCad,Pcbnew,9.0.4*%
%TF.CreationDate,2025-10-09T22:00:13+02:00*%
%TF.ProjectId,Spikeling_v3.0,5370696b-656c-4696-9e67-5f76332e302e,rev?*%
%TF.SameCoordinates,Original*%
%TF.FileFunction,Other,User*%
%FSLAX46Y46*%
G04 Gerber Fmt 4.6, Leading zero omitted, Abs format (unit mm)*
G04 Created by KiCad (PCBNEW 9.0.4) date 2025-10-09 22:00:13*
%MOMM*%
%LPD*%
G01*
G04 APERTURE LIST*
%ADD10C,0.000000*%
G04 APERTURE END LIST*
D10*
%TO.C,VR2*%
G36*
X159825433Y-116127039D02*
G01*
X159825433Y-116172961D01*
X159792961Y-116205433D01*
X159747039Y-116205433D01*
X159714567Y-116172961D01*
X159714567Y-116127039D01*
X159747039Y-116094567D01*
X159792961Y-116094567D01*
X159825433Y-116127039D01*
G37*
%TO.C,U3*%
G36*
X132055433Y-75027039D02*
G01*
X132055433Y-75072961D01*
X132022961Y-75105433D01*
X131977039Y-75105433D01*
X131944567Y-75072961D01*
X131944567Y-75027039D01*
X131977039Y-74994567D01*
X132022961Y-74994567D01*
X132055433Y-75027039D01*
G37*
%TO.C,J4*%
G36*
X96955433Y-88477039D02*
G01*
X96955433Y-88522961D01*
X96922961Y-88555433D01*
X96877039Y-88555433D01*
X96844567Y-88522961D01*
X96844567Y-88477039D01*
X96877039Y-88444567D01*
X96922961Y-88444567D01*
X96955433Y-88477039D01*
G37*
%TO.C,J5*%
G36*
X218555433Y-133077039D02*
G01*
X218555433Y-133122961D01*
X218522961Y-133155433D01*
X218477039Y-133155433D01*
X218444567Y-133122961D01*
X218444567Y-133077039D01*
X218477039Y-133044567D01*
X218522961Y-133044567D01*
X218555433Y-133077039D01*
G37*
%TO.C,U6*%
G36*
X141635433Y-60047039D02*
G01*
X141635433Y-60092961D01*
X141602961Y-60125433D01*
X141557039Y-60125433D01*
X141524567Y-60092961D01*
X141524567Y-60047039D01*
X141557039Y-60014567D01*
X141602961Y-60014567D01*
X141635433Y-60047039D01*
G37*
%TO.C,U1*%
G36*
X169005433Y-92778039D02*
G01*
X169005433Y-92823961D01*
X168972961Y-92856433D01*
X168927039Y-92856433D01*
X168894567Y-92823961D01*
X168894567Y-92778039D01*
X168927039Y-92745567D01*
X168972961Y-92745567D01*
X169005433Y-92778039D01*
G37*
%TO.C,VR1*%
G36*
X124255433Y-116127039D02*
G01*
X124255433Y-116172961D01*
X124222961Y-116205433D01*
X124177039Y-116205433D01*
X124144567Y-116172961D01*
X124144567Y-116127039D01*
X124177039Y-116094567D01*
X124222961Y-116094567D01*
X124255433Y-116127039D01*
G37*
%TO.C,D4*%
G36*
X169105433Y-62052039D02*
G01*
X169105433Y-62097961D01*
X169072961Y-62130433D01*
X169027039Y-62130433D01*
X168994567Y-62097961D01*
X168994567Y-62052039D01*
X169027039Y-62019567D01*
X169072961Y-62019567D01*
X169105433Y-62052039D01*
G37*
%TO.C,SW5*%
G36*
X123178433Y-53889073D02*
G01*
X123178433Y-53934995D01*
X123145961Y-53967467D01*
X123100039Y-53967467D01*
X123067567Y-53934995D01*
X123067567Y-53889073D01*
X123100039Y-53856601D01*
X123145961Y-53856601D01*
X123178433Y-53889073D01*
G37*
%TO.C,VR5*%
G36*
X218705433Y-100727039D02*
G01*
X218705433Y-100772961D01*
X218672961Y-100805433D01*
X218627039Y-100805433D01*
X218594567Y-100772961D01*
X218594567Y-100727039D01*
X218627039Y-100694567D01*
X218672961Y-100694567D01*
X218705433Y-100727039D01*
G37*
%TO.C,Q1*%
G36*
X132155433Y-59891039D02*
G01*
X132155433Y-59936961D01*
X132122961Y-59969433D01*
X132077039Y-59969433D01*
X132044567Y-59936961D01*
X132044567Y-59891039D01*
X132077039Y-59858567D01*
X132122961Y-59858567D01*
X132155433Y-59891039D01*
G37*
%TO.C,U7*%
G36*
X133024433Y-67147039D02*
G01*
X133024433Y-67192961D01*
X132991961Y-67225433D01*
X132946039Y-67225433D01*
X132913567Y-67192961D01*
X132913567Y-67147039D01*
X132946039Y-67114567D01*
X132991961Y-67114567D01*
X133024433Y-67147039D01*
G37*
%TO.C,U5*%
G36*
X131555433Y-122502039D02*
G01*
X131555433Y-122547961D01*
X131522961Y-122580433D01*
X131477039Y-122580433D01*
X131444567Y-122547961D01*
X131444567Y-122502039D01*
X131477039Y-122469567D01*
X131522961Y-122469567D01*
X131555433Y-122502039D01*
G37*
%TO.C,U9*%
G36*
X154330433Y-56857039D02*
G01*
X154330433Y-56902961D01*
X154297961Y-56935433D01*
X154252039Y-56935433D01*
X154219567Y-56902961D01*
X154219567Y-56857039D01*
X154252039Y-56824567D01*
X154297961Y-56824567D01*
X154330433Y-56857039D01*
G37*
%TO.C,J6*%
G36*
X223155433Y-59477039D02*
G01*
X223155433Y-59522961D01*
X223122961Y-59555433D01*
X223077039Y-59555433D01*
X223044567Y-59522961D01*
X223044567Y-59477039D01*
X223077039Y-59444567D01*
X223122961Y-59444567D01*
X223155433Y-59477039D01*
G37*
%TO.C,J3*%
G36*
X96955433Y-60577039D02*
G01*
X96955433Y-60622961D01*
X96922961Y-60655433D01*
X96877039Y-60655433D01*
X96844567Y-60622961D01*
X96844567Y-60577039D01*
X96877039Y-60544567D01*
X96922961Y-60544567D01*
X96955433Y-60577039D01*
G37*
%TO.C,SW3*%
G36*
X183705433Y-50227039D02*
G01*
X183705433Y-50272961D01*
X183672961Y-50305433D01*
X183627039Y-50305433D01*
X183594567Y-50272961D01*
X183594567Y-50227039D01*
X183627039Y-50194567D01*
X183672961Y-50194567D01*
X183705433Y-50227039D01*
G37*
%TO.C,SW2*%
G36*
X143705433Y-50227039D02*
G01*
X143705433Y-50272961D01*
X143672961Y-50305433D01*
X143627039Y-50305433D01*
X143594567Y-50272961D01*
X143594567Y-50227039D01*
X143627039Y-50194567D01*
X143672961Y-50194567D01*
X143705433Y-50227039D01*
G37*
%TO.C,D3*%
G36*
X138205433Y-125927039D02*
G01*
X138205433Y-125972961D01*
X138172961Y-126005433D01*
X138127039Y-126005433D01*
X138094567Y-125972961D01*
X138094567Y-125927039D01*
X138127039Y-125894567D01*
X138172961Y-125894567D01*
X138205433Y-125927039D01*
G37*
%TO.C,U10*%
G36*
X150255433Y-60977039D02*
G01*
X150255433Y-61022961D01*
X150222961Y-61055433D01*
X150177039Y-61055433D01*
X150144567Y-61022961D01*
X150144567Y-60977039D01*
X150177039Y-60944567D01*
X150222961Y-60944567D01*
X150255433Y-60977039D01*
G37*
%TO.C,VR6*%
G36*
X112705433Y-62527039D02*
G01*
X112705433Y-62572961D01*
X112672961Y-62605433D01*
X112627039Y-62605433D01*
X112594567Y-62572961D01*
X112594567Y-62527039D01*
X112627039Y-62494567D01*
X112672961Y-62494567D01*
X112705433Y-62527039D01*
G37*
%TO.C,VR4*%
G36*
X218705433Y-75099039D02*
G01*
X218705433Y-75144961D01*
X218672961Y-75177433D01*
X218627039Y-75177433D01*
X218594567Y-75144961D01*
X218594567Y-75099039D01*
X218627039Y-75066567D01*
X218672961Y-75066567D01*
X218705433Y-75099039D01*
G37*
%TO.C,L1*%
G36*
X152155433Y-63969539D02*
G01*
X152155433Y-64015461D01*
X152122961Y-64047933D01*
X152077039Y-64047933D01*
X152044567Y-64015461D01*
X152044567Y-63969539D01*
X152077039Y-63937067D01*
X152122961Y-63937067D01*
X152155433Y-63969539D01*
G37*
%TO.C,U4*%
G36*
X182055433Y-75027039D02*
G01*
X182055433Y-75072961D01*
X182022961Y-75105433D01*
X181977039Y-75105433D01*
X181944567Y-75072961D01*
X181944567Y-75027039D01*
X181977039Y-74994567D01*
X182022961Y-74994567D01*
X182055433Y-75027039D01*
G37*
%TO.C,VR3*%
G36*
X182205433Y-116127039D02*
G01*
X182205433Y-116172961D01*
X182172961Y-116205433D01*
X182127039Y-116205433D01*
X182094567Y-116172961D01*
X182094567Y-116127039D01*
X182127039Y-116094567D01*
X182172961Y-116094567D01*
X182205433Y-116127039D01*
G37*
%TO.C,SW4*%
G36*
X198705433Y-50227039D02*
G01*
X198705433Y-50272961D01*
X198672961Y-50305433D01*
X198627039Y-50305433D01*
X198594567Y-50272961D01*
X198594567Y-50227039D01*
X198627039Y-50194567D01*
X198672961Y-50194567D01*
X198705433Y-50227039D01*
G37*
%TO.C,U8*%
G36*
X122985557Y-62592853D02*
G01*
X123013147Y-62620443D01*
X123028079Y-62656491D01*
X123028079Y-62695509D01*
X123013147Y-62731557D01*
X122985557Y-62759147D01*
X122949509Y-62774079D01*
X122910491Y-62774079D01*
X122874443Y-62759147D01*
X122846853Y-62731557D01*
X122831921Y-62695509D01*
X122831921Y-62656491D01*
X122846853Y-62620443D01*
X122874443Y-62592853D01*
X122910491Y-62577921D01*
X122949509Y-62577921D01*
X122985557Y-62592853D01*
G37*
%TO.C,VR7*%
G36*
X112705433Y-90527039D02*
G01*
X112705433Y-90572961D01*
X112672961Y-90605433D01*
X112627039Y-90605433D01*
X112594567Y-90572961D01*
X112594567Y-90527039D01*
X112627039Y-90494567D01*
X112672961Y-90494567D01*
X112705433Y-90527039D01*
G37*
%TO.C,J2*%
G36*
X110555433Y-133077039D02*
G01*
X110555433Y-133122961D01*
X110522961Y-133155433D01*
X110477039Y-133155433D01*
X110444567Y-133122961D01*
X110444567Y-133077039D01*
X110477039Y-133044567D01*
X110522961Y-133044567D01*
X110555433Y-133077039D01*
G37*
%TO.C,U12*%
G36*
X122975433Y-69217039D02*
G01*
X122975433Y-69262961D01*
X122942961Y-69295433D01*
X122897039Y-69295433D01*
X122864567Y-69262961D01*
X122864567Y-69217039D01*
X122897039Y-69184567D01*
X122942961Y-69184567D01*
X122975433Y-69217039D01*
G37*
%TO.C,TV1*%
G36*
X159165433Y-60527039D02*
G01*
X159165433Y-60572961D01*
X159132961Y-60605433D01*
X159087039Y-60605433D01*
X159054567Y-60572961D01*
X159054567Y-60527039D01*
X159087039Y-60494567D01*
X159132961Y-60494567D01*
X159165433Y-60527039D01*
G37*
%TD*%
M02*
