M48
; DRILL file {KiCad 9.0.4} date 2025-10-09T22:00:15+0200
; FORMAT={-:-/ absolute / metric / decimal}
; #@! TF.CreationDate,2025-10-09T22:00:15+02:00
; #@! TF.GenerationSoftware,Kicad,Pcbnew,9.0.4
; #@! TF.FileFunction,Plated,1,2,PTH
FMAT,2
METRIC
; #@! TA.AperFunction,Plated,PTH,ViaDrill
T1C0.300
; #@! TA.AperFunction,Plated,PTH,ComponentDrill
T2C0.300
; #@! TA.AperFunction,Plated,PTH,ViaDrill
T3C0.400
; #@! TA.AperFunction,Plated,PTH,ComponentDrill
T4C0.500
; #@! TA.AperFunction,Plated,PTH,ComponentDrill
T5C0.900
; #@! TA.AperFunction,Plated,PTH,ComponentDrill
T6C0.914
; #@! TA.AperFunction,Plated,PTH,ComponentDrill
T7C1.000
; #@! TA.AperFunction,Plated,PTH,ComponentDrill
T8C1.100
; #@! TA.AperFunction,Plated,PTH,ComponentDrill
T9C1.400
; #@! TA.AperFunction,Plated,PTH,ComponentDrill
T10C1.900
%
G90
G05
T1
X189.94Y-79.365
X189.975Y-83.175
X189.98Y-81.905
X189.985Y-80.635
T2
X123.915Y-88.57
X123.915Y-89.57
X123.915Y-90.57
X158.0Y-50.75
X158.0Y-52.75
X162.0Y-50.75
X162.0Y-52.75
T3
X101.45Y-127.925
X102.0Y-62.4
X102.0Y-90.45
X102.01Y-57.67
X102.03Y-85.58
X102.575Y-72.825
X102.6Y-100.775
X107.65Y-128.02
X109.51Y-93.05
X109.53Y-65.09
X111.35Y-91.4
X111.425Y-72.75
X112.275Y-124.05
X112.42Y-128.0
X113.475Y-98.4
X118.0Y-88.54
X118.0Y-90.25
X118.0Y-91.96
X118.0Y-93.68
X119.62Y-57.95
X120.37Y-64.68
X120.4Y-63.02
X121.07Y-118.65
X122.09Y-70.58
X122.45Y-117.0
X122.89Y-71.64
X122.95Y-126.3
X123.19Y-60.67
X123.8Y-72.46
X123.868Y-68.652
X125.135Y-85.465
X125.56Y-71.98
X125.88Y-62.45
X127.685Y-91.9
X129.1Y-69.72
X129.1Y-71.42
X129.12Y-68.04
X129.2Y-64.69
X129.925Y-93.27
X130.025Y-124.35
X130.35Y-108.525
X130.41Y-70.44
X130.43Y-68.84
X130.44Y-58.99
X131.66Y-64.7
X133.3Y-62.294
X133.43Y-59.46
X133.45Y-124.35
X133.463Y-116.188
X133.82Y-85.89
X134.22Y-77.468
X134.366Y-69.196
X134.61Y-55.25
X135.0Y-78.722
X135.025Y-124.35
X136.06Y-52.72
X137.67Y-69.73
X137.725Y-85.6
X138.06Y-120.29
X138.3Y-125.475
X139.61Y-57.45
X139.644Y-76.819
X139.89Y-124.03
X139.985Y-80.635
X139.995Y-81.905
X140.0Y-79.375
X140.0Y-83.175
X140.22Y-65.42
X140.415Y-61.51
X141.7Y-57.01
X141.83Y-55.29
X142.3Y-73.325
X142.96Y-58.49
X144.4Y-52.49
X145.025Y-117.525
X146.01Y-73.29
X147.08Y-65.26
X147.2Y-63.82
X147.59Y-51.05
X147.6Y-124.0
X148.87Y-62.58
X149.375Y-85.3
X152.897Y-53.639
X155.48Y-66.005
X156.23Y-58.48
X156.64Y-118.73
X156.75Y-66.025
X156.8Y-57.34
X157.49Y-59.8
X158.02Y-66.045
X158.17Y-62.95
X158.475Y-117.0
X158.75Y-76.19
X158.76Y-78.99
X158.78Y-77.6
X159.14Y-59.39
X159.291Y-69.325
X160.05Y-80.28
X160.06Y-74.93
X160.5Y-68.6
X160.625Y-124.025
X161.37Y-63.85
X161.46Y-74.9
X161.46Y-80.3
X161.855Y-69.523
X162.81Y-61.05
X162.85Y-74.94
X162.85Y-80.29
X163.125Y-70.245
X163.2Y-57.35
X164.1Y-77.61
X164.12Y-78.99
X164.14Y-76.2
X164.395Y-70.245
X164.8Y-58.48
X166.825Y-82.8
X167.2Y-85.325
X167.827Y-61.447
X168.13Y-59.925
X169.03Y-52.67
X169.05Y-51.39
X169.975Y-123.95
X170.86Y-85.26
X171.525Y-81.7
X172.5Y-77.7
X172.5Y-78.975
X172.525Y-80.25
X173.775Y-59.925
X174.625Y-55.225
X176.91Y-60.13
X176.91Y-62.76
X178.15Y-61.425
X179.0Y-118.78
X180.725Y-117.0
X182.975Y-124.0
X185.175Y-58.475
X185.425Y-55.25
X185.975Y-77.675
X186.25Y-86.0
X186.25Y-87.25
X186.275Y-88.5
X189.575Y-84.425
X189.625Y-55.275
X191.75Y-75.55
X193.28Y-55.24
X196.43Y-62.7
X196.46Y-68.34
X198.075Y-65.5
X198.95Y-57.18
X198.95Y-59.88
X199.15Y-53.325
X200.15Y-58.5
X200.43Y-55.21
X206.475Y-82.925
X208.6Y-111.025
X212.55Y-70.96
X213.85Y-69.55
X215.5Y-74.375
X215.5Y-99.975
X215.72Y-128.01
X216.025Y-60.0
X217.19Y-75.93
X217.275Y-101.6
X217.375Y-110.925
X217.4Y-85.3
X218.0Y-57.7
X218.0Y-126.45
X218.02Y-62.31
T5
X210.757Y-115.35
X212.916Y-115.35
X215.075Y-115.35
X217.234Y-115.35
T6
X125.0Y-52.885
X127.5Y-52.885
X130.0Y-52.885
T7
X126.175Y-56.3
X128.675Y-56.3
T8
X104.5Y-63.4
X104.5Y-91.4
X107.0Y-63.4
X107.0Y-91.4
X109.5Y-63.4
X109.5Y-91.4
X116.05Y-117.0
X118.55Y-117.0
X121.05Y-117.0
X137.75Y-52.75
X142.25Y-52.75
X151.62Y-117.0
X154.12Y-117.0
X156.62Y-117.0
X174.0Y-117.0
X176.5Y-117.0
X177.75Y-52.75
X179.0Y-117.0
X182.25Y-52.75
X192.75Y-52.75
X197.25Y-52.75
X210.5Y-75.972
X210.5Y-101.6
X213.0Y-75.972
X213.0Y-101.6
X215.5Y-75.972
X215.5Y-101.6
T9
X136.4Y-55.25
X143.6Y-55.25
X176.4Y-55.25
X183.6Y-55.25
X191.4Y-55.25
X198.6Y-55.25
T4
G00X155.67Y-51.77
M15
G01X155.67Y-50.97
M16
G05
G00X155.67Y-56.12
M15
G01X155.67Y-55.02
M16
G05
G00X164.33Y-51.77
M15
G01X164.33Y-50.97
M16
G05
G00X164.33Y-56.12
M15
G01X164.33Y-55.02
M16
G05
T10
G00X102.6Y-70.25
M15
G01X102.6Y-70.55
M16
G05
G00X102.6Y-98.25
M15
G01X102.6Y-98.55
M16
G05
G00X111.4Y-70.25
M15
G01X111.4Y-70.55
M16
G05
G00X111.4Y-98.25
M15
G01X111.4Y-98.55
M16
G05
G00X114.15Y-123.85
M15
G01X114.15Y-124.15
M16
G05
G00X122.95Y-123.85
M15
G01X122.95Y-124.15
M16
G05
G00X149.72Y-123.85
M15
G01X149.72Y-124.15
M16
G05
G00X158.52Y-123.85
M15
G01X158.52Y-124.15
M16
G05
G00X172.1Y-123.85
M15
G01X172.1Y-124.15
M16
G05
G00X180.9Y-123.85
M15
G01X180.9Y-124.15
M16
G05
G00X208.6Y-82.822
M15
G01X208.6Y-83.122
M16
G05
G00X208.6Y-108.45
M15
G01X208.6Y-108.75
M16
G05
G00X217.4Y-82.822
M15
G01X217.4Y-83.122
M16
G05
G00X217.4Y-108.45
M15
G01X217.4Y-108.75
M16
G05
M30
