%TF.GenerationSoftware,KiCad,Pcbnew,9.0.5*%
%TF.CreationDate,2026-01-02T16:31:22+01:00*%
%TF.ProjectId,Spikeling_v3.1,5370696b-656c-4696-9e67-5f76332e312e,rev?*%
%TF.SameCoordinates,Original*%
%TF.FileFunction,Other,User*%
%FSLAX46Y46*%
G04 Gerber Fmt 4.6, Leading zero omitted, Abs format (unit mm)*
G04 Created by KiCad (PCBNEW 9.0.5) date 2026-01-02 16:31:22*
%MOMM*%
%LPD*%
G01*
G04 APERTURE LIST*
%ADD10C,0.000000*%
G04 APERTURE END LIST*
D10*
%TO.C,TV1*%
G36*
X161445000Y-63165000D02*
G01*
X161300000Y-63165000D01*
X161300000Y-62735000D01*
X161445000Y-62735000D01*
X161445000Y-63165000D01*
G37*
G36*
X161445000Y-62215000D02*
G01*
X161300000Y-62215000D01*
X161300000Y-61785000D01*
X161445000Y-61785000D01*
X161445000Y-62215000D01*
G37*
G36*
X161445000Y-61265000D02*
G01*
X161300000Y-61265000D01*
X161300000Y-60835000D01*
X161445000Y-60835000D01*
X161445000Y-61265000D01*
G37*
G36*
X161910000Y-63165000D02*
G01*
X161435000Y-63165000D01*
X161435000Y-62735000D01*
X161910000Y-62735000D01*
X161910000Y-63165000D01*
G37*
G36*
X161910000Y-62215000D02*
G01*
X161435000Y-62215000D01*
X161435000Y-61785000D01*
X161910000Y-61785000D01*
X161910000Y-62215000D01*
G37*
G36*
X161910000Y-61265000D02*
G01*
X161435000Y-61265000D01*
X161435000Y-60835000D01*
X161910000Y-60835000D01*
X161910000Y-61265000D01*
G37*
G36*
X159585000Y-63165000D02*
G01*
X159110000Y-63165000D01*
X159110000Y-62735000D01*
X159585000Y-62735000D01*
X159585000Y-63165000D01*
G37*
G36*
X159585000Y-62215000D02*
G01*
X159110000Y-62215000D01*
X159110000Y-61785000D01*
X159585000Y-61785000D01*
X159585000Y-62215000D01*
G37*
G36*
X159585000Y-61265000D02*
G01*
X159110000Y-61265000D01*
X159110000Y-60835000D01*
X159585000Y-60835000D01*
X159585000Y-61265000D01*
G37*
G36*
X159720000Y-63165000D02*
G01*
X159575000Y-63165000D01*
X159575000Y-62735000D01*
X159720000Y-62735000D01*
X159720000Y-63165000D01*
G37*
G36*
X159720000Y-62215000D02*
G01*
X159575000Y-62215000D01*
X159575000Y-61785000D01*
X159720000Y-61785000D01*
X159720000Y-62215000D01*
G37*
G36*
X159720000Y-61265000D02*
G01*
X159575000Y-61265000D01*
X159575000Y-60835000D01*
X159720000Y-60835000D01*
X159720000Y-61265000D01*
G37*
%TO.C,VR2*%
G36*
X150480000Y-124150000D02*
G01*
X148960000Y-124150000D01*
X148960000Y-123850000D01*
X150480000Y-123850000D01*
X150480000Y-124150000D01*
G37*
G36*
X159280000Y-124150000D02*
G01*
X157760000Y-124150000D01*
X157760000Y-123850000D01*
X159280000Y-123850000D01*
X159280000Y-124150000D01*
G37*
G36*
X151792208Y-116584254D02*
G01*
X151893943Y-116642991D01*
X151977009Y-116726057D01*
X152035746Y-116827792D01*
X152066150Y-116941263D01*
X152066150Y-117058737D01*
X152035746Y-117172208D01*
X151977009Y-117273943D01*
X151893943Y-117357009D01*
X151792208Y-117415746D01*
X151678737Y-117446150D01*
X151561263Y-117446150D01*
X151447792Y-117415746D01*
X151346057Y-117357009D01*
X151262991Y-117273943D01*
X151204254Y-117172208D01*
X151173850Y-117058737D01*
X151173850Y-116941263D01*
X151204254Y-116827792D01*
X151262991Y-116726057D01*
X151346057Y-116642991D01*
X151447792Y-116584254D01*
X151561263Y-116553850D01*
X151678737Y-116553850D01*
X151792208Y-116584254D01*
G37*
G36*
X154292208Y-116584254D02*
G01*
X154393943Y-116642991D01*
X154477009Y-116726057D01*
X154535746Y-116827792D01*
X154566150Y-116941263D01*
X154566150Y-117058737D01*
X154535746Y-117172208D01*
X154477009Y-117273943D01*
X154393943Y-117357009D01*
X154292208Y-117415746D01*
X154178737Y-117446150D01*
X154061263Y-117446150D01*
X153947792Y-117415746D01*
X153846057Y-117357009D01*
X153762991Y-117273943D01*
X153704254Y-117172208D01*
X153673850Y-117058737D01*
X153673850Y-116941263D01*
X153704254Y-116827792D01*
X153762991Y-116726057D01*
X153846057Y-116642991D01*
X153947792Y-116584254D01*
X154061263Y-116553850D01*
X154178737Y-116553850D01*
X154292208Y-116584254D01*
G37*
G36*
X156792208Y-116584254D02*
G01*
X156893943Y-116642991D01*
X156977009Y-116726057D01*
X157035746Y-116827792D01*
X157066150Y-116941263D01*
X157066150Y-117058737D01*
X157035746Y-117172208D01*
X156977009Y-117273943D01*
X156893943Y-117357009D01*
X156792208Y-117415746D01*
X156678737Y-117446150D01*
X156561263Y-117446150D01*
X156447792Y-117415746D01*
X156346057Y-117357009D01*
X156262991Y-117273943D01*
X156204254Y-117172208D01*
X156173850Y-117058737D01*
X156173850Y-116941263D01*
X156204254Y-116827792D01*
X156262991Y-116726057D01*
X156346057Y-116642991D01*
X156447792Y-116584254D01*
X156561263Y-116553850D01*
X156678737Y-116553850D01*
X156792208Y-116584254D01*
G37*
%TO.C,U3*%
G36*
X130820000Y-75770000D02*
G01*
X130120000Y-75770000D01*
X130120000Y-75340000D01*
X130820000Y-75340000D01*
X130820000Y-75770000D01*
G37*
G36*
X130820000Y-77040000D02*
G01*
X130120000Y-77040000D01*
X130120000Y-76610000D01*
X130820000Y-76610000D01*
X130820000Y-77040000D01*
G37*
G36*
X130820000Y-78310000D02*
G01*
X130120000Y-78310000D01*
X130120000Y-77880000D01*
X130820000Y-77880000D01*
X130820000Y-78310000D01*
G37*
G36*
X130820000Y-79580000D02*
G01*
X130120000Y-79580000D01*
X130120000Y-79150000D01*
X130820000Y-79150000D01*
X130820000Y-79580000D01*
G37*
G36*
X130820000Y-80850000D02*
G01*
X130120000Y-80850000D01*
X130120000Y-80420000D01*
X130820000Y-80420000D01*
X130820000Y-80850000D01*
G37*
G36*
X130820000Y-82120000D02*
G01*
X130120000Y-82120000D01*
X130120000Y-81690000D01*
X130820000Y-81690000D01*
X130820000Y-82120000D01*
G37*
G36*
X130820000Y-83390000D02*
G01*
X130120000Y-83390000D01*
X130120000Y-82960000D01*
X130820000Y-82960000D01*
X130820000Y-83390000D01*
G37*
G36*
X130820000Y-84660000D02*
G01*
X130120000Y-84660000D01*
X130120000Y-84230000D01*
X130820000Y-84230000D01*
X130820000Y-84660000D01*
G37*
G36*
X131180000Y-75770000D02*
G01*
X130810000Y-75770000D01*
X130810000Y-75340000D01*
X131180000Y-75340000D01*
X131180000Y-75770000D01*
G37*
G36*
X131180000Y-77040000D02*
G01*
X130810000Y-77040000D01*
X130810000Y-76610000D01*
X131180000Y-76610000D01*
X131180000Y-77040000D01*
G37*
G36*
X131180000Y-78310000D02*
G01*
X130810000Y-78310000D01*
X130810000Y-77880000D01*
X131180000Y-77880000D01*
X131180000Y-78310000D01*
G37*
G36*
X131180000Y-79580000D02*
G01*
X130810000Y-79580000D01*
X130810000Y-79150000D01*
X131180000Y-79150000D01*
X131180000Y-79580000D01*
G37*
G36*
X131180000Y-80850000D02*
G01*
X130810000Y-80850000D01*
X130810000Y-80420000D01*
X131180000Y-80420000D01*
X131180000Y-80850000D01*
G37*
G36*
X131180000Y-82120000D02*
G01*
X130810000Y-82120000D01*
X130810000Y-81690000D01*
X131180000Y-81690000D01*
X131180000Y-82120000D01*
G37*
G36*
X131180000Y-83390000D02*
G01*
X130810000Y-83390000D01*
X130810000Y-82960000D01*
X131180000Y-82960000D01*
X131180000Y-83390000D01*
G37*
G36*
X131180000Y-84660000D02*
G01*
X130810000Y-84660000D01*
X130810000Y-84230000D01*
X131180000Y-84230000D01*
X131180000Y-84660000D01*
G37*
G36*
X135430000Y-75770000D02*
G01*
X135060000Y-75770000D01*
X135060000Y-75340000D01*
X135430000Y-75340000D01*
X135430000Y-75770000D01*
G37*
G36*
X135430000Y-77040000D02*
G01*
X135060000Y-77040000D01*
X135060000Y-76610000D01*
X135430000Y-76610000D01*
X135430000Y-77040000D01*
G37*
G36*
X135430000Y-78310000D02*
G01*
X135060000Y-78310000D01*
X135060000Y-77880000D01*
X135430000Y-77880000D01*
X135430000Y-78310000D01*
G37*
G36*
X135430000Y-79580000D02*
G01*
X135060000Y-79580000D01*
X135060000Y-79150000D01*
X135430000Y-79150000D01*
X135430000Y-79580000D01*
G37*
G36*
X135430000Y-80850000D02*
G01*
X135060000Y-80850000D01*
X135060000Y-80420000D01*
X135430000Y-80420000D01*
X135430000Y-80850000D01*
G37*
G36*
X135430000Y-82120000D02*
G01*
X135060000Y-82120000D01*
X135060000Y-81690000D01*
X135430000Y-81690000D01*
X135430000Y-82120000D01*
G37*
G36*
X135430000Y-83390000D02*
G01*
X135060000Y-83390000D01*
X135060000Y-82960000D01*
X135430000Y-82960000D01*
X135430000Y-83390000D01*
G37*
G36*
X135430000Y-84660000D02*
G01*
X135060000Y-84660000D01*
X135060000Y-84230000D01*
X135430000Y-84230000D01*
X135430000Y-84660000D01*
G37*
G36*
X136120000Y-75770000D02*
G01*
X135420000Y-75770000D01*
X135420000Y-75340000D01*
X136120000Y-75340000D01*
X136120000Y-75770000D01*
G37*
G36*
X136120000Y-77040000D02*
G01*
X135420000Y-77040000D01*
X135420000Y-76610000D01*
X136120000Y-76610000D01*
X136120000Y-77040000D01*
G37*
G36*
X136120000Y-78310000D02*
G01*
X135420000Y-78310000D01*
X135420000Y-77880000D01*
X136120000Y-77880000D01*
X136120000Y-78310000D01*
G37*
G36*
X136120000Y-79580000D02*
G01*
X135420000Y-79580000D01*
X135420000Y-79150000D01*
X136120000Y-79150000D01*
X136120000Y-79580000D01*
G37*
G36*
X136120000Y-80850000D02*
G01*
X135420000Y-80850000D01*
X135420000Y-80420000D01*
X136120000Y-80420000D01*
X136120000Y-80850000D01*
G37*
G36*
X136120000Y-82120000D02*
G01*
X135420000Y-82120000D01*
X135420000Y-81690000D01*
X136120000Y-81690000D01*
X136120000Y-82120000D01*
G37*
G36*
X136120000Y-83390000D02*
G01*
X135420000Y-83390000D01*
X135420000Y-82960000D01*
X136120000Y-82960000D01*
X136120000Y-83390000D01*
G37*
G36*
X136120000Y-84660000D02*
G01*
X135420000Y-84660000D01*
X135420000Y-84230000D01*
X136120000Y-84230000D01*
X136120000Y-84660000D01*
G37*
%TO.C,J4*%
G36*
X102500000Y-88500000D02*
G01*
X101500000Y-88500000D01*
X101500000Y-86950000D01*
X102500000Y-86950000D01*
X102500000Y-88500000D01*
G37*
G36*
X104500000Y-81050000D02*
G01*
X103500000Y-81050000D01*
X103500000Y-79500000D01*
X104500000Y-79500000D01*
X104500000Y-81050000D01*
G37*
G36*
X109500000Y-88500000D02*
G01*
X108500000Y-88500000D01*
X108500000Y-86950000D01*
X109500000Y-86950000D01*
X109500000Y-88500000D01*
G37*
%TO.C,J5*%
G36*
X211050000Y-126500000D02*
G01*
X209500000Y-126500000D01*
X209500000Y-125500000D01*
X211050000Y-125500000D01*
X211050000Y-126500000D01*
G37*
G36*
X218500000Y-121500000D02*
G01*
X216950000Y-121500000D01*
X216950000Y-120500000D01*
X218500000Y-120500000D01*
X218500000Y-121500000D01*
G37*
G36*
X218500000Y-128500000D02*
G01*
X216950000Y-128500000D01*
X216950000Y-127500000D01*
X218500000Y-127500000D01*
X218500000Y-128500000D01*
G37*
%TO.C,U7*%
G36*
X142030000Y-60770000D02*
G01*
X141580000Y-60770000D01*
X141580000Y-60370000D01*
X142030000Y-60370000D01*
X142030000Y-60770000D01*
G37*
G36*
X142030000Y-61720000D02*
G01*
X141580000Y-61720000D01*
X141580000Y-61320000D01*
X142030000Y-61320000D01*
X142030000Y-61720000D01*
G37*
G36*
X142030000Y-62670000D02*
G01*
X141580000Y-62670000D01*
X141580000Y-62270000D01*
X142030000Y-62270000D01*
X142030000Y-62670000D01*
G37*
G36*
X142190000Y-60770000D02*
G01*
X142020000Y-60770000D01*
X142020000Y-60370000D01*
X142190000Y-60370000D01*
X142190000Y-60770000D01*
G37*
G36*
X142190000Y-61720000D02*
G01*
X142020000Y-61720000D01*
X142020000Y-61320000D01*
X142190000Y-61320000D01*
X142190000Y-61720000D01*
G37*
G36*
X142190000Y-62670000D02*
G01*
X142020000Y-62670000D01*
X142020000Y-62270000D01*
X142190000Y-62270000D01*
X142190000Y-62670000D01*
G37*
G36*
X143940000Y-60770000D02*
G01*
X143770000Y-60770000D01*
X143770000Y-60370000D01*
X143940000Y-60370000D01*
X143940000Y-60770000D01*
G37*
G36*
X143940000Y-62670000D02*
G01*
X143770000Y-62670000D01*
X143770000Y-62270000D01*
X143940000Y-62270000D01*
X143940000Y-62670000D01*
G37*
G36*
X144380000Y-60770000D02*
G01*
X143930000Y-60770000D01*
X143930000Y-60370000D01*
X144380000Y-60370000D01*
X144380000Y-60770000D01*
G37*
G36*
X144380000Y-62670000D02*
G01*
X143930000Y-62670000D01*
X143930000Y-62270000D01*
X144380000Y-62270000D01*
X144380000Y-62670000D01*
G37*
%TO.C,U1*%
G36*
X151800000Y-69250000D02*
G01*
X150950000Y-69250000D01*
X150950000Y-68350000D01*
X151800000Y-68350000D01*
X151800000Y-69250000D01*
G37*
G36*
X151800000Y-70520000D02*
G01*
X150950000Y-70520000D01*
X150950000Y-69620000D01*
X151800000Y-69620000D01*
X151800000Y-70520000D01*
G37*
G36*
X151800000Y-71790000D02*
G01*
X150950000Y-71790000D01*
X150950000Y-70890000D01*
X151800000Y-70890000D01*
X151800000Y-71790000D01*
G37*
G36*
X151800000Y-73060000D02*
G01*
X150950000Y-73060000D01*
X150950000Y-72160000D01*
X151800000Y-72160000D01*
X151800000Y-73060000D01*
G37*
G36*
X151800000Y-74330000D02*
G01*
X150950000Y-74330000D01*
X150950000Y-73430000D01*
X151800000Y-73430000D01*
X151800000Y-74330000D01*
G37*
G36*
X151800000Y-75600000D02*
G01*
X150950000Y-75600000D01*
X150950000Y-74700000D01*
X151800000Y-74700000D01*
X151800000Y-75600000D01*
G37*
G36*
X151800000Y-76870000D02*
G01*
X150950000Y-76870000D01*
X150950000Y-75970000D01*
X151800000Y-75970000D01*
X151800000Y-76870000D01*
G37*
G36*
X151800000Y-78140000D02*
G01*
X150950000Y-78140000D01*
X150950000Y-77240000D01*
X151800000Y-77240000D01*
X151800000Y-78140000D01*
G37*
G36*
X151800000Y-79410000D02*
G01*
X150950000Y-79410000D01*
X150950000Y-78510000D01*
X151800000Y-78510000D01*
X151800000Y-79410000D01*
G37*
G36*
X151800000Y-80680000D02*
G01*
X150950000Y-80680000D01*
X150950000Y-79780000D01*
X151800000Y-79780000D01*
X151800000Y-80680000D01*
G37*
G36*
X151800000Y-81950000D02*
G01*
X150950000Y-81950000D01*
X150950000Y-81050000D01*
X151800000Y-81050000D01*
X151800000Y-81950000D01*
G37*
G36*
X151800000Y-83220000D02*
G01*
X150950000Y-83220000D01*
X150950000Y-82320000D01*
X151800000Y-82320000D01*
X151800000Y-83220000D01*
G37*
G36*
X151800000Y-84490000D02*
G01*
X150950000Y-84490000D01*
X150950000Y-83590000D01*
X151800000Y-83590000D01*
X151800000Y-84490000D01*
G37*
G36*
X151800000Y-85760000D02*
G01*
X150950000Y-85760000D01*
X150950000Y-84860000D01*
X151800000Y-84860000D01*
X151800000Y-85760000D01*
G37*
G36*
X153415000Y-68150500D02*
G01*
X152515000Y-68150500D01*
X152515000Y-67301000D01*
X153415000Y-67301000D01*
X153415000Y-68150500D01*
G37*
G36*
X154685000Y-68150500D02*
G01*
X153785000Y-68150500D01*
X153785000Y-67301000D01*
X154685000Y-67301000D01*
X154685000Y-68150500D01*
G37*
G36*
X155955000Y-68150500D02*
G01*
X155055000Y-68150500D01*
X155055000Y-67301000D01*
X155955000Y-67301000D01*
X155955000Y-68150500D01*
G37*
G36*
X157225000Y-68150500D02*
G01*
X156325000Y-68150500D01*
X156325000Y-67301000D01*
X157225000Y-67301000D01*
X157225000Y-68150500D01*
G37*
G36*
X158495000Y-68150500D02*
G01*
X157595000Y-68150500D01*
X157595000Y-67301000D01*
X158495000Y-67301000D01*
X158495000Y-68150500D01*
G37*
G36*
X159765000Y-68150500D02*
G01*
X158865000Y-68150500D01*
X158865000Y-67301000D01*
X159765000Y-67301000D01*
X159765000Y-68150500D01*
G37*
G36*
X160499500Y-76640500D02*
G01*
X159599500Y-76640500D01*
X159599500Y-75740500D01*
X160499500Y-75740500D01*
X160499500Y-76640500D01*
G37*
G36*
X160499500Y-78040500D02*
G01*
X159599500Y-78040500D01*
X159599500Y-77140500D01*
X160499500Y-77140500D01*
X160499500Y-78040500D01*
G37*
G36*
X160499500Y-79440500D02*
G01*
X159599500Y-79440500D01*
X159599500Y-78540500D01*
X160499500Y-78540500D01*
X160499500Y-79440500D01*
G37*
G36*
X161035000Y-68150500D02*
G01*
X160135000Y-68150500D01*
X160135000Y-67301000D01*
X161035000Y-67301000D01*
X161035000Y-68150500D01*
G37*
G36*
X161899500Y-76640500D02*
G01*
X160999500Y-76640500D01*
X160999500Y-75740500D01*
X161899500Y-75740500D01*
X161899500Y-76640500D01*
G37*
G36*
X161899500Y-78040500D02*
G01*
X160999500Y-78040500D01*
X160999500Y-77140500D01*
X161899500Y-77140500D01*
X161899500Y-78040500D01*
G37*
G36*
X161899500Y-79440500D02*
G01*
X160999500Y-79440500D01*
X160999500Y-78540500D01*
X161899500Y-78540500D01*
X161899500Y-79440500D01*
G37*
G36*
X162305000Y-68150500D02*
G01*
X161405000Y-68150500D01*
X161405000Y-67301000D01*
X162305000Y-67301000D01*
X162305000Y-68150500D01*
G37*
G36*
X163299500Y-76640500D02*
G01*
X162399500Y-76640500D01*
X162399500Y-75740500D01*
X163299500Y-75740500D01*
X163299500Y-76640500D01*
G37*
G36*
X163299500Y-78040500D02*
G01*
X162399500Y-78040500D01*
X162399500Y-77140500D01*
X163299500Y-77140500D01*
X163299500Y-78040500D01*
G37*
G36*
X163299500Y-79440500D02*
G01*
X162399500Y-79440500D01*
X162399500Y-78540500D01*
X163299500Y-78540500D01*
X163299500Y-79440500D01*
G37*
G36*
X163575000Y-68150500D02*
G01*
X162675000Y-68150500D01*
X162675000Y-67301000D01*
X163575000Y-67301000D01*
X163575000Y-68150500D01*
G37*
G36*
X164845000Y-68150500D02*
G01*
X163945000Y-68150500D01*
X163945000Y-67301000D01*
X164845000Y-67301000D01*
X164845000Y-68150500D01*
G37*
G36*
X166115000Y-68150500D02*
G01*
X165215000Y-68150500D01*
X165215000Y-67301000D01*
X166115000Y-67301000D01*
X166115000Y-68150500D01*
G37*
G36*
X167385000Y-68150500D02*
G01*
X166485000Y-68150500D01*
X166485000Y-67301000D01*
X167385000Y-67301000D01*
X167385000Y-68150500D01*
G37*
G36*
X168950000Y-69250000D02*
G01*
X168100000Y-69250000D01*
X168100000Y-68350000D01*
X168950000Y-68350000D01*
X168950000Y-69250000D01*
G37*
G36*
X168950000Y-70520000D02*
G01*
X168100000Y-70520000D01*
X168100000Y-69620000D01*
X168950000Y-69620000D01*
X168950000Y-70520000D01*
G37*
G36*
X168950000Y-71790000D02*
G01*
X168100000Y-71790000D01*
X168100000Y-70890000D01*
X168950000Y-70890000D01*
X168950000Y-71790000D01*
G37*
G36*
X168950000Y-73060000D02*
G01*
X168100000Y-73060000D01*
X168100000Y-72160000D01*
X168950000Y-72160000D01*
X168950000Y-73060000D01*
G37*
G36*
X168950000Y-74330000D02*
G01*
X168100000Y-74330000D01*
X168100000Y-73430000D01*
X168950000Y-73430000D01*
X168950000Y-74330000D01*
G37*
G36*
X168950000Y-75600000D02*
G01*
X168100000Y-75600000D01*
X168100000Y-74700000D01*
X168950000Y-74700000D01*
X168950000Y-75600000D01*
G37*
G36*
X168950000Y-76870000D02*
G01*
X168100000Y-76870000D01*
X168100000Y-75970000D01*
X168950000Y-75970000D01*
X168950000Y-76870000D01*
G37*
G36*
X168950000Y-78140000D02*
G01*
X168100000Y-78140000D01*
X168100000Y-77240000D01*
X168950000Y-77240000D01*
X168950000Y-78140000D01*
G37*
G36*
X168950000Y-79410000D02*
G01*
X168100000Y-79410000D01*
X168100000Y-78510000D01*
X168950000Y-78510000D01*
X168950000Y-79410000D01*
G37*
G36*
X168950000Y-80680000D02*
G01*
X168100000Y-80680000D01*
X168100000Y-79780000D01*
X168950000Y-79780000D01*
X168950000Y-80680000D01*
G37*
G36*
X168950000Y-81950000D02*
G01*
X168100000Y-81950000D01*
X168100000Y-81050000D01*
X168950000Y-81050000D01*
X168950000Y-81950000D01*
G37*
G36*
X168950000Y-83220000D02*
G01*
X168100000Y-83220000D01*
X168100000Y-82320000D01*
X168950000Y-82320000D01*
X168950000Y-83220000D01*
G37*
G36*
X168950000Y-84490000D02*
G01*
X168100000Y-84490000D01*
X168100000Y-83590000D01*
X168950000Y-83590000D01*
X168950000Y-84490000D01*
G37*
G36*
X168950000Y-85760000D02*
G01*
X168100000Y-85760000D01*
X168100000Y-84860000D01*
X168950000Y-84860000D01*
X168950000Y-85760000D01*
G37*
%TO.C,VR1*%
G36*
X114910000Y-124150000D02*
G01*
X113390000Y-124150000D01*
X113390000Y-123850000D01*
X114910000Y-123850000D01*
X114910000Y-124150000D01*
G37*
G36*
X123710000Y-124150000D02*
G01*
X122190000Y-124150000D01*
X122190000Y-123850000D01*
X123710000Y-123850000D01*
X123710000Y-124150000D01*
G37*
G36*
X116222208Y-116584254D02*
G01*
X116323943Y-116642991D01*
X116407009Y-116726057D01*
X116465746Y-116827792D01*
X116496150Y-116941263D01*
X116496150Y-117058737D01*
X116465746Y-117172208D01*
X116407009Y-117273943D01*
X116323943Y-117357009D01*
X116222208Y-117415746D01*
X116108737Y-117446150D01*
X115991263Y-117446150D01*
X115877792Y-117415746D01*
X115776057Y-117357009D01*
X115692991Y-117273943D01*
X115634254Y-117172208D01*
X115603850Y-117058737D01*
X115603850Y-116941263D01*
X115634254Y-116827792D01*
X115692991Y-116726057D01*
X115776057Y-116642991D01*
X115877792Y-116584254D01*
X115991263Y-116553850D01*
X116108737Y-116553850D01*
X116222208Y-116584254D01*
G37*
G36*
X118722208Y-116584254D02*
G01*
X118823943Y-116642991D01*
X118907009Y-116726057D01*
X118965746Y-116827792D01*
X118996150Y-116941263D01*
X118996150Y-117058737D01*
X118965746Y-117172208D01*
X118907009Y-117273943D01*
X118823943Y-117357009D01*
X118722208Y-117415746D01*
X118608737Y-117446150D01*
X118491263Y-117446150D01*
X118377792Y-117415746D01*
X118276057Y-117357009D01*
X118192991Y-117273943D01*
X118134254Y-117172208D01*
X118103850Y-117058737D01*
X118103850Y-116941263D01*
X118134254Y-116827792D01*
X118192991Y-116726057D01*
X118276057Y-116642991D01*
X118377792Y-116584254D01*
X118491263Y-116553850D01*
X118608737Y-116553850D01*
X118722208Y-116584254D01*
G37*
G36*
X121222208Y-116584254D02*
G01*
X121323943Y-116642991D01*
X121407009Y-116726057D01*
X121465746Y-116827792D01*
X121496150Y-116941263D01*
X121496150Y-117058737D01*
X121465746Y-117172208D01*
X121407009Y-117273943D01*
X121323943Y-117357009D01*
X121222208Y-117415746D01*
X121108737Y-117446150D01*
X120991263Y-117446150D01*
X120877792Y-117415746D01*
X120776057Y-117357009D01*
X120692991Y-117273943D01*
X120634254Y-117172208D01*
X120603850Y-117058737D01*
X120603850Y-116941263D01*
X120634254Y-116827792D01*
X120692991Y-116726057D01*
X120776057Y-116642991D01*
X120877792Y-116584254D01*
X120991263Y-116553850D01*
X121108737Y-116553850D01*
X121222208Y-116584254D01*
G37*
%TO.C,D4*%
G36*
X169950000Y-60275000D02*
G01*
X169050000Y-60275000D01*
X169050000Y-59575000D01*
X169950000Y-59575000D01*
X169950000Y-60275000D01*
G37*
G36*
X169950000Y-61775000D02*
G01*
X169050000Y-61775000D01*
X169050000Y-61075000D01*
X169950000Y-61075000D01*
X169950000Y-61775000D01*
G37*
G36*
X172550000Y-60275000D02*
G01*
X171650000Y-60275000D01*
X171650000Y-59575000D01*
X172550000Y-59575000D01*
X172550000Y-60275000D01*
G37*
G36*
X172550000Y-61775000D02*
G01*
X171650000Y-61775000D01*
X171650000Y-61075000D01*
X172550000Y-61075000D01*
X172550000Y-61775000D01*
G37*
%TO.C,SW5*%
G36*
X125136618Y-52555209D02*
G01*
X125217328Y-52601807D01*
X125283227Y-52667706D01*
X125329825Y-52748416D01*
X125353946Y-52838436D01*
X125353946Y-52931632D01*
X125329825Y-53021652D01*
X125283227Y-53102362D01*
X125217328Y-53168261D01*
X125136618Y-53214859D01*
X125046598Y-53238980D01*
X124953402Y-53238980D01*
X124863382Y-53214859D01*
X124782672Y-53168261D01*
X124716773Y-53102362D01*
X124670175Y-53021652D01*
X124646054Y-52931632D01*
X124646054Y-52838436D01*
X124670175Y-52748416D01*
X124716773Y-52667706D01*
X124782672Y-52601807D01*
X124863382Y-52555209D01*
X124953402Y-52531088D01*
X125046598Y-52531088D01*
X125136618Y-52555209D01*
G37*
G36*
X127636618Y-52555209D02*
G01*
X127717328Y-52601807D01*
X127783227Y-52667706D01*
X127829825Y-52748416D01*
X127853946Y-52838436D01*
X127853946Y-52931632D01*
X127829825Y-53021652D01*
X127783227Y-53102362D01*
X127717328Y-53168261D01*
X127636618Y-53214859D01*
X127546598Y-53238980D01*
X127453402Y-53238980D01*
X127363382Y-53214859D01*
X127282672Y-53168261D01*
X127216773Y-53102362D01*
X127170175Y-53021652D01*
X127146054Y-52931632D01*
X127146054Y-52838436D01*
X127170175Y-52748416D01*
X127216773Y-52667706D01*
X127282672Y-52601807D01*
X127363382Y-52555209D01*
X127453402Y-52531088D01*
X127546598Y-52531088D01*
X127636618Y-52555209D01*
G37*
G36*
X130136618Y-52555209D02*
G01*
X130217328Y-52601807D01*
X130283227Y-52667706D01*
X130329825Y-52748416D01*
X130353946Y-52838436D01*
X130353946Y-52931632D01*
X130329825Y-53021652D01*
X130283227Y-53102362D01*
X130217328Y-53168261D01*
X130136618Y-53214859D01*
X130046598Y-53238980D01*
X129953402Y-53238980D01*
X129863382Y-53214859D01*
X129782672Y-53168261D01*
X129716773Y-53102362D01*
X129670175Y-53021652D01*
X129646054Y-52931632D01*
X129646054Y-52838436D01*
X129670175Y-52748416D01*
X129716773Y-52667706D01*
X129782672Y-52601807D01*
X129863382Y-52555209D01*
X129953402Y-52531088D01*
X130046598Y-52531088D01*
X130136618Y-52555209D01*
G37*
%TO.C,VR5*%
G36*
X209360000Y-108750000D02*
G01*
X207840000Y-108750000D01*
X207840000Y-108450000D01*
X209360000Y-108450000D01*
X209360000Y-108750000D01*
G37*
G36*
X218160000Y-108750000D02*
G01*
X216640000Y-108750000D01*
X216640000Y-108450000D01*
X218160000Y-108450000D01*
X218160000Y-108750000D01*
G37*
G36*
X210672208Y-101184254D02*
G01*
X210773943Y-101242991D01*
X210857009Y-101326057D01*
X210915746Y-101427792D01*
X210946150Y-101541263D01*
X210946150Y-101658737D01*
X210915746Y-101772208D01*
X210857009Y-101873943D01*
X210773943Y-101957009D01*
X210672208Y-102015746D01*
X210558737Y-102046150D01*
X210441263Y-102046150D01*
X210327792Y-102015746D01*
X210226057Y-101957009D01*
X210142991Y-101873943D01*
X210084254Y-101772208D01*
X210053850Y-101658737D01*
X210053850Y-101541263D01*
X210084254Y-101427792D01*
X210142991Y-101326057D01*
X210226057Y-101242991D01*
X210327792Y-101184254D01*
X210441263Y-101153850D01*
X210558737Y-101153850D01*
X210672208Y-101184254D01*
G37*
G36*
X213172208Y-101184254D02*
G01*
X213273943Y-101242991D01*
X213357009Y-101326057D01*
X213415746Y-101427792D01*
X213446150Y-101541263D01*
X213446150Y-101658737D01*
X213415746Y-101772208D01*
X213357009Y-101873943D01*
X213273943Y-101957009D01*
X213172208Y-102015746D01*
X213058737Y-102046150D01*
X212941263Y-102046150D01*
X212827792Y-102015746D01*
X212726057Y-101957009D01*
X212642991Y-101873943D01*
X212584254Y-101772208D01*
X212553850Y-101658737D01*
X212553850Y-101541263D01*
X212584254Y-101427792D01*
X212642991Y-101326057D01*
X212726057Y-101242991D01*
X212827792Y-101184254D01*
X212941263Y-101153850D01*
X213058737Y-101153850D01*
X213172208Y-101184254D01*
G37*
G36*
X215672208Y-101184254D02*
G01*
X215773943Y-101242991D01*
X215857009Y-101326057D01*
X215915746Y-101427792D01*
X215946150Y-101541263D01*
X215946150Y-101658737D01*
X215915746Y-101772208D01*
X215857009Y-101873943D01*
X215773943Y-101957009D01*
X215672208Y-102015746D01*
X215558737Y-102046150D01*
X215441263Y-102046150D01*
X215327792Y-102015746D01*
X215226057Y-101957009D01*
X215142991Y-101873943D01*
X215084254Y-101772208D01*
X215053850Y-101658737D01*
X215053850Y-101541263D01*
X215084254Y-101427792D01*
X215142991Y-101326057D01*
X215226057Y-101242991D01*
X215327792Y-101184254D01*
X215441263Y-101153850D01*
X215558737Y-101153850D01*
X215672208Y-101184254D01*
G37*
%TO.C,Q1*%
G36*
X132710000Y-60629000D02*
G01*
X132565000Y-60629000D01*
X132565000Y-60199000D01*
X132710000Y-60199000D01*
X132710000Y-60629000D01*
G37*
G36*
X132710000Y-61579000D02*
G01*
X132565000Y-61579000D01*
X132565000Y-61149000D01*
X132710000Y-61149000D01*
X132710000Y-61579000D01*
G37*
G36*
X132710000Y-62529000D02*
G01*
X132565000Y-62529000D01*
X132565000Y-62099000D01*
X132710000Y-62099000D01*
X132710000Y-62529000D01*
G37*
G36*
X132575000Y-60629000D02*
G01*
X132100000Y-60629000D01*
X132100000Y-60199000D01*
X132575000Y-60199000D01*
X132575000Y-60629000D01*
G37*
G36*
X132575000Y-61579000D02*
G01*
X132100000Y-61579000D01*
X132100000Y-61149000D01*
X132575000Y-61149000D01*
X132575000Y-61579000D01*
G37*
G36*
X132575000Y-62529000D02*
G01*
X132100000Y-62529000D01*
X132100000Y-62099000D01*
X132575000Y-62099000D01*
X132575000Y-62529000D01*
G37*
G36*
X134900000Y-60629000D02*
G01*
X134425000Y-60629000D01*
X134425000Y-60199000D01*
X134900000Y-60199000D01*
X134900000Y-60629000D01*
G37*
G36*
X134900000Y-61579000D02*
G01*
X134425000Y-61579000D01*
X134425000Y-61149000D01*
X134900000Y-61149000D01*
X134900000Y-61579000D01*
G37*
G36*
X134900000Y-62529000D02*
G01*
X134425000Y-62529000D01*
X134425000Y-62099000D01*
X134900000Y-62099000D01*
X134900000Y-62529000D01*
G37*
G36*
X134435000Y-60629000D02*
G01*
X134290000Y-60629000D01*
X134290000Y-60199000D01*
X134435000Y-60199000D01*
X134435000Y-60629000D01*
G37*
G36*
X134435000Y-61579000D02*
G01*
X134290000Y-61579000D01*
X134290000Y-61149000D01*
X134435000Y-61149000D01*
X134435000Y-61579000D01*
G37*
G36*
X134435000Y-62529000D02*
G01*
X134290000Y-62529000D01*
X134290000Y-62099000D01*
X134435000Y-62099000D01*
X134435000Y-62529000D01*
G37*
%TO.C,U8*%
G36*
X133580000Y-67545000D02*
G01*
X132980000Y-67545000D01*
X132980000Y-67295000D01*
X133580000Y-67295000D01*
X133580000Y-67545000D01*
G37*
G36*
X133480000Y-68045000D02*
G01*
X132980000Y-68045000D01*
X132980000Y-67795000D01*
X133480000Y-67795000D01*
X133480000Y-68045000D01*
G37*
G36*
X133480000Y-68545000D02*
G01*
X132980000Y-68545000D01*
X132980000Y-68295000D01*
X133480000Y-68295000D01*
X133480000Y-68545000D01*
G37*
G36*
X134480000Y-67545000D02*
G01*
X133980000Y-67545000D01*
X133980000Y-67295000D01*
X134480000Y-67295000D01*
X134480000Y-67545000D01*
G37*
G36*
X134480000Y-68045000D02*
G01*
X133980000Y-68045000D01*
X133980000Y-67795000D01*
X134480000Y-67795000D01*
X134480000Y-68045000D01*
G37*
G36*
X134480000Y-68545000D02*
G01*
X133980000Y-68545000D01*
X133980000Y-68295000D01*
X134480000Y-68295000D01*
X134480000Y-68545000D01*
G37*
%TO.C,U6*%
G36*
X132050000Y-123207500D02*
G01*
X131500000Y-123207500D01*
X131500000Y-122892500D01*
X132050000Y-122892500D01*
X132050000Y-123207500D01*
G37*
G36*
X132050000Y-123857500D02*
G01*
X131500000Y-123857500D01*
X131500000Y-123542500D01*
X132050000Y-123542500D01*
X132050000Y-123857500D01*
G37*
G36*
X132050000Y-124507500D02*
G01*
X131500000Y-124507500D01*
X131500000Y-124192500D01*
X132050000Y-124192500D01*
X132050000Y-124507500D01*
G37*
G36*
X132050000Y-125157500D02*
G01*
X131500000Y-125157500D01*
X131500000Y-124842500D01*
X132050000Y-124842500D01*
X132050000Y-125157500D01*
G37*
G36*
X132460000Y-123207500D02*
G01*
X132040000Y-123207500D01*
X132040000Y-122892500D01*
X132460000Y-122892500D01*
X132460000Y-123207500D01*
G37*
G36*
X132460000Y-123857500D02*
G01*
X132040000Y-123857500D01*
X132040000Y-123542500D01*
X132460000Y-123542500D01*
X132460000Y-123857500D01*
G37*
G36*
X132460000Y-124507500D02*
G01*
X132040000Y-124507500D01*
X132040000Y-124192500D01*
X132460000Y-124192500D01*
X132460000Y-124507500D01*
G37*
G36*
X132460000Y-125157500D02*
G01*
X132040000Y-125157500D01*
X132040000Y-124842500D01*
X132460000Y-124842500D01*
X132460000Y-125157500D01*
G37*
G36*
X135860000Y-123207500D02*
G01*
X135440000Y-123207500D01*
X135440000Y-122892500D01*
X135860000Y-122892500D01*
X135860000Y-123207500D01*
G37*
G36*
X135860000Y-123857500D02*
G01*
X135440000Y-123857500D01*
X135440000Y-123542500D01*
X135860000Y-123542500D01*
X135860000Y-123857500D01*
G37*
G36*
X135860000Y-124507500D02*
G01*
X135440000Y-124507500D01*
X135440000Y-124192500D01*
X135860000Y-124192500D01*
X135860000Y-124507500D01*
G37*
G36*
X135860000Y-125157500D02*
G01*
X135440000Y-125157500D01*
X135440000Y-124842500D01*
X135860000Y-124842500D01*
X135860000Y-125157500D01*
G37*
G36*
X136400000Y-123207500D02*
G01*
X135850000Y-123207500D01*
X135850000Y-122892500D01*
X136400000Y-122892500D01*
X136400000Y-123207500D01*
G37*
G36*
X136400000Y-123857500D02*
G01*
X135850000Y-123857500D01*
X135850000Y-123542500D01*
X136400000Y-123542500D01*
X136400000Y-123857500D01*
G37*
G36*
X136400000Y-124507500D02*
G01*
X135850000Y-124507500D01*
X135850000Y-124192500D01*
X136400000Y-124192500D01*
X136400000Y-124507500D01*
G37*
G36*
X136400000Y-125157500D02*
G01*
X135850000Y-125157500D01*
X135850000Y-124842500D01*
X136400000Y-124842500D01*
X136400000Y-125157500D01*
G37*
%TO.C,U5*%
G36*
X185335000Y-87725000D02*
G01*
X184500000Y-87725000D01*
X184500000Y-87315000D01*
X185335000Y-87315000D01*
X185335000Y-87725000D01*
G37*
G36*
X185335000Y-87725000D02*
G01*
X184500000Y-87725000D01*
X184500000Y-87315000D01*
X185335000Y-87315000D01*
X185335000Y-87725000D01*
G37*
G36*
X185335000Y-88995000D02*
G01*
X184500000Y-88995000D01*
X184500000Y-88585000D01*
X185335000Y-88585000D01*
X185335000Y-88995000D01*
G37*
G36*
X185335000Y-88995000D02*
G01*
X184500000Y-88995000D01*
X184500000Y-88585000D01*
X185335000Y-88585000D01*
X185335000Y-88995000D01*
G37*
G36*
X185335000Y-90265000D02*
G01*
X184500000Y-90265000D01*
X184500000Y-89855000D01*
X185335000Y-89855000D01*
X185335000Y-90265000D01*
G37*
G36*
X185335000Y-90265000D02*
G01*
X184500000Y-90265000D01*
X184500000Y-89855000D01*
X185335000Y-89855000D01*
X185335000Y-90265000D01*
G37*
G36*
X185335000Y-91535000D02*
G01*
X184500000Y-91535000D01*
X184500000Y-91125000D01*
X185335000Y-91125000D01*
X185335000Y-91535000D01*
G37*
G36*
X185335000Y-91535000D02*
G01*
X184500000Y-91535000D01*
X184500000Y-91125000D01*
X185335000Y-91125000D01*
X185335000Y-91535000D01*
G37*
G36*
X185335000Y-92805000D02*
G01*
X184500000Y-92805000D01*
X184500000Y-92395000D01*
X185335000Y-92395000D01*
X185335000Y-92805000D01*
G37*
G36*
X185335000Y-92805000D02*
G01*
X184500000Y-92805000D01*
X184500000Y-92395000D01*
X185335000Y-92395000D01*
X185335000Y-92805000D01*
G37*
G36*
X185335000Y-94075000D02*
G01*
X184500000Y-94075000D01*
X184500000Y-93665000D01*
X185335000Y-93665000D01*
X185335000Y-94075000D01*
G37*
G36*
X185335000Y-94075000D02*
G01*
X184500000Y-94075000D01*
X184500000Y-93665000D01*
X185335000Y-93665000D01*
X185335000Y-94075000D01*
G37*
G36*
X185335000Y-95345000D02*
G01*
X184500000Y-95345000D01*
X184500000Y-94935000D01*
X185335000Y-94935000D01*
X185335000Y-95345000D01*
G37*
G36*
X185335000Y-95345000D02*
G01*
X184500000Y-95345000D01*
X184500000Y-94935000D01*
X185335000Y-94935000D01*
X185335000Y-95345000D01*
G37*
G36*
X185560000Y-87725000D02*
G01*
X185325000Y-87725000D01*
X185325000Y-87315000D01*
X185560000Y-87315000D01*
X185560000Y-87725000D01*
G37*
G36*
X185560000Y-87725000D02*
G01*
X185325000Y-87725000D01*
X185325000Y-87315000D01*
X185560000Y-87315000D01*
X185560000Y-87725000D01*
G37*
G36*
X185560000Y-88995000D02*
G01*
X185325000Y-88995000D01*
X185325000Y-88585000D01*
X185560000Y-88585000D01*
X185560000Y-88995000D01*
G37*
G36*
X185560000Y-88995000D02*
G01*
X185325000Y-88995000D01*
X185325000Y-88585000D01*
X185560000Y-88585000D01*
X185560000Y-88995000D01*
G37*
G36*
X185560000Y-90265000D02*
G01*
X185325000Y-90265000D01*
X185325000Y-89855000D01*
X185560000Y-89855000D01*
X185560000Y-90265000D01*
G37*
G36*
X185560000Y-90265000D02*
G01*
X185325000Y-90265000D01*
X185325000Y-89855000D01*
X185560000Y-89855000D01*
X185560000Y-90265000D01*
G37*
G36*
X185560000Y-91535000D02*
G01*
X185325000Y-91535000D01*
X185325000Y-91125000D01*
X185560000Y-91125000D01*
X185560000Y-91535000D01*
G37*
G36*
X185560000Y-91535000D02*
G01*
X185325000Y-91535000D01*
X185325000Y-91125000D01*
X185560000Y-91125000D01*
X185560000Y-91535000D01*
G37*
G36*
X185560000Y-92805000D02*
G01*
X185325000Y-92805000D01*
X185325000Y-92395000D01*
X185560000Y-92395000D01*
X185560000Y-92805000D01*
G37*
G36*
X185560000Y-92805000D02*
G01*
X185325000Y-92805000D01*
X185325000Y-92395000D01*
X185560000Y-92395000D01*
X185560000Y-92805000D01*
G37*
G36*
X185560000Y-94075000D02*
G01*
X185325000Y-94075000D01*
X185325000Y-93665000D01*
X185560000Y-93665000D01*
X185560000Y-94075000D01*
G37*
G36*
X185560000Y-94075000D02*
G01*
X185325000Y-94075000D01*
X185325000Y-93665000D01*
X185560000Y-93665000D01*
X185560000Y-94075000D01*
G37*
G36*
X185560000Y-95345000D02*
G01*
X185325000Y-95345000D01*
X185325000Y-94935000D01*
X185560000Y-94935000D01*
X185560000Y-95345000D01*
G37*
G36*
X185560000Y-95345000D02*
G01*
X185325000Y-95345000D01*
X185325000Y-94935000D01*
X185560000Y-94935000D01*
X185560000Y-95345000D01*
G37*
G36*
X189675000Y-87725000D02*
G01*
X189440000Y-87725000D01*
X189440000Y-87315000D01*
X189675000Y-87315000D01*
X189675000Y-87725000D01*
G37*
G36*
X189675000Y-87725000D02*
G01*
X189440000Y-87725000D01*
X189440000Y-87315000D01*
X189675000Y-87315000D01*
X189675000Y-87725000D01*
G37*
G36*
X189675000Y-88995000D02*
G01*
X189440000Y-88995000D01*
X189440000Y-88585000D01*
X189675000Y-88585000D01*
X189675000Y-88995000D01*
G37*
G36*
X189675000Y-88995000D02*
G01*
X189440000Y-88995000D01*
X189440000Y-88585000D01*
X189675000Y-88585000D01*
X189675000Y-88995000D01*
G37*
G36*
X189675000Y-90265000D02*
G01*
X189440000Y-90265000D01*
X189440000Y-89855000D01*
X189675000Y-89855000D01*
X189675000Y-90265000D01*
G37*
G36*
X189675000Y-90265000D02*
G01*
X189440000Y-90265000D01*
X189440000Y-89855000D01*
X189675000Y-89855000D01*
X189675000Y-90265000D01*
G37*
G36*
X189675000Y-91535000D02*
G01*
X189440000Y-91535000D01*
X189440000Y-91125000D01*
X189675000Y-91125000D01*
X189675000Y-91535000D01*
G37*
G36*
X189675000Y-91535000D02*
G01*
X189440000Y-91535000D01*
X189440000Y-91125000D01*
X189675000Y-91125000D01*
X189675000Y-91535000D01*
G37*
G36*
X189675000Y-92805000D02*
G01*
X189440000Y-92805000D01*
X189440000Y-92395000D01*
X189675000Y-92395000D01*
X189675000Y-92805000D01*
G37*
G36*
X189675000Y-92805000D02*
G01*
X189440000Y-92805000D01*
X189440000Y-92395000D01*
X189675000Y-92395000D01*
X189675000Y-92805000D01*
G37*
G36*
X189675000Y-94075000D02*
G01*
X189440000Y-94075000D01*
X189440000Y-93665000D01*
X189675000Y-93665000D01*
X189675000Y-94075000D01*
G37*
G36*
X189675000Y-94075000D02*
G01*
X189440000Y-94075000D01*
X189440000Y-93665000D01*
X189675000Y-93665000D01*
X189675000Y-94075000D01*
G37*
G36*
X189675000Y-95345000D02*
G01*
X189440000Y-95345000D01*
X189440000Y-94935000D01*
X189675000Y-94935000D01*
X189675000Y-95345000D01*
G37*
G36*
X189675000Y-95345000D02*
G01*
X189440000Y-95345000D01*
X189440000Y-94935000D01*
X189675000Y-94935000D01*
X189675000Y-95345000D01*
G37*
G36*
X190500000Y-87725000D02*
G01*
X189665000Y-87725000D01*
X189665000Y-87315000D01*
X190500000Y-87315000D01*
X190500000Y-87725000D01*
G37*
G36*
X190500000Y-87725000D02*
G01*
X189665000Y-87725000D01*
X189665000Y-87315000D01*
X190500000Y-87315000D01*
X190500000Y-87725000D01*
G37*
G36*
X190500000Y-88995000D02*
G01*
X189665000Y-88995000D01*
X189665000Y-88585000D01*
X190500000Y-88585000D01*
X190500000Y-88995000D01*
G37*
G36*
X190500000Y-88995000D02*
G01*
X189665000Y-88995000D01*
X189665000Y-88585000D01*
X190500000Y-88585000D01*
X190500000Y-88995000D01*
G37*
G36*
X190500000Y-90265000D02*
G01*
X189665000Y-90265000D01*
X189665000Y-89855000D01*
X190500000Y-89855000D01*
X190500000Y-90265000D01*
G37*
G36*
X190500000Y-90265000D02*
G01*
X189665000Y-90265000D01*
X189665000Y-89855000D01*
X190500000Y-89855000D01*
X190500000Y-90265000D01*
G37*
G36*
X190500000Y-91535000D02*
G01*
X189665000Y-91535000D01*
X189665000Y-91125000D01*
X190500000Y-91125000D01*
X190500000Y-91535000D01*
G37*
G36*
X190500000Y-91535000D02*
G01*
X189665000Y-91535000D01*
X189665000Y-91125000D01*
X190500000Y-91125000D01*
X190500000Y-91535000D01*
G37*
G36*
X190500000Y-92805000D02*
G01*
X189665000Y-92805000D01*
X189665000Y-92395000D01*
X190500000Y-92395000D01*
X190500000Y-92805000D01*
G37*
G36*
X190500000Y-92805000D02*
G01*
X189665000Y-92805000D01*
X189665000Y-92395000D01*
X190500000Y-92395000D01*
X190500000Y-92805000D01*
G37*
G36*
X190500000Y-94075000D02*
G01*
X189665000Y-94075000D01*
X189665000Y-93665000D01*
X190500000Y-93665000D01*
X190500000Y-94075000D01*
G37*
G36*
X190500000Y-94075000D02*
G01*
X189665000Y-94075000D01*
X189665000Y-93665000D01*
X190500000Y-93665000D01*
X190500000Y-94075000D01*
G37*
G36*
X190500000Y-95345000D02*
G01*
X189665000Y-95345000D01*
X189665000Y-94935000D01*
X190500000Y-94935000D01*
X190500000Y-95345000D01*
G37*
G36*
X190500000Y-95345000D02*
G01*
X189665000Y-95345000D01*
X189665000Y-94935000D01*
X190500000Y-94935000D01*
X190500000Y-95345000D01*
G37*
%TO.C,U10*%
G36*
X150475000Y-60120000D02*
G01*
X149725000Y-60120000D01*
X149725000Y-56880000D01*
X150475000Y-56880000D01*
X150475000Y-60120000D01*
G37*
G36*
X154275000Y-60120000D02*
G01*
X153525000Y-60120000D01*
X153525000Y-56880000D01*
X154275000Y-56880000D01*
X154275000Y-60120000D01*
G37*
%TO.C,J6*%
G36*
X211500000Y-61050000D02*
G01*
X210500000Y-61050000D01*
X210500000Y-59500000D01*
X211500000Y-59500000D01*
X211500000Y-61050000D01*
G37*
G36*
X216500000Y-68500000D02*
G01*
X215500000Y-68500000D01*
X215500000Y-66950000D01*
X216500000Y-66950000D01*
X216500000Y-68500000D01*
G37*
G36*
X218500000Y-61050000D02*
G01*
X217500000Y-61050000D01*
X217500000Y-59500000D01*
X218500000Y-59500000D01*
X218500000Y-61050000D01*
G37*
%TO.C,J3*%
G36*
X102500000Y-60600000D02*
G01*
X101500000Y-60600000D01*
X101500000Y-59050000D01*
X102500000Y-59050000D01*
X102500000Y-60600000D01*
G37*
G36*
X104500000Y-53150000D02*
G01*
X103500000Y-53150000D01*
X103500000Y-51600000D01*
X104500000Y-51600000D01*
X104500000Y-53150000D01*
G37*
G36*
X109500000Y-60600000D02*
G01*
X108500000Y-60600000D01*
X108500000Y-59050000D01*
X109500000Y-59050000D01*
X109500000Y-60600000D01*
G37*
%TO.C,SW3*%
G36*
X176650000Y-55750000D02*
G01*
X176350000Y-55750000D01*
X176350000Y-53740000D01*
X176650000Y-53740000D01*
X176650000Y-55750000D01*
G37*
G36*
X176650000Y-55750000D02*
G01*
X176350000Y-55750000D01*
X176350000Y-54750000D01*
X176650000Y-54750000D01*
X176650000Y-55750000D01*
G37*
G36*
X178100000Y-52875000D02*
G01*
X177400000Y-52875000D01*
X177400000Y-52625000D01*
X178100000Y-52625000D01*
X178100000Y-52875000D01*
G37*
G36*
X182600000Y-52875000D02*
G01*
X181900000Y-52875000D01*
X181900000Y-52625000D01*
X182600000Y-52625000D01*
X182600000Y-52875000D01*
G37*
G36*
X183650000Y-55750000D02*
G01*
X183350000Y-55750000D01*
X183350000Y-53740000D01*
X183650000Y-53740000D01*
X183650000Y-55750000D01*
G37*
G36*
X183650000Y-55750000D02*
G01*
X183350000Y-55750000D01*
X183350000Y-54750000D01*
X183650000Y-54750000D01*
X183650000Y-55750000D01*
G37*
%TO.C,SW2*%
G36*
X136650000Y-55750000D02*
G01*
X136350000Y-55750000D01*
X136350000Y-53740000D01*
X136650000Y-53740000D01*
X136650000Y-55750000D01*
G37*
G36*
X136650000Y-55750000D02*
G01*
X136350000Y-55750000D01*
X136350000Y-54750000D01*
X136650000Y-54750000D01*
X136650000Y-55750000D01*
G37*
G36*
X138100000Y-52875000D02*
G01*
X137400000Y-52875000D01*
X137400000Y-52625000D01*
X138100000Y-52625000D01*
X138100000Y-52875000D01*
G37*
G36*
X142600000Y-52875000D02*
G01*
X141900000Y-52875000D01*
X141900000Y-52625000D01*
X142600000Y-52625000D01*
X142600000Y-52875000D01*
G37*
G36*
X143650000Y-55750000D02*
G01*
X143350000Y-55750000D01*
X143350000Y-53740000D01*
X143650000Y-53740000D01*
X143650000Y-55750000D01*
G37*
G36*
X143650000Y-55750000D02*
G01*
X143350000Y-55750000D01*
X143350000Y-54750000D01*
X143650000Y-54750000D01*
X143650000Y-55750000D01*
G37*
%TO.C,D3*%
G36*
X138650000Y-124425000D02*
G01*
X138150000Y-124425000D01*
X138150000Y-123625000D01*
X138650000Y-123625000D01*
X138650000Y-124425000D01*
G37*
G36*
X139160000Y-124825000D02*
G01*
X138640000Y-124825000D01*
X138640000Y-123225000D01*
X139160000Y-123225000D01*
X139160000Y-124825000D01*
G37*
G36*
X144060000Y-124825000D02*
G01*
X143540000Y-124825000D01*
X143540000Y-123225000D01*
X144060000Y-123225000D01*
X144060000Y-124825000D01*
G37*
G36*
X144550000Y-124825000D02*
G01*
X144050000Y-124825000D01*
X144050000Y-123225000D01*
X144550000Y-123225000D01*
X144550000Y-124825000D01*
G37*
%TO.C,U11*%
G36*
X150560000Y-61462500D02*
G01*
X150200000Y-61462500D01*
X150200000Y-61237500D01*
X150560000Y-61237500D01*
X150560000Y-61462500D01*
G37*
G36*
X150560000Y-62112500D02*
G01*
X150200000Y-62112500D01*
X150200000Y-61887500D01*
X150560000Y-61887500D01*
X150560000Y-62112500D01*
G37*
G36*
X150560000Y-62762500D02*
G01*
X150200000Y-62762500D01*
X150200000Y-62537500D01*
X150560000Y-62537500D01*
X150560000Y-62762500D01*
G37*
G36*
X150635000Y-61462500D02*
G01*
X150550000Y-61462500D01*
X150550000Y-61237500D01*
X150635000Y-61237500D01*
X150635000Y-61462500D01*
G37*
G36*
X150635000Y-62112500D02*
G01*
X150550000Y-62112500D01*
X150550000Y-61887500D01*
X150635000Y-61887500D01*
X150635000Y-62112500D01*
G37*
G36*
X150635000Y-62762500D02*
G01*
X150550000Y-62762500D01*
X150550000Y-62537500D01*
X150635000Y-62537500D01*
X150635000Y-62762500D01*
G37*
G36*
X151950000Y-61462500D02*
G01*
X151865000Y-61462500D01*
X151865000Y-61237500D01*
X151950000Y-61237500D01*
X151950000Y-61462500D01*
G37*
G36*
X151950000Y-62112500D02*
G01*
X151865000Y-62112500D01*
X151865000Y-61887500D01*
X151950000Y-61887500D01*
X151950000Y-62112500D01*
G37*
G36*
X151950000Y-62762500D02*
G01*
X151865000Y-62762500D01*
X151865000Y-62537500D01*
X151950000Y-62537500D01*
X151950000Y-62762500D01*
G37*
G36*
X152300000Y-61462500D02*
G01*
X151940000Y-61462500D01*
X151940000Y-61237500D01*
X152300000Y-61237500D01*
X152300000Y-61462500D01*
G37*
G36*
X152300000Y-62112500D02*
G01*
X151940000Y-62112500D01*
X151940000Y-61887500D01*
X152300000Y-61887500D01*
X152300000Y-62112500D01*
G37*
G36*
X152300000Y-62762500D02*
G01*
X151940000Y-62762500D01*
X151940000Y-62537500D01*
X152300000Y-62537500D01*
X152300000Y-62762500D01*
G37*
%TO.C,VR6*%
G36*
X103360000Y-70550000D02*
G01*
X101840000Y-70550000D01*
X101840000Y-70250000D01*
X103360000Y-70250000D01*
X103360000Y-70550000D01*
G37*
G36*
X112160000Y-70550000D02*
G01*
X110640000Y-70550000D01*
X110640000Y-70250000D01*
X112160000Y-70250000D01*
X112160000Y-70550000D01*
G37*
G36*
X104672208Y-62984254D02*
G01*
X104773943Y-63042991D01*
X104857009Y-63126057D01*
X104915746Y-63227792D01*
X104946150Y-63341263D01*
X104946150Y-63458737D01*
X104915746Y-63572208D01*
X104857009Y-63673943D01*
X104773943Y-63757009D01*
X104672208Y-63815746D01*
X104558737Y-63846150D01*
X104441263Y-63846150D01*
X104327792Y-63815746D01*
X104226057Y-63757009D01*
X104142991Y-63673943D01*
X104084254Y-63572208D01*
X104053850Y-63458737D01*
X104053850Y-63341263D01*
X104084254Y-63227792D01*
X104142991Y-63126057D01*
X104226057Y-63042991D01*
X104327792Y-62984254D01*
X104441263Y-62953850D01*
X104558737Y-62953850D01*
X104672208Y-62984254D01*
G37*
G36*
X107172208Y-62984254D02*
G01*
X107273943Y-63042991D01*
X107357009Y-63126057D01*
X107415746Y-63227792D01*
X107446150Y-63341263D01*
X107446150Y-63458737D01*
X107415746Y-63572208D01*
X107357009Y-63673943D01*
X107273943Y-63757009D01*
X107172208Y-63815746D01*
X107058737Y-63846150D01*
X106941263Y-63846150D01*
X106827792Y-63815746D01*
X106726057Y-63757009D01*
X106642991Y-63673943D01*
X106584254Y-63572208D01*
X106553850Y-63458737D01*
X106553850Y-63341263D01*
X106584254Y-63227792D01*
X106642991Y-63126057D01*
X106726057Y-63042991D01*
X106827792Y-62984254D01*
X106941263Y-62953850D01*
X107058737Y-62953850D01*
X107172208Y-62984254D01*
G37*
G36*
X109672208Y-62984254D02*
G01*
X109773943Y-63042991D01*
X109857009Y-63126057D01*
X109915746Y-63227792D01*
X109946150Y-63341263D01*
X109946150Y-63458737D01*
X109915746Y-63572208D01*
X109857009Y-63673943D01*
X109773943Y-63757009D01*
X109672208Y-63815746D01*
X109558737Y-63846150D01*
X109441263Y-63846150D01*
X109327792Y-63815746D01*
X109226057Y-63757009D01*
X109142991Y-63673943D01*
X109084254Y-63572208D01*
X109053850Y-63458737D01*
X109053850Y-63341263D01*
X109084254Y-63227792D01*
X109142991Y-63126057D01*
X109226057Y-63042991D01*
X109327792Y-62984254D01*
X109441263Y-62953850D01*
X109558737Y-62953850D01*
X109672208Y-62984254D01*
G37*
%TO.C,VR4*%
G36*
X209360000Y-83122000D02*
G01*
X207840000Y-83122000D01*
X207840000Y-82822000D01*
X209360000Y-82822000D01*
X209360000Y-83122000D01*
G37*
G36*
X218160000Y-83122000D02*
G01*
X216640000Y-83122000D01*
X216640000Y-82822000D01*
X218160000Y-82822000D01*
X218160000Y-83122000D01*
G37*
G36*
X210672208Y-75556254D02*
G01*
X210773943Y-75614991D01*
X210857009Y-75698057D01*
X210915746Y-75799792D01*
X210946150Y-75913263D01*
X210946150Y-76030737D01*
X210915746Y-76144208D01*
X210857009Y-76245943D01*
X210773943Y-76329009D01*
X210672208Y-76387746D01*
X210558737Y-76418150D01*
X210441263Y-76418150D01*
X210327792Y-76387746D01*
X210226057Y-76329009D01*
X210142991Y-76245943D01*
X210084254Y-76144208D01*
X210053850Y-76030737D01*
X210053850Y-75913263D01*
X210084254Y-75799792D01*
X210142991Y-75698057D01*
X210226057Y-75614991D01*
X210327792Y-75556254D01*
X210441263Y-75525850D01*
X210558737Y-75525850D01*
X210672208Y-75556254D01*
G37*
G36*
X213172208Y-75556254D02*
G01*
X213273943Y-75614991D01*
X213357009Y-75698057D01*
X213415746Y-75799792D01*
X213446150Y-75913263D01*
X213446150Y-76030737D01*
X213415746Y-76144208D01*
X213357009Y-76245943D01*
X213273943Y-76329009D01*
X213172208Y-76387746D01*
X213058737Y-76418150D01*
X212941263Y-76418150D01*
X212827792Y-76387746D01*
X212726057Y-76329009D01*
X212642991Y-76245943D01*
X212584254Y-76144208D01*
X212553850Y-76030737D01*
X212553850Y-75913263D01*
X212584254Y-75799792D01*
X212642991Y-75698057D01*
X212726057Y-75614991D01*
X212827792Y-75556254D01*
X212941263Y-75525850D01*
X213058737Y-75525850D01*
X213172208Y-75556254D01*
G37*
G36*
X215672208Y-75556254D02*
G01*
X215773943Y-75614991D01*
X215857009Y-75698057D01*
X215915746Y-75799792D01*
X215946150Y-75913263D01*
X215946150Y-76030737D01*
X215915746Y-76144208D01*
X215857009Y-76245943D01*
X215773943Y-76329009D01*
X215672208Y-76387746D01*
X215558737Y-76418150D01*
X215441263Y-76418150D01*
X215327792Y-76387746D01*
X215226057Y-76329009D01*
X215142991Y-76245943D01*
X215084254Y-76144208D01*
X215053850Y-76030737D01*
X215053850Y-75913263D01*
X215084254Y-75799792D01*
X215142991Y-75698057D01*
X215226057Y-75614991D01*
X215327792Y-75556254D01*
X215441263Y-75525850D01*
X215558737Y-75525850D01*
X215672208Y-75556254D01*
G37*
%TO.C,L1*%
G36*
X150500000Y-65267500D02*
G01*
X150100000Y-65267500D01*
X150100000Y-63992500D01*
X150500000Y-63992500D01*
X150500000Y-65267500D01*
G37*
G36*
X152100000Y-65267500D02*
G01*
X151700000Y-65267500D01*
X151700000Y-63992500D01*
X152100000Y-63992500D01*
X152100000Y-65267500D01*
G37*
%TO.C,U4*%
G36*
X185200000Y-75775000D02*
G01*
X184500000Y-75775000D01*
X184500000Y-75345000D01*
X185200000Y-75345000D01*
X185200000Y-75775000D01*
G37*
G36*
X185200000Y-77045000D02*
G01*
X184500000Y-77045000D01*
X184500000Y-76615000D01*
X185200000Y-76615000D01*
X185200000Y-77045000D01*
G37*
G36*
X185200000Y-78315000D02*
G01*
X184500000Y-78315000D01*
X184500000Y-77885000D01*
X185200000Y-77885000D01*
X185200000Y-78315000D01*
G37*
G36*
X185200000Y-79585000D02*
G01*
X184500000Y-79585000D01*
X184500000Y-79155000D01*
X185200000Y-79155000D01*
X185200000Y-79585000D01*
G37*
G36*
X185200000Y-80855000D02*
G01*
X184500000Y-80855000D01*
X184500000Y-80425000D01*
X185200000Y-80425000D01*
X185200000Y-80855000D01*
G37*
G36*
X185200000Y-82125000D02*
G01*
X184500000Y-82125000D01*
X184500000Y-81695000D01*
X185200000Y-81695000D01*
X185200000Y-82125000D01*
G37*
G36*
X185200000Y-83395000D02*
G01*
X184500000Y-83395000D01*
X184500000Y-82965000D01*
X185200000Y-82965000D01*
X185200000Y-83395000D01*
G37*
G36*
X185200000Y-84665000D02*
G01*
X184500000Y-84665000D01*
X184500000Y-84235000D01*
X185200000Y-84235000D01*
X185200000Y-84665000D01*
G37*
G36*
X185560000Y-75775000D02*
G01*
X185190000Y-75775000D01*
X185190000Y-75345000D01*
X185560000Y-75345000D01*
X185560000Y-75775000D01*
G37*
G36*
X185560000Y-77045000D02*
G01*
X185190000Y-77045000D01*
X185190000Y-76615000D01*
X185560000Y-76615000D01*
X185560000Y-77045000D01*
G37*
G36*
X185560000Y-78315000D02*
G01*
X185190000Y-78315000D01*
X185190000Y-77885000D01*
X185560000Y-77885000D01*
X185560000Y-78315000D01*
G37*
G36*
X185560000Y-79585000D02*
G01*
X185190000Y-79585000D01*
X185190000Y-79155000D01*
X185560000Y-79155000D01*
X185560000Y-79585000D01*
G37*
G36*
X185560000Y-80855000D02*
G01*
X185190000Y-80855000D01*
X185190000Y-80425000D01*
X185560000Y-80425000D01*
X185560000Y-80855000D01*
G37*
G36*
X185560000Y-82125000D02*
G01*
X185190000Y-82125000D01*
X185190000Y-81695000D01*
X185560000Y-81695000D01*
X185560000Y-82125000D01*
G37*
G36*
X185560000Y-83395000D02*
G01*
X185190000Y-83395000D01*
X185190000Y-82965000D01*
X185560000Y-82965000D01*
X185560000Y-83395000D01*
G37*
G36*
X185560000Y-84665000D02*
G01*
X185190000Y-84665000D01*
X185190000Y-84235000D01*
X185560000Y-84235000D01*
X185560000Y-84665000D01*
G37*
G36*
X189810000Y-75775000D02*
G01*
X189440000Y-75775000D01*
X189440000Y-75345000D01*
X189810000Y-75345000D01*
X189810000Y-75775000D01*
G37*
G36*
X189810000Y-77045000D02*
G01*
X189440000Y-77045000D01*
X189440000Y-76615000D01*
X189810000Y-76615000D01*
X189810000Y-77045000D01*
G37*
G36*
X189810000Y-78315000D02*
G01*
X189440000Y-78315000D01*
X189440000Y-77885000D01*
X189810000Y-77885000D01*
X189810000Y-78315000D01*
G37*
G36*
X189810000Y-79585000D02*
G01*
X189440000Y-79585000D01*
X189440000Y-79155000D01*
X189810000Y-79155000D01*
X189810000Y-79585000D01*
G37*
G36*
X189810000Y-80855000D02*
G01*
X189440000Y-80855000D01*
X189440000Y-80425000D01*
X189810000Y-80425000D01*
X189810000Y-80855000D01*
G37*
G36*
X189810000Y-82125000D02*
G01*
X189440000Y-82125000D01*
X189440000Y-81695000D01*
X189810000Y-81695000D01*
X189810000Y-82125000D01*
G37*
G36*
X189810000Y-83395000D02*
G01*
X189440000Y-83395000D01*
X189440000Y-82965000D01*
X189810000Y-82965000D01*
X189810000Y-83395000D01*
G37*
G36*
X189810000Y-84665000D02*
G01*
X189440000Y-84665000D01*
X189440000Y-84235000D01*
X189810000Y-84235000D01*
X189810000Y-84665000D01*
G37*
G36*
X190500000Y-75775000D02*
G01*
X189800000Y-75775000D01*
X189800000Y-75345000D01*
X190500000Y-75345000D01*
X190500000Y-75775000D01*
G37*
G36*
X190500000Y-77045000D02*
G01*
X189800000Y-77045000D01*
X189800000Y-76615000D01*
X190500000Y-76615000D01*
X190500000Y-77045000D01*
G37*
G36*
X190500000Y-78315000D02*
G01*
X189800000Y-78315000D01*
X189800000Y-77885000D01*
X190500000Y-77885000D01*
X190500000Y-78315000D01*
G37*
G36*
X190500000Y-79585000D02*
G01*
X189800000Y-79585000D01*
X189800000Y-79155000D01*
X190500000Y-79155000D01*
X190500000Y-79585000D01*
G37*
G36*
X190500000Y-80855000D02*
G01*
X189800000Y-80855000D01*
X189800000Y-80425000D01*
X190500000Y-80425000D01*
X190500000Y-80855000D01*
G37*
G36*
X190500000Y-82125000D02*
G01*
X189800000Y-82125000D01*
X189800000Y-81695000D01*
X190500000Y-81695000D01*
X190500000Y-82125000D01*
G37*
G36*
X190500000Y-83395000D02*
G01*
X189800000Y-83395000D01*
X189800000Y-82965000D01*
X190500000Y-82965000D01*
X190500000Y-83395000D01*
G37*
G36*
X190500000Y-84665000D02*
G01*
X189800000Y-84665000D01*
X189800000Y-84235000D01*
X190500000Y-84235000D01*
X190500000Y-84665000D01*
G37*
%TO.C,VR3*%
G36*
X191360000Y-124150000D02*
G01*
X189840000Y-124150000D01*
X189840000Y-123850000D01*
X191360000Y-123850000D01*
X191360000Y-124150000D01*
G37*
G36*
X200160000Y-124150000D02*
G01*
X198640000Y-124150000D01*
X198640000Y-123850000D01*
X200160000Y-123850000D01*
X200160000Y-124150000D01*
G37*
G36*
X192672208Y-116584254D02*
G01*
X192773943Y-116642991D01*
X192857009Y-116726057D01*
X192915746Y-116827792D01*
X192946150Y-116941263D01*
X192946150Y-117058737D01*
X192915746Y-117172208D01*
X192857009Y-117273943D01*
X192773943Y-117357009D01*
X192672208Y-117415746D01*
X192558737Y-117446150D01*
X192441263Y-117446150D01*
X192327792Y-117415746D01*
X192226057Y-117357009D01*
X192142991Y-117273943D01*
X192084254Y-117172208D01*
X192053850Y-117058737D01*
X192053850Y-116941263D01*
X192084254Y-116827792D01*
X192142991Y-116726057D01*
X192226057Y-116642991D01*
X192327792Y-116584254D01*
X192441263Y-116553850D01*
X192558737Y-116553850D01*
X192672208Y-116584254D01*
G37*
G36*
X195172208Y-116584254D02*
G01*
X195273943Y-116642991D01*
X195357009Y-116726057D01*
X195415746Y-116827792D01*
X195446150Y-116941263D01*
X195446150Y-117058737D01*
X195415746Y-117172208D01*
X195357009Y-117273943D01*
X195273943Y-117357009D01*
X195172208Y-117415746D01*
X195058737Y-117446150D01*
X194941263Y-117446150D01*
X194827792Y-117415746D01*
X194726057Y-117357009D01*
X194642991Y-117273943D01*
X194584254Y-117172208D01*
X194553850Y-117058737D01*
X194553850Y-116941263D01*
X194584254Y-116827792D01*
X194642991Y-116726057D01*
X194726057Y-116642991D01*
X194827792Y-116584254D01*
X194941263Y-116553850D01*
X195058737Y-116553850D01*
X195172208Y-116584254D01*
G37*
G36*
X197672208Y-116584254D02*
G01*
X197773943Y-116642991D01*
X197857009Y-116726057D01*
X197915746Y-116827792D01*
X197946150Y-116941263D01*
X197946150Y-117058737D01*
X197915746Y-117172208D01*
X197857009Y-117273943D01*
X197773943Y-117357009D01*
X197672208Y-117415746D01*
X197558737Y-117446150D01*
X197441263Y-117446150D01*
X197327792Y-117415746D01*
X197226057Y-117357009D01*
X197142991Y-117273943D01*
X197084254Y-117172208D01*
X197053850Y-117058737D01*
X197053850Y-116941263D01*
X197084254Y-116827792D01*
X197142991Y-116726057D01*
X197226057Y-116642991D01*
X197327792Y-116584254D01*
X197441263Y-116553850D01*
X197558737Y-116553850D01*
X197672208Y-116584254D01*
G37*
%TO.C,SW4*%
G36*
X191650000Y-55750000D02*
G01*
X191350000Y-55750000D01*
X191350000Y-53740000D01*
X191650000Y-53740000D01*
X191650000Y-55750000D01*
G37*
G36*
X191650000Y-55750000D02*
G01*
X191350000Y-55750000D01*
X191350000Y-54750000D01*
X191650000Y-54750000D01*
X191650000Y-55750000D01*
G37*
G36*
X193100000Y-52875000D02*
G01*
X192400000Y-52875000D01*
X192400000Y-52625000D01*
X193100000Y-52625000D01*
X193100000Y-52875000D01*
G37*
G36*
X197600000Y-52875000D02*
G01*
X196900000Y-52875000D01*
X196900000Y-52625000D01*
X197600000Y-52625000D01*
X197600000Y-52875000D01*
G37*
G36*
X198650000Y-55750000D02*
G01*
X198350000Y-55750000D01*
X198350000Y-53740000D01*
X198650000Y-53740000D01*
X198650000Y-55750000D01*
G37*
G36*
X198650000Y-55750000D02*
G01*
X198350000Y-55750000D01*
X198350000Y-54750000D01*
X198650000Y-54750000D01*
X198650000Y-55750000D01*
G37*
%TO.C,U9*%
G36*
X123305000Y-63241000D02*
G01*
X122905000Y-63241000D01*
X122905000Y-63001000D01*
X123305000Y-63001000D01*
X123305000Y-63241000D01*
G37*
G36*
X123305000Y-63741000D02*
G01*
X122905000Y-63741000D01*
X122905000Y-63501000D01*
X123305000Y-63501000D01*
X123305000Y-63741000D01*
G37*
G36*
X123305000Y-64241000D02*
G01*
X122905000Y-64241000D01*
X122905000Y-64001000D01*
X123305000Y-64001000D01*
X123305000Y-64241000D01*
G37*
G36*
X123305000Y-64741000D02*
G01*
X122905000Y-64741000D01*
X122905000Y-64501000D01*
X123305000Y-64501000D01*
X123305000Y-64741000D01*
G37*
G36*
X123305000Y-65241000D02*
G01*
X122905000Y-65241000D01*
X122905000Y-65001000D01*
X123305000Y-65001000D01*
X123305000Y-65241000D01*
G37*
G36*
X125880000Y-63241000D02*
G01*
X125480000Y-63241000D01*
X125480000Y-63001000D01*
X125880000Y-63001000D01*
X125880000Y-63241000D01*
G37*
G36*
X125880000Y-63741000D02*
G01*
X125480000Y-63741000D01*
X125480000Y-63501000D01*
X125880000Y-63501000D01*
X125880000Y-63741000D01*
G37*
G36*
X125880000Y-64241000D02*
G01*
X125480000Y-64241000D01*
X125480000Y-64001000D01*
X125880000Y-64001000D01*
X125880000Y-64241000D01*
G37*
G36*
X125880000Y-64741000D02*
G01*
X125480000Y-64741000D01*
X125480000Y-64501000D01*
X125880000Y-64501000D01*
X125880000Y-64741000D01*
G37*
G36*
X125880000Y-65241000D02*
G01*
X125480000Y-65241000D01*
X125480000Y-65001000D01*
X125880000Y-65001000D01*
X125880000Y-65241000D01*
G37*
G36*
X124850000Y-63241000D02*
G01*
X125140000Y-63241000D01*
X125140000Y-65011000D01*
X124850000Y-65011000D01*
X124848000Y-65622500D01*
X124699500Y-65622500D01*
X124565500Y-65624000D01*
X124560000Y-65011000D01*
X124200000Y-65011000D01*
X124189000Y-65624000D01*
X124051500Y-65624000D01*
X123913500Y-65622500D01*
X123910000Y-65011000D01*
X123620000Y-65011000D01*
X123620000Y-63231000D01*
X123910000Y-63231000D01*
X123910000Y-62625500D01*
X124059000Y-62625500D01*
X124192500Y-62625500D01*
X124200000Y-63241000D01*
X124560000Y-63241000D01*
X124564000Y-62624500D01*
X124700000Y-62627000D01*
X124845000Y-62624500D01*
X124850000Y-63241000D01*
G37*
%TO.C,VR7*%
G36*
X103360000Y-98550000D02*
G01*
X101840000Y-98550000D01*
X101840000Y-98250000D01*
X103360000Y-98250000D01*
X103360000Y-98550000D01*
G37*
G36*
X112160000Y-98550000D02*
G01*
X110640000Y-98550000D01*
X110640000Y-98250000D01*
X112160000Y-98250000D01*
X112160000Y-98550000D01*
G37*
G36*
X104672208Y-90984254D02*
G01*
X104773943Y-91042991D01*
X104857009Y-91126057D01*
X104915746Y-91227792D01*
X104946150Y-91341263D01*
X104946150Y-91458737D01*
X104915746Y-91572208D01*
X104857009Y-91673943D01*
X104773943Y-91757009D01*
X104672208Y-91815746D01*
X104558737Y-91846150D01*
X104441263Y-91846150D01*
X104327792Y-91815746D01*
X104226057Y-91757009D01*
X104142991Y-91673943D01*
X104084254Y-91572208D01*
X104053850Y-91458737D01*
X104053850Y-91341263D01*
X104084254Y-91227792D01*
X104142991Y-91126057D01*
X104226057Y-91042991D01*
X104327792Y-90984254D01*
X104441263Y-90953850D01*
X104558737Y-90953850D01*
X104672208Y-90984254D01*
G37*
G36*
X107172208Y-90984254D02*
G01*
X107273943Y-91042991D01*
X107357009Y-91126057D01*
X107415746Y-91227792D01*
X107446150Y-91341263D01*
X107446150Y-91458737D01*
X107415746Y-91572208D01*
X107357009Y-91673943D01*
X107273943Y-91757009D01*
X107172208Y-91815746D01*
X107058737Y-91846150D01*
X106941263Y-91846150D01*
X106827792Y-91815746D01*
X106726057Y-91757009D01*
X106642991Y-91673943D01*
X106584254Y-91572208D01*
X106553850Y-91458737D01*
X106553850Y-91341263D01*
X106584254Y-91227792D01*
X106642991Y-91126057D01*
X106726057Y-91042991D01*
X106827792Y-90984254D01*
X106941263Y-90953850D01*
X107058737Y-90953850D01*
X107172208Y-90984254D01*
G37*
G36*
X109672208Y-90984254D02*
G01*
X109773943Y-91042991D01*
X109857009Y-91126057D01*
X109915746Y-91227792D01*
X109946150Y-91341263D01*
X109946150Y-91458737D01*
X109915746Y-91572208D01*
X109857009Y-91673943D01*
X109773943Y-91757009D01*
X109672208Y-91815746D01*
X109558737Y-91846150D01*
X109441263Y-91846150D01*
X109327792Y-91815746D01*
X109226057Y-91757009D01*
X109142991Y-91673943D01*
X109084254Y-91572208D01*
X109053850Y-91458737D01*
X109053850Y-91341263D01*
X109084254Y-91227792D01*
X109142991Y-91126057D01*
X109226057Y-91042991D01*
X109327792Y-90984254D01*
X109441263Y-90953850D01*
X109558737Y-90953850D01*
X109672208Y-90984254D01*
G37*
%TO.C,J2*%
G36*
X103050000Y-126500000D02*
G01*
X101500000Y-126500000D01*
X101500000Y-125500000D01*
X103050000Y-125500000D01*
X103050000Y-126500000D01*
G37*
G36*
X110500000Y-121500000D02*
G01*
X108950000Y-121500000D01*
X108950000Y-120500000D01*
X110500000Y-120500000D01*
X110500000Y-121500000D01*
G37*
G36*
X110500000Y-128500000D02*
G01*
X108950000Y-128500000D01*
X108950000Y-127500000D01*
X110500000Y-127500000D01*
X110500000Y-128500000D01*
G37*
%TO.C,U12*%
G36*
X123280000Y-69702500D02*
G01*
X122920000Y-69702500D01*
X122920000Y-69477500D01*
X123280000Y-69477500D01*
X123280000Y-69702500D01*
G37*
G36*
X123280000Y-70352500D02*
G01*
X122920000Y-70352500D01*
X122920000Y-70127500D01*
X123280000Y-70127500D01*
X123280000Y-70352500D01*
G37*
G36*
X123280000Y-71002500D02*
G01*
X122920000Y-71002500D01*
X122920000Y-70777500D01*
X123280000Y-70777500D01*
X123280000Y-71002500D01*
G37*
G36*
X123355000Y-69702500D02*
G01*
X123270000Y-69702500D01*
X123270000Y-69477500D01*
X123355000Y-69477500D01*
X123355000Y-69702500D01*
G37*
G36*
X123355000Y-70352500D02*
G01*
X123270000Y-70352500D01*
X123270000Y-70127500D01*
X123355000Y-70127500D01*
X123355000Y-70352500D01*
G37*
G36*
X123355000Y-71002500D02*
G01*
X123270000Y-71002500D01*
X123270000Y-70777500D01*
X123355000Y-70777500D01*
X123355000Y-71002500D01*
G37*
G36*
X124670000Y-69702500D02*
G01*
X124585000Y-69702500D01*
X124585000Y-69477500D01*
X124670000Y-69477500D01*
X124670000Y-69702500D01*
G37*
G36*
X124670000Y-70352500D02*
G01*
X124585000Y-70352500D01*
X124585000Y-70127500D01*
X124670000Y-70127500D01*
X124670000Y-70352500D01*
G37*
G36*
X124670000Y-71002500D02*
G01*
X124585000Y-71002500D01*
X124585000Y-70777500D01*
X124670000Y-70777500D01*
X124670000Y-71002500D01*
G37*
G36*
X125020000Y-69702500D02*
G01*
X124660000Y-69702500D01*
X124660000Y-69477500D01*
X125020000Y-69477500D01*
X125020000Y-69702500D01*
G37*
G36*
X125020000Y-70352500D02*
G01*
X124660000Y-70352500D01*
X124660000Y-70127500D01*
X125020000Y-70127500D01*
X125020000Y-70352500D01*
G37*
G36*
X125020000Y-71002500D02*
G01*
X124660000Y-71002500D01*
X124660000Y-70777500D01*
X125020000Y-70777500D01*
X125020000Y-71002500D01*
G37*
%TD*%
M02*
