%TF.GenerationSoftware,KiCad,Pcbnew,9.0.5*%
%TF.CreationDate,2026-03-23T23:06:55+01:00*%
%TF.ProjectId,Spikeling_v3.2,5370696b-656c-4696-9e67-5f76332e322e,rev?*%
%TF.SameCoordinates,Original*%
%TF.FileFunction,AssemblyDrawing,Bot*%
%FSLAX46Y46*%
G04 Gerber Fmt 4.6, Leading zero omitted, Abs format (unit mm)*
G04 Created by KiCad (PCBNEW 9.0.5) date 2026-03-23 23:06:55*
%MOMM*%
%LPD*%
G01*
G04 APERTURE LIST*
%ADD10C,0.150000*%
%ADD11C,0.075000*%
%ADD12C,0.045000*%
%ADD13C,0.100000*%
G04 APERTURE END LIST*
D10*
X118195714Y-49551009D02*
X118052857Y-49598628D01*
X118052857Y-49598628D02*
X118005238Y-49646247D01*
X118005238Y-49646247D02*
X117957619Y-49741485D01*
X117957619Y-49741485D02*
X117957619Y-49884342D01*
X117957619Y-49884342D02*
X118005238Y-49979580D01*
X118005238Y-49979580D02*
X118052857Y-50027200D01*
X118052857Y-50027200D02*
X118148095Y-50074819D01*
X118148095Y-50074819D02*
X118529047Y-50074819D01*
X118529047Y-50074819D02*
X118529047Y-49074819D01*
X118529047Y-49074819D02*
X118195714Y-49074819D01*
X118195714Y-49074819D02*
X118100476Y-49122438D01*
X118100476Y-49122438D02*
X118052857Y-49170057D01*
X118052857Y-49170057D02*
X118005238Y-49265295D01*
X118005238Y-49265295D02*
X118005238Y-49360533D01*
X118005238Y-49360533D02*
X118052857Y-49455771D01*
X118052857Y-49455771D02*
X118100476Y-49503390D01*
X118100476Y-49503390D02*
X118195714Y-49551009D01*
X118195714Y-49551009D02*
X118529047Y-49551009D01*
X117671904Y-49074819D02*
X117100476Y-49074819D01*
X117386190Y-50074819D02*
X117386190Y-49074819D01*
X116243333Y-50074819D02*
X116814761Y-50074819D01*
X116529047Y-50074819D02*
X116529047Y-49074819D01*
X116529047Y-49074819D02*
X116624285Y-49217676D01*
X116624285Y-49217676D02*
X116719523Y-49312914D01*
X116719523Y-49312914D02*
X116814761Y-49360533D01*
X121314763Y-63451009D02*
X121171906Y-63498628D01*
X121171906Y-63498628D02*
X121124287Y-63546247D01*
X121124287Y-63546247D02*
X121076668Y-63641485D01*
X121076668Y-63641485D02*
X121076668Y-63784342D01*
X121076668Y-63784342D02*
X121124287Y-63879580D01*
X121124287Y-63879580D02*
X121171906Y-63927200D01*
X121171906Y-63927200D02*
X121267144Y-63974819D01*
X121267144Y-63974819D02*
X121648096Y-63974819D01*
X121648096Y-63974819D02*
X121648096Y-62974819D01*
X121648096Y-62974819D02*
X121314763Y-62974819D01*
X121314763Y-62974819D02*
X121219525Y-63022438D01*
X121219525Y-63022438D02*
X121171906Y-63070057D01*
X121171906Y-63070057D02*
X121124287Y-63165295D01*
X121124287Y-63165295D02*
X121124287Y-63260533D01*
X121124287Y-63260533D02*
X121171906Y-63355771D01*
X121171906Y-63355771D02*
X121219525Y-63403390D01*
X121219525Y-63403390D02*
X121314763Y-63451009D01*
X121314763Y-63451009D02*
X121648096Y-63451009D01*
X120219525Y-63974819D02*
X120219525Y-63451009D01*
X120219525Y-63451009D02*
X120267144Y-63355771D01*
X120267144Y-63355771D02*
X120362382Y-63308152D01*
X120362382Y-63308152D02*
X120552858Y-63308152D01*
X120552858Y-63308152D02*
X120648096Y-63355771D01*
X120219525Y-63927200D02*
X120314763Y-63974819D01*
X120314763Y-63974819D02*
X120552858Y-63974819D01*
X120552858Y-63974819D02*
X120648096Y-63927200D01*
X120648096Y-63927200D02*
X120695715Y-63831961D01*
X120695715Y-63831961D02*
X120695715Y-63736723D01*
X120695715Y-63736723D02*
X120648096Y-63641485D01*
X120648096Y-63641485D02*
X120552858Y-63593866D01*
X120552858Y-63593866D02*
X120314763Y-63593866D01*
X120314763Y-63593866D02*
X120219525Y-63546247D01*
X119886191Y-63308152D02*
X119505239Y-63308152D01*
X119743334Y-62974819D02*
X119743334Y-63831961D01*
X119743334Y-63831961D02*
X119695715Y-63927200D01*
X119695715Y-63927200D02*
X119600477Y-63974819D01*
X119600477Y-63974819D02*
X119505239Y-63974819D01*
X119314762Y-63308152D02*
X118933810Y-63308152D01*
X119171905Y-62974819D02*
X119171905Y-63831961D01*
X119171905Y-63831961D02*
X119124286Y-63927200D01*
X119124286Y-63927200D02*
X119029048Y-63974819D01*
X119029048Y-63974819D02*
X118933810Y-63974819D01*
X118219524Y-63927200D02*
X118314762Y-63974819D01*
X118314762Y-63974819D02*
X118505238Y-63974819D01*
X118505238Y-63974819D02*
X118600476Y-63927200D01*
X118600476Y-63927200D02*
X118648095Y-63831961D01*
X118648095Y-63831961D02*
X118648095Y-63451009D01*
X118648095Y-63451009D02*
X118600476Y-63355771D01*
X118600476Y-63355771D02*
X118505238Y-63308152D01*
X118505238Y-63308152D02*
X118314762Y-63308152D01*
X118314762Y-63308152D02*
X118219524Y-63355771D01*
X118219524Y-63355771D02*
X118171905Y-63451009D01*
X118171905Y-63451009D02*
X118171905Y-63546247D01*
X118171905Y-63546247D02*
X118648095Y-63641485D01*
X117743333Y-63974819D02*
X117743333Y-63308152D01*
X117743333Y-63498628D02*
X117695714Y-63403390D01*
X117695714Y-63403390D02*
X117648095Y-63355771D01*
X117648095Y-63355771D02*
X117552857Y-63308152D01*
X117552857Y-63308152D02*
X117457619Y-63308152D01*
X117219523Y-63308152D02*
X116981428Y-63974819D01*
X116743333Y-63308152D02*
X116981428Y-63974819D01*
X116981428Y-63974819D02*
X117076666Y-64212914D01*
X117076666Y-64212914D02*
X117124285Y-64260533D01*
X117124285Y-64260533D02*
X117219523Y-64308152D01*
X116600476Y-64070057D02*
X115838571Y-64070057D01*
X115029047Y-63879580D02*
X115076666Y-63927200D01*
X115076666Y-63927200D02*
X115219523Y-63974819D01*
X115219523Y-63974819D02*
X115314761Y-63974819D01*
X115314761Y-63974819D02*
X115457618Y-63927200D01*
X115457618Y-63927200D02*
X115552856Y-63831961D01*
X115552856Y-63831961D02*
X115600475Y-63736723D01*
X115600475Y-63736723D02*
X115648094Y-63546247D01*
X115648094Y-63546247D02*
X115648094Y-63403390D01*
X115648094Y-63403390D02*
X115600475Y-63212914D01*
X115600475Y-63212914D02*
X115552856Y-63117676D01*
X115552856Y-63117676D02*
X115457618Y-63022438D01*
X115457618Y-63022438D02*
X115314761Y-62974819D01*
X115314761Y-62974819D02*
X115219523Y-62974819D01*
X115219523Y-62974819D02*
X115076666Y-63022438D01*
X115076666Y-63022438D02*
X115029047Y-63070057D01*
X114219523Y-63927200D02*
X114314761Y-63974819D01*
X114314761Y-63974819D02*
X114505237Y-63974819D01*
X114505237Y-63974819D02*
X114600475Y-63927200D01*
X114600475Y-63927200D02*
X114648094Y-63831961D01*
X114648094Y-63831961D02*
X114648094Y-63451009D01*
X114648094Y-63451009D02*
X114600475Y-63355771D01*
X114600475Y-63355771D02*
X114505237Y-63308152D01*
X114505237Y-63308152D02*
X114314761Y-63308152D01*
X114314761Y-63308152D02*
X114219523Y-63355771D01*
X114219523Y-63355771D02*
X114171904Y-63451009D01*
X114171904Y-63451009D02*
X114171904Y-63546247D01*
X114171904Y-63546247D02*
X114648094Y-63641485D01*
X113600475Y-63974819D02*
X113695713Y-63927200D01*
X113695713Y-63927200D02*
X113743332Y-63831961D01*
X113743332Y-63831961D02*
X113743332Y-62974819D01*
X113076665Y-63974819D02*
X113171903Y-63927200D01*
X113171903Y-63927200D02*
X113219522Y-63831961D01*
X113219522Y-63831961D02*
X113219522Y-62974819D01*
X118195714Y-56501009D02*
X118052857Y-56548628D01*
X118052857Y-56548628D02*
X118005238Y-56596247D01*
X118005238Y-56596247D02*
X117957619Y-56691485D01*
X117957619Y-56691485D02*
X117957619Y-56834342D01*
X117957619Y-56834342D02*
X118005238Y-56929580D01*
X118005238Y-56929580D02*
X118052857Y-56977200D01*
X118052857Y-56977200D02*
X118148095Y-57024819D01*
X118148095Y-57024819D02*
X118529047Y-57024819D01*
X118529047Y-57024819D02*
X118529047Y-56024819D01*
X118529047Y-56024819D02*
X118195714Y-56024819D01*
X118195714Y-56024819D02*
X118100476Y-56072438D01*
X118100476Y-56072438D02*
X118052857Y-56120057D01*
X118052857Y-56120057D02*
X118005238Y-56215295D01*
X118005238Y-56215295D02*
X118005238Y-56310533D01*
X118005238Y-56310533D02*
X118052857Y-56405771D01*
X118052857Y-56405771D02*
X118100476Y-56453390D01*
X118100476Y-56453390D02*
X118195714Y-56501009D01*
X118195714Y-56501009D02*
X118529047Y-56501009D01*
X117671904Y-56024819D02*
X117100476Y-56024819D01*
X117386190Y-57024819D02*
X117386190Y-56024819D01*
X116243333Y-57024819D02*
X116814761Y-57024819D01*
X116529047Y-57024819D02*
X116529047Y-56024819D01*
X116529047Y-56024819D02*
X116624285Y-56167676D01*
X116624285Y-56167676D02*
X116719523Y-56262914D01*
X116719523Y-56262914D02*
X116814761Y-56310533D01*
X214738094Y-122953042D02*
X214738094Y-121953042D01*
X214738094Y-121953042D02*
X214499999Y-121953042D01*
X214499999Y-121953042D02*
X214357142Y-122000661D01*
X214357142Y-122000661D02*
X214261904Y-122095899D01*
X214261904Y-122095899D02*
X214214285Y-122191137D01*
X214214285Y-122191137D02*
X214166666Y-122381613D01*
X214166666Y-122381613D02*
X214166666Y-122524470D01*
X214166666Y-122524470D02*
X214214285Y-122714946D01*
X214214285Y-122714946D02*
X214261904Y-122810184D01*
X214261904Y-122810184D02*
X214357142Y-122905423D01*
X214357142Y-122905423D02*
X214499999Y-122953042D01*
X214499999Y-122953042D02*
X214738094Y-122953042D01*
X213690475Y-122953042D02*
X213499999Y-122953042D01*
X213499999Y-122953042D02*
X213404761Y-122905423D01*
X213404761Y-122905423D02*
X213357142Y-122857803D01*
X213357142Y-122857803D02*
X213261904Y-122714946D01*
X213261904Y-122714946D02*
X213214285Y-122524470D01*
X213214285Y-122524470D02*
X213214285Y-122143518D01*
X213214285Y-122143518D02*
X213261904Y-122048280D01*
X213261904Y-122048280D02*
X213309523Y-122000661D01*
X213309523Y-122000661D02*
X213404761Y-121953042D01*
X213404761Y-121953042D02*
X213595237Y-121953042D01*
X213595237Y-121953042D02*
X213690475Y-122000661D01*
X213690475Y-122000661D02*
X213738094Y-122048280D01*
X213738094Y-122048280D02*
X213785713Y-122143518D01*
X213785713Y-122143518D02*
X213785713Y-122381613D01*
X213785713Y-122381613D02*
X213738094Y-122476851D01*
X213738094Y-122476851D02*
X213690475Y-122524470D01*
X213690475Y-122524470D02*
X213595237Y-122572089D01*
X213595237Y-122572089D02*
X213404761Y-122572089D01*
X213404761Y-122572089D02*
X213309523Y-122524470D01*
X213309523Y-122524470D02*
X213261904Y-122476851D01*
X213261904Y-122476851D02*
X213214285Y-122381613D01*
D11*
X215511904Y-121525632D02*
X215749999Y-121525632D01*
X215749999Y-121525632D02*
X215749999Y-121025632D01*
X215345237Y-121263727D02*
X215178570Y-121263727D01*
X215107142Y-121525632D02*
X215345237Y-121525632D01*
X215345237Y-121525632D02*
X215345237Y-121025632D01*
X215345237Y-121025632D02*
X215107142Y-121025632D01*
X214892856Y-121525632D02*
X214892856Y-121025632D01*
X214892856Y-121025632D02*
X214773808Y-121025632D01*
X214773808Y-121025632D02*
X214702380Y-121049442D01*
X214702380Y-121049442D02*
X214654761Y-121097061D01*
X214654761Y-121097061D02*
X214630951Y-121144680D01*
X214630951Y-121144680D02*
X214607142Y-121239918D01*
X214607142Y-121239918D02*
X214607142Y-121311346D01*
X214607142Y-121311346D02*
X214630951Y-121406584D01*
X214630951Y-121406584D02*
X214654761Y-121454203D01*
X214654761Y-121454203D02*
X214702380Y-121501823D01*
X214702380Y-121501823D02*
X214773808Y-121525632D01*
X214773808Y-121525632D02*
X214892856Y-121525632D01*
X214511904Y-121573251D02*
X214130951Y-121573251D01*
X213845237Y-121263727D02*
X213773809Y-121287537D01*
X213773809Y-121287537D02*
X213749999Y-121311346D01*
X213749999Y-121311346D02*
X213726190Y-121358965D01*
X213726190Y-121358965D02*
X213726190Y-121430394D01*
X213726190Y-121430394D02*
X213749999Y-121478013D01*
X213749999Y-121478013D02*
X213773809Y-121501823D01*
X213773809Y-121501823D02*
X213821428Y-121525632D01*
X213821428Y-121525632D02*
X214011904Y-121525632D01*
X214011904Y-121525632D02*
X214011904Y-121025632D01*
X214011904Y-121025632D02*
X213845237Y-121025632D01*
X213845237Y-121025632D02*
X213797618Y-121049442D01*
X213797618Y-121049442D02*
X213773809Y-121073251D01*
X213773809Y-121073251D02*
X213749999Y-121120870D01*
X213749999Y-121120870D02*
X213749999Y-121168489D01*
X213749999Y-121168489D02*
X213773809Y-121216108D01*
X213773809Y-121216108D02*
X213797618Y-121239918D01*
X213797618Y-121239918D02*
X213845237Y-121263727D01*
X213845237Y-121263727D02*
X214011904Y-121263727D01*
X213249999Y-121049442D02*
X213297618Y-121025632D01*
X213297618Y-121025632D02*
X213369047Y-121025632D01*
X213369047Y-121025632D02*
X213440475Y-121049442D01*
X213440475Y-121049442D02*
X213488094Y-121097061D01*
X213488094Y-121097061D02*
X213511904Y-121144680D01*
X213511904Y-121144680D02*
X213535713Y-121239918D01*
X213535713Y-121239918D02*
X213535713Y-121311346D01*
X213535713Y-121311346D02*
X213511904Y-121406584D01*
X213511904Y-121406584D02*
X213488094Y-121454203D01*
X213488094Y-121454203D02*
X213440475Y-121501823D01*
X213440475Y-121501823D02*
X213369047Y-121525632D01*
X213369047Y-121525632D02*
X213321428Y-121525632D01*
X213321428Y-121525632D02*
X213249999Y-121501823D01*
X213249999Y-121501823D02*
X213226190Y-121478013D01*
X213226190Y-121478013D02*
X213226190Y-121311346D01*
X213226190Y-121311346D02*
X213321428Y-121311346D01*
X213011904Y-121525632D02*
X213011904Y-121025632D01*
X212726190Y-121525632D02*
X212940475Y-121239918D01*
X212726190Y-121025632D02*
X213011904Y-121311346D01*
X212226190Y-121525632D02*
X212392856Y-121287537D01*
X212511904Y-121525632D02*
X212511904Y-121025632D01*
X212511904Y-121025632D02*
X212321428Y-121025632D01*
X212321428Y-121025632D02*
X212273809Y-121049442D01*
X212273809Y-121049442D02*
X212249999Y-121073251D01*
X212249999Y-121073251D02*
X212226190Y-121120870D01*
X212226190Y-121120870D02*
X212226190Y-121192299D01*
X212226190Y-121192299D02*
X212249999Y-121239918D01*
X212249999Y-121239918D02*
X212273809Y-121263727D01*
X212273809Y-121263727D02*
X212321428Y-121287537D01*
X212321428Y-121287537D02*
X212511904Y-121287537D01*
D12*
X214221428Y-124434668D02*
X214221428Y-124134668D01*
X214221428Y-124134668D02*
X214149999Y-124134668D01*
X214149999Y-124134668D02*
X214107142Y-124148954D01*
X214107142Y-124148954D02*
X214078571Y-124177525D01*
X214078571Y-124177525D02*
X214064285Y-124206097D01*
X214064285Y-124206097D02*
X214049999Y-124263240D01*
X214049999Y-124263240D02*
X214049999Y-124306097D01*
X214049999Y-124306097D02*
X214064285Y-124363240D01*
X214064285Y-124363240D02*
X214078571Y-124391811D01*
X214078571Y-124391811D02*
X214107142Y-124420383D01*
X214107142Y-124420383D02*
X214149999Y-124434668D01*
X214149999Y-124434668D02*
X214221428Y-124434668D01*
X213907142Y-124434668D02*
X213849999Y-124434668D01*
X213849999Y-124434668D02*
X213821428Y-124420383D01*
X213821428Y-124420383D02*
X213807142Y-124406097D01*
X213807142Y-124406097D02*
X213778571Y-124363240D01*
X213778571Y-124363240D02*
X213764285Y-124306097D01*
X213764285Y-124306097D02*
X213764285Y-124191811D01*
X213764285Y-124191811D02*
X213778571Y-124163240D01*
X213778571Y-124163240D02*
X213792857Y-124148954D01*
X213792857Y-124148954D02*
X213821428Y-124134668D01*
X213821428Y-124134668D02*
X213878571Y-124134668D01*
X213878571Y-124134668D02*
X213907142Y-124148954D01*
X213907142Y-124148954D02*
X213921428Y-124163240D01*
X213921428Y-124163240D02*
X213935714Y-124191811D01*
X213935714Y-124191811D02*
X213935714Y-124263240D01*
X213935714Y-124263240D02*
X213921428Y-124291811D01*
X213921428Y-124291811D02*
X213907142Y-124306097D01*
X213907142Y-124306097D02*
X213878571Y-124320383D01*
X213878571Y-124320383D02*
X213821428Y-124320383D01*
X213821428Y-124320383D02*
X213792857Y-124306097D01*
X213792857Y-124306097D02*
X213778571Y-124291811D01*
X213778571Y-124291811D02*
X213764285Y-124263240D01*
D13*
%TO.C,BT1*%
X121110000Y-50820000D02*
X119910000Y-50820000D01*
X121110000Y-62320000D02*
X121110000Y-50820000D01*
X119910000Y-50820000D02*
X119910000Y-55320000D01*
X119910000Y-55320000D02*
X117410000Y-55320000D01*
X119285000Y-55320000D02*
X118660000Y-54320000D01*
X118660000Y-54320000D02*
X118035000Y-55320000D01*
X117410000Y-62320000D02*
X121110000Y-62320000D01*
X117410000Y-62320000D02*
X113710000Y-62320000D01*
X114910000Y-50820000D02*
X114910000Y-55320000D01*
X114910000Y-55320000D02*
X117410000Y-55320000D01*
X113710000Y-50820000D02*
X114910000Y-50820000D01*
X113710000Y-62320000D02*
X113710000Y-50820000D01*
%TO.C,D9*%
X212500000Y-124548223D02*
X212500000Y-124048223D01*
X212500000Y-124048223D02*
X215500000Y-124048223D01*
X213250000Y-124548223D02*
X212750000Y-124048223D01*
X215500000Y-124548223D02*
X212500000Y-124548223D01*
X215500000Y-124048223D02*
X215500000Y-124548223D01*
X215000000Y-124548223D02*
G75*
G02*
X213000000Y-124548223I-1000000J0D01*
G01*
%TD*%
M02*
