%TF.GenerationSoftware,KiCad,Pcbnew,9.0.5*%
%TF.CreationDate,2026-03-23T23:06:55+01:00*%
%TF.ProjectId,Spikeling_v3.2,5370696b-656c-4696-9e67-5f76332e322e,rev?*%
%TF.SameCoordinates,Original*%
%TF.FileFunction,Other,User*%
%FSLAX46Y46*%
G04 Gerber Fmt 4.6, Leading zero omitted, Abs format (unit mm)*
G04 Created by KiCad (PCBNEW 9.0.5) date 2026-03-23 23:06:55*
%MOMM*%
%LPD*%
G01*
G04 APERTURE LIST*
%ADD10C,0.000000*%
G04 APERTURE END LIST*
D10*
%TO.C,U13*%
G36*
X203022793Y-104896322D02*
G01*
X202572793Y-104896322D01*
X202572793Y-104496322D01*
X203022793Y-104496322D01*
X203022793Y-104896322D01*
G37*
G36*
X203022793Y-102996322D02*
G01*
X202572793Y-102996322D01*
X202572793Y-102596322D01*
X203022793Y-102596322D01*
X203022793Y-102996322D01*
G37*
G36*
X202582793Y-104896322D02*
G01*
X202412793Y-104896322D01*
X202412793Y-104496322D01*
X202582793Y-104496322D01*
X202582793Y-104896322D01*
G37*
G36*
X202582793Y-102996322D02*
G01*
X202412793Y-102996322D01*
X202412793Y-102596322D01*
X202582793Y-102596322D01*
X202582793Y-102996322D01*
G37*
G36*
X200832793Y-104896322D02*
G01*
X200662793Y-104896322D01*
X200662793Y-104496322D01*
X200832793Y-104496322D01*
X200832793Y-104896322D01*
G37*
G36*
X200832793Y-103946322D02*
G01*
X200662793Y-103946322D01*
X200662793Y-103546322D01*
X200832793Y-103546322D01*
X200832793Y-103946322D01*
G37*
G36*
X200832793Y-102996322D02*
G01*
X200662793Y-102996322D01*
X200662793Y-102596322D01*
X200832793Y-102596322D01*
X200832793Y-102996322D01*
G37*
G36*
X200672793Y-104896322D02*
G01*
X200222793Y-104896322D01*
X200222793Y-104496322D01*
X200672793Y-104496322D01*
X200672793Y-104896322D01*
G37*
G36*
X200672793Y-103946322D02*
G01*
X200222793Y-103946322D01*
X200222793Y-103546322D01*
X200672793Y-103546322D01*
X200672793Y-103946322D01*
G37*
G36*
X200672793Y-102996322D02*
G01*
X200222793Y-102996322D01*
X200222793Y-102596322D01*
X200672793Y-102596322D01*
X200672793Y-102996322D01*
G37*
%TO.C,TV1*%
G36*
X160949835Y-61077032D02*
G01*
X160804835Y-61077032D01*
X160804835Y-60647032D01*
X160949835Y-60647032D01*
X160949835Y-61077032D01*
G37*
G36*
X160949835Y-60127032D02*
G01*
X160804835Y-60127032D01*
X160804835Y-59697032D01*
X160949835Y-59697032D01*
X160949835Y-60127032D01*
G37*
G36*
X160949835Y-59177032D02*
G01*
X160804835Y-59177032D01*
X160804835Y-58747032D01*
X160949835Y-58747032D01*
X160949835Y-59177032D01*
G37*
G36*
X161414835Y-61077032D02*
G01*
X160939835Y-61077032D01*
X160939835Y-60647032D01*
X161414835Y-60647032D01*
X161414835Y-61077032D01*
G37*
G36*
X161414835Y-60127032D02*
G01*
X160939835Y-60127032D01*
X160939835Y-59697032D01*
X161414835Y-59697032D01*
X161414835Y-60127032D01*
G37*
G36*
X161414835Y-59177032D02*
G01*
X160939835Y-59177032D01*
X160939835Y-58747032D01*
X161414835Y-58747032D01*
X161414835Y-59177032D01*
G37*
G36*
X159089835Y-61077032D02*
G01*
X158614835Y-61077032D01*
X158614835Y-60647032D01*
X159089835Y-60647032D01*
X159089835Y-61077032D01*
G37*
G36*
X159089835Y-60127032D02*
G01*
X158614835Y-60127032D01*
X158614835Y-59697032D01*
X159089835Y-59697032D01*
X159089835Y-60127032D01*
G37*
G36*
X159089835Y-59177032D02*
G01*
X158614835Y-59177032D01*
X158614835Y-58747032D01*
X159089835Y-58747032D01*
X159089835Y-59177032D01*
G37*
G36*
X159224835Y-61077032D02*
G01*
X159079835Y-61077032D01*
X159079835Y-60647032D01*
X159224835Y-60647032D01*
X159224835Y-61077032D01*
G37*
G36*
X159224835Y-60127032D02*
G01*
X159079835Y-60127032D01*
X159079835Y-59697032D01*
X159224835Y-59697032D01*
X159224835Y-60127032D01*
G37*
G36*
X159224835Y-59177032D02*
G01*
X159079835Y-59177032D01*
X159079835Y-58747032D01*
X159224835Y-58747032D01*
X159224835Y-59177032D01*
G37*
%TO.C,L2*%
G36*
X190821981Y-62946755D02*
G01*
X190421981Y-62946755D01*
X190421981Y-61671755D01*
X190821981Y-61671755D01*
X190821981Y-62946755D01*
G37*
G36*
X192421981Y-62946755D02*
G01*
X192021981Y-62946755D01*
X192021981Y-61671755D01*
X192421981Y-61671755D01*
X192421981Y-62946755D01*
G37*
%TO.C,J6*%
G36*
X218500000Y-61750000D02*
G01*
X217500000Y-61750000D01*
X217500000Y-61450000D01*
X218500000Y-61450000D01*
X218500000Y-61750000D01*
G37*
G36*
X216500000Y-66550000D02*
G01*
X215500000Y-66550000D01*
X215500000Y-66250000D01*
X216500000Y-66250000D01*
X216500000Y-66550000D01*
G37*
G36*
X211500000Y-61750000D02*
G01*
X210500000Y-61750000D01*
X210500000Y-61450000D01*
X211500000Y-61450000D01*
X211500000Y-61750000D01*
G37*
%TO.C,J5*%
G36*
X216550000Y-128500000D02*
G01*
X216250000Y-128500000D01*
X216250000Y-127500000D01*
X216550000Y-127500000D01*
X216550000Y-128500000D01*
G37*
G36*
X211750000Y-126500000D02*
G01*
X211450000Y-126500000D01*
X211450000Y-125500000D01*
X211750000Y-125500000D01*
X211750000Y-126500000D01*
G37*
G36*
X216550000Y-121500000D02*
G01*
X216250000Y-121500000D01*
X216250000Y-120500000D01*
X216550000Y-120500000D01*
X216550000Y-121500000D01*
G37*
%TO.C,J4*%
G36*
X102500000Y-86550000D02*
G01*
X101500000Y-86550000D01*
X101500000Y-86250000D01*
X102500000Y-86250000D01*
X102500000Y-86550000D01*
G37*
G36*
X104500000Y-81750000D02*
G01*
X103500000Y-81750000D01*
X103500000Y-81450000D01*
X104500000Y-81450000D01*
X104500000Y-81750000D01*
G37*
G36*
X109500000Y-86550000D02*
G01*
X108500000Y-86550000D01*
X108500000Y-86250000D01*
X109500000Y-86250000D01*
X109500000Y-86550000D01*
G37*
%TO.C,J3*%
G36*
X102500000Y-58650000D02*
G01*
X101500000Y-58650000D01*
X101500000Y-58350000D01*
X102500000Y-58350000D01*
X102500000Y-58650000D01*
G37*
G36*
X104500000Y-53850000D02*
G01*
X103500000Y-53850000D01*
X103500000Y-53550000D01*
X104500000Y-53550000D01*
X104500000Y-53850000D01*
G37*
G36*
X109500000Y-58650000D02*
G01*
X108500000Y-58650000D01*
X108500000Y-58350000D01*
X109500000Y-58350000D01*
X109500000Y-58650000D01*
G37*
%TO.C,J1*%
G36*
X108550000Y-128500000D02*
G01*
X108250000Y-128500000D01*
X108250000Y-127500000D01*
X108550000Y-127500000D01*
X108550000Y-128500000D01*
G37*
G36*
X103750000Y-126500000D02*
G01*
X103450000Y-126500000D01*
X103450000Y-125500000D01*
X103750000Y-125500000D01*
X103750000Y-126500000D01*
G37*
G36*
X108550000Y-121500000D02*
G01*
X108250000Y-121500000D01*
X108250000Y-120500000D01*
X108550000Y-120500000D01*
X108550000Y-121500000D01*
G37*
%TO.C,VR4*%
G36*
X156360000Y-124150000D02*
G01*
X154840000Y-124150000D01*
X154840000Y-123850000D01*
X156360000Y-123850000D01*
X156360000Y-124150000D01*
G37*
G36*
X165160000Y-124150000D02*
G01*
X163640000Y-124150000D01*
X163640000Y-123850000D01*
X165160000Y-123850000D01*
X165160000Y-124150000D01*
G37*
G36*
X157672208Y-116584254D02*
G01*
X157773943Y-116642991D01*
X157857009Y-116726057D01*
X157915746Y-116827792D01*
X157946150Y-116941263D01*
X157946150Y-117058737D01*
X157915746Y-117172208D01*
X157857009Y-117273943D01*
X157773943Y-117357009D01*
X157672208Y-117415746D01*
X157558737Y-117446150D01*
X157441263Y-117446150D01*
X157327792Y-117415746D01*
X157226057Y-117357009D01*
X157142991Y-117273943D01*
X157084254Y-117172208D01*
X157053850Y-117058737D01*
X157053850Y-116941263D01*
X157084254Y-116827792D01*
X157142991Y-116726057D01*
X157226057Y-116642991D01*
X157327792Y-116584254D01*
X157441263Y-116553850D01*
X157558737Y-116553850D01*
X157672208Y-116584254D01*
G37*
G36*
X160172208Y-116584254D02*
G01*
X160273943Y-116642991D01*
X160357009Y-116726057D01*
X160415746Y-116827792D01*
X160446150Y-116941263D01*
X160446150Y-117058737D01*
X160415746Y-117172208D01*
X160357009Y-117273943D01*
X160273943Y-117357009D01*
X160172208Y-117415746D01*
X160058737Y-117446150D01*
X159941263Y-117446150D01*
X159827792Y-117415746D01*
X159726057Y-117357009D01*
X159642991Y-117273943D01*
X159584254Y-117172208D01*
X159553850Y-117058737D01*
X159553850Y-116941263D01*
X159584254Y-116827792D01*
X159642991Y-116726057D01*
X159726057Y-116642991D01*
X159827792Y-116584254D01*
X159941263Y-116553850D01*
X160058737Y-116553850D01*
X160172208Y-116584254D01*
G37*
G36*
X162672208Y-116584254D02*
G01*
X162773943Y-116642991D01*
X162857009Y-116726057D01*
X162915746Y-116827792D01*
X162946150Y-116941263D01*
X162946150Y-117058737D01*
X162915746Y-117172208D01*
X162857009Y-117273943D01*
X162773943Y-117357009D01*
X162672208Y-117415746D01*
X162558737Y-117446150D01*
X162441263Y-117446150D01*
X162327792Y-117415746D01*
X162226057Y-117357009D01*
X162142991Y-117273943D01*
X162084254Y-117172208D01*
X162053850Y-117058737D01*
X162053850Y-116941263D01*
X162084254Y-116827792D01*
X162142991Y-116726057D01*
X162226057Y-116642991D01*
X162327792Y-116584254D01*
X162441263Y-116553850D01*
X162558737Y-116553850D01*
X162672208Y-116584254D01*
G37*
%TO.C,U12*%
G36*
X129781396Y-84614500D02*
G01*
X129081396Y-84614500D01*
X129081396Y-84184500D01*
X129781396Y-84184500D01*
X129781396Y-84614500D01*
G37*
G36*
X129781396Y-85884500D02*
G01*
X129081396Y-85884500D01*
X129081396Y-85454500D01*
X129781396Y-85454500D01*
X129781396Y-85884500D01*
G37*
G36*
X129781396Y-87154500D02*
G01*
X129081396Y-87154500D01*
X129081396Y-86724500D01*
X129781396Y-86724500D01*
X129781396Y-87154500D01*
G37*
G36*
X129781396Y-88424500D02*
G01*
X129081396Y-88424500D01*
X129081396Y-87994500D01*
X129781396Y-87994500D01*
X129781396Y-88424500D01*
G37*
G36*
X129781396Y-89694500D02*
G01*
X129081396Y-89694500D01*
X129081396Y-89264500D01*
X129781396Y-89264500D01*
X129781396Y-89694500D01*
G37*
G36*
X129781396Y-90964500D02*
G01*
X129081396Y-90964500D01*
X129081396Y-90534500D01*
X129781396Y-90534500D01*
X129781396Y-90964500D01*
G37*
G36*
X129781396Y-92234500D02*
G01*
X129081396Y-92234500D01*
X129081396Y-91804500D01*
X129781396Y-91804500D01*
X129781396Y-92234500D01*
G37*
G36*
X129781396Y-93504500D02*
G01*
X129081396Y-93504500D01*
X129081396Y-93074500D01*
X129781396Y-93074500D01*
X129781396Y-93504500D01*
G37*
G36*
X130141396Y-84614500D02*
G01*
X129771396Y-84614500D01*
X129771396Y-84184500D01*
X130141396Y-84184500D01*
X130141396Y-84614500D01*
G37*
G36*
X130141396Y-85884500D02*
G01*
X129771396Y-85884500D01*
X129771396Y-85454500D01*
X130141396Y-85454500D01*
X130141396Y-85884500D01*
G37*
G36*
X130141396Y-87154500D02*
G01*
X129771396Y-87154500D01*
X129771396Y-86724500D01*
X130141396Y-86724500D01*
X130141396Y-87154500D01*
G37*
G36*
X130141396Y-88424500D02*
G01*
X129771396Y-88424500D01*
X129771396Y-87994500D01*
X130141396Y-87994500D01*
X130141396Y-88424500D01*
G37*
G36*
X130141396Y-89694500D02*
G01*
X129771396Y-89694500D01*
X129771396Y-89264500D01*
X130141396Y-89264500D01*
X130141396Y-89694500D01*
G37*
G36*
X130141396Y-90964500D02*
G01*
X129771396Y-90964500D01*
X129771396Y-90534500D01*
X130141396Y-90534500D01*
X130141396Y-90964500D01*
G37*
G36*
X130141396Y-92234500D02*
G01*
X129771396Y-92234500D01*
X129771396Y-91804500D01*
X130141396Y-91804500D01*
X130141396Y-92234500D01*
G37*
G36*
X130141396Y-93504500D02*
G01*
X129771396Y-93504500D01*
X129771396Y-93074500D01*
X130141396Y-93074500D01*
X130141396Y-93504500D01*
G37*
G36*
X134391396Y-84614500D02*
G01*
X134021396Y-84614500D01*
X134021396Y-84184500D01*
X134391396Y-84184500D01*
X134391396Y-84614500D01*
G37*
G36*
X134391396Y-85884500D02*
G01*
X134021396Y-85884500D01*
X134021396Y-85454500D01*
X134391396Y-85454500D01*
X134391396Y-85884500D01*
G37*
G36*
X134391396Y-87154500D02*
G01*
X134021396Y-87154500D01*
X134021396Y-86724500D01*
X134391396Y-86724500D01*
X134391396Y-87154500D01*
G37*
G36*
X134391396Y-88424500D02*
G01*
X134021396Y-88424500D01*
X134021396Y-87994500D01*
X134391396Y-87994500D01*
X134391396Y-88424500D01*
G37*
G36*
X134391396Y-89694500D02*
G01*
X134021396Y-89694500D01*
X134021396Y-89264500D01*
X134391396Y-89264500D01*
X134391396Y-89694500D01*
G37*
G36*
X134391396Y-90964500D02*
G01*
X134021396Y-90964500D01*
X134021396Y-90534500D01*
X134391396Y-90534500D01*
X134391396Y-90964500D01*
G37*
G36*
X134391396Y-92234500D02*
G01*
X134021396Y-92234500D01*
X134021396Y-91804500D01*
X134391396Y-91804500D01*
X134391396Y-92234500D01*
G37*
G36*
X134391396Y-93504500D02*
G01*
X134021396Y-93504500D01*
X134021396Y-93074500D01*
X134391396Y-93074500D01*
X134391396Y-93504500D01*
G37*
G36*
X135081396Y-84614500D02*
G01*
X134381396Y-84614500D01*
X134381396Y-84184500D01*
X135081396Y-84184500D01*
X135081396Y-84614500D01*
G37*
G36*
X135081396Y-85884500D02*
G01*
X134381396Y-85884500D01*
X134381396Y-85454500D01*
X135081396Y-85454500D01*
X135081396Y-85884500D01*
G37*
G36*
X135081396Y-87154500D02*
G01*
X134381396Y-87154500D01*
X134381396Y-86724500D01*
X135081396Y-86724500D01*
X135081396Y-87154500D01*
G37*
G36*
X135081396Y-88424500D02*
G01*
X134381396Y-88424500D01*
X134381396Y-87994500D01*
X135081396Y-87994500D01*
X135081396Y-88424500D01*
G37*
G36*
X135081396Y-89694500D02*
G01*
X134381396Y-89694500D01*
X134381396Y-89264500D01*
X135081396Y-89264500D01*
X135081396Y-89694500D01*
G37*
G36*
X135081396Y-90964500D02*
G01*
X134381396Y-90964500D01*
X134381396Y-90534500D01*
X135081396Y-90534500D01*
X135081396Y-90964500D01*
G37*
G36*
X135081396Y-92234500D02*
G01*
X134381396Y-92234500D01*
X134381396Y-91804500D01*
X135081396Y-91804500D01*
X135081396Y-92234500D01*
G37*
G36*
X135081396Y-93504500D02*
G01*
X134381396Y-93504500D01*
X134381396Y-93074500D01*
X135081396Y-93074500D01*
X135081396Y-93504500D01*
G37*
%TO.C,D2*%
G36*
X112579349Y-55600000D02*
G01*
X112279349Y-55600000D01*
X112279349Y-55300000D01*
X112579349Y-55300000D01*
X112579349Y-55600000D01*
G37*
G36*
X112579349Y-56900500D02*
G01*
X112279349Y-56900500D01*
X112279349Y-56600500D01*
X112579349Y-56600500D01*
X112579349Y-56900500D01*
G37*
G36*
X112714349Y-55600000D02*
G01*
X112569349Y-55600000D01*
X112569349Y-55300000D01*
X112714349Y-55300000D01*
X112714349Y-55600000D01*
G37*
G36*
X112714349Y-56900500D02*
G01*
X112569349Y-56900500D01*
X112569349Y-56600500D01*
X112714349Y-56600500D01*
X112714349Y-56900500D01*
G37*
G36*
X114089349Y-56250000D02*
G01*
X113944349Y-56250000D01*
X113944349Y-55950000D01*
X114089349Y-55950000D01*
X114089349Y-56250000D01*
G37*
G36*
X114379349Y-56250000D02*
G01*
X114079349Y-56250000D01*
X114079349Y-55950000D01*
X114379349Y-55950000D01*
X114379349Y-56250000D01*
G37*
%TO.C,D4*%
G36*
X140300000Y-125200000D02*
G01*
X139800000Y-125200000D01*
X139800000Y-123600000D01*
X140300000Y-123600000D01*
X140300000Y-125200000D01*
G37*
G36*
X140810000Y-125200000D02*
G01*
X140290000Y-125200000D01*
X140290000Y-123600000D01*
X140810000Y-123600000D01*
X140810000Y-125200000D01*
G37*
G36*
X145710000Y-125200000D02*
G01*
X145190000Y-125200000D01*
X145190000Y-123600000D01*
X145710000Y-123600000D01*
X145710000Y-125200000D01*
G37*
G36*
X146200000Y-124800000D02*
G01*
X145700000Y-124800000D01*
X145700000Y-124000000D01*
X146200000Y-124000000D01*
X146200000Y-124800000D01*
G37*
%TO.C,U5*%
G36*
X146945480Y-65021729D02*
G01*
X146345480Y-65021729D01*
X146345480Y-64771729D01*
X146945480Y-64771729D01*
X146945480Y-65021729D01*
G37*
G36*
X146845480Y-65521729D02*
G01*
X146345480Y-65521729D01*
X146345480Y-65271729D01*
X146845480Y-65271729D01*
X146845480Y-65521729D01*
G37*
G36*
X146845480Y-66021729D02*
G01*
X146345480Y-66021729D01*
X146345480Y-65771729D01*
X146845480Y-65771729D01*
X146845480Y-66021729D01*
G37*
G36*
X147845480Y-65021729D02*
G01*
X147345480Y-65021729D01*
X147345480Y-64771729D01*
X147845480Y-64771729D01*
X147845480Y-65021729D01*
G37*
G36*
X147845480Y-65521729D02*
G01*
X147345480Y-65521729D01*
X147345480Y-65271729D01*
X147845480Y-65271729D01*
X147845480Y-65521729D01*
G37*
G36*
X147845480Y-66021729D02*
G01*
X147345480Y-66021729D01*
X147345480Y-65771729D01*
X147845480Y-65771729D01*
X147845480Y-66021729D01*
G37*
%TO.C,U10*%
G36*
X151919595Y-77087210D02*
G01*
X151069595Y-77087210D01*
X151069595Y-76187210D01*
X151919595Y-76187210D01*
X151919595Y-77087210D01*
G37*
G36*
X151919595Y-78357210D02*
G01*
X151069595Y-78357210D01*
X151069595Y-77457210D01*
X151919595Y-77457210D01*
X151919595Y-78357210D01*
G37*
G36*
X151919595Y-79627210D02*
G01*
X151069595Y-79627210D01*
X151069595Y-78727210D01*
X151919595Y-78727210D01*
X151919595Y-79627210D01*
G37*
G36*
X151919595Y-80897210D02*
G01*
X151069595Y-80897210D01*
X151069595Y-79997210D01*
X151919595Y-79997210D01*
X151919595Y-80897210D01*
G37*
G36*
X151919595Y-82167210D02*
G01*
X151069595Y-82167210D01*
X151069595Y-81267210D01*
X151919595Y-81267210D01*
X151919595Y-82167210D01*
G37*
G36*
X151919595Y-83437210D02*
G01*
X151069595Y-83437210D01*
X151069595Y-82537210D01*
X151919595Y-82537210D01*
X151919595Y-83437210D01*
G37*
G36*
X151919595Y-84707210D02*
G01*
X151069595Y-84707210D01*
X151069595Y-83807210D01*
X151919595Y-83807210D01*
X151919595Y-84707210D01*
G37*
G36*
X151919595Y-85977210D02*
G01*
X151069595Y-85977210D01*
X151069595Y-85077210D01*
X151919595Y-85077210D01*
X151919595Y-85977210D01*
G37*
G36*
X151919595Y-87247210D02*
G01*
X151069595Y-87247210D01*
X151069595Y-86347210D01*
X151919595Y-86347210D01*
X151919595Y-87247210D01*
G37*
G36*
X151919595Y-88517210D02*
G01*
X151069595Y-88517210D01*
X151069595Y-87617210D01*
X151919595Y-87617210D01*
X151919595Y-88517210D01*
G37*
G36*
X151919595Y-89787210D02*
G01*
X151069595Y-89787210D01*
X151069595Y-88887210D01*
X151919595Y-88887210D01*
X151919595Y-89787210D01*
G37*
G36*
X151919595Y-91057210D02*
G01*
X151069595Y-91057210D01*
X151069595Y-90157210D01*
X151919595Y-90157210D01*
X151919595Y-91057210D01*
G37*
G36*
X151919595Y-92327210D02*
G01*
X151069595Y-92327210D01*
X151069595Y-91427210D01*
X151919595Y-91427210D01*
X151919595Y-92327210D01*
G37*
G36*
X151919595Y-93597210D02*
G01*
X151069595Y-93597210D01*
X151069595Y-92697210D01*
X151919595Y-92697210D01*
X151919595Y-93597210D01*
G37*
G36*
X153534595Y-75987710D02*
G01*
X152634595Y-75987710D01*
X152634595Y-75138210D01*
X153534595Y-75138210D01*
X153534595Y-75987710D01*
G37*
G36*
X154804595Y-75987710D02*
G01*
X153904595Y-75987710D01*
X153904595Y-75138210D01*
X154804595Y-75138210D01*
X154804595Y-75987710D01*
G37*
G36*
X156074595Y-75987710D02*
G01*
X155174595Y-75987710D01*
X155174595Y-75138210D01*
X156074595Y-75138210D01*
X156074595Y-75987710D01*
G37*
G36*
X157344595Y-75987710D02*
G01*
X156444595Y-75987710D01*
X156444595Y-75138210D01*
X157344595Y-75138210D01*
X157344595Y-75987710D01*
G37*
G36*
X158614595Y-75987710D02*
G01*
X157714595Y-75987710D01*
X157714595Y-75138210D01*
X158614595Y-75138210D01*
X158614595Y-75987710D01*
G37*
G36*
X159884595Y-75987710D02*
G01*
X158984595Y-75987710D01*
X158984595Y-75138210D01*
X159884595Y-75138210D01*
X159884595Y-75987710D01*
G37*
G36*
X160619095Y-84477710D02*
G01*
X159719095Y-84477710D01*
X159719095Y-83577710D01*
X160619095Y-83577710D01*
X160619095Y-84477710D01*
G37*
G36*
X160619095Y-85877710D02*
G01*
X159719095Y-85877710D01*
X159719095Y-84977710D01*
X160619095Y-84977710D01*
X160619095Y-85877710D01*
G37*
G36*
X160619095Y-87277710D02*
G01*
X159719095Y-87277710D01*
X159719095Y-86377710D01*
X160619095Y-86377710D01*
X160619095Y-87277710D01*
G37*
G36*
X161154595Y-75987710D02*
G01*
X160254595Y-75987710D01*
X160254595Y-75138210D01*
X161154595Y-75138210D01*
X161154595Y-75987710D01*
G37*
G36*
X162019095Y-84477710D02*
G01*
X161119095Y-84477710D01*
X161119095Y-83577710D01*
X162019095Y-83577710D01*
X162019095Y-84477710D01*
G37*
G36*
X162019095Y-85877710D02*
G01*
X161119095Y-85877710D01*
X161119095Y-84977710D01*
X162019095Y-84977710D01*
X162019095Y-85877710D01*
G37*
G36*
X162019095Y-87277710D02*
G01*
X161119095Y-87277710D01*
X161119095Y-86377710D01*
X162019095Y-86377710D01*
X162019095Y-87277710D01*
G37*
G36*
X162424595Y-75987710D02*
G01*
X161524595Y-75987710D01*
X161524595Y-75138210D01*
X162424595Y-75138210D01*
X162424595Y-75987710D01*
G37*
G36*
X163419095Y-84477710D02*
G01*
X162519095Y-84477710D01*
X162519095Y-83577710D01*
X163419095Y-83577710D01*
X163419095Y-84477710D01*
G37*
G36*
X163419095Y-85877710D02*
G01*
X162519095Y-85877710D01*
X162519095Y-84977710D01*
X163419095Y-84977710D01*
X163419095Y-85877710D01*
G37*
G36*
X163419095Y-87277710D02*
G01*
X162519095Y-87277710D01*
X162519095Y-86377710D01*
X163419095Y-86377710D01*
X163419095Y-87277710D01*
G37*
G36*
X163694595Y-75987710D02*
G01*
X162794595Y-75987710D01*
X162794595Y-75138210D01*
X163694595Y-75138210D01*
X163694595Y-75987710D01*
G37*
G36*
X164964595Y-75987710D02*
G01*
X164064595Y-75987710D01*
X164064595Y-75138210D01*
X164964595Y-75138210D01*
X164964595Y-75987710D01*
G37*
G36*
X166234595Y-75987710D02*
G01*
X165334595Y-75987710D01*
X165334595Y-75138210D01*
X166234595Y-75138210D01*
X166234595Y-75987710D01*
G37*
G36*
X167504595Y-75987710D02*
G01*
X166604595Y-75987710D01*
X166604595Y-75138210D01*
X167504595Y-75138210D01*
X167504595Y-75987710D01*
G37*
G36*
X169069595Y-77087210D02*
G01*
X168219595Y-77087210D01*
X168219595Y-76187210D01*
X169069595Y-76187210D01*
X169069595Y-77087210D01*
G37*
G36*
X169069595Y-78357210D02*
G01*
X168219595Y-78357210D01*
X168219595Y-77457210D01*
X169069595Y-77457210D01*
X169069595Y-78357210D01*
G37*
G36*
X169069595Y-79627210D02*
G01*
X168219595Y-79627210D01*
X168219595Y-78727210D01*
X169069595Y-78727210D01*
X169069595Y-79627210D01*
G37*
G36*
X169069595Y-80897210D02*
G01*
X168219595Y-80897210D01*
X168219595Y-79997210D01*
X169069595Y-79997210D01*
X169069595Y-80897210D01*
G37*
G36*
X169069595Y-82167210D02*
G01*
X168219595Y-82167210D01*
X168219595Y-81267210D01*
X169069595Y-81267210D01*
X169069595Y-82167210D01*
G37*
G36*
X169069595Y-83437210D02*
G01*
X168219595Y-83437210D01*
X168219595Y-82537210D01*
X169069595Y-82537210D01*
X169069595Y-83437210D01*
G37*
G36*
X169069595Y-84707210D02*
G01*
X168219595Y-84707210D01*
X168219595Y-83807210D01*
X169069595Y-83807210D01*
X169069595Y-84707210D01*
G37*
G36*
X169069595Y-85977210D02*
G01*
X168219595Y-85977210D01*
X168219595Y-85077210D01*
X169069595Y-85077210D01*
X169069595Y-85977210D01*
G37*
G36*
X169069595Y-87247210D02*
G01*
X168219595Y-87247210D01*
X168219595Y-86347210D01*
X169069595Y-86347210D01*
X169069595Y-87247210D01*
G37*
G36*
X169069595Y-88517210D02*
G01*
X168219595Y-88517210D01*
X168219595Y-87617210D01*
X169069595Y-87617210D01*
X169069595Y-88517210D01*
G37*
G36*
X169069595Y-89787210D02*
G01*
X168219595Y-89787210D01*
X168219595Y-88887210D01*
X169069595Y-88887210D01*
X169069595Y-89787210D01*
G37*
G36*
X169069595Y-91057210D02*
G01*
X168219595Y-91057210D01*
X168219595Y-90157210D01*
X169069595Y-90157210D01*
X169069595Y-91057210D01*
G37*
G36*
X169069595Y-92327210D02*
G01*
X168219595Y-92327210D01*
X168219595Y-91427210D01*
X169069595Y-91427210D01*
X169069595Y-92327210D01*
G37*
G36*
X169069595Y-93597210D02*
G01*
X168219595Y-93597210D01*
X168219595Y-92697210D01*
X169069595Y-92697210D01*
X169069595Y-93597210D01*
G37*
%TO.C,L3*%
G36*
X182856481Y-62424255D02*
G01*
X182086481Y-62424255D01*
X182086481Y-59734255D01*
X182856481Y-59734255D01*
X182856481Y-62424255D01*
G37*
G36*
X184856481Y-62424255D02*
G01*
X184086481Y-62424255D01*
X184086481Y-59734255D01*
X184856481Y-59734255D01*
X184856481Y-62424255D01*
G37*
%TO.C,SW3*%
G36*
X123644854Y-52531957D02*
G01*
X123725564Y-52578555D01*
X123791463Y-52644454D01*
X123838061Y-52725164D01*
X123862182Y-52815184D01*
X123862182Y-52908380D01*
X123838061Y-52998400D01*
X123791463Y-53079110D01*
X123725564Y-53145009D01*
X123644854Y-53191607D01*
X123554834Y-53215728D01*
X123461638Y-53215728D01*
X123371618Y-53191607D01*
X123290908Y-53145009D01*
X123225009Y-53079110D01*
X123178411Y-52998400D01*
X123154290Y-52908380D01*
X123154290Y-52815184D01*
X123178411Y-52725164D01*
X123225009Y-52644454D01*
X123290908Y-52578555D01*
X123371618Y-52531957D01*
X123461638Y-52507836D01*
X123554834Y-52507836D01*
X123644854Y-52531957D01*
G37*
G36*
X126144854Y-52531957D02*
G01*
X126225564Y-52578555D01*
X126291463Y-52644454D01*
X126338061Y-52725164D01*
X126362182Y-52815184D01*
X126362182Y-52908380D01*
X126338061Y-52998400D01*
X126291463Y-53079110D01*
X126225564Y-53145009D01*
X126144854Y-53191607D01*
X126054834Y-53215728D01*
X125961638Y-53215728D01*
X125871618Y-53191607D01*
X125790908Y-53145009D01*
X125725009Y-53079110D01*
X125678411Y-52998400D01*
X125654290Y-52908380D01*
X125654290Y-52815184D01*
X125678411Y-52725164D01*
X125725009Y-52644454D01*
X125790908Y-52578555D01*
X125871618Y-52531957D01*
X125961638Y-52507836D01*
X126054834Y-52507836D01*
X126144854Y-52531957D01*
G37*
G36*
X128644854Y-52531957D02*
G01*
X128725564Y-52578555D01*
X128791463Y-52644454D01*
X128838061Y-52725164D01*
X128862182Y-52815184D01*
X128862182Y-52908380D01*
X128838061Y-52998400D01*
X128791463Y-53079110D01*
X128725564Y-53145009D01*
X128644854Y-53191607D01*
X128554834Y-53215728D01*
X128461638Y-53215728D01*
X128371618Y-53191607D01*
X128290908Y-53145009D01*
X128225009Y-53079110D01*
X128178411Y-52998400D01*
X128154290Y-52908380D01*
X128154290Y-52815184D01*
X128178411Y-52725164D01*
X128225009Y-52644454D01*
X128290908Y-52578555D01*
X128371618Y-52531957D01*
X128461638Y-52507836D01*
X128554834Y-52507836D01*
X128644854Y-52531957D01*
G37*
%TO.C,Q1*%
G36*
X152551480Y-64195729D02*
G01*
X152406480Y-64195729D01*
X152406480Y-63765729D01*
X152551480Y-63765729D01*
X152551480Y-64195729D01*
G37*
G36*
X152551480Y-65145729D02*
G01*
X152406480Y-65145729D01*
X152406480Y-64715729D01*
X152551480Y-64715729D01*
X152551480Y-65145729D01*
G37*
G36*
X152551480Y-66095729D02*
G01*
X152406480Y-66095729D01*
X152406480Y-65665729D01*
X152551480Y-65665729D01*
X152551480Y-66095729D01*
G37*
G36*
X152416480Y-64195729D02*
G01*
X151941480Y-64195729D01*
X151941480Y-63765729D01*
X152416480Y-63765729D01*
X152416480Y-64195729D01*
G37*
G36*
X152416480Y-65145729D02*
G01*
X151941480Y-65145729D01*
X151941480Y-64715729D01*
X152416480Y-64715729D01*
X152416480Y-65145729D01*
G37*
G36*
X152416480Y-66095729D02*
G01*
X151941480Y-66095729D01*
X151941480Y-65665729D01*
X152416480Y-65665729D01*
X152416480Y-66095729D01*
G37*
G36*
X154741480Y-64195729D02*
G01*
X154266480Y-64195729D01*
X154266480Y-63765729D01*
X154741480Y-63765729D01*
X154741480Y-64195729D01*
G37*
G36*
X154741480Y-65145729D02*
G01*
X154266480Y-65145729D01*
X154266480Y-64715729D01*
X154741480Y-64715729D01*
X154741480Y-65145729D01*
G37*
G36*
X154741480Y-66095729D02*
G01*
X154266480Y-66095729D01*
X154266480Y-65665729D01*
X154741480Y-65665729D01*
X154741480Y-66095729D01*
G37*
G36*
X154276480Y-64195729D02*
G01*
X154131480Y-64195729D01*
X154131480Y-63765729D01*
X154276480Y-63765729D01*
X154276480Y-64195729D01*
G37*
G36*
X154276480Y-65145729D02*
G01*
X154131480Y-65145729D01*
X154131480Y-64715729D01*
X154276480Y-64715729D01*
X154276480Y-65145729D01*
G37*
G36*
X154276480Y-66095729D02*
G01*
X154131480Y-66095729D01*
X154131480Y-65665729D01*
X154276480Y-65665729D01*
X154276480Y-66095729D01*
G37*
%TO.C,VR7*%
G36*
X209360000Y-108750000D02*
G01*
X207840000Y-108750000D01*
X207840000Y-108450000D01*
X209360000Y-108450000D01*
X209360000Y-108750000D01*
G37*
G36*
X218160000Y-108750000D02*
G01*
X216640000Y-108750000D01*
X216640000Y-108450000D01*
X218160000Y-108450000D01*
X218160000Y-108750000D01*
G37*
G36*
X210672208Y-101184254D02*
G01*
X210773943Y-101242991D01*
X210857009Y-101326057D01*
X210915746Y-101427792D01*
X210946150Y-101541263D01*
X210946150Y-101658737D01*
X210915746Y-101772208D01*
X210857009Y-101873943D01*
X210773943Y-101957009D01*
X210672208Y-102015746D01*
X210558737Y-102046150D01*
X210441263Y-102046150D01*
X210327792Y-102015746D01*
X210226057Y-101957009D01*
X210142991Y-101873943D01*
X210084254Y-101772208D01*
X210053850Y-101658737D01*
X210053850Y-101541263D01*
X210084254Y-101427792D01*
X210142991Y-101326057D01*
X210226057Y-101242991D01*
X210327792Y-101184254D01*
X210441263Y-101153850D01*
X210558737Y-101153850D01*
X210672208Y-101184254D01*
G37*
G36*
X213172208Y-101184254D02*
G01*
X213273943Y-101242991D01*
X213357009Y-101326057D01*
X213415746Y-101427792D01*
X213446150Y-101541263D01*
X213446150Y-101658737D01*
X213415746Y-101772208D01*
X213357009Y-101873943D01*
X213273943Y-101957009D01*
X213172208Y-102015746D01*
X213058737Y-102046150D01*
X212941263Y-102046150D01*
X212827792Y-102015746D01*
X212726057Y-101957009D01*
X212642991Y-101873943D01*
X212584254Y-101772208D01*
X212553850Y-101658737D01*
X212553850Y-101541263D01*
X212584254Y-101427792D01*
X212642991Y-101326057D01*
X212726057Y-101242991D01*
X212827792Y-101184254D01*
X212941263Y-101153850D01*
X213058737Y-101153850D01*
X213172208Y-101184254D01*
G37*
G36*
X215672208Y-101184254D02*
G01*
X215773943Y-101242991D01*
X215857009Y-101326057D01*
X215915746Y-101427792D01*
X215946150Y-101541263D01*
X215946150Y-101658737D01*
X215915746Y-101772208D01*
X215857009Y-101873943D01*
X215773943Y-101957009D01*
X215672208Y-102015746D01*
X215558737Y-102046150D01*
X215441263Y-102046150D01*
X215327792Y-102015746D01*
X215226057Y-101957009D01*
X215142991Y-101873943D01*
X215084254Y-101772208D01*
X215053850Y-101658737D01*
X215053850Y-101541263D01*
X215084254Y-101427792D01*
X215142991Y-101326057D01*
X215226057Y-101242991D01*
X215327792Y-101184254D01*
X215441263Y-101153850D01*
X215558737Y-101153850D01*
X215672208Y-101184254D01*
G37*
%TO.C,U2*%
G36*
X171510000Y-53785000D02*
G01*
X168270000Y-53785000D01*
X168270000Y-53035000D01*
X171510000Y-53035000D01*
X171510000Y-53785000D01*
G37*
G36*
X171510000Y-57585000D02*
G01*
X168270000Y-57585000D01*
X168270000Y-56835000D01*
X171510000Y-56835000D01*
X171510000Y-57585000D01*
G37*
%TO.C,U3*%
G36*
X170300030Y-59098070D02*
G01*
X169940030Y-59098070D01*
X169940030Y-58873070D01*
X170300030Y-58873070D01*
X170300030Y-59098070D01*
G37*
G36*
X170300030Y-59748070D02*
G01*
X169940030Y-59748070D01*
X169940030Y-59523070D01*
X170300030Y-59523070D01*
X170300030Y-59748070D01*
G37*
G36*
X170300030Y-60398070D02*
G01*
X169940030Y-60398070D01*
X169940030Y-60173070D01*
X170300030Y-60173070D01*
X170300030Y-60398070D01*
G37*
G36*
X170375030Y-59098070D02*
G01*
X170290030Y-59098070D01*
X170290030Y-58873070D01*
X170375030Y-58873070D01*
X170375030Y-59098070D01*
G37*
G36*
X170375030Y-59748070D02*
G01*
X170290030Y-59748070D01*
X170290030Y-59523070D01*
X170375030Y-59523070D01*
X170375030Y-59748070D01*
G37*
G36*
X170375030Y-60398070D02*
G01*
X170290030Y-60398070D01*
X170290030Y-60173070D01*
X170375030Y-60173070D01*
X170375030Y-60398070D01*
G37*
G36*
X171690030Y-59098070D02*
G01*
X171605030Y-59098070D01*
X171605030Y-58873070D01*
X171690030Y-58873070D01*
X171690030Y-59098070D01*
G37*
G36*
X171690030Y-59748070D02*
G01*
X171605030Y-59748070D01*
X171605030Y-59523070D01*
X171690030Y-59523070D01*
X171690030Y-59748070D01*
G37*
G36*
X171690030Y-60398070D02*
G01*
X171605030Y-60398070D01*
X171605030Y-60173070D01*
X171690030Y-60173070D01*
X171690030Y-60398070D01*
G37*
G36*
X172040030Y-59098070D02*
G01*
X171680030Y-59098070D01*
X171680030Y-58873070D01*
X172040030Y-58873070D01*
X172040030Y-59098070D01*
G37*
G36*
X172040030Y-59748070D02*
G01*
X171680030Y-59748070D01*
X171680030Y-59523070D01*
X172040030Y-59523070D01*
X172040030Y-59748070D01*
G37*
G36*
X172040030Y-60398070D02*
G01*
X171680030Y-60398070D01*
X171680030Y-60173070D01*
X172040030Y-60173070D01*
X172040030Y-60398070D01*
G37*
%TO.C,D11*%
G36*
X213030000Y-58560000D02*
G01*
X212730000Y-58560000D01*
X212730000Y-58260000D01*
X213030000Y-58260000D01*
X213030000Y-58560000D01*
G37*
G36*
X213030000Y-59860500D02*
G01*
X212730000Y-59860500D01*
X212730000Y-59560500D01*
X213030000Y-59560500D01*
X213030000Y-59860500D01*
G37*
G36*
X213165000Y-58560000D02*
G01*
X213020000Y-58560000D01*
X213020000Y-58260000D01*
X213165000Y-58260000D01*
X213165000Y-58560000D01*
G37*
G36*
X213165000Y-59860500D02*
G01*
X213020000Y-59860500D01*
X213020000Y-59560500D01*
X213165000Y-59560500D01*
X213165000Y-59860500D01*
G37*
G36*
X214540000Y-59210000D02*
G01*
X214395000Y-59210000D01*
X214395000Y-58910000D01*
X214540000Y-58910000D01*
X214540000Y-59210000D01*
G37*
G36*
X214830000Y-59210000D02*
G01*
X214530000Y-59210000D01*
X214530000Y-58910000D01*
X214830000Y-58910000D01*
X214830000Y-59210000D01*
G37*
%TO.C,U9*%
G36*
X185847819Y-103707377D02*
G01*
X185012819Y-103707377D01*
X185012819Y-103297377D01*
X185847819Y-103297377D01*
X185847819Y-103707377D01*
G37*
G36*
X185847819Y-103707377D02*
G01*
X185012819Y-103707377D01*
X185012819Y-103297377D01*
X185847819Y-103297377D01*
X185847819Y-103707377D01*
G37*
G36*
X185847819Y-104977377D02*
G01*
X185012819Y-104977377D01*
X185012819Y-104567377D01*
X185847819Y-104567377D01*
X185847819Y-104977377D01*
G37*
G36*
X185847819Y-104977377D02*
G01*
X185012819Y-104977377D01*
X185012819Y-104567377D01*
X185847819Y-104567377D01*
X185847819Y-104977377D01*
G37*
G36*
X185847819Y-106247377D02*
G01*
X185012819Y-106247377D01*
X185012819Y-105837377D01*
X185847819Y-105837377D01*
X185847819Y-106247377D01*
G37*
G36*
X185847819Y-106247377D02*
G01*
X185012819Y-106247377D01*
X185012819Y-105837377D01*
X185847819Y-105837377D01*
X185847819Y-106247377D01*
G37*
G36*
X185847819Y-107517377D02*
G01*
X185012819Y-107517377D01*
X185012819Y-107107377D01*
X185847819Y-107107377D01*
X185847819Y-107517377D01*
G37*
G36*
X185847819Y-107517377D02*
G01*
X185012819Y-107517377D01*
X185012819Y-107107377D01*
X185847819Y-107107377D01*
X185847819Y-107517377D01*
G37*
G36*
X185847819Y-108787377D02*
G01*
X185012819Y-108787377D01*
X185012819Y-108377377D01*
X185847819Y-108377377D01*
X185847819Y-108787377D01*
G37*
G36*
X185847819Y-108787377D02*
G01*
X185012819Y-108787377D01*
X185012819Y-108377377D01*
X185847819Y-108377377D01*
X185847819Y-108787377D01*
G37*
G36*
X185847819Y-110057377D02*
G01*
X185012819Y-110057377D01*
X185012819Y-109647377D01*
X185847819Y-109647377D01*
X185847819Y-110057377D01*
G37*
G36*
X185847819Y-110057377D02*
G01*
X185012819Y-110057377D01*
X185012819Y-109647377D01*
X185847819Y-109647377D01*
X185847819Y-110057377D01*
G37*
G36*
X185847819Y-111327377D02*
G01*
X185012819Y-111327377D01*
X185012819Y-110917377D01*
X185847819Y-110917377D01*
X185847819Y-111327377D01*
G37*
G36*
X185847819Y-111327377D02*
G01*
X185012819Y-111327377D01*
X185012819Y-110917377D01*
X185847819Y-110917377D01*
X185847819Y-111327377D01*
G37*
G36*
X186072819Y-103707377D02*
G01*
X185837819Y-103707377D01*
X185837819Y-103297377D01*
X186072819Y-103297377D01*
X186072819Y-103707377D01*
G37*
G36*
X186072819Y-103707377D02*
G01*
X185837819Y-103707377D01*
X185837819Y-103297377D01*
X186072819Y-103297377D01*
X186072819Y-103707377D01*
G37*
G36*
X186072819Y-104977377D02*
G01*
X185837819Y-104977377D01*
X185837819Y-104567377D01*
X186072819Y-104567377D01*
X186072819Y-104977377D01*
G37*
G36*
X186072819Y-104977377D02*
G01*
X185837819Y-104977377D01*
X185837819Y-104567377D01*
X186072819Y-104567377D01*
X186072819Y-104977377D01*
G37*
G36*
X186072819Y-106247377D02*
G01*
X185837819Y-106247377D01*
X185837819Y-105837377D01*
X186072819Y-105837377D01*
X186072819Y-106247377D01*
G37*
G36*
X186072819Y-106247377D02*
G01*
X185837819Y-106247377D01*
X185837819Y-105837377D01*
X186072819Y-105837377D01*
X186072819Y-106247377D01*
G37*
G36*
X186072819Y-107517377D02*
G01*
X185837819Y-107517377D01*
X185837819Y-107107377D01*
X186072819Y-107107377D01*
X186072819Y-107517377D01*
G37*
G36*
X186072819Y-107517377D02*
G01*
X185837819Y-107517377D01*
X185837819Y-107107377D01*
X186072819Y-107107377D01*
X186072819Y-107517377D01*
G37*
G36*
X186072819Y-108787377D02*
G01*
X185837819Y-108787377D01*
X185837819Y-108377377D01*
X186072819Y-108377377D01*
X186072819Y-108787377D01*
G37*
G36*
X186072819Y-108787377D02*
G01*
X185837819Y-108787377D01*
X185837819Y-108377377D01*
X186072819Y-108377377D01*
X186072819Y-108787377D01*
G37*
G36*
X186072819Y-110057377D02*
G01*
X185837819Y-110057377D01*
X185837819Y-109647377D01*
X186072819Y-109647377D01*
X186072819Y-110057377D01*
G37*
G36*
X186072819Y-110057377D02*
G01*
X185837819Y-110057377D01*
X185837819Y-109647377D01*
X186072819Y-109647377D01*
X186072819Y-110057377D01*
G37*
G36*
X186072819Y-111327377D02*
G01*
X185837819Y-111327377D01*
X185837819Y-110917377D01*
X186072819Y-110917377D01*
X186072819Y-111327377D01*
G37*
G36*
X186072819Y-111327377D02*
G01*
X185837819Y-111327377D01*
X185837819Y-110917377D01*
X186072819Y-110917377D01*
X186072819Y-111327377D01*
G37*
G36*
X190187819Y-103707377D02*
G01*
X189952819Y-103707377D01*
X189952819Y-103297377D01*
X190187819Y-103297377D01*
X190187819Y-103707377D01*
G37*
G36*
X190187819Y-103707377D02*
G01*
X189952819Y-103707377D01*
X189952819Y-103297377D01*
X190187819Y-103297377D01*
X190187819Y-103707377D01*
G37*
G36*
X190187819Y-104977377D02*
G01*
X189952819Y-104977377D01*
X189952819Y-104567377D01*
X190187819Y-104567377D01*
X190187819Y-104977377D01*
G37*
G36*
X190187819Y-104977377D02*
G01*
X189952819Y-104977377D01*
X189952819Y-104567377D01*
X190187819Y-104567377D01*
X190187819Y-104977377D01*
G37*
G36*
X190187819Y-106247377D02*
G01*
X189952819Y-106247377D01*
X189952819Y-105837377D01*
X190187819Y-105837377D01*
X190187819Y-106247377D01*
G37*
G36*
X190187819Y-106247377D02*
G01*
X189952819Y-106247377D01*
X189952819Y-105837377D01*
X190187819Y-105837377D01*
X190187819Y-106247377D01*
G37*
G36*
X190187819Y-107517377D02*
G01*
X189952819Y-107517377D01*
X189952819Y-107107377D01*
X190187819Y-107107377D01*
X190187819Y-107517377D01*
G37*
G36*
X190187819Y-107517377D02*
G01*
X189952819Y-107517377D01*
X189952819Y-107107377D01*
X190187819Y-107107377D01*
X190187819Y-107517377D01*
G37*
G36*
X190187819Y-108787377D02*
G01*
X189952819Y-108787377D01*
X189952819Y-108377377D01*
X190187819Y-108377377D01*
X190187819Y-108787377D01*
G37*
G36*
X190187819Y-108787377D02*
G01*
X189952819Y-108787377D01*
X189952819Y-108377377D01*
X190187819Y-108377377D01*
X190187819Y-108787377D01*
G37*
G36*
X190187819Y-110057377D02*
G01*
X189952819Y-110057377D01*
X189952819Y-109647377D01*
X190187819Y-109647377D01*
X190187819Y-110057377D01*
G37*
G36*
X190187819Y-110057377D02*
G01*
X189952819Y-110057377D01*
X189952819Y-109647377D01*
X190187819Y-109647377D01*
X190187819Y-110057377D01*
G37*
G36*
X190187819Y-111327377D02*
G01*
X189952819Y-111327377D01*
X189952819Y-110917377D01*
X190187819Y-110917377D01*
X190187819Y-111327377D01*
G37*
G36*
X190187819Y-111327377D02*
G01*
X189952819Y-111327377D01*
X189952819Y-110917377D01*
X190187819Y-110917377D01*
X190187819Y-111327377D01*
G37*
G36*
X191012819Y-103707377D02*
G01*
X190177819Y-103707377D01*
X190177819Y-103297377D01*
X191012819Y-103297377D01*
X191012819Y-103707377D01*
G37*
G36*
X191012819Y-103707377D02*
G01*
X190177819Y-103707377D01*
X190177819Y-103297377D01*
X191012819Y-103297377D01*
X191012819Y-103707377D01*
G37*
G36*
X191012819Y-104977377D02*
G01*
X190177819Y-104977377D01*
X190177819Y-104567377D01*
X191012819Y-104567377D01*
X191012819Y-104977377D01*
G37*
G36*
X191012819Y-104977377D02*
G01*
X190177819Y-104977377D01*
X190177819Y-104567377D01*
X191012819Y-104567377D01*
X191012819Y-104977377D01*
G37*
G36*
X191012819Y-106247377D02*
G01*
X190177819Y-106247377D01*
X190177819Y-105837377D01*
X191012819Y-105837377D01*
X191012819Y-106247377D01*
G37*
G36*
X191012819Y-106247377D02*
G01*
X190177819Y-106247377D01*
X190177819Y-105837377D01*
X191012819Y-105837377D01*
X191012819Y-106247377D01*
G37*
G36*
X191012819Y-107517377D02*
G01*
X190177819Y-107517377D01*
X190177819Y-107107377D01*
X191012819Y-107107377D01*
X191012819Y-107517377D01*
G37*
G36*
X191012819Y-107517377D02*
G01*
X190177819Y-107517377D01*
X190177819Y-107107377D01*
X191012819Y-107107377D01*
X191012819Y-107517377D01*
G37*
G36*
X191012819Y-108787377D02*
G01*
X190177819Y-108787377D01*
X190177819Y-108377377D01*
X191012819Y-108377377D01*
X191012819Y-108787377D01*
G37*
G36*
X191012819Y-108787377D02*
G01*
X190177819Y-108787377D01*
X190177819Y-108377377D01*
X191012819Y-108377377D01*
X191012819Y-108787377D01*
G37*
G36*
X191012819Y-110057377D02*
G01*
X190177819Y-110057377D01*
X190177819Y-109647377D01*
X191012819Y-109647377D01*
X191012819Y-110057377D01*
G37*
G36*
X191012819Y-110057377D02*
G01*
X190177819Y-110057377D01*
X190177819Y-109647377D01*
X191012819Y-109647377D01*
X191012819Y-110057377D01*
G37*
G36*
X191012819Y-111327377D02*
G01*
X190177819Y-111327377D01*
X190177819Y-110917377D01*
X191012819Y-110917377D01*
X191012819Y-111327377D01*
G37*
G36*
X191012819Y-111327377D02*
G01*
X190177819Y-111327377D01*
X190177819Y-110917377D01*
X191012819Y-110917377D01*
X191012819Y-111327377D01*
G37*
%TO.C,U11*%
G36*
X135120147Y-66751765D02*
G01*
X134760147Y-66751765D01*
X134760147Y-66526765D01*
X135120147Y-66526765D01*
X135120147Y-66751765D01*
G37*
G36*
X135120147Y-67401765D02*
G01*
X134760147Y-67401765D01*
X134760147Y-67176765D01*
X135120147Y-67176765D01*
X135120147Y-67401765D01*
G37*
G36*
X135120147Y-68051765D02*
G01*
X134760147Y-68051765D01*
X134760147Y-67826765D01*
X135120147Y-67826765D01*
X135120147Y-68051765D01*
G37*
G36*
X135195147Y-66751765D02*
G01*
X135110147Y-66751765D01*
X135110147Y-66526765D01*
X135195147Y-66526765D01*
X135195147Y-66751765D01*
G37*
G36*
X135195147Y-67401765D02*
G01*
X135110147Y-67401765D01*
X135110147Y-67176765D01*
X135195147Y-67176765D01*
X135195147Y-67401765D01*
G37*
G36*
X135195147Y-68051765D02*
G01*
X135110147Y-68051765D01*
X135110147Y-67826765D01*
X135195147Y-67826765D01*
X135195147Y-68051765D01*
G37*
G36*
X136510147Y-66751765D02*
G01*
X136425147Y-66751765D01*
X136425147Y-66526765D01*
X136510147Y-66526765D01*
X136510147Y-66751765D01*
G37*
G36*
X136510147Y-67401765D02*
G01*
X136425147Y-67401765D01*
X136425147Y-67176765D01*
X136510147Y-67176765D01*
X136510147Y-67401765D01*
G37*
G36*
X136510147Y-68051765D02*
G01*
X136425147Y-68051765D01*
X136425147Y-67826765D01*
X136510147Y-67826765D01*
X136510147Y-68051765D01*
G37*
G36*
X136860147Y-66751765D02*
G01*
X136500147Y-66751765D01*
X136500147Y-66526765D01*
X136860147Y-66526765D01*
X136860147Y-66751765D01*
G37*
G36*
X136860147Y-67401765D02*
G01*
X136500147Y-67401765D01*
X136500147Y-67176765D01*
X136860147Y-67176765D01*
X136860147Y-67401765D01*
G37*
G36*
X136860147Y-68051765D02*
G01*
X136500147Y-68051765D01*
X136500147Y-67826765D01*
X136860147Y-67826765D01*
X136860147Y-68051765D01*
G37*
%TO.C,U4*%
G36*
X137460000Y-117832500D02*
G01*
X136910000Y-117832500D01*
X136910000Y-117517500D01*
X137460000Y-117517500D01*
X137460000Y-117832500D01*
G37*
G36*
X137460000Y-118482500D02*
G01*
X136910000Y-118482500D01*
X136910000Y-118167500D01*
X137460000Y-118167500D01*
X137460000Y-118482500D01*
G37*
G36*
X137460000Y-119132500D02*
G01*
X136910000Y-119132500D01*
X136910000Y-118817500D01*
X137460000Y-118817500D01*
X137460000Y-119132500D01*
G37*
G36*
X137460000Y-119782500D02*
G01*
X136910000Y-119782500D01*
X136910000Y-119467500D01*
X137460000Y-119467500D01*
X137460000Y-119782500D01*
G37*
G36*
X137870000Y-117832500D02*
G01*
X137450000Y-117832500D01*
X137450000Y-117517500D01*
X137870000Y-117517500D01*
X137870000Y-117832500D01*
G37*
G36*
X137870000Y-118482500D02*
G01*
X137450000Y-118482500D01*
X137450000Y-118167500D01*
X137870000Y-118167500D01*
X137870000Y-118482500D01*
G37*
G36*
X137870000Y-119132500D02*
G01*
X137450000Y-119132500D01*
X137450000Y-118817500D01*
X137870000Y-118817500D01*
X137870000Y-119132500D01*
G37*
G36*
X137870000Y-119782500D02*
G01*
X137450000Y-119782500D01*
X137450000Y-119467500D01*
X137870000Y-119467500D01*
X137870000Y-119782500D01*
G37*
G36*
X141270000Y-117832500D02*
G01*
X140850000Y-117832500D01*
X140850000Y-117517500D01*
X141270000Y-117517500D01*
X141270000Y-117832500D01*
G37*
G36*
X141270000Y-118482500D02*
G01*
X140850000Y-118482500D01*
X140850000Y-118167500D01*
X141270000Y-118167500D01*
X141270000Y-118482500D01*
G37*
G36*
X141270000Y-119132500D02*
G01*
X140850000Y-119132500D01*
X140850000Y-118817500D01*
X141270000Y-118817500D01*
X141270000Y-119132500D01*
G37*
G36*
X141270000Y-119782500D02*
G01*
X140850000Y-119782500D01*
X140850000Y-119467500D01*
X141270000Y-119467500D01*
X141270000Y-119782500D01*
G37*
G36*
X141810000Y-117832500D02*
G01*
X141260000Y-117832500D01*
X141260000Y-117517500D01*
X141810000Y-117517500D01*
X141810000Y-117832500D01*
G37*
G36*
X141810000Y-118482500D02*
G01*
X141260000Y-118482500D01*
X141260000Y-118167500D01*
X141810000Y-118167500D01*
X141810000Y-118482500D01*
G37*
G36*
X141810000Y-119132500D02*
G01*
X141260000Y-119132500D01*
X141260000Y-118817500D01*
X141810000Y-118817500D01*
X141810000Y-119132500D01*
G37*
G36*
X141810000Y-119782500D02*
G01*
X141260000Y-119782500D01*
X141260000Y-119467500D01*
X141810000Y-119467500D01*
X141810000Y-119782500D01*
G37*
%TO.C,D10*%
G36*
X208300000Y-123850000D02*
G01*
X208000000Y-123850000D01*
X208000000Y-123550000D01*
X208300000Y-123550000D01*
X208300000Y-123850000D01*
G37*
G36*
X208010000Y-123850000D02*
G01*
X207865000Y-123850000D01*
X207865000Y-123550000D01*
X208010000Y-123550000D01*
X208010000Y-123850000D01*
G37*
G36*
X206635000Y-124500500D02*
G01*
X206490000Y-124500500D01*
X206490000Y-124200500D01*
X206635000Y-124200500D01*
X206635000Y-124500500D01*
G37*
G36*
X206635000Y-123200000D02*
G01*
X206490000Y-123200000D01*
X206490000Y-122900000D01*
X206635000Y-122900000D01*
X206635000Y-123200000D01*
G37*
G36*
X206500000Y-124500500D02*
G01*
X206200000Y-124500500D01*
X206200000Y-124200500D01*
X206500000Y-124200500D01*
X206500000Y-124500500D01*
G37*
G36*
X206500000Y-123200000D02*
G01*
X206200000Y-123200000D01*
X206200000Y-122900000D01*
X206500000Y-122900000D01*
X206500000Y-123200000D01*
G37*
%TO.C,SW4*%
G36*
X176650000Y-55750000D02*
G01*
X176350000Y-55750000D01*
X176350000Y-53740000D01*
X176650000Y-53740000D01*
X176650000Y-55750000D01*
G37*
G36*
X176650000Y-55750000D02*
G01*
X176350000Y-55750000D01*
X176350000Y-54750000D01*
X176650000Y-54750000D01*
X176650000Y-55750000D01*
G37*
G36*
X178100000Y-52875000D02*
G01*
X177400000Y-52875000D01*
X177400000Y-52625000D01*
X178100000Y-52625000D01*
X178100000Y-52875000D01*
G37*
G36*
X182600000Y-52875000D02*
G01*
X181900000Y-52875000D01*
X181900000Y-52625000D01*
X182600000Y-52625000D01*
X182600000Y-52875000D01*
G37*
G36*
X183650000Y-55750000D02*
G01*
X183350000Y-55750000D01*
X183350000Y-53740000D01*
X183650000Y-53740000D01*
X183650000Y-55750000D01*
G37*
G36*
X183650000Y-55750000D02*
G01*
X183350000Y-55750000D01*
X183350000Y-54750000D01*
X183650000Y-54750000D01*
X183650000Y-55750000D01*
G37*
%TO.C,SW1*%
G36*
X136650000Y-55750000D02*
G01*
X136350000Y-55750000D01*
X136350000Y-53740000D01*
X136650000Y-53740000D01*
X136650000Y-55750000D01*
G37*
G36*
X136650000Y-55750000D02*
G01*
X136350000Y-55750000D01*
X136350000Y-54750000D01*
X136650000Y-54750000D01*
X136650000Y-55750000D01*
G37*
G36*
X138100000Y-52875000D02*
G01*
X137400000Y-52875000D01*
X137400000Y-52625000D01*
X138100000Y-52625000D01*
X138100000Y-52875000D01*
G37*
G36*
X142600000Y-52875000D02*
G01*
X141900000Y-52875000D01*
X141900000Y-52625000D01*
X142600000Y-52625000D01*
X142600000Y-52875000D01*
G37*
G36*
X143650000Y-55750000D02*
G01*
X143350000Y-55750000D01*
X143350000Y-53740000D01*
X143650000Y-53740000D01*
X143650000Y-55750000D01*
G37*
G36*
X143650000Y-55750000D02*
G01*
X143350000Y-55750000D01*
X143350000Y-54750000D01*
X143650000Y-54750000D01*
X143650000Y-55750000D01*
G37*
%TO.C,L1*%
G36*
X171339826Y-63038320D02*
G01*
X170939826Y-63038320D01*
X170939826Y-61763320D01*
X171339826Y-61763320D01*
X171339826Y-63038320D01*
G37*
G36*
X172939826Y-63038320D02*
G01*
X172539826Y-63038320D01*
X172539826Y-61763320D01*
X172939826Y-61763320D01*
X172939826Y-63038320D01*
G37*
%TO.C,U1*%
G36*
X159359455Y-65348665D02*
G01*
X158909455Y-65348665D01*
X158909455Y-64948665D01*
X159359455Y-64948665D01*
X159359455Y-65348665D01*
G37*
G36*
X159359455Y-66298665D02*
G01*
X158909455Y-66298665D01*
X158909455Y-65898665D01*
X159359455Y-65898665D01*
X159359455Y-66298665D01*
G37*
G36*
X159359455Y-67248665D02*
G01*
X158909455Y-67248665D01*
X158909455Y-66848665D01*
X159359455Y-66848665D01*
X159359455Y-67248665D01*
G37*
G36*
X159519455Y-65348665D02*
G01*
X159349455Y-65348665D01*
X159349455Y-64948665D01*
X159519455Y-64948665D01*
X159519455Y-65348665D01*
G37*
G36*
X159519455Y-66298665D02*
G01*
X159349455Y-66298665D01*
X159349455Y-65898665D01*
X159519455Y-65898665D01*
X159519455Y-66298665D01*
G37*
G36*
X159519455Y-67248665D02*
G01*
X159349455Y-67248665D01*
X159349455Y-66848665D01*
X159519455Y-66848665D01*
X159519455Y-67248665D01*
G37*
G36*
X161269455Y-65348665D02*
G01*
X161099455Y-65348665D01*
X161099455Y-64948665D01*
X161269455Y-64948665D01*
X161269455Y-65348665D01*
G37*
G36*
X161269455Y-67248665D02*
G01*
X161099455Y-67248665D01*
X161099455Y-66848665D01*
X161269455Y-66848665D01*
X161269455Y-67248665D01*
G37*
G36*
X161709455Y-65348665D02*
G01*
X161259455Y-65348665D01*
X161259455Y-64948665D01*
X161709455Y-64948665D01*
X161709455Y-65348665D01*
G37*
G36*
X161709455Y-67248665D02*
G01*
X161259455Y-67248665D01*
X161259455Y-66848665D01*
X161709455Y-66848665D01*
X161709455Y-67248665D01*
G37*
%TO.C,D3*%
G36*
X112582468Y-83495501D02*
G01*
X112282468Y-83495501D01*
X112282468Y-83195501D01*
X112582468Y-83195501D01*
X112582468Y-83495501D01*
G37*
G36*
X112582468Y-84796001D02*
G01*
X112282468Y-84796001D01*
X112282468Y-84496001D01*
X112582468Y-84496001D01*
X112582468Y-84796001D01*
G37*
G36*
X112717468Y-83495501D02*
G01*
X112572468Y-83495501D01*
X112572468Y-83195501D01*
X112717468Y-83195501D01*
X112717468Y-83495501D01*
G37*
G36*
X112717468Y-84796001D02*
G01*
X112572468Y-84796001D01*
X112572468Y-84496001D01*
X112717468Y-84496001D01*
X112717468Y-84796001D01*
G37*
G36*
X114092468Y-84145501D02*
G01*
X113947468Y-84145501D01*
X113947468Y-83845501D01*
X114092468Y-83845501D01*
X114092468Y-84145501D01*
G37*
G36*
X114382468Y-84145501D02*
G01*
X114082468Y-84145501D01*
X114082468Y-83845501D01*
X114382468Y-83845501D01*
X114382468Y-84145501D01*
G37*
%TO.C,VR2*%
G36*
X103360000Y-70550000D02*
G01*
X101840000Y-70550000D01*
X101840000Y-70250000D01*
X103360000Y-70250000D01*
X103360000Y-70550000D01*
G37*
G36*
X112160000Y-70550000D02*
G01*
X110640000Y-70550000D01*
X110640000Y-70250000D01*
X112160000Y-70250000D01*
X112160000Y-70550000D01*
G37*
G36*
X104672208Y-62984254D02*
G01*
X104773943Y-63042991D01*
X104857009Y-63126057D01*
X104915746Y-63227792D01*
X104946150Y-63341263D01*
X104946150Y-63458737D01*
X104915746Y-63572208D01*
X104857009Y-63673943D01*
X104773943Y-63757009D01*
X104672208Y-63815746D01*
X104558737Y-63846150D01*
X104441263Y-63846150D01*
X104327792Y-63815746D01*
X104226057Y-63757009D01*
X104142991Y-63673943D01*
X104084254Y-63572208D01*
X104053850Y-63458737D01*
X104053850Y-63341263D01*
X104084254Y-63227792D01*
X104142991Y-63126057D01*
X104226057Y-63042991D01*
X104327792Y-62984254D01*
X104441263Y-62953850D01*
X104558737Y-62953850D01*
X104672208Y-62984254D01*
G37*
G36*
X107172208Y-62984254D02*
G01*
X107273943Y-63042991D01*
X107357009Y-63126057D01*
X107415746Y-63227792D01*
X107446150Y-63341263D01*
X107446150Y-63458737D01*
X107415746Y-63572208D01*
X107357009Y-63673943D01*
X107273943Y-63757009D01*
X107172208Y-63815746D01*
X107058737Y-63846150D01*
X106941263Y-63846150D01*
X106827792Y-63815746D01*
X106726057Y-63757009D01*
X106642991Y-63673943D01*
X106584254Y-63572208D01*
X106553850Y-63458737D01*
X106553850Y-63341263D01*
X106584254Y-63227792D01*
X106642991Y-63126057D01*
X106726057Y-63042991D01*
X106827792Y-62984254D01*
X106941263Y-62953850D01*
X107058737Y-62953850D01*
X107172208Y-62984254D01*
G37*
G36*
X109672208Y-62984254D02*
G01*
X109773943Y-63042991D01*
X109857009Y-63126057D01*
X109915746Y-63227792D01*
X109946150Y-63341263D01*
X109946150Y-63458737D01*
X109915746Y-63572208D01*
X109857009Y-63673943D01*
X109773943Y-63757009D01*
X109672208Y-63815746D01*
X109558737Y-63846150D01*
X109441263Y-63846150D01*
X109327792Y-63815746D01*
X109226057Y-63757009D01*
X109142991Y-63673943D01*
X109084254Y-63572208D01*
X109053850Y-63458737D01*
X109053850Y-63341263D01*
X109084254Y-63227792D01*
X109142991Y-63126057D01*
X109226057Y-63042991D01*
X109327792Y-62984254D01*
X109441263Y-62953850D01*
X109558737Y-62953850D01*
X109672208Y-62984254D01*
G37*
%TO.C,VR6*%
G36*
X209360000Y-83122000D02*
G01*
X207840000Y-83122000D01*
X207840000Y-82822000D01*
X209360000Y-82822000D01*
X209360000Y-83122000D01*
G37*
G36*
X218160000Y-83122000D02*
G01*
X216640000Y-83122000D01*
X216640000Y-82822000D01*
X218160000Y-82822000D01*
X218160000Y-83122000D01*
G37*
G36*
X210672208Y-75556254D02*
G01*
X210773943Y-75614991D01*
X210857009Y-75698057D01*
X210915746Y-75799792D01*
X210946150Y-75913263D01*
X210946150Y-76030737D01*
X210915746Y-76144208D01*
X210857009Y-76245943D01*
X210773943Y-76329009D01*
X210672208Y-76387746D01*
X210558737Y-76418150D01*
X210441263Y-76418150D01*
X210327792Y-76387746D01*
X210226057Y-76329009D01*
X210142991Y-76245943D01*
X210084254Y-76144208D01*
X210053850Y-76030737D01*
X210053850Y-75913263D01*
X210084254Y-75799792D01*
X210142991Y-75698057D01*
X210226057Y-75614991D01*
X210327792Y-75556254D01*
X210441263Y-75525850D01*
X210558737Y-75525850D01*
X210672208Y-75556254D01*
G37*
G36*
X213172208Y-75556254D02*
G01*
X213273943Y-75614991D01*
X213357009Y-75698057D01*
X213415746Y-75799792D01*
X213446150Y-75913263D01*
X213446150Y-76030737D01*
X213415746Y-76144208D01*
X213357009Y-76245943D01*
X213273943Y-76329009D01*
X213172208Y-76387746D01*
X213058737Y-76418150D01*
X212941263Y-76418150D01*
X212827792Y-76387746D01*
X212726057Y-76329009D01*
X212642991Y-76245943D01*
X212584254Y-76144208D01*
X212553850Y-76030737D01*
X212553850Y-75913263D01*
X212584254Y-75799792D01*
X212642991Y-75698057D01*
X212726057Y-75614991D01*
X212827792Y-75556254D01*
X212941263Y-75525850D01*
X213058737Y-75525850D01*
X213172208Y-75556254D01*
G37*
G36*
X215672208Y-75556254D02*
G01*
X215773943Y-75614991D01*
X215857009Y-75698057D01*
X215915746Y-75799792D01*
X215946150Y-75913263D01*
X215946150Y-76030737D01*
X215915746Y-76144208D01*
X215857009Y-76245943D01*
X215773943Y-76329009D01*
X215672208Y-76387746D01*
X215558737Y-76418150D01*
X215441263Y-76418150D01*
X215327792Y-76387746D01*
X215226057Y-76329009D01*
X215142991Y-76245943D01*
X215084254Y-76144208D01*
X215053850Y-76030737D01*
X215053850Y-75913263D01*
X215084254Y-75799792D01*
X215142991Y-75698057D01*
X215226057Y-75614991D01*
X215327792Y-75556254D01*
X215441263Y-75525850D01*
X215558737Y-75525850D01*
X215672208Y-75556254D01*
G37*
%TO.C,U7*%
G36*
X186124466Y-63259000D02*
G01*
X185824466Y-63259000D01*
X185824466Y-63009000D01*
X186124466Y-63009000D01*
X186124466Y-63259000D01*
G37*
G36*
X186124466Y-63759000D02*
G01*
X185824466Y-63759000D01*
X185824466Y-63509000D01*
X186124466Y-63509000D01*
X186124466Y-63759000D01*
G37*
G36*
X186124466Y-64259000D02*
G01*
X185824466Y-64259000D01*
X185824466Y-64009000D01*
X186124466Y-64009000D01*
X186124466Y-64259000D01*
G37*
G36*
X186124466Y-64759000D02*
G01*
X185824466Y-64759000D01*
X185824466Y-64509000D01*
X186124466Y-64509000D01*
X186124466Y-64759000D01*
G37*
G36*
X187274466Y-64684000D02*
G01*
X186374466Y-64684000D01*
X186374466Y-63084000D01*
X187274466Y-63084000D01*
X187274466Y-64684000D01*
G37*
G36*
X187824466Y-63259000D02*
G01*
X187524466Y-63259000D01*
X187524466Y-63009000D01*
X187824466Y-63009000D01*
X187824466Y-63259000D01*
G37*
G36*
X187824466Y-63759000D02*
G01*
X187524466Y-63759000D01*
X187524466Y-63509000D01*
X187824466Y-63509000D01*
X187824466Y-63759000D01*
G37*
G36*
X187824466Y-64259000D02*
G01*
X187524466Y-64259000D01*
X187524466Y-64009000D01*
X187824466Y-64009000D01*
X187824466Y-64259000D01*
G37*
G36*
X187824466Y-64759000D02*
G01*
X187524466Y-64759000D01*
X187524466Y-64509000D01*
X187824466Y-64509000D01*
X187824466Y-64759000D01*
G37*
%TO.C,U14*%
G36*
X185590808Y-84616521D02*
G01*
X184890808Y-84616521D01*
X184890808Y-84186521D01*
X185590808Y-84186521D01*
X185590808Y-84616521D01*
G37*
G36*
X185590808Y-85886521D02*
G01*
X184890808Y-85886521D01*
X184890808Y-85456521D01*
X185590808Y-85456521D01*
X185590808Y-85886521D01*
G37*
G36*
X185590808Y-87156521D02*
G01*
X184890808Y-87156521D01*
X184890808Y-86726521D01*
X185590808Y-86726521D01*
X185590808Y-87156521D01*
G37*
G36*
X185590808Y-88426521D02*
G01*
X184890808Y-88426521D01*
X184890808Y-87996521D01*
X185590808Y-87996521D01*
X185590808Y-88426521D01*
G37*
G36*
X185590808Y-89696521D02*
G01*
X184890808Y-89696521D01*
X184890808Y-89266521D01*
X185590808Y-89266521D01*
X185590808Y-89696521D01*
G37*
G36*
X185590808Y-90966521D02*
G01*
X184890808Y-90966521D01*
X184890808Y-90536521D01*
X185590808Y-90536521D01*
X185590808Y-90966521D01*
G37*
G36*
X185590808Y-92236521D02*
G01*
X184890808Y-92236521D01*
X184890808Y-91806521D01*
X185590808Y-91806521D01*
X185590808Y-92236521D01*
G37*
G36*
X185590808Y-93506521D02*
G01*
X184890808Y-93506521D01*
X184890808Y-93076521D01*
X185590808Y-93076521D01*
X185590808Y-93506521D01*
G37*
G36*
X185950808Y-84616521D02*
G01*
X185580808Y-84616521D01*
X185580808Y-84186521D01*
X185950808Y-84186521D01*
X185950808Y-84616521D01*
G37*
G36*
X185950808Y-85886521D02*
G01*
X185580808Y-85886521D01*
X185580808Y-85456521D01*
X185950808Y-85456521D01*
X185950808Y-85886521D01*
G37*
G36*
X185950808Y-87156521D02*
G01*
X185580808Y-87156521D01*
X185580808Y-86726521D01*
X185950808Y-86726521D01*
X185950808Y-87156521D01*
G37*
G36*
X185950808Y-88426521D02*
G01*
X185580808Y-88426521D01*
X185580808Y-87996521D01*
X185950808Y-87996521D01*
X185950808Y-88426521D01*
G37*
G36*
X185950808Y-89696521D02*
G01*
X185580808Y-89696521D01*
X185580808Y-89266521D01*
X185950808Y-89266521D01*
X185950808Y-89696521D01*
G37*
G36*
X185950808Y-90966521D02*
G01*
X185580808Y-90966521D01*
X185580808Y-90536521D01*
X185950808Y-90536521D01*
X185950808Y-90966521D01*
G37*
G36*
X185950808Y-92236521D02*
G01*
X185580808Y-92236521D01*
X185580808Y-91806521D01*
X185950808Y-91806521D01*
X185950808Y-92236521D01*
G37*
G36*
X185950808Y-93506521D02*
G01*
X185580808Y-93506521D01*
X185580808Y-93076521D01*
X185950808Y-93076521D01*
X185950808Y-93506521D01*
G37*
G36*
X190200808Y-84616521D02*
G01*
X189830808Y-84616521D01*
X189830808Y-84186521D01*
X190200808Y-84186521D01*
X190200808Y-84616521D01*
G37*
G36*
X190200808Y-85886521D02*
G01*
X189830808Y-85886521D01*
X189830808Y-85456521D01*
X190200808Y-85456521D01*
X190200808Y-85886521D01*
G37*
G36*
X190200808Y-87156521D02*
G01*
X189830808Y-87156521D01*
X189830808Y-86726521D01*
X190200808Y-86726521D01*
X190200808Y-87156521D01*
G37*
G36*
X190200808Y-88426521D02*
G01*
X189830808Y-88426521D01*
X189830808Y-87996521D01*
X190200808Y-87996521D01*
X190200808Y-88426521D01*
G37*
G36*
X190200808Y-89696521D02*
G01*
X189830808Y-89696521D01*
X189830808Y-89266521D01*
X190200808Y-89266521D01*
X190200808Y-89696521D01*
G37*
G36*
X190200808Y-90966521D02*
G01*
X189830808Y-90966521D01*
X189830808Y-90536521D01*
X190200808Y-90536521D01*
X190200808Y-90966521D01*
G37*
G36*
X190200808Y-92236521D02*
G01*
X189830808Y-92236521D01*
X189830808Y-91806521D01*
X190200808Y-91806521D01*
X190200808Y-92236521D01*
G37*
G36*
X190200808Y-93506521D02*
G01*
X189830808Y-93506521D01*
X189830808Y-93076521D01*
X190200808Y-93076521D01*
X190200808Y-93506521D01*
G37*
G36*
X190890808Y-84616521D02*
G01*
X190190808Y-84616521D01*
X190190808Y-84186521D01*
X190890808Y-84186521D01*
X190890808Y-84616521D01*
G37*
G36*
X190890808Y-85886521D02*
G01*
X190190808Y-85886521D01*
X190190808Y-85456521D01*
X190890808Y-85456521D01*
X190890808Y-85886521D01*
G37*
G36*
X190890808Y-87156521D02*
G01*
X190190808Y-87156521D01*
X190190808Y-86726521D01*
X190890808Y-86726521D01*
X190890808Y-87156521D01*
G37*
G36*
X190890808Y-88426521D02*
G01*
X190190808Y-88426521D01*
X190190808Y-87996521D01*
X190890808Y-87996521D01*
X190890808Y-88426521D01*
G37*
G36*
X190890808Y-89696521D02*
G01*
X190190808Y-89696521D01*
X190190808Y-89266521D01*
X190890808Y-89266521D01*
X190890808Y-89696521D01*
G37*
G36*
X190890808Y-90966521D02*
G01*
X190190808Y-90966521D01*
X190190808Y-90536521D01*
X190890808Y-90536521D01*
X190890808Y-90966521D01*
G37*
G36*
X190890808Y-92236521D02*
G01*
X190190808Y-92236521D01*
X190190808Y-91806521D01*
X190890808Y-91806521D01*
X190890808Y-92236521D01*
G37*
G36*
X190890808Y-93506521D02*
G01*
X190190808Y-93506521D01*
X190190808Y-93076521D01*
X190890808Y-93076521D01*
X190890808Y-93506521D01*
G37*
%TO.C,VR5*%
G36*
X191360000Y-124150000D02*
G01*
X189840000Y-124150000D01*
X189840000Y-123850000D01*
X191360000Y-123850000D01*
X191360000Y-124150000D01*
G37*
G36*
X200160000Y-124150000D02*
G01*
X198640000Y-124150000D01*
X198640000Y-123850000D01*
X200160000Y-123850000D01*
X200160000Y-124150000D01*
G37*
G36*
X192672208Y-116584254D02*
G01*
X192773943Y-116642991D01*
X192857009Y-116726057D01*
X192915746Y-116827792D01*
X192946150Y-116941263D01*
X192946150Y-117058737D01*
X192915746Y-117172208D01*
X192857009Y-117273943D01*
X192773943Y-117357009D01*
X192672208Y-117415746D01*
X192558737Y-117446150D01*
X192441263Y-117446150D01*
X192327792Y-117415746D01*
X192226057Y-117357009D01*
X192142991Y-117273943D01*
X192084254Y-117172208D01*
X192053850Y-117058737D01*
X192053850Y-116941263D01*
X192084254Y-116827792D01*
X192142991Y-116726057D01*
X192226057Y-116642991D01*
X192327792Y-116584254D01*
X192441263Y-116553850D01*
X192558737Y-116553850D01*
X192672208Y-116584254D01*
G37*
G36*
X195172208Y-116584254D02*
G01*
X195273943Y-116642991D01*
X195357009Y-116726057D01*
X195415746Y-116827792D01*
X195446150Y-116941263D01*
X195446150Y-117058737D01*
X195415746Y-117172208D01*
X195357009Y-117273943D01*
X195273943Y-117357009D01*
X195172208Y-117415746D01*
X195058737Y-117446150D01*
X194941263Y-117446150D01*
X194827792Y-117415746D01*
X194726057Y-117357009D01*
X194642991Y-117273943D01*
X194584254Y-117172208D01*
X194553850Y-117058737D01*
X194553850Y-116941263D01*
X194584254Y-116827792D01*
X194642991Y-116726057D01*
X194726057Y-116642991D01*
X194827792Y-116584254D01*
X194941263Y-116553850D01*
X195058737Y-116553850D01*
X195172208Y-116584254D01*
G37*
G36*
X197672208Y-116584254D02*
G01*
X197773943Y-116642991D01*
X197857009Y-116726057D01*
X197915746Y-116827792D01*
X197946150Y-116941263D01*
X197946150Y-117058737D01*
X197915746Y-117172208D01*
X197857009Y-117273943D01*
X197773943Y-117357009D01*
X197672208Y-117415746D01*
X197558737Y-117446150D01*
X197441263Y-117446150D01*
X197327792Y-117415746D01*
X197226057Y-117357009D01*
X197142991Y-117273943D01*
X197084254Y-117172208D01*
X197053850Y-117058737D01*
X197053850Y-116941263D01*
X197084254Y-116827792D01*
X197142991Y-116726057D01*
X197226057Y-116642991D01*
X197327792Y-116584254D01*
X197441263Y-116553850D01*
X197558737Y-116553850D01*
X197672208Y-116584254D01*
G37*
%TO.C,D8*%
G36*
X176650000Y-60100000D02*
G01*
X175750000Y-60100000D01*
X175750000Y-59400000D01*
X176650000Y-59400000D01*
X176650000Y-60100000D01*
G37*
G36*
X176650000Y-61600000D02*
G01*
X175750000Y-61600000D01*
X175750000Y-60900000D01*
X176650000Y-60900000D01*
X176650000Y-61600000D01*
G37*
G36*
X179250000Y-60100000D02*
G01*
X178350000Y-60100000D01*
X178350000Y-59400000D01*
X179250000Y-59400000D01*
X179250000Y-60100000D01*
G37*
G36*
X179250000Y-61600000D02*
G01*
X178350000Y-61600000D01*
X178350000Y-60900000D01*
X179250000Y-60900000D01*
X179250000Y-61600000D01*
G37*
%TO.C,U8*%
G36*
X132787879Y-69448644D02*
G01*
X132387879Y-69448644D01*
X132387879Y-69208644D01*
X132787879Y-69208644D01*
X132787879Y-69448644D01*
G37*
G36*
X132787879Y-69948644D02*
G01*
X132387879Y-69948644D01*
X132387879Y-69708644D01*
X132787879Y-69708644D01*
X132787879Y-69948644D01*
G37*
G36*
X132787879Y-70448644D02*
G01*
X132387879Y-70448644D01*
X132387879Y-70208644D01*
X132787879Y-70208644D01*
X132787879Y-70448644D01*
G37*
G36*
X132787879Y-70948644D02*
G01*
X132387879Y-70948644D01*
X132387879Y-70708644D01*
X132787879Y-70708644D01*
X132787879Y-70948644D01*
G37*
G36*
X132787879Y-71448644D02*
G01*
X132387879Y-71448644D01*
X132387879Y-71208644D01*
X132787879Y-71208644D01*
X132787879Y-71448644D01*
G37*
G36*
X135362879Y-69448644D02*
G01*
X134962879Y-69448644D01*
X134962879Y-69208644D01*
X135362879Y-69208644D01*
X135362879Y-69448644D01*
G37*
G36*
X135362879Y-69948644D02*
G01*
X134962879Y-69948644D01*
X134962879Y-69708644D01*
X135362879Y-69708644D01*
X135362879Y-69948644D01*
G37*
G36*
X135362879Y-70448644D02*
G01*
X134962879Y-70448644D01*
X134962879Y-70208644D01*
X135362879Y-70208644D01*
X135362879Y-70448644D01*
G37*
G36*
X135362879Y-70948644D02*
G01*
X134962879Y-70948644D01*
X134962879Y-70708644D01*
X135362879Y-70708644D01*
X135362879Y-70948644D01*
G37*
G36*
X135362879Y-71448644D02*
G01*
X134962879Y-71448644D01*
X134962879Y-71208644D01*
X135362879Y-71208644D01*
X135362879Y-71448644D01*
G37*
G36*
X134332879Y-69448644D02*
G01*
X134622879Y-69448644D01*
X134622879Y-71218644D01*
X134332879Y-71218644D01*
X134330879Y-71830144D01*
X134182379Y-71830144D01*
X134048379Y-71831644D01*
X134042879Y-71218644D01*
X133682879Y-71218644D01*
X133671879Y-71831644D01*
X133534379Y-71831644D01*
X133396379Y-71830144D01*
X133392879Y-71218644D01*
X133102879Y-71218644D01*
X133102879Y-69438644D01*
X133392879Y-69438644D01*
X133392879Y-68833144D01*
X133541879Y-68833144D01*
X133675379Y-68833144D01*
X133682879Y-69448644D01*
X134042879Y-69448644D01*
X134046879Y-68832144D01*
X134182879Y-68834644D01*
X134327879Y-68832144D01*
X134332879Y-69448644D01*
G37*
%TO.C,SW5*%
G36*
X191650000Y-55750000D02*
G01*
X191350000Y-55750000D01*
X191350000Y-53740000D01*
X191650000Y-53740000D01*
X191650000Y-55750000D01*
G37*
G36*
X191650000Y-55750000D02*
G01*
X191350000Y-55750000D01*
X191350000Y-54750000D01*
X191650000Y-54750000D01*
X191650000Y-55750000D01*
G37*
G36*
X193100000Y-52875000D02*
G01*
X192400000Y-52875000D01*
X192400000Y-52625000D01*
X193100000Y-52625000D01*
X193100000Y-52875000D01*
G37*
G36*
X197600000Y-52875000D02*
G01*
X196900000Y-52875000D01*
X196900000Y-52625000D01*
X197600000Y-52625000D01*
X197600000Y-52875000D01*
G37*
G36*
X198650000Y-55750000D02*
G01*
X198350000Y-55750000D01*
X198350000Y-53740000D01*
X198650000Y-53740000D01*
X198650000Y-55750000D01*
G37*
G36*
X198650000Y-55750000D02*
G01*
X198350000Y-55750000D01*
X198350000Y-54750000D01*
X198650000Y-54750000D01*
X198650000Y-55750000D01*
G37*
%TO.C,U6*%
G36*
X195334466Y-62434000D02*
G01*
X194884466Y-62434000D01*
X194884466Y-62034000D01*
X195334466Y-62034000D01*
X195334466Y-62434000D01*
G37*
G36*
X195334466Y-63384000D02*
G01*
X194884466Y-63384000D01*
X194884466Y-62984000D01*
X195334466Y-62984000D01*
X195334466Y-63384000D01*
G37*
G36*
X195334466Y-64334000D02*
G01*
X194884466Y-64334000D01*
X194884466Y-63934000D01*
X195334466Y-63934000D01*
X195334466Y-64334000D01*
G37*
G36*
X195494466Y-62434000D02*
G01*
X195324466Y-62434000D01*
X195324466Y-62034000D01*
X195494466Y-62034000D01*
X195494466Y-62434000D01*
G37*
G36*
X195494466Y-63384000D02*
G01*
X195324466Y-63384000D01*
X195324466Y-62984000D01*
X195494466Y-62984000D01*
X195494466Y-63384000D01*
G37*
G36*
X195494466Y-64334000D02*
G01*
X195324466Y-64334000D01*
X195324466Y-63934000D01*
X195494466Y-63934000D01*
X195494466Y-64334000D01*
G37*
G36*
X197244466Y-62434000D02*
G01*
X197074466Y-62434000D01*
X197074466Y-62034000D01*
X197244466Y-62034000D01*
X197244466Y-62434000D01*
G37*
G36*
X197244466Y-64334000D02*
G01*
X197074466Y-64334000D01*
X197074466Y-63934000D01*
X197244466Y-63934000D01*
X197244466Y-64334000D01*
G37*
G36*
X197684466Y-62434000D02*
G01*
X197234466Y-62434000D01*
X197234466Y-62034000D01*
X197684466Y-62034000D01*
X197684466Y-62434000D01*
G37*
G36*
X197684466Y-64334000D02*
G01*
X197234466Y-64334000D01*
X197234466Y-63934000D01*
X197684466Y-63934000D01*
X197684466Y-64334000D01*
G37*
%TO.C,VR3*%
G36*
X103360000Y-98550000D02*
G01*
X101840000Y-98550000D01*
X101840000Y-98250000D01*
X103360000Y-98250000D01*
X103360000Y-98550000D01*
G37*
G36*
X112160000Y-98550000D02*
G01*
X110640000Y-98550000D01*
X110640000Y-98250000D01*
X112160000Y-98250000D01*
X112160000Y-98550000D01*
G37*
G36*
X104672208Y-90984254D02*
G01*
X104773943Y-91042991D01*
X104857009Y-91126057D01*
X104915746Y-91227792D01*
X104946150Y-91341263D01*
X104946150Y-91458737D01*
X104915746Y-91572208D01*
X104857009Y-91673943D01*
X104773943Y-91757009D01*
X104672208Y-91815746D01*
X104558737Y-91846150D01*
X104441263Y-91846150D01*
X104327792Y-91815746D01*
X104226057Y-91757009D01*
X104142991Y-91673943D01*
X104084254Y-91572208D01*
X104053850Y-91458737D01*
X104053850Y-91341263D01*
X104084254Y-91227792D01*
X104142991Y-91126057D01*
X104226057Y-91042991D01*
X104327792Y-90984254D01*
X104441263Y-90953850D01*
X104558737Y-90953850D01*
X104672208Y-90984254D01*
G37*
G36*
X107172208Y-90984254D02*
G01*
X107273943Y-91042991D01*
X107357009Y-91126057D01*
X107415746Y-91227792D01*
X107446150Y-91341263D01*
X107446150Y-91458737D01*
X107415746Y-91572208D01*
X107357009Y-91673943D01*
X107273943Y-91757009D01*
X107172208Y-91815746D01*
X107058737Y-91846150D01*
X106941263Y-91846150D01*
X106827792Y-91815746D01*
X106726057Y-91757009D01*
X106642991Y-91673943D01*
X106584254Y-91572208D01*
X106553850Y-91458737D01*
X106553850Y-91341263D01*
X106584254Y-91227792D01*
X106642991Y-91126057D01*
X106726057Y-91042991D01*
X106827792Y-90984254D01*
X106941263Y-90953850D01*
X107058737Y-90953850D01*
X107172208Y-90984254D01*
G37*
G36*
X109672208Y-90984254D02*
G01*
X109773943Y-91042991D01*
X109857009Y-91126057D01*
X109915746Y-91227792D01*
X109946150Y-91341263D01*
X109946150Y-91458737D01*
X109915746Y-91572208D01*
X109857009Y-91673943D01*
X109773943Y-91757009D01*
X109672208Y-91815746D01*
X109558737Y-91846150D01*
X109441263Y-91846150D01*
X109327792Y-91815746D01*
X109226057Y-91757009D01*
X109142991Y-91673943D01*
X109084254Y-91572208D01*
X109053850Y-91458737D01*
X109053850Y-91341263D01*
X109084254Y-91227792D01*
X109142991Y-91126057D01*
X109226057Y-91042991D01*
X109327792Y-90984254D01*
X109441263Y-90953850D01*
X109558737Y-90953850D01*
X109672208Y-90984254D01*
G37*
%TO.C,L5*%
G36*
X142822647Y-64439265D02*
G01*
X141547647Y-64439265D01*
X141547647Y-64039265D01*
X142822647Y-64039265D01*
X142822647Y-64439265D01*
G37*
G36*
X142822647Y-66039265D02*
G01*
X141547647Y-66039265D01*
X141547647Y-65639265D01*
X142822647Y-65639265D01*
X142822647Y-66039265D01*
G37*
%TO.C,VR1*%
G36*
X114910000Y-124150000D02*
G01*
X113390000Y-124150000D01*
X113390000Y-123850000D01*
X114910000Y-123850000D01*
X114910000Y-124150000D01*
G37*
G36*
X123710000Y-124150000D02*
G01*
X122190000Y-124150000D01*
X122190000Y-123850000D01*
X123710000Y-123850000D01*
X123710000Y-124150000D01*
G37*
G36*
X116222208Y-116584254D02*
G01*
X116323943Y-116642991D01*
X116407009Y-116726057D01*
X116465746Y-116827792D01*
X116496150Y-116941263D01*
X116496150Y-117058737D01*
X116465746Y-117172208D01*
X116407009Y-117273943D01*
X116323943Y-117357009D01*
X116222208Y-117415746D01*
X116108737Y-117446150D01*
X115991263Y-117446150D01*
X115877792Y-117415746D01*
X115776057Y-117357009D01*
X115692991Y-117273943D01*
X115634254Y-117172208D01*
X115603850Y-117058737D01*
X115603850Y-116941263D01*
X115634254Y-116827792D01*
X115692991Y-116726057D01*
X115776057Y-116642991D01*
X115877792Y-116584254D01*
X115991263Y-116553850D01*
X116108737Y-116553850D01*
X116222208Y-116584254D01*
G37*
G36*
X118722208Y-116584254D02*
G01*
X118823943Y-116642991D01*
X118907009Y-116726057D01*
X118965746Y-116827792D01*
X118996150Y-116941263D01*
X118996150Y-117058737D01*
X118965746Y-117172208D01*
X118907009Y-117273943D01*
X118823943Y-117357009D01*
X118722208Y-117415746D01*
X118608737Y-117446150D01*
X118491263Y-117446150D01*
X118377792Y-117415746D01*
X118276057Y-117357009D01*
X118192991Y-117273943D01*
X118134254Y-117172208D01*
X118103850Y-117058737D01*
X118103850Y-116941263D01*
X118134254Y-116827792D01*
X118192991Y-116726057D01*
X118276057Y-116642991D01*
X118377792Y-116584254D01*
X118491263Y-116553850D01*
X118608737Y-116553850D01*
X118722208Y-116584254D01*
G37*
G36*
X121222208Y-116584254D02*
G01*
X121323943Y-116642991D01*
X121407009Y-116726057D01*
X121465746Y-116827792D01*
X121496150Y-116941263D01*
X121496150Y-117058737D01*
X121465746Y-117172208D01*
X121407009Y-117273943D01*
X121323943Y-117357009D01*
X121222208Y-117415746D01*
X121108737Y-117446150D01*
X120991263Y-117446150D01*
X120877792Y-117415746D01*
X120776057Y-117357009D01*
X120692991Y-117273943D01*
X120634254Y-117172208D01*
X120603850Y-117058737D01*
X120603850Y-116941263D01*
X120634254Y-116827792D01*
X120692991Y-116726057D01*
X120776057Y-116642991D01*
X120877792Y-116584254D01*
X120991263Y-116553850D01*
X121108737Y-116553850D01*
X121222208Y-116584254D01*
G37*
%TD*%
M02*
