%TF.GenerationSoftware,KiCad,Pcbnew,9.0.5*%
%TF.CreationDate,2026-03-23T23:06:55+01:00*%
%TF.ProjectId,Spikeling_v3.2,5370696b-656c-4696-9e67-5f76332e322e,rev?*%
%TF.SameCoordinates,Original*%
%TF.FileFunction,Other,User*%
%FSLAX46Y46*%
G04 Gerber Fmt 4.6, Leading zero omitted, Abs format (unit mm)*
G04 Created by KiCad (PCBNEW 9.0.5) date 2026-03-23 23:06:55*
%MOMM*%
%LPD*%
G01*
G04 APERTURE LIST*
%ADD10C,0.050000*%
G04 APERTURE END LIST*
%TO.C,J6*%
D10*
X223105433Y-67305433D02*
X208424500Y-67305433D01*
X208424500Y-60724500D01*
X223105433Y-60724500D01*
X223105433Y-67305433D01*
%TO.C,J5*%
X210694567Y-133105433D02*
X217275500Y-133105433D01*
X217275500Y-118424500D01*
X210694567Y-118424500D01*
X210694567Y-133105433D01*
%TO.C,J4*%
X96894567Y-80694567D02*
X111575500Y-80694567D01*
X111575500Y-87275500D01*
X96894567Y-87275500D01*
X96894567Y-80694567D01*
%TO.C,J3*%
X96894567Y-52794567D02*
X111575500Y-52794567D01*
X111575500Y-59375500D01*
X96894567Y-59375500D01*
X96894567Y-52794567D01*
%TO.C,J1*%
X102694567Y-133105433D02*
X109275500Y-133105433D01*
X109275500Y-118424500D01*
X102694567Y-118424500D01*
X102694567Y-133105433D01*
%TO.C,Q2*%
X120983015Y-64134320D02*
X120983015Y-67534320D01*
X120983015Y-67534320D02*
X124823015Y-67534320D01*
X124823015Y-64134320D02*
X120983015Y-64134320D01*
X124823015Y-67534320D02*
X124823015Y-64134320D01*
%TO.C,C25*%
X193134466Y-63514000D02*
X194334466Y-63514000D01*
X193134466Y-66314000D02*
X193134466Y-63514000D01*
X194334466Y-63514000D02*
X194334466Y-66314000D01*
X194334466Y-66314000D02*
X193134466Y-66314000D01*
%TO.C,Q3*%
X140290533Y-67509654D02*
X140290533Y-70909654D01*
X140290533Y-70909654D02*
X144130533Y-70909654D01*
X144130533Y-67509654D02*
X140290533Y-67509654D01*
X144130533Y-70909654D02*
X144130533Y-67509654D01*
%TO.C,D7*%
X144270000Y-50840000D02*
X145730000Y-50840000D01*
X144270000Y-53800000D02*
X144270000Y-50840000D01*
X145730000Y-50840000D02*
X145730000Y-53800000D01*
X145730000Y-53800000D02*
X144270000Y-53800000D01*
%TO.C,D2*%
X115029349Y-54795067D02*
X111629349Y-54795067D01*
X111629349Y-57375500D01*
X115029349Y-57375500D01*
X115029349Y-54795067D01*
%TO.C,TP2*%
X133510000Y-58690000D02*
G75*
G02*
X130510000Y-58690000I-1500000J0D01*
G01*
X130510000Y-58690000D02*
G75*
G02*
X133510000Y-58690000I1500000J0D01*
G01*
%TO.C,TP4*%
X127510000Y-58690000D02*
G75*
G02*
X124510000Y-58690000I-1500000J0D01*
G01*
X124510000Y-58690000D02*
G75*
G02*
X127510000Y-58690000I1500000J0D01*
G01*
%TO.C,R32*%
X153720000Y-58390000D02*
X156320000Y-58390000D01*
X153720000Y-59590000D02*
X153720000Y-58390000D01*
X156320000Y-58390000D02*
X156320000Y-59590000D01*
X156320000Y-59590000D02*
X153720000Y-59590000D01*
%TO.C,Q4*%
X204498003Y-58302354D02*
X204498003Y-61702354D01*
X204498003Y-61702354D02*
X208338003Y-61702354D01*
X208338003Y-58302354D02*
X204498003Y-58302354D01*
X208338003Y-61702354D02*
X208338003Y-58302354D01*
%TO.C,D5*%
X152270000Y-50840000D02*
X153730000Y-50840000D01*
X152270000Y-53800000D02*
X152270000Y-50840000D01*
X153730000Y-50840000D02*
X153730000Y-53800000D01*
X153730000Y-53800000D02*
X152270000Y-53800000D01*
%TO.C,SW2*%
X143522818Y-74674933D02*
X143522818Y-80674933D01*
X143522818Y-80674933D02*
X146922818Y-80674933D01*
X146922818Y-74674933D02*
X143522818Y-74674933D01*
X146922818Y-80674933D02*
X146922818Y-74674933D01*
%TO.C,L3*%
X185276914Y-62854755D02*
X181695981Y-62854755D01*
X181695981Y-59273822D01*
X185276914Y-59273822D01*
X185276914Y-62854755D01*
%TO.C,D11*%
X215480000Y-57755067D02*
X212080000Y-57755067D01*
X212080000Y-60335500D01*
X215480000Y-60335500D01*
X215480000Y-57755067D01*
%TO.C,D1*%
X172110000Y-57063500D02*
X172110000Y-52663500D01*
X174410000Y-52663500D02*
X172110000Y-52663500D01*
X174410000Y-52663500D02*
X174410000Y-57063500D01*
X174410000Y-57063500D02*
X172110000Y-57063500D01*
%TO.C,H4*%
X207050000Y-112500000D02*
G75*
G02*
X200950000Y-112500000I-3050000J0D01*
G01*
X200950000Y-112500000D02*
G75*
G02*
X207050000Y-112500000I3050000J0D01*
G01*
%TO.C,L4*%
X128584136Y-71235915D02*
X130284136Y-71235915D01*
X128584136Y-74735915D02*
X128584136Y-71235915D01*
X130284136Y-71235915D02*
X130284136Y-74735915D01*
X130284136Y-74735915D02*
X128584136Y-74735915D01*
%TO.C,U9*%
X191900819Y-102681944D02*
X184124819Y-102681944D01*
X184124819Y-111912877D01*
X191900819Y-111912877D01*
X191900819Y-102681944D01*
%TO.C,R70*%
X198910000Y-52150000D02*
X201510000Y-52150000D01*
X198910000Y-53350000D02*
X198910000Y-52150000D01*
X201510000Y-52150000D02*
X201510000Y-53350000D01*
X201510000Y-53350000D02*
X198910000Y-53350000D01*
%TO.C,H1*%
X119050000Y-67500000D02*
G75*
G02*
X112950000Y-67500000I-3050000J0D01*
G01*
X112950000Y-67500000D02*
G75*
G02*
X119050000Y-67500000I3050000J0D01*
G01*
%TO.C,D6*%
X148270000Y-50830000D02*
X149730000Y-50830000D01*
X148270000Y-53790000D02*
X148270000Y-50830000D01*
X149730000Y-50830000D02*
X149730000Y-53790000D01*
X149730000Y-53790000D02*
X148270000Y-53790000D01*
%TO.C,H3*%
X119050000Y-112500000D02*
G75*
G02*
X112950000Y-112500000I-3050000J0D01*
G01*
X112950000Y-112500000D02*
G75*
G02*
X119050000Y-112500000I3050000J0D01*
G01*
%TO.C,D10*%
X208950000Y-122395067D02*
X205550000Y-122395067D01*
X205550000Y-124975500D01*
X208950000Y-124975500D01*
X208950000Y-122395067D01*
%TO.C,J2*%
X155250000Y-48500000D02*
X164750000Y-48500000D01*
X155250000Y-56750000D02*
X155250000Y-48500000D01*
X164750000Y-48500000D02*
X164750000Y-56750000D01*
X164750000Y-56750000D02*
X155250000Y-56750000D01*
%TO.C,TP1*%
X130510000Y-58690000D02*
G75*
G02*
X127510000Y-58690000I-1500000J0D01*
G01*
X127510000Y-58690000D02*
G75*
G02*
X130510000Y-58690000I1500000J0D01*
G01*
%TO.C,C27*%
X198234466Y-61608500D02*
X199434466Y-61608500D01*
X198234466Y-64408500D02*
X198234466Y-61608500D01*
X199434466Y-61608500D02*
X199434466Y-64408500D01*
X199434466Y-64408500D02*
X198234466Y-64408500D01*
%TO.C,D3*%
X115032468Y-82690568D02*
X111632468Y-82690568D01*
X111632468Y-85271001D01*
X115032468Y-85271001D01*
X115032468Y-82690568D01*
%TO.C,JP1*%
X163909455Y-68048665D02*
X163909455Y-64748665D01*
X163909455Y-68048665D02*
X166409455Y-68048665D01*
X166409455Y-64748665D02*
X163909455Y-64748665D01*
X166409455Y-64748665D02*
X166409455Y-68048665D01*
%TO.C,U7*%
X185363966Y-62578567D02*
X188284966Y-62578567D01*
X188284966Y-65159500D01*
X185363966Y-65159500D01*
X185363966Y-62578567D01*
%TO.C,H2*%
X207050000Y-67500000D02*
G75*
G02*
X200950000Y-67500000I-3050000J0D01*
G01*
X200950000Y-67500000D02*
G75*
G02*
X207050000Y-67500000I3050000J0D01*
G01*
%TO.C,TP3*%
X136510000Y-58690000D02*
G75*
G02*
X133510000Y-58690000I-1500000J0D01*
G01*
X133510000Y-58690000D02*
G75*
G02*
X136510000Y-58690000I1500000J0D01*
G01*
%TO.C,U6*%
X198134466Y-64909500D02*
X194434466Y-64909500D01*
X194434466Y-61428567D01*
X198134466Y-61428567D01*
X198134466Y-64909500D01*
%TD*%
M02*
