%TF.GenerationSoftware,KiCad,Pcbnew,10.0.1*%
%TF.CreationDate,2026-04-28T23:52:01+02:00*%
%TF.ProjectId,Spikeling_v3.2,5370696b-656c-4696-9e67-5f76332e322e,rev?*%
%TF.SameCoordinates,Original*%
%TF.FileFunction,Soldermask,Top*%
%TF.FilePolarity,Negative*%
%FSLAX46Y46*%
G04 Gerber Fmt 4.6, Leading zero omitted, Abs format (unit mm)*
G04 Created by KiCad (PCBNEW 10.0.1) date 2026-04-28 23:52:01*
%MOMM*%
%LPD*%
G01*
G04 APERTURE LIST*
G04 Aperture macros list*
%AMRoundRect*
0 Rectangle with rounded corners*
0 $1 Rounding radius*
0 $2 $3 $4 $5 $6 $7 $8 $9 X,Y pos of 4 corners*
0 Add a 4 corners polygon primitive as box body*
4,1,4,$2,$3,$4,$5,$6,$7,$8,$9,$2,$3,0*
0 Add four circle primitives for the rounded corners*
1,1,$1+$1,$2,$3*
1,1,$1+$1,$4,$5*
1,1,$1+$1,$6,$7*
1,1,$1+$1,$8,$9*
0 Add four rect primitives between the rounded corners*
20,1,$1+$1,$2,$3,$4,$5,0*
20,1,$1+$1,$4,$5,$6,$7,0*
20,1,$1+$1,$6,$7,$8,$9,0*
20,1,$1+$1,$8,$9,$2,$3,0*%
%AMFreePoly0*
4,1,21,-0.180000,0.885000,0.180000,0.885000,0.180000,1.715000,0.470000,1.715000,0.470000,0.885000,0.760000,0.885000,0.760000,-0.885000,0.470000,-0.885000,0.470000,-1.705000,0.180000,-1.705000,0.180000,-0.885000,-0.180000,-0.885000,-0.180000,-1.705000,-0.470000,-1.705000,-0.470000,-0.885000,-0.760000,-0.885000,-0.760000,0.895000,-0.470000,0.895000,-0.470000,1.715000,-0.180000,1.715000,
-0.180000,0.885000,-0.180000,0.885000,$1*%
G04 Aperture macros list end*
%ADD10RoundRect,0.244000X-0.244000X-0.269000X0.244000X-0.269000X0.244000X0.269000X-0.244000X0.269000X0*%
%ADD11C,1.000000*%
%ADD12O,1.600000X1.000000*%
%ADD13O,1.000000X1.600000*%
%ADD14O,1.300000X2.100000*%
%ADD15O,1.300000X2.300000*%
%ADD16C,0.500000*%
%ADD17RoundRect,0.500000X2.000000X1.000000X-2.000000X1.000000X-2.000000X-1.000000X2.000000X-1.000000X0*%
%ADD18R,0.500000X1.400000*%
%ADD19R,0.300000X1.400000*%
%ADD20C,0.600000*%
%ADD21RoundRect,0.269000X0.494000X-0.269000X0.494000X0.269000X-0.494000X0.269000X-0.494000X-0.269000X0*%
%ADD22RoundRect,0.219000X0.294000X-0.219000X0.294000X0.219000X-0.294000X0.219000X-0.294000X-0.219000X0*%
%ADD23C,1.700000*%
%ADD24O,2.500000X3.000000*%
%ADD25RoundRect,0.219000X0.219000X0.294000X-0.219000X0.294000X-0.219000X-0.294000X0.219000X-0.294000X0*%
%ADD26RoundRect,0.244000X0.269000X-0.244000X0.269000X0.244000X-0.269000X0.244000X-0.269000X-0.244000X0*%
%ADD27RoundRect,0.269000X-0.494000X0.269000X-0.494000X-0.269000X0.494000X-0.269000X0.494000X0.269000X0*%
%ADD28RoundRect,0.219000X-0.219000X-0.294000X0.219000X-0.294000X0.219000X0.294000X-0.219000X0.294000X0*%
%ADD29RoundRect,0.244000X-0.269000X0.244000X-0.269000X-0.244000X0.269000X-0.244000X0.269000X0.244000X0*%
%ADD30RoundRect,0.150000X-0.590000X-0.150000X0.590000X-0.150000X0.590000X0.150000X-0.590000X0.150000X0*%
%ADD31O,1.971000X0.602000*%
%ADD32RoundRect,0.150000X0.400000X0.150000X-0.400000X0.150000X-0.400000X-0.150000X0.400000X-0.150000X0*%
%ADD33RoundRect,0.266521X-0.671479X0.346479X-0.671479X-0.346479X0.671479X-0.346479X0.671479X0.346479X0*%
%ADD34RoundRect,0.219000X-0.294000X0.219000X-0.294000X-0.219000X0.294000X-0.219000X0.294000X0.219000X0*%
%ADD35R,1.000000X0.700000*%
%ADD36RoundRect,0.269000X0.269000X0.494000X-0.269000X0.494000X-0.269000X-0.494000X0.269000X-0.494000X0*%
%ADD37RoundRect,0.175000X0.450000X0.175000X-0.450000X0.175000X-0.450000X-0.175000X0.450000X-0.175000X0*%
%ADD38RoundRect,0.239000X-0.274000X0.239000X-0.274000X-0.239000X0.274000X-0.239000X0.274000X0.239000X0*%
%ADD39RoundRect,0.244000X0.244000X0.269000X-0.244000X0.269000X-0.244000X-0.269000X0.244000X-0.269000X0*%
%ADD40R,1.199000X1.199000*%
%ADD41R,1.200000X1.800000*%
%ADD42RoundRect,0.269000X-0.269000X-0.494000X0.269000X-0.494000X0.269000X0.494000X-0.269000X0.494000X0*%
%ADD43RoundRect,0.287778X-0.714222X0.489222X-0.714222X-0.489222X0.714222X-0.489222X0.714222X0.489222X0*%
%ADD44C,2.000000*%
%ADD45O,2.050000X0.590000*%
%ADD46R,3.499000X1.406500*%
%ADD47R,1.400000X2.350000*%
%ADD48R,0.840000X0.280000*%
%ADD49R,0.750000X0.280000*%
%ADD50R,1.500000X0.900000*%
%ADD51R,0.900000X1.500000*%
%ADD52R,0.900000X0.900000*%
%ADD53RoundRect,0.266521X0.671479X-0.346479X0.671479X0.346479X-0.671479X0.346479X-0.671479X-0.346479X0*%
%ADD54R,1.000000X2.900000*%
%ADD55RoundRect,0.267273X-0.570727X0.320727X-0.570727X-0.320727X0.570727X-0.320727X0.570727X0.320727X0*%
%ADD56R,1.100000X0.600000*%
%ADD57R,1.500000X4.000000*%
%ADD58R,0.850000X0.350000*%
%ADD59R,1.800000X1.800000*%
%ADD60C,1.800000*%
%ADD61C,5.600000*%
%ADD62O,2.038000X0.574000*%
%ADD63O,1.450000X0.380000*%
%ADD64R,1.132500X1.377000*%
%ADD65R,0.521000X0.250000*%
%ADD66R,0.900000X1.600000*%
%ADD67R,1.300000X0.800000*%
%ADD68RoundRect,0.266521X-0.346479X-0.671479X0.346479X-0.671479X0.346479X0.671479X-0.346479X0.671479X0*%
%ADD69R,0.850000X0.240000*%
%ADD70R,0.800000X0.230000*%
%ADD71FreePoly0,0.000000*%
%ADD72R,1.000000X0.600000*%
%ADD73RoundRect,0.220000X-0.220000X-0.380000X0.220000X-0.380000X0.220000X0.380000X-0.220000X0.380000X0*%
%ADD74R,1.377000X1.132500*%
%ADD75RoundRect,0.250000X0.600000X0.750000X-0.600000X0.750000X-0.600000X-0.750000X0.600000X-0.750000X0*%
%ADD76O,1.700000X2.000000*%
G04 APERTURE END LIST*
D10*
%TO.C,C64*%
X137045000Y-74350000D03*
X138605000Y-74350000D03*
%TD*%
D11*
%TO.C,J6*%
X218250000Y-64000000D03*
X212250000Y-64000000D03*
D12*
X217750000Y-61600000D03*
X215750000Y-66400000D03*
X210750000Y-61600000D03*
%TD*%
D11*
%TO.C,J5*%
X214000000Y-128250000D03*
X214000000Y-122250000D03*
D13*
X216400000Y-127750000D03*
X211600000Y-125750000D03*
X216400000Y-120750000D03*
%TD*%
D11*
%TO.C,J4*%
X106000000Y-128250000D03*
X106000000Y-122250000D03*
D13*
X108400000Y-127750000D03*
X103600000Y-125750000D03*
X108400000Y-120750000D03*
%TD*%
D11*
%TO.C,J3*%
X101750000Y-84000000D03*
X107750000Y-84000000D03*
D12*
X102250000Y-86400000D03*
X104250000Y-81600000D03*
X109250000Y-86400000D03*
%TD*%
D11*
%TO.C,J2*%
X101750000Y-56000000D03*
X107750000Y-56000000D03*
D12*
X102250000Y-58400000D03*
X104250000Y-53600000D03*
X109250000Y-58400000D03*
%TD*%
D14*
%TO.C,J1*%
X155670000Y-51370000D03*
D15*
X155670000Y-55570000D03*
D16*
X158000000Y-50750000D03*
X158000000Y-52750000D03*
D17*
X160000000Y-51750000D03*
D16*
X162000000Y-50750000D03*
X162000000Y-52750000D03*
D14*
X164330000Y-51370000D03*
D15*
X164330000Y-55570000D03*
D18*
X163200000Y-56250000D03*
X162400000Y-56250000D03*
D19*
X161750000Y-56250000D03*
X160750000Y-56250000D03*
X159250000Y-56250000D03*
X158250000Y-56250000D03*
D18*
X156800000Y-56250000D03*
X157600000Y-56250000D03*
D19*
X158750000Y-56250000D03*
X159750000Y-56250000D03*
X160250000Y-56250000D03*
X161250000Y-56250000D03*
D20*
X157110000Y-55050000D03*
X162890000Y-55050000D03*
%TD*%
D21*
%TO.C,C61*%
X206040512Y-104696322D03*
X206040512Y-102796322D03*
%TD*%
D22*
%TO.C,R7*%
X163029455Y-65148665D03*
X163029455Y-63508665D03*
%TD*%
D23*
%TO.C,VR4*%
X162500000Y-117000000D03*
X160000000Y-117000000D03*
X157500000Y-117000000D03*
D24*
X155600000Y-124000000D03*
X164400000Y-124000000D03*
%TD*%
D22*
%TO.C,R18*%
X122110000Y-65500000D03*
X122110000Y-63860000D03*
%TD*%
D25*
%TO.C,R66*%
X198772793Y-103336322D03*
X197132793Y-103336322D03*
%TD*%
D26*
%TO.C,C12*%
X194380000Y-65695000D03*
X194380000Y-64135000D03*
%TD*%
D25*
%TO.C,R20*%
X139725147Y-73034265D03*
X138085147Y-73034265D03*
%TD*%
D27*
%TO.C,C40*%
X194175000Y-85825000D03*
X194175000Y-87725000D03*
%TD*%
D28*
%TO.C,R50*%
X112600592Y-59936672D03*
X114240592Y-59936672D03*
%TD*%
%TO.C,R30*%
X136890000Y-91990000D03*
X138530000Y-91990000D03*
%TD*%
D27*
%TO.C,C41*%
X172320000Y-91880000D03*
X172320000Y-93780000D03*
%TD*%
D25*
%TO.C,R31*%
X183095446Y-89481521D03*
X181455446Y-89481521D03*
%TD*%
D29*
%TO.C,C32*%
X212731160Y-93592991D03*
X212731160Y-95152991D03*
%TD*%
D10*
%TO.C,C44*%
X170880000Y-89150000D03*
X172440000Y-89150000D03*
%TD*%
D30*
%TO.C,Q3*%
X141270533Y-68259654D03*
X141270533Y-70159654D03*
X143150533Y-69209654D03*
%TD*%
D29*
%TO.C,C39*%
X192540000Y-85700000D03*
X192540000Y-87260000D03*
%TD*%
D26*
%TO.C,C10*%
X190260000Y-66020000D03*
X190260000Y-64460000D03*
%TD*%
D31*
%TO.C,U10*%
X129345896Y-84399500D03*
X129345896Y-85669500D03*
X129345896Y-86939500D03*
X129345896Y-88209500D03*
X129345896Y-89479500D03*
X129345896Y-90749500D03*
X129345896Y-92019500D03*
X129345896Y-93289500D03*
X134816896Y-93289500D03*
X134816896Y-92019500D03*
X134816896Y-90749500D03*
X134816896Y-89479500D03*
X134816896Y-88209500D03*
X134816896Y-86939500D03*
X134816896Y-85669500D03*
X134816896Y-84399500D03*
%TD*%
D28*
%TO.C,R52*%
X125535000Y-81650000D03*
X127175000Y-81650000D03*
%TD*%
%TO.C,R48*%
X112600592Y-58586672D03*
X114240592Y-58586672D03*
%TD*%
D32*
%TO.C,U14*%
X200322793Y-102796322D03*
X200322793Y-103746322D03*
X200322793Y-104696322D03*
X202922793Y-104696322D03*
X202922793Y-102796322D03*
%TD*%
D10*
%TO.C,C54*%
X138500000Y-122470000D03*
X140060000Y-122470000D03*
%TD*%
D33*
%TO.C,C9*%
X188449000Y-61499000D03*
X188449000Y-64459000D03*
%TD*%
D22*
%TO.C,R5*%
X151500000Y-52920000D03*
X151500000Y-51280000D03*
%TD*%
D34*
%TO.C,R39*%
X164520000Y-71730000D03*
X164520000Y-73370000D03*
%TD*%
D35*
%TO.C,D5*%
X112599941Y-55436672D03*
X112599941Y-56737172D03*
X114499941Y-56086672D03*
%TD*%
D36*
%TO.C,C29*%
X187300000Y-100380000D03*
X185400000Y-100380000D03*
%TD*%
D37*
%TO.C,D7*%
X115667796Y-51961672D03*
X115667796Y-53861672D03*
X117667796Y-52911672D03*
%TD*%
D25*
%TO.C,R44*%
X149450000Y-77990000D03*
X147810000Y-77990000D03*
%TD*%
%TO.C,R77*%
X205235167Y-57300100D03*
X203595167Y-57300100D03*
%TD*%
D29*
%TO.C,C35*%
X136690000Y-85680000D03*
X136690000Y-87240000D03*
%TD*%
D36*
%TO.C,C16*%
X165009455Y-67048665D03*
X163109455Y-67048665D03*
%TD*%
D25*
%TO.C,R34*%
X183095446Y-93291521D03*
X181455446Y-93291521D03*
%TD*%
D10*
%TO.C,C50*%
X125640000Y-93310000D03*
X127200000Y-93310000D03*
%TD*%
D38*
%TO.C,D3*%
X153000000Y-51530000D03*
X153000000Y-53110000D03*
%TD*%
D10*
%TO.C,C27*%
X192814611Y-104847872D03*
X194374611Y-104847872D03*
%TD*%
D28*
%TO.C,R46*%
X170860000Y-90500000D03*
X172500000Y-90500000D03*
%TD*%
D34*
%TO.C,R75*%
X217320000Y-57620000D03*
X217320000Y-59260000D03*
%TD*%
D25*
%TO.C,R36*%
X172460000Y-77910000D03*
X170820000Y-77910000D03*
%TD*%
D39*
%TO.C,C30*%
X186960000Y-101980000D03*
X185400000Y-101980000D03*
%TD*%
D34*
%TO.C,R14*%
X139560147Y-70119265D03*
X139560147Y-71759265D03*
%TD*%
D40*
%TO.C,D13*%
X146050000Y-124400000D03*
D41*
X139950000Y-124400000D03*
%TD*%
D42*
%TO.C,C15*%
X199180000Y-60365000D03*
X201080000Y-60365000D03*
%TD*%
D43*
%TO.C,SW2*%
X145222818Y-76239933D03*
X145222818Y-80389933D03*
%TD*%
D22*
%TO.C,R4*%
X147500000Y-52920000D03*
X147500000Y-51280000D03*
%TD*%
D25*
%TO.C,R1*%
X153820000Y-56750000D03*
X152180000Y-56750000D03*
%TD*%
D35*
%TO.C,D11*%
X105022289Y-115770024D03*
X105022289Y-117070524D03*
X106922289Y-116420024D03*
%TD*%
D25*
%TO.C,R37*%
X172470000Y-76640000D03*
X170830000Y-76640000D03*
%TD*%
D44*
%TO.C,TP2*%
X132010000Y-58690000D03*
%TD*%
D22*
%TO.C,R72*%
X155600000Y-73380000D03*
X155600000Y-71740000D03*
%TD*%
D45*
%TO.C,U15*%
X205291160Y-95152991D03*
X205291160Y-96422991D03*
X205291160Y-97702991D03*
X205291160Y-98972991D03*
X210831160Y-98972991D03*
X210831160Y-97702991D03*
X210831160Y-96422991D03*
X210831160Y-95152991D03*
%TD*%
D44*
%TO.C,TP4*%
X126010000Y-58690000D03*
%TD*%
D34*
%TO.C,R59*%
X103645197Y-115748260D03*
X103645197Y-117388260D03*
%TD*%
%TO.C,R41*%
X161970000Y-71730000D03*
X161970000Y-73370000D03*
%TD*%
D26*
%TO.C,C33*%
X136690000Y-84380000D03*
X136690000Y-82820000D03*
%TD*%
D22*
%TO.C,R74*%
X156870000Y-73380000D03*
X156870000Y-71740000D03*
%TD*%
D28*
%TO.C,R70*%
X170850000Y-85100000D03*
X172490000Y-85100000D03*
%TD*%
D46*
%TO.C,U1*%
X169890000Y-53381500D03*
X169890000Y-57088500D03*
%TD*%
D39*
%TO.C,C48*%
X127205000Y-88209500D03*
X125645000Y-88209500D03*
%TD*%
D29*
%TO.C,C42*%
X170620000Y-91880000D03*
X170620000Y-93440000D03*
%TD*%
D22*
%TO.C,R17*%
X123460000Y-65500000D03*
X123460000Y-63860000D03*
%TD*%
D47*
%TO.C,L4*%
X126500000Y-70325000D03*
X130500000Y-70325000D03*
%TD*%
D28*
%TO.C,R61*%
X138500000Y-121120000D03*
X140140000Y-121120000D03*
%TD*%
D37*
%TO.C,D6*%
X115670552Y-58311672D03*
X115670552Y-60211672D03*
X117670552Y-59261672D03*
%TD*%
D48*
%TO.C,U6*%
X146514480Y-64896729D03*
D49*
X146459480Y-65396729D03*
X146459480Y-65896729D03*
X147731480Y-65896729D03*
X147731480Y-65396729D03*
X147731480Y-64896729D03*
%TD*%
D38*
%TO.C,D4*%
X145000000Y-51530000D03*
X145000000Y-53110000D03*
%TD*%
D39*
%TO.C,C1*%
X153780000Y-55250000D03*
X152220000Y-55250000D03*
%TD*%
D25*
%TO.C,R2*%
X164370000Y-60865000D03*
X162730000Y-60865000D03*
%TD*%
D50*
%TO.C,U12*%
X168969595Y-93147210D03*
X168969595Y-91877210D03*
X168969595Y-90607210D03*
X168969595Y-89337210D03*
X168969595Y-88067210D03*
X168969595Y-86797210D03*
X168969595Y-85527210D03*
X168969595Y-84257210D03*
X168969595Y-82987210D03*
X168969595Y-81717210D03*
X168969595Y-80447210D03*
X168969595Y-79177210D03*
X168969595Y-77907210D03*
X168969595Y-76637210D03*
D51*
X167054595Y-75238210D03*
X165784595Y-75238210D03*
X164514595Y-75238210D03*
X163244595Y-75238210D03*
X161974595Y-75238210D03*
X160704595Y-75238210D03*
X159434595Y-75238210D03*
X158164595Y-75238210D03*
X156894595Y-75238210D03*
X155624595Y-75238210D03*
X154354595Y-75238210D03*
X153084595Y-75238210D03*
D50*
X151169595Y-76637210D03*
X151169595Y-77907210D03*
X151169595Y-79177210D03*
X151169595Y-80447210D03*
X151169595Y-81717210D03*
X151169595Y-82987210D03*
X151169595Y-84257210D03*
X151169595Y-85527210D03*
X151169595Y-86797210D03*
X151169595Y-88067210D03*
X151169595Y-89337210D03*
X151169595Y-90607210D03*
X151169595Y-91877210D03*
X151169595Y-93147210D03*
D52*
X162969095Y-86827710D03*
X162969095Y-85427710D03*
X162969095Y-84027710D03*
X161569095Y-86827710D03*
X161569095Y-85427710D03*
X161569095Y-84027710D03*
X160169095Y-86827710D03*
X160169095Y-85427710D03*
X160169095Y-84027710D03*
%TD*%
D32*
%TO.C,TV1*%
X158664835Y-58962032D03*
X158664835Y-59912032D03*
X158664835Y-60862032D03*
X161364835Y-60862032D03*
X161364835Y-59912032D03*
X161364835Y-58962032D03*
%TD*%
D10*
%TO.C,C28*%
X192814611Y-107227872D03*
X194374611Y-107227872D03*
%TD*%
D23*
%TO.C,VR3*%
X120500000Y-117000000D03*
X118000000Y-117000000D03*
X115500000Y-117000000D03*
D24*
X113600000Y-124000000D03*
X122400000Y-124000000D03*
%TD*%
D25*
%TO.C,R65*%
X201250000Y-100100000D03*
X199610000Y-100100000D03*
%TD*%
D21*
%TO.C,C5*%
X168275000Y-64200000D03*
X168275000Y-62300000D03*
%TD*%
%TO.C,C2*%
X167220000Y-60755000D03*
X167220000Y-58855000D03*
%TD*%
%TO.C,C34*%
X138350000Y-84255000D03*
X138350000Y-82355000D03*
%TD*%
D53*
%TO.C,C20*%
X129825000Y-67175000D03*
X129825000Y-64215000D03*
%TD*%
D54*
%TO.C,L2*%
X186300000Y-61050000D03*
X184300000Y-61050000D03*
%TD*%
D55*
%TO.C,D1*%
X173260000Y-53388500D03*
X173260000Y-56188500D03*
%TD*%
D56*
%TO.C,Q1*%
X151991480Y-63980729D03*
X151991480Y-64930729D03*
X151991480Y-65880729D03*
X154691480Y-65880729D03*
X154691480Y-64930729D03*
X154691480Y-63980729D03*
%TD*%
D23*
%TO.C,VR7*%
X215500000Y-101600000D03*
X213000000Y-101600000D03*
X210500000Y-101600000D03*
D24*
X208600000Y-108600000D03*
X217400000Y-108600000D03*
%TD*%
D27*
%TO.C,C25*%
X134708856Y-63565514D03*
X134708856Y-65465514D03*
%TD*%
D28*
%TO.C,R62*%
X125560000Y-96285000D03*
X127200000Y-96285000D03*
%TD*%
D26*
%TO.C,C21*%
X131612879Y-67387121D03*
X131612879Y-65827121D03*
%TD*%
D10*
%TO.C,C55*%
X125640000Y-90760000D03*
X127200000Y-90760000D03*
%TD*%
D53*
%TO.C,C19*%
X127475000Y-67175000D03*
X127475000Y-64215000D03*
%TD*%
D21*
%TO.C,C31*%
X214328061Y-95148552D03*
X214328061Y-93248552D03*
%TD*%
D37*
%TO.C,D10*%
X115674069Y-79846693D03*
X115674069Y-81746693D03*
X117674069Y-80796693D03*
%TD*%
D28*
%TO.C,R26*%
X192764611Y-103497872D03*
X194404611Y-103497872D03*
%TD*%
D57*
%TO.C,B1*%
X175910000Y-73120000D03*
X187410000Y-73120000D03*
%TD*%
D58*
%TO.C,U2*%
X170180000Y-58990000D03*
X170180000Y-59640000D03*
X170180000Y-60290000D03*
X172380000Y-60290000D03*
X172380000Y-59640000D03*
X172380000Y-58990000D03*
%TD*%
D59*
%TO.C,SW1*%
X128508236Y-52861782D03*
D60*
X126008236Y-52861782D03*
X123508236Y-52861782D03*
%TD*%
D35*
%TO.C,D17*%
X214154140Y-57666522D03*
X214154140Y-58967022D03*
X216054140Y-58316522D03*
%TD*%
D21*
%TO.C,C11*%
X192730000Y-66035000D03*
X192730000Y-64135000D03*
%TD*%
D28*
%TO.C,R49*%
X112600592Y-53586672D03*
X114240592Y-53586672D03*
%TD*%
%TO.C,R54*%
X112610811Y-81476154D03*
X114250811Y-81476154D03*
%TD*%
D34*
%TO.C,R28*%
X203386160Y-94782991D03*
X203386160Y-96422991D03*
%TD*%
D28*
%TO.C,R76*%
X170847680Y-82987210D03*
X172487680Y-82987210D03*
%TD*%
%TO.C,R56*%
X112610811Y-80126154D03*
X114250811Y-80126154D03*
%TD*%
D26*
%TO.C,C13*%
X199420000Y-63800000D03*
X199420000Y-62240000D03*
%TD*%
D61*
%TO.C,H4*%
X204000000Y-112500000D03*
%TD*%
D62*
%TO.C,U9*%
X185393819Y-103502377D03*
X185393819Y-104772377D03*
X185393819Y-106042377D03*
X185393819Y-107312377D03*
X185393819Y-108582377D03*
X185393819Y-109852377D03*
X185393819Y-111122377D03*
X190631819Y-111122377D03*
X190631819Y-109852377D03*
X190631819Y-108582377D03*
X190631819Y-107312377D03*
X190631819Y-106042377D03*
X190631819Y-104772377D03*
X190631819Y-103502377D03*
%TD*%
D28*
%TO.C,R21*%
X138300000Y-65640000D03*
X139940000Y-65640000D03*
%TD*%
%TO.C,R6*%
X154200000Y-58990000D03*
X155840000Y-58990000D03*
%TD*%
D22*
%TO.C,R73*%
X158140000Y-73370000D03*
X158140000Y-71730000D03*
%TD*%
D58*
%TO.C,U8*%
X134710147Y-66639265D03*
X134710147Y-67289265D03*
X134710147Y-67939265D03*
X136910147Y-67939265D03*
X136910147Y-67289265D03*
X136910147Y-66639265D03*
%TD*%
D25*
%TO.C,R3*%
X164370000Y-58959052D03*
X162730000Y-58959052D03*
%TD*%
D35*
%TO.C,D18*%
X169897412Y-66059619D03*
X169897412Y-67360119D03*
X171797412Y-66709619D03*
%TD*%
D34*
%TO.C,R15*%
X138210147Y-70119265D03*
X138210147Y-71759265D03*
%TD*%
%TO.C,R40*%
X163240000Y-71730000D03*
X163240000Y-73370000D03*
%TD*%
D25*
%TO.C,R12*%
X147731480Y-63706729D03*
X146091480Y-63706729D03*
%TD*%
D21*
%TO.C,C38*%
X194175000Y-84275000D03*
X194175000Y-82375000D03*
%TD*%
D25*
%TO.C,R45*%
X149450000Y-76640000D03*
X147810000Y-76640000D03*
%TD*%
D30*
%TO.C,Q2*%
X122110000Y-67050000D03*
X122110000Y-68950000D03*
X123990000Y-68000000D03*
%TD*%
D34*
%TO.C,R16*%
X122640000Y-70330000D03*
X122640000Y-71970000D03*
%TD*%
D25*
%TO.C,R33*%
X183095446Y-92021521D03*
X181455446Y-92021521D03*
%TD*%
D21*
%TO.C,C14*%
X201080000Y-64140000D03*
X201080000Y-62240000D03*
%TD*%
D61*
%TO.C,H1*%
X116000000Y-67500000D03*
%TD*%
D63*
%TO.C,U13*%
X137160000Y-117675000D03*
X137160000Y-118325000D03*
X137160000Y-118975000D03*
X137160000Y-119625000D03*
X141560000Y-119625000D03*
X141560000Y-118975000D03*
X141560000Y-118325000D03*
X141560000Y-117675000D03*
%TD*%
D28*
%TO.C,R60*%
X125560000Y-97635000D03*
X127200000Y-97635000D03*
%TD*%
D22*
%TO.C,R43*%
X159440000Y-73370000D03*
X159440000Y-71730000D03*
%TD*%
D28*
%TO.C,R51*%
X112602796Y-52236672D03*
X114242796Y-52236672D03*
%TD*%
%TO.C,R25*%
X185480000Y-98625000D03*
X187120000Y-98625000D03*
%TD*%
D38*
%TO.C,D2*%
X149000000Y-51520000D03*
X149000000Y-53100000D03*
%TD*%
D61*
%TO.C,H3*%
X116000000Y-112500000D03*
%TD*%
D42*
%TO.C,C59*%
X198422793Y-106371322D03*
X200322793Y-106371322D03*
%TD*%
D25*
%TO.C,R81*%
X168597412Y-67360119D03*
X166957412Y-67360119D03*
%TD*%
D10*
%TO.C,C56*%
X181537058Y-84399771D03*
X183097058Y-84399771D03*
%TD*%
D26*
%TO.C,C18*%
X148979677Y-66956729D03*
X148979677Y-65396729D03*
%TD*%
D35*
%TO.C,D14*%
X206175000Y-116675000D03*
X206175000Y-117975500D03*
X208075000Y-117325000D03*
%TD*%
D28*
%TO.C,R27*%
X192764611Y-108577872D03*
X194404611Y-108577872D03*
%TD*%
D25*
%TO.C,R8*%
X147398515Y-68812997D03*
X145758515Y-68812997D03*
%TD*%
D44*
%TO.C,TP1*%
X129010000Y-58690000D03*
%TD*%
D10*
%TO.C,C58*%
X181537058Y-86939771D03*
X183097058Y-86939771D03*
%TD*%
D23*
%TO.C,SW4*%
X182250000Y-52750000D03*
X177750000Y-52750000D03*
D44*
X176400000Y-55250000D03*
X183600000Y-55250000D03*
%TD*%
D28*
%TO.C,R69*%
X170860000Y-86450000D03*
X172500000Y-86450000D03*
%TD*%
D39*
%TO.C,C46*%
X127200000Y-85670000D03*
X125640000Y-85670000D03*
%TD*%
D23*
%TO.C,SW3*%
X142250000Y-52750000D03*
X137750000Y-52750000D03*
D44*
X136400000Y-55250000D03*
X143600000Y-55250000D03*
%TD*%
D28*
%TO.C,R67*%
X197132793Y-104696322D03*
X198772793Y-104696322D03*
%TD*%
D25*
%TO.C,R32*%
X183095446Y-90751521D03*
X181455446Y-90751521D03*
%TD*%
D26*
%TO.C,C8*%
X183585000Y-65520000D03*
X183585000Y-63960000D03*
%TD*%
D28*
%TO.C,R13*%
X148988469Y-63706016D03*
X150628469Y-63706016D03*
%TD*%
D37*
%TO.C,D19*%
X173219089Y-65747119D03*
X173219089Y-67647119D03*
X175219089Y-66697119D03*
%TD*%
D64*
%TO.C,L1*%
X172146338Y-62300000D03*
X170214338Y-62300000D03*
%TD*%
D37*
%TO.C,D9*%
X115679040Y-86198530D03*
X115679040Y-88098530D03*
X117679040Y-87148530D03*
%TD*%
D30*
%TO.C,Q4*%
X205239735Y-59039169D03*
X205239735Y-60939169D03*
X207119735Y-59989169D03*
%TD*%
D28*
%TO.C,R57*%
X125560000Y-94935000D03*
X127200000Y-94935000D03*
%TD*%
%TO.C,R64*%
X181457058Y-81699771D03*
X183097058Y-81699771D03*
%TD*%
D56*
%TO.C,U5*%
X159009455Y-65148665D03*
X159009455Y-66098665D03*
X159009455Y-67048665D03*
X161609455Y-67048665D03*
X161609455Y-65148665D03*
%TD*%
D25*
%TO.C,R35*%
X194367058Y-92029771D03*
X192727058Y-92029771D03*
%TD*%
D22*
%TO.C,R82*%
X169897412Y-70175119D03*
X169897412Y-68535119D03*
%TD*%
D25*
%TO.C,R80*%
X168597412Y-66059619D03*
X166957412Y-66059619D03*
%TD*%
D35*
%TO.C,D8*%
X112612871Y-83328828D03*
X112612871Y-84629328D03*
X114512871Y-83978828D03*
%TD*%
D34*
%TO.C,R24*%
X139560147Y-67279265D03*
X139560147Y-68919265D03*
%TD*%
D28*
%TO.C,R78*%
X184380000Y-52750000D03*
X186020000Y-52750000D03*
%TD*%
D27*
%TO.C,C52*%
X144821218Y-118359686D03*
X144821218Y-120259686D03*
%TD*%
D26*
%TO.C,C60*%
X204360000Y-104360000D03*
X204360000Y-102800000D03*
%TD*%
%TO.C,C23*%
X132362879Y-74114658D03*
X132362879Y-72554658D03*
%TD*%
D34*
%TO.C,R29*%
X212736160Y-96422991D03*
X212736160Y-98062991D03*
%TD*%
D27*
%TO.C,C24*%
X135362879Y-72668644D03*
X135362879Y-74568644D03*
%TD*%
D26*
%TO.C,C62*%
X174280000Y-74680000D03*
X174280000Y-73120000D03*
%TD*%
D22*
%TO.C,R58*%
X103650000Y-114545000D03*
X103650000Y-112905000D03*
%TD*%
D34*
%TO.C,R42*%
X160700000Y-71730000D03*
X160700000Y-73370000D03*
%TD*%
D23*
%TO.C,VR1*%
X109500000Y-63500000D03*
X107000000Y-63500000D03*
X104500000Y-63500000D03*
D24*
X102600000Y-70500000D03*
X111400000Y-70500000D03*
%TD*%
D10*
%TO.C,C57*%
X181537058Y-85669771D03*
X183097058Y-85669771D03*
%TD*%
D28*
%TO.C,R68*%
X202922793Y-106136322D03*
X204562793Y-106136322D03*
%TD*%
D22*
%TO.C,R19*%
X123990000Y-71970000D03*
X123990000Y-70330000D03*
%TD*%
D23*
%TO.C,VR6*%
X215500000Y-75972000D03*
X213000000Y-75972000D03*
X210500000Y-75972000D03*
D24*
X208600000Y-82972000D03*
X217400000Y-82972000D03*
%TD*%
D34*
%TO.C,R23*%
X138210147Y-67279265D03*
X138210147Y-68919265D03*
%TD*%
D22*
%TO.C,R22*%
X146262810Y-56459934D03*
X146262810Y-54819934D03*
%TD*%
D25*
%TO.C,R10*%
X152195137Y-67462997D03*
X150555137Y-67462997D03*
%TD*%
D65*
%TO.C,U3*%
X184750000Y-63459000D03*
X184750000Y-63959000D03*
X184750000Y-64459000D03*
X184750000Y-64959000D03*
X186650000Y-64959000D03*
X186650000Y-64459000D03*
X186650000Y-63959000D03*
X186650000Y-63459000D03*
D66*
X185700000Y-64209000D03*
%TD*%
D10*
%TO.C,C49*%
X125640000Y-92040000D03*
X127200000Y-92040000D03*
%TD*%
D26*
%TO.C,C37*%
X192540000Y-84400000D03*
X192540000Y-82840000D03*
%TD*%
D31*
%TO.C,U11*%
X185155308Y-84401521D03*
X185155308Y-85671521D03*
X185155308Y-86941521D03*
X185155308Y-88211521D03*
X185155308Y-89481521D03*
X185155308Y-90751521D03*
X185155308Y-92021521D03*
X185155308Y-93291521D03*
X190626308Y-93291521D03*
X190626308Y-92021521D03*
X190626308Y-90751521D03*
X190626308Y-89481521D03*
X190626308Y-88211521D03*
X190626308Y-86941521D03*
X190626308Y-85671521D03*
X190626308Y-84401521D03*
%TD*%
D61*
%TO.C,H2*%
X204000000Y-67500000D03*
%TD*%
D23*
%TO.C,VR5*%
X197500000Y-117000000D03*
X195000000Y-117000000D03*
X192500000Y-117000000D03*
D24*
X190600000Y-124000000D03*
X199400000Y-124000000D03*
%TD*%
D67*
%TO.C,D16*%
X176000000Y-61250000D03*
X176000000Y-59750000D03*
X179000000Y-59750000D03*
X179000000Y-61250000D03*
%TD*%
D68*
%TO.C,C22*%
X127670000Y-73875000D03*
X130630000Y-73875000D03*
%TD*%
D25*
%TO.C,R11*%
X152190000Y-68819289D03*
X150550000Y-68819289D03*
%TD*%
D37*
%TO.C,D12*%
X105150000Y-111950000D03*
X105150000Y-113850000D03*
X107150000Y-112900000D03*
%TD*%
D44*
%TO.C,TP3*%
X135010000Y-58690000D03*
%TD*%
D69*
%TO.C,U7*%
X132362879Y-69328644D03*
X132362879Y-69828644D03*
X132362879Y-70328644D03*
X132362879Y-70828644D03*
X132362879Y-71328644D03*
D70*
X135362879Y-71328644D03*
X135362879Y-70828644D03*
X135362879Y-70328644D03*
X135362879Y-69828644D03*
X135362879Y-69328644D03*
D71*
X133862879Y-70333644D03*
%TD*%
D21*
%TO.C,C17*%
X157599455Y-68948665D03*
X157599455Y-67048665D03*
%TD*%
D23*
%TO.C,SW5*%
X197250000Y-52750000D03*
X192750000Y-52750000D03*
D44*
X191400000Y-55250000D03*
X198600000Y-55250000D03*
%TD*%
D26*
%TO.C,C6*%
X166675000Y-63860000D03*
X166675000Y-62300000D03*
%TD*%
D27*
%TO.C,C36*%
X138350000Y-85788376D03*
X138350000Y-87688376D03*
%TD*%
D28*
%TO.C,R47*%
X125540000Y-83010000D03*
X127180000Y-83010000D03*
%TD*%
D25*
%TO.C,R9*%
X147388515Y-67462997D03*
X145748515Y-67462997D03*
%TD*%
D28*
%TO.C,R71*%
X170850000Y-87800000D03*
X172490000Y-87800000D03*
%TD*%
D72*
%TO.C,U4*%
X195814466Y-62234000D03*
X195814466Y-63184000D03*
X195814466Y-64134000D03*
X198014466Y-64134000D03*
X198014466Y-62234000D03*
%TD*%
D21*
%TO.C,C26*%
X136733856Y-65465514D03*
X136733856Y-63565514D03*
%TD*%
D23*
%TO.C,VR2*%
X109500000Y-91500000D03*
X107000000Y-91500000D03*
X104500000Y-91500000D03*
D24*
X102600000Y-98500000D03*
X111400000Y-98500000D03*
%TD*%
D10*
%TO.C,C47*%
X125650500Y-86939500D03*
X127210500Y-86939500D03*
%TD*%
D28*
%TO.C,R55*%
X112620870Y-87825599D03*
X114260870Y-87825599D03*
%TD*%
D21*
%TO.C,C4*%
X174030000Y-60890000D03*
X174030000Y-58990000D03*
%TD*%
D28*
%TO.C,R53*%
X112620870Y-86475600D03*
X114260870Y-86475600D03*
%TD*%
D10*
%TO.C,C51*%
X125640000Y-89500000D03*
X127200000Y-89500000D03*
%TD*%
D73*
%TO.C,L3*%
X190646000Y-62260000D03*
X192766000Y-62260000D03*
%TD*%
D74*
%TO.C,L5*%
X142185147Y-66005265D03*
X142185147Y-64073265D03*
%TD*%
D28*
%TO.C,R79*%
X196990000Y-57650000D03*
X198630000Y-57650000D03*
%TD*%
D53*
%TO.C,C7*%
X181750000Y-65525000D03*
X181750000Y-62565000D03*
%TD*%
D39*
%TO.C,C43*%
X149450000Y-79350000D03*
X147890000Y-79350000D03*
%TD*%
D26*
%TO.C,C3*%
X168870000Y-60545000D03*
X168870000Y-58985000D03*
%TD*%
D29*
%TO.C,C53*%
X143170000Y-118360000D03*
X143170000Y-119920000D03*
%TD*%
D10*
%TO.C,C63*%
X181145000Y-88200000D03*
X182705000Y-88200000D03*
%TD*%
D34*
%TO.C,R38*%
X167050000Y-71730000D03*
X167050000Y-73370000D03*
%TD*%
D10*
%TO.C,C45*%
X125630000Y-84380000D03*
X127190000Y-84380000D03*
%TD*%
D28*
%TO.C,R63*%
X181457058Y-83049771D03*
X183097058Y-83049771D03*
%TD*%
D75*
%TO.C,BT1*%
X123410000Y-58690000D03*
D76*
X120910000Y-58690000D03*
%TD*%
M02*
