%TF.GenerationSoftware,KiCad,Pcbnew,9.0.5*%
%TF.CreationDate,2026-02-23T00:46:43+01:00*%
%TF.ProjectId,Spikeling_v3.2,5370696b-656c-4696-9e67-5f76332e322e,rev?*%
%TF.SameCoordinates,Original*%
%TF.FileFunction,Soldermask,Top*%
%TF.FilePolarity,Negative*%
%FSLAX46Y46*%
G04 Gerber Fmt 4.6, Leading zero omitted, Abs format (unit mm)*
G04 Created by KiCad (PCBNEW 9.0.5) date 2026-02-23 00:46:43*
%MOMM*%
%LPD*%
G01*
G04 APERTURE LIST*
G04 Aperture macros list*
%AMRoundRect*
0 Rectangle with rounded corners*
0 $1 Rounding radius*
0 $2 $3 $4 $5 $6 $7 $8 $9 X,Y pos of 4 corners*
0 Add a 4 corners polygon primitive as box body*
4,1,4,$2,$3,$4,$5,$6,$7,$8,$9,$2,$3,0*
0 Add four circle primitives for the rounded corners*
1,1,$1+$1,$2,$3*
1,1,$1+$1,$4,$5*
1,1,$1+$1,$6,$7*
1,1,$1+$1,$8,$9*
0 Add four rect primitives between the rounded corners*
20,1,$1+$1,$2,$3,$4,$5,0*
20,1,$1+$1,$4,$5,$6,$7,0*
20,1,$1+$1,$6,$7,$8,$9,0*
20,1,$1+$1,$8,$9,$2,$3,0*%
%AMFreePoly0*
4,1,21,-0.180000,0.885000,0.180000,0.885000,0.180000,1.715000,0.470000,1.715000,0.470000,0.885000,0.760000,0.885000,0.760000,-0.885000,0.470000,-0.885000,0.470000,-1.705000,0.180000,-1.705000,0.180000,-0.885000,-0.180000,-0.885000,-0.180000,-1.705000,-0.470000,-1.705000,-0.470000,-0.885000,-0.760000,-0.885000,-0.760000,0.895000,-0.470000,0.895000,-0.470000,1.715000,-0.180000,1.715000,
-0.180000,0.885000,-0.180000,0.885000,$1*%
G04 Aperture macros list end*
%ADD10R,1.000000X2.900000*%
%ADD11RoundRect,0.219000X-0.294000X0.219000X-0.294000X-0.219000X0.294000X-0.219000X0.294000X0.219000X0*%
%ADD12RoundRect,0.219000X-0.219000X-0.294000X0.219000X-0.294000X0.219000X0.294000X-0.219000X0.294000X0*%
%ADD13R,1.100000X0.600000*%
%ADD14R,1.132500X1.377000*%
%ADD15RoundRect,0.150000X-0.590000X-0.150000X0.590000X-0.150000X0.590000X0.150000X-0.590000X0.150000X0*%
%ADD16C,1.700000*%
%ADD17O,2.500000X3.000000*%
%ADD18RoundRect,0.244000X0.244000X0.269000X-0.244000X0.269000X-0.244000X-0.269000X0.244000X-0.269000X0*%
%ADD19RoundRect,0.244000X0.269000X-0.244000X0.269000X0.244000X-0.269000X0.244000X-0.269000X-0.244000X0*%
%ADD20RoundRect,0.219000X0.219000X0.294000X-0.219000X0.294000X-0.219000X-0.294000X0.219000X-0.294000X0*%
%ADD21RoundRect,0.239000X-0.274000X0.239000X-0.274000X-0.239000X0.274000X-0.239000X0.274000X0.239000X0*%
%ADD22O,1.971000X0.602000*%
%ADD23RoundRect,0.244000X-0.269000X0.244000X-0.269000X-0.244000X0.269000X-0.244000X0.269000X0.244000X0*%
%ADD24R,1.000000X0.700000*%
%ADD25R,1.500000X3.000000*%
%ADD26R,1.199000X1.199000*%
%ADD27R,1.200000X1.800000*%
%ADD28C,2.000000*%
%ADD29R,0.840000X0.280000*%
%ADD30R,0.750000X0.280000*%
%ADD31R,3.000000X1.500000*%
%ADD32R,1.500000X0.900000*%
%ADD33R,0.900000X1.500000*%
%ADD34R,0.900000X0.900000*%
%ADD35RoundRect,0.287778X-0.714222X0.489222X-0.714222X-0.489222X0.714222X-0.489222X0.714222X0.489222X0*%
%ADD36RoundRect,0.219000X0.294000X-0.219000X0.294000X0.219000X-0.294000X0.219000X-0.294000X-0.219000X0*%
%ADD37RoundRect,0.244000X-0.244000X-0.269000X0.244000X-0.269000X0.244000X0.269000X-0.244000X0.269000X0*%
%ADD38C,1.524000*%
%ADD39R,3.499000X1.406500*%
%ADD40R,1.500000X4.000000*%
%ADD41R,0.850000X0.350000*%
%ADD42RoundRect,0.267273X-0.570727X0.320727X-0.570727X-0.320727X0.570727X-0.320727X0.570727X0.320727X0*%
%ADD43C,5.600000*%
%ADD44RoundRect,0.220000X-0.380000X0.220000X-0.380000X-0.220000X0.380000X-0.220000X0.380000X0.220000X0*%
%ADD45O,2.038000X0.574000*%
%ADD46O,1.450000X0.380000*%
%ADD47C,0.600000*%
%ADD48R,0.300000X1.400000*%
%ADD49R,0.500000X1.400000*%
%ADD50O,1.300000X2.300000*%
%ADD51O,1.300000X2.100000*%
%ADD52C,0.500000*%
%ADD53RoundRect,0.500000X2.000000X1.000000X-2.000000X1.000000X-2.000000X-1.000000X2.000000X-1.000000X0*%
%ADD54R,1.500000X1.000000*%
%ADD55R,0.521000X0.250000*%
%ADD56R,0.900000X1.600000*%
%ADD57R,1.300000X0.800000*%
%ADD58R,0.850000X0.240000*%
%ADD59R,0.800000X0.230000*%
%ADD60FreePoly0,0.000000*%
%ADD61R,1.000000X0.600000*%
%ADD62R,1.377000X1.132500*%
%ADD63RoundRect,0.250000X0.600000X0.750000X-0.600000X0.750000X-0.600000X-0.750000X0.600000X-0.750000X0*%
%ADD64O,1.700000X2.000000*%
%ADD65R,1.800000X1.800000*%
%ADD66C,1.800000*%
G04 APERTURE END LIST*
%TO.C,JP1*%
G36*
X164409455Y-66548665D02*
G01*
X165909455Y-66548665D01*
X165909455Y-66248665D01*
X164409455Y-66248665D01*
X164409455Y-66548665D01*
G37*
%TD*%
D10*
%TO.C,L3*%
X182471481Y-61079255D03*
X184471481Y-61079255D03*
%TD*%
D11*
%TO.C,R3*%
X103507495Y-118409166D03*
X103507495Y-116769166D03*
%TD*%
D12*
%TO.C,R26*%
X127200000Y-98710000D03*
X125560000Y-98710000D03*
%TD*%
D13*
%TO.C,U13*%
X200322793Y-102796322D03*
X200322793Y-103746322D03*
X200322793Y-104696322D03*
X202922793Y-104696322D03*
X202922793Y-102796322D03*
%TD*%
%TO.C,TV1*%
X158664835Y-58962032D03*
X158664835Y-59912032D03*
X158664835Y-60862032D03*
X161364835Y-60862032D03*
X161364835Y-59912032D03*
X161364835Y-58962032D03*
%TD*%
D14*
%TO.C,L2*%
X192387981Y-62309255D03*
X190455981Y-62309255D03*
%TD*%
D15*
%TO.C,Q2*%
X121963015Y-64884320D03*
X121963015Y-66784320D03*
X123843015Y-65834320D03*
%TD*%
D16*
%TO.C,VR4*%
X162500000Y-117000000D03*
X160000000Y-117000000D03*
X157500000Y-117000000D03*
D17*
X155600000Y-124000000D03*
X164400000Y-124000000D03*
%TD*%
D18*
%TO.C,C8*%
X127200000Y-86950000D03*
X125640000Y-86950000D03*
%TD*%
D12*
%TO.C,R12*%
X147660000Y-81720000D03*
X149300000Y-81720000D03*
%TD*%
D19*
%TO.C,C25*%
X193734466Y-65694000D03*
X193734466Y-64134000D03*
%TD*%
D18*
%TO.C,C1*%
X153680000Y-56930000D03*
X152120000Y-56930000D03*
%TD*%
D20*
%TO.C,R9*%
X165520000Y-60870000D03*
X163880000Y-60870000D03*
%TD*%
D15*
%TO.C,Q3*%
X141270533Y-68259654D03*
X141270533Y-70159654D03*
X143150533Y-69209654D03*
%TD*%
D12*
%TO.C,R29*%
X148988469Y-63706016D03*
X150628469Y-63706016D03*
%TD*%
D21*
%TO.C,D7*%
X145000000Y-51530000D03*
X145000000Y-53110000D03*
%TD*%
D20*
%TO.C,R36*%
X172470000Y-76640000D03*
X170830000Y-76640000D03*
%TD*%
D22*
%TO.C,U12*%
X134816896Y-84399500D03*
X134816896Y-85669500D03*
X134816896Y-86939500D03*
X134816896Y-88209500D03*
X134816896Y-89479500D03*
X134816896Y-90749500D03*
X134816896Y-92019500D03*
X134816896Y-93289500D03*
X129345896Y-93289500D03*
X129345896Y-92019500D03*
X129345896Y-90749500D03*
X129345896Y-89479500D03*
X129345896Y-88209500D03*
X129345896Y-86939500D03*
X129345896Y-85669500D03*
X129345896Y-84399500D03*
%TD*%
D23*
%TO.C,C37*%
X132362879Y-72253644D03*
X132362879Y-73813644D03*
%TD*%
D24*
%TO.C,D2*%
X111809349Y-55450000D03*
X111809349Y-56750500D03*
X113709349Y-56100000D03*
%TD*%
D20*
%TO.C,R4*%
X113450000Y-53600000D03*
X111810000Y-53600000D03*
%TD*%
D12*
%TO.C,R46*%
X181457058Y-81699771D03*
X183097058Y-81699771D03*
%TD*%
%TO.C,R34*%
X181457058Y-83049771D03*
X183097058Y-83049771D03*
%TD*%
%TO.C,R17*%
X125550000Y-80300000D03*
X127190000Y-80300000D03*
%TD*%
D23*
%TO.C,C23*%
X184660000Y-65200000D03*
X184660000Y-63640000D03*
%TD*%
D20*
%TO.C,R68*%
X204562793Y-106136322D03*
X202922793Y-106136322D03*
%TD*%
%TO.C,R5*%
X113447940Y-81497326D03*
X111807940Y-81497326D03*
%TD*%
D25*
%TO.C,J4*%
X102000000Y-88000000D03*
X104000000Y-80000000D03*
X109000000Y-88000000D03*
%TD*%
D19*
%TO.C,C28*%
X200184466Y-63788500D03*
X200184466Y-62228500D03*
%TD*%
D12*
%TO.C,R16*%
X125550000Y-83000000D03*
X127190000Y-83000000D03*
%TD*%
D19*
%TO.C,C14*%
X169270000Y-63963500D03*
X169270000Y-62403500D03*
%TD*%
D26*
%TO.C,D4*%
X146050000Y-124400000D03*
D27*
X139950000Y-124400000D03*
%TD*%
D20*
%TO.C,R20*%
X152195137Y-67462997D03*
X150555137Y-67462997D03*
%TD*%
D19*
%TO.C,C30*%
X201534466Y-63788500D03*
X201534466Y-62228500D03*
%TD*%
D28*
%TO.C,TP2*%
X132010000Y-58690000D03*
%TD*%
%TO.C,TP4*%
X126010000Y-58690000D03*
%TD*%
D20*
%TO.C,R32*%
X155840000Y-58990000D03*
X154200000Y-58990000D03*
%TD*%
D12*
%TO.C,R22*%
X145748515Y-67462997D03*
X147388515Y-67462997D03*
%TD*%
D19*
%TO.C,C24*%
X192384466Y-65694000D03*
X192384466Y-64134000D03*
%TD*%
D18*
%TO.C,C45*%
X183097058Y-86939771D03*
X181537058Y-86939771D03*
%TD*%
D23*
%TO.C,C38*%
X129572879Y-68263644D03*
X129572879Y-69823644D03*
%TD*%
D11*
%TO.C,R41*%
X160700000Y-71730000D03*
X160700000Y-73370000D03*
%TD*%
D15*
%TO.C,Q4*%
X205910000Y-59057500D03*
X205910000Y-60957500D03*
X207790000Y-60007500D03*
%TD*%
D21*
%TO.C,D5*%
X153000000Y-51530000D03*
X153000000Y-53110000D03*
%TD*%
D19*
%TO.C,C51*%
X138447646Y-87247750D03*
X138447646Y-85687750D03*
%TD*%
%TO.C,C57*%
X192797058Y-87249771D03*
X192797058Y-85689771D03*
%TD*%
D29*
%TO.C,U5*%
X146514480Y-64896729D03*
D30*
X146459480Y-65396729D03*
X146459480Y-65896729D03*
X147731480Y-65896729D03*
X147731480Y-65396729D03*
X147731480Y-64896729D03*
%TD*%
D31*
%TO.C,J5*%
X218000000Y-128000000D03*
X210000000Y-126000000D03*
X218000000Y-121000000D03*
%TD*%
D19*
%TO.C,C54*%
X174270000Y-74690000D03*
X174270000Y-73130000D03*
%TD*%
D18*
%TO.C,C3*%
X127200000Y-93310000D03*
X125640000Y-93310000D03*
%TD*%
D23*
%TO.C,C29*%
X189064713Y-64129173D03*
X189064713Y-65689173D03*
%TD*%
D32*
%TO.C,U10*%
X168969595Y-93147210D03*
X168969595Y-91877210D03*
X168969595Y-90607210D03*
X168969595Y-89337210D03*
X168969595Y-88067210D03*
X168969595Y-86797210D03*
X168969595Y-85527210D03*
X168969595Y-84257210D03*
X168969595Y-82987210D03*
X168969595Y-81717210D03*
X168969595Y-80447210D03*
X168969595Y-79177210D03*
X168969595Y-77907210D03*
X168969595Y-76637210D03*
D33*
X167054595Y-75238210D03*
X165784595Y-75238210D03*
X164514595Y-75238210D03*
X163244595Y-75238210D03*
X161974595Y-75238210D03*
X160704595Y-75238210D03*
X159434595Y-75238210D03*
X158164595Y-75238210D03*
X156894595Y-75238210D03*
X155624595Y-75238210D03*
X154354595Y-75238210D03*
X153084595Y-75238210D03*
D32*
X151169595Y-76637210D03*
X151169595Y-77907210D03*
X151169595Y-79177210D03*
X151169595Y-80447210D03*
X151169595Y-81717210D03*
X151169595Y-82987210D03*
X151169595Y-84257210D03*
X151169595Y-85527210D03*
X151169595Y-86797210D03*
X151169595Y-88067210D03*
X151169595Y-89337210D03*
X151169595Y-90607210D03*
X151169595Y-91877210D03*
X151169595Y-93147210D03*
D34*
X162969095Y-86827710D03*
X162969095Y-85427710D03*
X162969095Y-84027710D03*
X161569095Y-86827710D03*
X161569095Y-85427710D03*
X161569095Y-84027710D03*
X160169095Y-86827710D03*
X160169095Y-85427710D03*
X160169095Y-84027710D03*
%TD*%
D35*
%TO.C,SW2*%
X145222818Y-79749933D03*
X145222818Y-75599933D03*
%TD*%
D11*
%TO.C,R37*%
X167050000Y-71730000D03*
X167050000Y-73370000D03*
%TD*%
%TO.C,R50*%
X120080093Y-66380498D03*
X120080093Y-68020498D03*
%TD*%
D36*
%TO.C,R48*%
X159440000Y-73370000D03*
X159440000Y-71730000D03*
%TD*%
D18*
%TO.C,C20*%
X127200000Y-89500000D03*
X125640000Y-89500000D03*
%TD*%
D11*
%TO.C,R38*%
X164520000Y-71730000D03*
X164520000Y-73370000D03*
%TD*%
D16*
%TO.C,VR1*%
X121050000Y-117000000D03*
X118550000Y-117000000D03*
X116050000Y-117000000D03*
D17*
X114150000Y-124000000D03*
X122950000Y-124000000D03*
%TD*%
D12*
%TO.C,R18*%
X140600000Y-58950000D03*
X142240000Y-58950000D03*
%TD*%
D18*
%TO.C,C36*%
X183097058Y-84399771D03*
X181537058Y-84399771D03*
%TD*%
D19*
%TO.C,C52*%
X204342793Y-104356322D03*
X204342793Y-102796322D03*
%TD*%
D12*
%TO.C,R24*%
X138500000Y-121120000D03*
X140140000Y-121120000D03*
%TD*%
D23*
%TO.C,C55*%
X192797058Y-82839771D03*
X192797058Y-84399771D03*
%TD*%
D37*
%TO.C,C41*%
X185384611Y-102057872D03*
X186944611Y-102057872D03*
%TD*%
D18*
%TO.C,C4*%
X127200000Y-92040000D03*
X125640000Y-92040000D03*
%TD*%
D11*
%TO.C,R39*%
X163240000Y-71730000D03*
X163240000Y-73370000D03*
%TD*%
D12*
%TO.C,R14*%
X147660000Y-82990000D03*
X149300000Y-82990000D03*
%TD*%
D11*
%TO.C,R56*%
X146262810Y-54819934D03*
X146262810Y-56459934D03*
%TD*%
D23*
%TO.C,C9*%
X167240000Y-58983500D03*
X167240000Y-60543500D03*
%TD*%
D38*
%TO.C,SW3*%
X123508236Y-52861782D03*
X126008236Y-52861782D03*
X128508236Y-52861782D03*
%TD*%
D12*
%TO.C,R67*%
X204270000Y-57340000D03*
X205910000Y-57340000D03*
%TD*%
D13*
%TO.C,Q1*%
X151991480Y-63980729D03*
X151991480Y-64930729D03*
X151991480Y-65880729D03*
X154691480Y-65880729D03*
X154691480Y-64930729D03*
X154691480Y-63980729D03*
%TD*%
D16*
%TO.C,VR7*%
X215500000Y-101600000D03*
X213000000Y-101600000D03*
X210500000Y-101600000D03*
D17*
X208600000Y-108600000D03*
X217400000Y-108600000D03*
%TD*%
D23*
%TO.C,C21*%
X183300000Y-63640000D03*
X183300000Y-65200000D03*
%TD*%
D11*
%TO.C,R40*%
X161970000Y-71730000D03*
X161970000Y-73370000D03*
%TD*%
D39*
%TO.C,U2*%
X169890000Y-53456500D03*
X169890000Y-57163500D03*
%TD*%
D40*
%TO.C,B1*%
X175910000Y-73120000D03*
X187410000Y-73120000D03*
%TD*%
D41*
%TO.C,U3*%
X169890030Y-58985570D03*
X169890030Y-59635570D03*
X169890030Y-60285570D03*
X172090030Y-60285570D03*
X172090030Y-59635570D03*
X172090030Y-58985570D03*
%TD*%
D19*
%TO.C,C53*%
X205692793Y-104356322D03*
X205692793Y-102796322D03*
%TD*%
D12*
%TO.C,R44*%
X192764611Y-103497872D03*
X194404611Y-103497872D03*
%TD*%
D18*
%TO.C,C5*%
X127200000Y-88230000D03*
X125640000Y-88230000D03*
%TD*%
%TO.C,C44*%
X183097058Y-85669771D03*
X181537058Y-85669771D03*
%TD*%
D12*
%TO.C,R33*%
X185304611Y-99357872D03*
X186944611Y-99357872D03*
%TD*%
%TO.C,R71*%
X209810000Y-57620000D03*
X211450000Y-57620000D03*
%TD*%
D18*
%TO.C,C33*%
X194374611Y-107227872D03*
X192814611Y-107227872D03*
%TD*%
D12*
%TO.C,R13*%
X125550000Y-78950000D03*
X127190000Y-78950000D03*
%TD*%
D23*
%TO.C,C35*%
X130922879Y-68263644D03*
X130922879Y-69823644D03*
%TD*%
D42*
%TO.C,D1*%
X173260000Y-53463500D03*
X173260000Y-56263500D03*
%TD*%
D23*
%TO.C,C2*%
X163029455Y-67048665D03*
X163029455Y-68608665D03*
%TD*%
D19*
%TO.C,C58*%
X194147058Y-87239771D03*
X194147058Y-85679771D03*
%TD*%
D43*
%TO.C,H4*%
X204000000Y-112500000D03*
%TD*%
D44*
%TO.C,L4*%
X129432879Y-71623644D03*
X129432879Y-73743644D03*
%TD*%
D11*
%TO.C,R55*%
X125860093Y-63540498D03*
X125860093Y-65180498D03*
%TD*%
D45*
%TO.C,U9*%
X185393819Y-103502377D03*
X185393819Y-104772377D03*
X185393819Y-106042377D03*
X185393819Y-107312377D03*
X185393819Y-108582377D03*
X185393819Y-109852377D03*
X185393819Y-111122377D03*
X190631819Y-111122377D03*
X190631819Y-109852377D03*
X190631819Y-108582377D03*
X190631819Y-107312377D03*
X190631819Y-106042377D03*
X190631819Y-104772377D03*
X190631819Y-103502377D03*
%TD*%
D36*
%TO.C,R31*%
X147500000Y-52920000D03*
X147500000Y-51280000D03*
%TD*%
D41*
%TO.C,U11*%
X134710147Y-66639265D03*
X134710147Y-67289265D03*
X134710147Y-67939265D03*
X136910147Y-67939265D03*
X136910147Y-67289265D03*
X136910147Y-66639265D03*
%TD*%
D23*
%TO.C,C10*%
X168590755Y-58987341D03*
X168590755Y-60547341D03*
%TD*%
D36*
%TO.C,R61*%
X158140000Y-73370000D03*
X158140000Y-71730000D03*
%TD*%
D12*
%TO.C,R70*%
X199390000Y-52750000D03*
X201030000Y-52750000D03*
%TD*%
D11*
%TO.C,R2*%
X163029455Y-63508665D03*
X163029455Y-65148665D03*
%TD*%
D18*
%TO.C,C13*%
X149260000Y-77980000D03*
X147700000Y-77980000D03*
%TD*%
D12*
%TO.C,R63*%
X170849956Y-82984934D03*
X172489956Y-82984934D03*
%TD*%
D23*
%TO.C,C32*%
X132362879Y-66533644D03*
X132362879Y-68093644D03*
%TD*%
D43*
%TO.C,H1*%
X116000000Y-67500000D03*
%TD*%
D25*
%TO.C,J6*%
X218000000Y-60000000D03*
X216000000Y-68000000D03*
X211000000Y-60000000D03*
%TD*%
D46*
%TO.C,U4*%
X137160000Y-117675000D03*
X137160000Y-118325000D03*
X137160000Y-118975000D03*
X137160000Y-119625000D03*
X141560000Y-119625000D03*
X141560000Y-118975000D03*
X141560000Y-118325000D03*
X141560000Y-117675000D03*
%TD*%
D12*
%TO.C,R58*%
X136917646Y-92017750D03*
X138557646Y-92017750D03*
%TD*%
D20*
%TO.C,R8*%
X113457999Y-86496772D03*
X111817999Y-86496772D03*
%TD*%
D25*
%TO.C,J3*%
X102000000Y-60100000D03*
X104000000Y-52100000D03*
X109000000Y-60100000D03*
%TD*%
D20*
%TO.C,R7*%
X113450000Y-58600000D03*
X111810000Y-58600000D03*
%TD*%
D21*
%TO.C,D6*%
X149000000Y-51520000D03*
X149000000Y-53100000D03*
%TD*%
D43*
%TO.C,H3*%
X116000000Y-112500000D03*
%TD*%
D12*
%TO.C,R69*%
X184380000Y-52750000D03*
X186020000Y-52750000D03*
%TD*%
%TO.C,R21*%
X147670000Y-76630000D03*
X149310000Y-76630000D03*
%TD*%
D19*
%TO.C,C43*%
X134710147Y-65479265D03*
X134710147Y-63919265D03*
%TD*%
D24*
%TO.C,D10*%
X204910000Y-123702500D03*
X203010000Y-124353000D03*
X203010000Y-123052500D03*
%TD*%
D47*
%TO.C,J2*%
X162890000Y-55050000D03*
X157110000Y-55050000D03*
D48*
X161250000Y-56250000D03*
X160250000Y-56250000D03*
X159750000Y-56250000D03*
X158750000Y-56250000D03*
D49*
X157600000Y-56250000D03*
X156800000Y-56250000D03*
D48*
X158250000Y-56250000D03*
X159250000Y-56250000D03*
X160750000Y-56250000D03*
X161750000Y-56250000D03*
D49*
X162400000Y-56250000D03*
X163200000Y-56250000D03*
D50*
X164330000Y-55570000D03*
D51*
X164330000Y-51370000D03*
D52*
X162000000Y-52750000D03*
X162000000Y-50750000D03*
D53*
X160000000Y-51750000D03*
D52*
X158000000Y-52750000D03*
X158000000Y-50750000D03*
D50*
X155670000Y-55570000D03*
D51*
X155670000Y-51370000D03*
%TD*%
D28*
%TO.C,TP1*%
X129010000Y-58690000D03*
%TD*%
D16*
%TO.C,SW4*%
X182250000Y-52750000D03*
X177750000Y-52750000D03*
D28*
X176400000Y-55250000D03*
X183600000Y-55250000D03*
%TD*%
D23*
%TO.C,C12*%
X173390030Y-58985570D03*
X173390030Y-60545570D03*
%TD*%
%TO.C,C40*%
X128222879Y-68263644D03*
X128222879Y-69823644D03*
%TD*%
D16*
%TO.C,SW1*%
X142250000Y-52750000D03*
X137750000Y-52750000D03*
D28*
X136400000Y-55250000D03*
X143600000Y-55250000D03*
%TD*%
D19*
%TO.C,C27*%
X198834466Y-63788500D03*
X198834466Y-62228500D03*
%TD*%
D36*
%TO.C,R60*%
X155600000Y-73380000D03*
X155600000Y-71740000D03*
%TD*%
D18*
%TO.C,C34*%
X194374611Y-104847872D03*
X192814611Y-104847872D03*
%TD*%
D23*
%TO.C,C19*%
X143170000Y-118360000D03*
X143170000Y-119920000D03*
%TD*%
D37*
%TO.C,C15*%
X138500000Y-122470000D03*
X140060000Y-122470000D03*
%TD*%
D36*
%TO.C,R49*%
X120080093Y-65180498D03*
X120080093Y-63540498D03*
%TD*%
D12*
%TO.C,R51*%
X138210147Y-66009265D03*
X139850147Y-66009265D03*
%TD*%
D14*
%TO.C,L1*%
X172905826Y-62400820D03*
X170973826Y-62400820D03*
%TD*%
D12*
%TO.C,R10*%
X125560000Y-96010000D03*
X127200000Y-96010000D03*
%TD*%
D13*
%TO.C,U1*%
X159009455Y-65148665D03*
X159009455Y-66098665D03*
X159009455Y-67048665D03*
X161609455Y-67048665D03*
X161609455Y-65148665D03*
%TD*%
D23*
%TO.C,C11*%
X157579455Y-67068665D03*
X157579455Y-68628665D03*
%TD*%
D18*
%TO.C,C26*%
X127200000Y-90760000D03*
X125640000Y-90760000D03*
%TD*%
D24*
%TO.C,D3*%
X111810000Y-83350000D03*
X111810000Y-84650500D03*
X113710000Y-84000000D03*
%TD*%
D19*
%TO.C,C56*%
X194147058Y-84399771D03*
X194147058Y-82839771D03*
%TD*%
D11*
%TO.C,R52*%
X138220147Y-67289265D03*
X138220147Y-68929265D03*
%TD*%
D18*
%TO.C,C6*%
X127200000Y-85670000D03*
X125640000Y-85670000D03*
%TD*%
D12*
%TO.C,R6*%
X125570000Y-94660000D03*
X127210000Y-94660000D03*
%TD*%
D20*
%TO.C,R35*%
X172460000Y-77910000D03*
X170820000Y-77910000D03*
%TD*%
D37*
%TO.C,C42*%
X185384611Y-100707872D03*
X186944611Y-100707872D03*
%TD*%
D11*
%TO.C,R42*%
X139566197Y-70149385D03*
X139566197Y-71789385D03*
%TD*%
D54*
%TO.C,JP1*%
X165159455Y-67048665D03*
X165159455Y-65748665D03*
%TD*%
D20*
%TO.C,R28*%
X147731480Y-63706729D03*
X146091480Y-63706729D03*
%TD*%
D12*
%TO.C,R47*%
X181457058Y-88249771D03*
X183097058Y-88249771D03*
%TD*%
D20*
%TO.C,R25*%
X149310000Y-75280000D03*
X147670000Y-75280000D03*
%TD*%
D23*
%TO.C,C50*%
X136987646Y-82837750D03*
X136987646Y-84397750D03*
%TD*%
D11*
%TO.C,R30*%
X151500000Y-51280000D03*
X151500000Y-52920000D03*
%TD*%
D17*
%TO.C,VR2*%
X111400000Y-70400000D03*
X102600000Y-70400000D03*
D16*
X104500000Y-63400000D03*
X107000000Y-63400000D03*
X109500000Y-63400000D03*
%TD*%
D18*
%TO.C,C7*%
X127180000Y-84390000D03*
X125620000Y-84390000D03*
%TD*%
D12*
%TO.C,R66*%
X170850000Y-88140000D03*
X172490000Y-88140000D03*
%TD*%
D16*
%TO.C,VR6*%
X215500000Y-75972000D03*
X213000000Y-75972000D03*
X210500000Y-75972000D03*
D17*
X208600000Y-82972000D03*
X217400000Y-82972000D03*
%TD*%
D12*
%TO.C,R45*%
X192764611Y-108577872D03*
X194404611Y-108577872D03*
%TD*%
D36*
%TO.C,R53*%
X139580147Y-68939265D03*
X139580147Y-67299265D03*
%TD*%
D12*
%TO.C,R59*%
X197132793Y-106056322D03*
X198772793Y-106056322D03*
%TD*%
D19*
%TO.C,C48*%
X136987646Y-87247750D03*
X136987646Y-85687750D03*
%TD*%
D12*
%TO.C,R27*%
X125560000Y-97360000D03*
X127200000Y-97360000D03*
%TD*%
D55*
%TO.C,U7*%
X185874466Y-63134000D03*
X185874466Y-63634000D03*
X185874466Y-64134000D03*
X185874466Y-64634000D03*
X187774466Y-64634000D03*
X187774466Y-64134000D03*
X187774466Y-63634000D03*
X187774466Y-63134000D03*
D56*
X186824466Y-63884000D03*
%TD*%
D22*
%TO.C,U14*%
X185155308Y-84401521D03*
X185155308Y-85671521D03*
X185155308Y-86941521D03*
X185155308Y-88211521D03*
X185155308Y-89481521D03*
X185155308Y-90751521D03*
X185155308Y-92021521D03*
X185155308Y-93291521D03*
X190626308Y-93291521D03*
X190626308Y-92021521D03*
X190626308Y-90751521D03*
X190626308Y-89481521D03*
X190626308Y-88211521D03*
X190626308Y-86941521D03*
X190626308Y-85671521D03*
X190626308Y-84401521D03*
%TD*%
D43*
%TO.C,H2*%
X204000000Y-67500000D03*
%TD*%
D16*
%TO.C,VR5*%
X197500000Y-117000000D03*
X195000000Y-117000000D03*
X192500000Y-117000000D03*
D17*
X190600000Y-124000000D03*
X199400000Y-124000000D03*
%TD*%
D20*
%TO.C,R19*%
X147398515Y-68812997D03*
X145758515Y-68812997D03*
%TD*%
D57*
%TO.C,D8*%
X176000000Y-61250000D03*
X176000000Y-59750000D03*
X179000000Y-59750000D03*
X179000000Y-61250000D03*
%TD*%
D12*
%TO.C,R65*%
X170850000Y-86790000D03*
X172490000Y-86790000D03*
%TD*%
%TO.C,R57*%
X197132793Y-103336322D03*
X198772793Y-103336322D03*
%TD*%
D23*
%TO.C,C22*%
X148981024Y-65395382D03*
X148981024Y-66955382D03*
%TD*%
D28*
%TO.C,TP3*%
X135010000Y-58690000D03*
%TD*%
D58*
%TO.C,U8*%
X132362879Y-69328644D03*
X132362879Y-69828644D03*
X132362879Y-70328644D03*
X132362879Y-70828644D03*
X132362879Y-71328644D03*
D59*
X135362879Y-71328644D03*
X135362879Y-70828644D03*
X135362879Y-70328644D03*
X135362879Y-69828644D03*
X135362879Y-69328644D03*
D60*
X133862879Y-70333644D03*
%TD*%
D16*
%TO.C,SW5*%
X197250000Y-52750000D03*
X192750000Y-52750000D03*
D28*
X191400000Y-55250000D03*
X198600000Y-55250000D03*
%TD*%
D37*
%TO.C,C47*%
X197212793Y-104696322D03*
X198772793Y-104696322D03*
%TD*%
D20*
%TO.C,R11*%
X165529999Y-58959052D03*
X163889999Y-58959052D03*
%TD*%
D12*
%TO.C,R64*%
X170850000Y-85430000D03*
X172490000Y-85430000D03*
%TD*%
D61*
%TO.C,U6*%
X195184466Y-62234000D03*
X195184466Y-63184000D03*
X195184466Y-64134000D03*
X197384466Y-64134000D03*
X197384466Y-62234000D03*
%TD*%
D16*
%TO.C,VR3*%
X109500000Y-91400000D03*
X107000000Y-91400000D03*
X104500000Y-91400000D03*
D17*
X102600000Y-98400000D03*
X111400000Y-98400000D03*
%TD*%
D20*
%TO.C,R1*%
X153680000Y-55570000D03*
X152040000Y-55570000D03*
%TD*%
D12*
%TO.C,R72*%
X192727058Y-92029771D03*
X194367058Y-92029771D03*
%TD*%
D62*
%TO.C,L5*%
X142185147Y-66005265D03*
X142185147Y-64073265D03*
%TD*%
D23*
%TO.C,C39*%
X131012879Y-72253644D03*
X131012879Y-73813644D03*
%TD*%
%TO.C,C18*%
X144520000Y-118360000D03*
X144520000Y-119920000D03*
%TD*%
D36*
%TO.C,R62*%
X156870000Y-73380000D03*
X156870000Y-71740000D03*
%TD*%
D19*
%TO.C,C49*%
X138447646Y-84397750D03*
X138447646Y-82837750D03*
%TD*%
D31*
%TO.C,J1*%
X110000000Y-128000000D03*
X102000000Y-126000000D03*
X110000000Y-121000000D03*
%TD*%
D20*
%TO.C,R23*%
X152205137Y-68812997D03*
X150565137Y-68812997D03*
%TD*%
D19*
%TO.C,C46*%
X136920147Y-65479265D03*
X136920147Y-63919265D03*
%TD*%
D11*
%TO.C,R43*%
X138196197Y-70139385D03*
X138196197Y-71779385D03*
%TD*%
D18*
%TO.C,C17*%
X142240872Y-57605035D03*
X140680872Y-57605035D03*
%TD*%
D23*
%TO.C,C16*%
X167920000Y-62403500D03*
X167920000Y-63963500D03*
%TD*%
D11*
%TO.C,R54*%
X125860093Y-66380498D03*
X125860093Y-68020498D03*
%TD*%
D63*
%TO.C,BT1*%
X146780000Y-58630000D03*
D64*
X144280000Y-58630000D03*
%TD*%
D24*
%TO.C,D11*%
X212830000Y-58410000D03*
X212830000Y-59710500D03*
X214730000Y-59060000D03*
%TD*%
D65*
%TO.C,D9*%
X217350000Y-117890000D03*
D66*
X215191000Y-117890000D03*
X213032000Y-117890000D03*
X210873000Y-117890000D03*
%TD*%
D12*
%TO.C,R15*%
X125550000Y-81650000D03*
X127190000Y-81650000D03*
%TD*%
D23*
%TO.C,C31*%
X190414713Y-64129173D03*
X190414713Y-65689173D03*
%TD*%
M02*
