%TF.GenerationSoftware,KiCad,Pcbnew,9.0.5*%
%TF.CreationDate,2026-02-23T00:46:43+01:00*%
%TF.ProjectId,Spikeling_v3.2,5370696b-656c-4696-9e67-5f76332e322e,rev?*%
%TF.SameCoordinates,Original*%
%TF.FileFunction,Other,User*%
%FSLAX46Y46*%
G04 Gerber Fmt 4.6, Leading zero omitted, Abs format (unit mm)*
G04 Created by KiCad (PCBNEW 9.0.5) date 2026-02-23 00:46:43*
%MOMM*%
%LPD*%
G01*
G04 APERTURE LIST*
%ADD10C,0.051000*%
G04 APERTURE END LIST*
D10*
%TO.C,U13*%
X202422793Y-105196322D02*
X200822793Y-105196322D01*
X202422793Y-102296322D02*
X202422793Y-105196322D01*
X200822793Y-105196322D02*
X200822793Y-102296322D01*
X200822793Y-102296322D02*
X202422793Y-102296322D01*
%TO.C,TV1*%
X160814835Y-61362032D02*
X159214835Y-61362032D01*
X160814835Y-58462032D02*
X160814835Y-61362032D01*
X159214835Y-61362032D02*
X159214835Y-58462032D01*
X159214835Y-58462032D02*
X160814835Y-58462032D01*
%TO.C,L2*%
X192421981Y-62946755D02*
X190421981Y-62946755D01*
X192421981Y-61671755D02*
X192421981Y-62946755D01*
X190421981Y-62946755D02*
X190421981Y-61671755D01*
X190421981Y-61671755D02*
X192421981Y-61671755D01*
%TO.C,VR4*%
X154350000Y-116150000D02*
X165650000Y-116150000D01*
X154350000Y-129627000D02*
X154350000Y-116150000D01*
X165650000Y-116150000D02*
X165650000Y-129627000D01*
X165650000Y-129627000D02*
X154350000Y-129627000D01*
%TO.C,U12*%
X134031396Y-93794500D02*
X130131396Y-93794500D01*
X134031396Y-83894500D02*
X134031396Y-93794500D01*
X130131396Y-93794500D02*
X130131396Y-83894500D01*
X130131396Y-83894500D02*
X134031396Y-83894500D01*
%TO.C,J4*%
X96900000Y-81500000D02*
X99900000Y-81500000D01*
X96900000Y-86500000D02*
X96900000Y-81500000D01*
X99900000Y-81000000D02*
X110900000Y-81000000D01*
X99900000Y-81500000D02*
X99900000Y-81000000D01*
X99900000Y-86500000D02*
X96900000Y-86500000D01*
X99900000Y-87000000D02*
X99900000Y-86500000D01*
X110900000Y-81000000D02*
X110900000Y-87000000D01*
X110900000Y-87000000D02*
X99900000Y-87000000D01*
%TO.C,D4*%
X140800000Y-122475000D02*
X145200000Y-122475000D01*
X140800000Y-126325000D02*
X140800000Y-122475000D01*
X145200000Y-122475000D02*
X145200000Y-126325000D01*
X145200000Y-126325000D02*
X140800000Y-126325000D01*
%TO.C,U5*%
X146345480Y-64646729D02*
X147845480Y-64646729D01*
X146345480Y-66146729D02*
X146345480Y-64646729D01*
X147845480Y-64646729D02*
X147845480Y-66146729D01*
X147845480Y-66146729D02*
X146345480Y-66146729D01*
%TO.C,J5*%
X211000000Y-119100000D02*
X217000000Y-119100000D01*
X211000000Y-130100000D02*
X211000000Y-119100000D01*
X211500000Y-130100000D02*
X211000000Y-130100000D01*
X211500000Y-133100000D02*
X211500000Y-130100000D01*
X216500000Y-130100000D02*
X216500000Y-133100000D01*
X216500000Y-133100000D02*
X211500000Y-133100000D01*
X217000000Y-119100000D02*
X217000000Y-130100000D01*
X217000000Y-130100000D02*
X216500000Y-130100000D01*
%TO.C,U10*%
X151069595Y-75138210D02*
X169069595Y-75138210D01*
X151069595Y-100638210D02*
X151069595Y-75138210D01*
X169069595Y-75138210D02*
X169069595Y-100638210D01*
X169069595Y-100638210D02*
X151069595Y-100638210D01*
%TO.C,VR1*%
X112900000Y-116150000D02*
X124200000Y-116150000D01*
X112900000Y-129627000D02*
X112900000Y-116150000D01*
X124200000Y-116150000D02*
X124200000Y-129627000D01*
X124200000Y-129627000D02*
X112900000Y-129627000D01*
%TO.C,SW3*%
X121631236Y-48134782D02*
X130385236Y-48134782D01*
X121631236Y-53888782D02*
X121631236Y-48134782D01*
X130385236Y-48134782D02*
X130385236Y-53888782D01*
X130385236Y-53888782D02*
X121631236Y-53888782D01*
%TO.C,Q1*%
X152541480Y-63480729D02*
X154141480Y-63480729D01*
X152541480Y-66380729D02*
X152541480Y-63480729D01*
X154141480Y-63480729D02*
X154141480Y-66380729D01*
X154141480Y-66380729D02*
X152541480Y-66380729D01*
%TO.C,VR7*%
X207350000Y-100750000D02*
X218650000Y-100750000D01*
X207350000Y-114227000D02*
X207350000Y-100750000D01*
X218650000Y-100750000D02*
X218650000Y-114227000D01*
X218650000Y-114227000D02*
X207350000Y-114227000D01*
%TO.C,U2*%
X168270000Y-53035000D02*
X171510000Y-53035000D01*
X168270000Y-57585000D02*
X168270000Y-53035000D01*
X171510000Y-53035000D02*
X171510000Y-57585000D01*
X171510000Y-57585000D02*
X168270000Y-57585000D01*
%TO.C,U3*%
X170365030Y-58635570D02*
X171615030Y-58635570D01*
X170365030Y-60635570D02*
X170365030Y-58635570D01*
X171615030Y-58635570D02*
X171615030Y-60635570D01*
X171615030Y-60635570D02*
X170365030Y-60635570D01*
%TO.C,U11*%
X135185147Y-66289265D02*
X136435147Y-66289265D01*
X135185147Y-68289265D02*
X135185147Y-66289265D01*
X136435147Y-66289265D02*
X136435147Y-68289265D01*
X136435147Y-68289265D02*
X135185147Y-68289265D01*
%TO.C,J6*%
X209100000Y-61000000D02*
X220100000Y-61000000D01*
X209100000Y-67000000D02*
X209100000Y-61000000D01*
X220100000Y-61000000D02*
X220100000Y-61500000D01*
X220100000Y-61500000D02*
X223100000Y-61500000D01*
X220100000Y-66500000D02*
X220100000Y-67000000D01*
X220100000Y-67000000D02*
X209100000Y-67000000D01*
X223100000Y-61500000D02*
X223100000Y-66500000D01*
X223100000Y-66500000D02*
X220100000Y-66500000D01*
%TO.C,U4*%
X137860000Y-117150000D02*
X140860000Y-117150000D01*
X137860000Y-120150000D02*
X137860000Y-117150000D01*
X140860000Y-117150000D02*
X140860000Y-120150000D01*
X140860000Y-120150000D02*
X137860000Y-120150000D01*
%TO.C,J3*%
X96900000Y-53600000D02*
X99900000Y-53600000D01*
X96900000Y-58600000D02*
X96900000Y-53600000D01*
X99900000Y-53100000D02*
X110900000Y-53100000D01*
X99900000Y-53600000D02*
X99900000Y-53100000D01*
X99900000Y-58600000D02*
X96900000Y-58600000D01*
X99900000Y-59100000D02*
X99900000Y-58600000D01*
X110900000Y-53100000D02*
X110900000Y-59100000D01*
X110900000Y-59100000D02*
X99900000Y-59100000D01*
%TO.C,SW4*%
X176350000Y-50250000D02*
X183650000Y-50250000D01*
X176350000Y-53750000D02*
X176350000Y-50250000D01*
X183650000Y-50250000D02*
X183650000Y-53750000D01*
X183650000Y-53750000D02*
X176350000Y-53750000D01*
%TO.C,SW1*%
X136350000Y-50250000D02*
X143650000Y-50250000D01*
X136350000Y-53750000D02*
X136350000Y-50250000D01*
X143650000Y-50250000D02*
X143650000Y-53750000D01*
X143650000Y-53750000D02*
X136350000Y-53750000D01*
%TO.C,L1*%
X170939826Y-61763320D02*
X172939826Y-61763320D01*
X170939826Y-63038320D02*
X170939826Y-61763320D01*
X172939826Y-61763320D02*
X172939826Y-63038320D01*
X172939826Y-63038320D02*
X170939826Y-63038320D01*
%TO.C,U1*%
X159509455Y-64648665D02*
X161109455Y-64648665D01*
X159509455Y-67548665D02*
X159509455Y-64648665D01*
X161109455Y-64648665D02*
X161109455Y-67548665D01*
X161109455Y-67548665D02*
X159509455Y-67548665D01*
%TO.C,VR2*%
X112650000Y-76027000D02*
X101350000Y-76027000D01*
X112650000Y-62550000D02*
X112650000Y-76027000D01*
X101350000Y-76027000D02*
X101350000Y-62550000D01*
X101350000Y-62550000D02*
X112650000Y-62550000D01*
%TO.C,VR6*%
X207350000Y-75122000D02*
X218650000Y-75122000D01*
X207350000Y-88599000D02*
X207350000Y-75122000D01*
X218650000Y-75122000D02*
X218650000Y-88599000D01*
X218650000Y-88599000D02*
X207350000Y-88599000D01*
%TO.C,U14*%
X185940808Y-83896521D02*
X189840808Y-83896521D01*
X185940808Y-93796521D02*
X185940808Y-83896521D01*
X189840808Y-83896521D02*
X189840808Y-93796521D01*
X189840808Y-93796521D02*
X185940808Y-93796521D01*
%TO.C,VR5*%
X189350000Y-116150000D02*
X200650000Y-116150000D01*
X189350000Y-129627000D02*
X189350000Y-116150000D01*
X200650000Y-116150000D02*
X200650000Y-129627000D01*
X200650000Y-129627000D02*
X189350000Y-129627000D01*
%TO.C,D8*%
X175900000Y-59100000D02*
X179100000Y-59100000D01*
X175900000Y-61900000D02*
X175900000Y-59100000D01*
X179100000Y-59100000D02*
X179100000Y-61900000D01*
X179100000Y-61900000D02*
X175900000Y-61900000D01*
%TO.C,U8*%
X132362879Y-68833644D02*
X135362879Y-68833644D01*
X132362879Y-71833644D02*
X132362879Y-68833644D01*
X135362879Y-68833644D02*
X135362879Y-71833644D01*
X135362879Y-71833644D02*
X132362879Y-71833644D01*
%TO.C,SW5*%
X191350000Y-50250000D02*
X198650000Y-50250000D01*
X191350000Y-53750000D02*
X191350000Y-50250000D01*
X198650000Y-50250000D02*
X198650000Y-53750000D01*
X198650000Y-53750000D02*
X191350000Y-53750000D01*
%TO.C,VR3*%
X101350000Y-90550000D02*
X112650000Y-90550000D01*
X101350000Y-104027000D02*
X101350000Y-90550000D01*
X112650000Y-90550000D02*
X112650000Y-104027000D01*
X112650000Y-104027000D02*
X101350000Y-104027000D01*
%TO.C,L5*%
X141547647Y-64039265D02*
X142822647Y-64039265D01*
X141547647Y-66039265D02*
X141547647Y-64039265D01*
X142822647Y-64039265D02*
X142822647Y-66039265D01*
X142822647Y-66039265D02*
X141547647Y-66039265D01*
%TO.C,J1*%
X103000000Y-119100000D02*
X109000000Y-119100000D01*
X103000000Y-130100000D02*
X103000000Y-119100000D01*
X103500000Y-130100000D02*
X103000000Y-130100000D01*
X103500000Y-133100000D02*
X103500000Y-130100000D01*
X108500000Y-130100000D02*
X108500000Y-133100000D01*
X108500000Y-133100000D02*
X103500000Y-133100000D01*
X109000000Y-119100000D02*
X109000000Y-130100000D01*
X109000000Y-130100000D02*
X108500000Y-130100000D01*
%TD*%
M02*
