%TF.GenerationSoftware,KiCad,Pcbnew,9.0.5*%
%TF.CreationDate,2026-03-23T23:06:54+01:00*%
%TF.ProjectId,Spikeling_v3.2,5370696b-656c-4696-9e67-5f76332e322e,rev?*%
%TF.SameCoordinates,Original*%
%TF.FileFunction,Paste,Top*%
%TF.FilePolarity,Positive*%
%FSLAX46Y46*%
G04 Gerber Fmt 4.6, Leading zero omitted, Abs format (unit mm)*
G04 Created by KiCad (PCBNEW 9.0.5) date 2026-03-23 23:06:54*
%MOMM*%
%LPD*%
G01*
G04 APERTURE LIST*
G04 Aperture macros list*
%AMRoundRect*
0 Rectangle with rounded corners*
0 $1 Rounding radius*
0 $2 $3 $4 $5 $6 $7 $8 $9 X,Y pos of 4 corners*
0 Add a 4 corners polygon primitive as box body*
4,1,4,$2,$3,$4,$5,$6,$7,$8,$9,$2,$3,0*
0 Add four circle primitives for the rounded corners*
1,1,$1+$1,$2,$3*
1,1,$1+$1,$4,$5*
1,1,$1+$1,$6,$7*
1,1,$1+$1,$8,$9*
0 Add four rect primitives between the rounded corners*
20,1,$1+$1,$2,$3,$4,$5,0*
20,1,$1+$1,$4,$5,$6,$7,0*
20,1,$1+$1,$6,$7,$8,$9,0*
20,1,$1+$1,$8,$9,$2,$3,0*%
%AMFreePoly0*
4,1,21,-0.180000,0.885000,0.180000,0.885000,0.180000,1.715000,0.470000,1.715000,0.470000,0.885000,0.760000,0.885000,0.760000,-0.885000,0.470000,-0.885000,0.470000,-1.705000,0.180000,-1.705000,0.180000,-0.885000,-0.180000,-0.885000,-0.180000,-1.705000,-0.470000,-1.705000,-0.470000,-0.885000,-0.760000,-0.885000,-0.760000,0.895000,-0.470000,0.895000,-0.470000,1.715000,-0.180000,1.715000,
-0.180000,0.885000,-0.180000,0.885000,$1*%
G04 Aperture macros list end*
%ADD10C,0.000000*%
%ADD11R,1.100000X0.600000*%
%ADD12RoundRect,0.200000X-0.200000X-0.275000X0.200000X-0.275000X0.200000X0.275000X-0.200000X0.275000X0*%
%ADD13R,1.132500X1.377000*%
%ADD14RoundRect,0.150000X-0.590000X-0.150000X0.590000X-0.150000X0.590000X0.150000X-0.590000X0.150000X0*%
%ADD15RoundRect,0.225000X0.225000X0.250000X-0.225000X0.250000X-0.225000X-0.250000X0.225000X-0.250000X0*%
%ADD16RoundRect,0.225000X0.250000X-0.225000X0.250000X0.225000X-0.250000X0.225000X-0.250000X-0.225000X0*%
%ADD17RoundRect,0.200000X0.200000X0.275000X-0.200000X0.275000X-0.200000X-0.275000X0.200000X-0.275000X0*%
%ADD18RoundRect,0.220000X-0.255000X0.220000X-0.255000X-0.220000X0.255000X-0.220000X0.255000X0.220000X0*%
%ADD19O,1.971000X0.602000*%
%ADD20RoundRect,0.225000X-0.250000X0.225000X-0.250000X-0.225000X0.250000X-0.225000X0.250000X0.225000X0*%
%ADD21R,1.000000X0.700000*%
%ADD22R,1.199000X1.199000*%
%ADD23R,1.200000X1.800000*%
%ADD24RoundRect,0.200000X-0.275000X0.200000X-0.275000X-0.200000X0.275000X-0.200000X0.275000X0.200000X0*%
%ADD25R,0.840000X0.280000*%
%ADD26R,0.750000X0.280000*%
%ADD27R,1.500000X0.900000*%
%ADD28R,0.900000X1.500000*%
%ADD29R,0.900000X0.900000*%
%ADD30RoundRect,0.250000X-0.650000X0.425000X-0.650000X-0.425000X0.650000X-0.425000X0.650000X0.425000X0*%
%ADD31RoundRect,0.200000X0.275000X-0.200000X0.275000X0.200000X-0.275000X0.200000X-0.275000X-0.200000X0*%
%ADD32RoundRect,0.225000X-0.225000X-0.250000X0.225000X-0.250000X0.225000X0.250000X-0.225000X0.250000X0*%
%ADD33R,1.000000X2.900000*%
%ADD34R,3.499000X1.406500*%
%ADD35R,1.500000X4.000000*%
%ADD36R,0.850000X0.350000*%
%ADD37RoundRect,0.250000X-0.550000X0.300000X-0.550000X-0.300000X0.550000X-0.300000X0.550000X0.300000X0*%
%ADD38RoundRect,0.220000X-0.380000X0.220000X-0.380000X-0.220000X0.380000X-0.220000X0.380000X0.220000X0*%
%ADD39O,2.038000X0.574000*%
%ADD40O,1.450000X0.380000*%
%ADD41R,0.300000X1.400000*%
%ADD42R,0.500000X1.400000*%
%ADD43RoundRect,0.500000X2.000000X1.000000X-2.000000X1.000000X-2.000000X-1.000000X2.000000X-1.000000X0*%
%ADD44R,0.521000X0.250000*%
%ADD45R,0.900000X1.600000*%
%ADD46R,1.300000X0.800000*%
%ADD47R,0.850000X0.240000*%
%ADD48R,0.800000X0.230000*%
%ADD49FreePoly0,0.000000*%
%ADD50R,1.000000X0.600000*%
%ADD51R,1.377000X1.132500*%
G04 APERTURE END LIST*
D10*
%TO.C,L2*%
G36*
X191061981Y-62088755D02*
G01*
X191061981Y-62529255D01*
X190676981Y-62997755D01*
X189989481Y-62997755D01*
X189889481Y-62897755D01*
X189889481Y-61720755D01*
X189989481Y-61620755D01*
X190676981Y-61620755D01*
X191061981Y-62088755D01*
G37*
G36*
X192954481Y-61720755D02*
G01*
X192954481Y-62897755D01*
X192854481Y-62997755D01*
X192166981Y-62997755D01*
X191781981Y-62529255D01*
X191781981Y-62088755D01*
X192166981Y-61620755D01*
X192854481Y-61620755D01*
X192954481Y-61720755D01*
G37*
%TO.C,U2*%
G36*
X171639500Y-52853500D02*
G01*
X171639500Y-54060000D01*
X171539500Y-54160000D01*
X170585000Y-54160000D01*
X170485000Y-54060000D01*
X170485000Y-53781500D01*
X170385000Y-53681500D01*
X169395000Y-53681500D01*
X169295000Y-53781500D01*
X169295000Y-54060000D01*
X169195000Y-54160000D01*
X168240500Y-54160000D01*
X168140500Y-54060000D01*
X168140500Y-52853500D01*
X168240500Y-52753500D01*
X171539500Y-52753500D01*
X171639500Y-52853500D01*
G37*
G36*
X169295000Y-56560000D02*
G01*
X169295000Y-56838500D01*
X169395000Y-56938500D01*
X170385000Y-56938500D01*
X170485000Y-56838500D01*
X170485000Y-56560000D01*
X170585000Y-56460000D01*
X171539500Y-56460000D01*
X171639500Y-56560000D01*
X171639500Y-57766500D01*
X171539500Y-57866500D01*
X168240500Y-57866500D01*
X168140500Y-57766500D01*
X168140500Y-56560000D01*
X168240500Y-56460000D01*
X169195000Y-56460000D01*
X169295000Y-56560000D01*
G37*
%TO.C,L1*%
G36*
X171579826Y-62180820D02*
G01*
X171579826Y-62621320D01*
X171194826Y-63089320D01*
X170507326Y-63089320D01*
X170407326Y-62989320D01*
X170407326Y-61812320D01*
X170507326Y-61712320D01*
X171194826Y-61712320D01*
X171579826Y-62180820D01*
G37*
G36*
X173472326Y-61812320D02*
G01*
X173472326Y-62989320D01*
X173372326Y-63089320D01*
X172684826Y-63089320D01*
X172299826Y-62621320D01*
X172299826Y-62180820D01*
X172684826Y-61712320D01*
X173372326Y-61712320D01*
X173472326Y-61812320D01*
G37*
%TO.C,L5*%
G36*
X142873647Y-63606765D02*
G01*
X142873647Y-64294265D01*
X142405147Y-64679265D01*
X141964647Y-64679265D01*
X141496647Y-64294265D01*
X141496647Y-63606765D01*
X141596647Y-63506765D01*
X142773647Y-63506765D01*
X142873647Y-63606765D01*
G37*
G36*
X142873647Y-65784265D02*
G01*
X142873647Y-66471765D01*
X142773647Y-66571765D01*
X141596647Y-66571765D01*
X141496647Y-66471765D01*
X141496647Y-65784265D01*
X141964647Y-65399265D01*
X142405147Y-65399265D01*
X142873647Y-65784265D01*
G37*
%TD*%
D11*
%TO.C,U13*%
X200322793Y-102796322D03*
X200322793Y-103746322D03*
X200322793Y-104696322D03*
X202922793Y-104696322D03*
X202922793Y-102796322D03*
%TD*%
%TO.C,TV1*%
X158664835Y-58962032D03*
X158664835Y-59912032D03*
X158664835Y-60862032D03*
X161364835Y-60862032D03*
X161364835Y-59912032D03*
X161364835Y-58962032D03*
%TD*%
D12*
%TO.C,R64*%
X170848178Y-86779070D03*
X172488178Y-86779070D03*
%TD*%
D13*
%TO.C,L2*%
X190455981Y-62309255D03*
X192387981Y-62309255D03*
%TD*%
D12*
%TO.C,R65*%
X172483851Y-85416223D03*
X170843851Y-85416223D03*
%TD*%
D14*
%TO.C,Q2*%
X121963015Y-64884320D03*
X121963015Y-66784320D03*
X123843015Y-65834320D03*
%TD*%
D15*
%TO.C,C8*%
X127200000Y-86950000D03*
X125640000Y-86950000D03*
%TD*%
D12*
%TO.C,R12*%
X147660000Y-81720000D03*
X149300000Y-81720000D03*
%TD*%
D16*
%TO.C,C25*%
X193734466Y-65694000D03*
X193734466Y-64134000D03*
%TD*%
D15*
%TO.C,C1*%
X153680000Y-56930000D03*
X152120000Y-56930000D03*
%TD*%
D17*
%TO.C,R9*%
X165520000Y-60870000D03*
X163880000Y-60870000D03*
%TD*%
D14*
%TO.C,Q3*%
X141270533Y-68259654D03*
X141270533Y-70159654D03*
X143150533Y-69209654D03*
%TD*%
D12*
%TO.C,R29*%
X148988469Y-63706016D03*
X150628469Y-63706016D03*
%TD*%
%TO.C,R26*%
X125560000Y-98710000D03*
X127200000Y-98710000D03*
%TD*%
D18*
%TO.C,D7*%
X145000000Y-51530000D03*
X145000000Y-53110000D03*
%TD*%
D17*
%TO.C,R36*%
X172470000Y-76640000D03*
X170830000Y-76640000D03*
%TD*%
D19*
%TO.C,U12*%
X129345896Y-84399500D03*
X129345896Y-85669500D03*
X129345896Y-86939500D03*
X129345896Y-88209500D03*
X129345896Y-89479500D03*
X129345896Y-90749500D03*
X129345896Y-92019500D03*
X129345896Y-93289500D03*
X134816896Y-93289500D03*
X134816896Y-92019500D03*
X134816896Y-90749500D03*
X134816896Y-89479500D03*
X134816896Y-88209500D03*
X134816896Y-86939500D03*
X134816896Y-85669500D03*
X134816896Y-84399500D03*
%TD*%
D20*
%TO.C,C37*%
X132364136Y-72555915D03*
X132364136Y-74115915D03*
%TD*%
D21*
%TO.C,D2*%
X112379349Y-55450000D03*
X112379349Y-56750500D03*
X114279349Y-56100000D03*
%TD*%
D17*
%TO.C,R4*%
X112380000Y-53600000D03*
X114020000Y-53600000D03*
%TD*%
D12*
%TO.C,R46*%
X181457058Y-81699771D03*
X183097058Y-81699771D03*
%TD*%
%TO.C,R34*%
X181457058Y-83049771D03*
X183097058Y-83049771D03*
%TD*%
%TO.C,R17*%
X125550000Y-80300000D03*
X127190000Y-80300000D03*
%TD*%
D20*
%TO.C,C23*%
X184660000Y-63640000D03*
X184660000Y-65200000D03*
%TD*%
D17*
%TO.C,R68*%
X204562793Y-106136322D03*
X202922793Y-106136322D03*
%TD*%
%TO.C,R5*%
X114020408Y-81492827D03*
X112380408Y-81492827D03*
%TD*%
D16*
%TO.C,C28*%
X200184466Y-63788500D03*
X200184466Y-62228500D03*
%TD*%
D12*
%TO.C,R16*%
X125550000Y-83000000D03*
X127190000Y-83000000D03*
%TD*%
D16*
%TO.C,C14*%
X169270000Y-63963500D03*
X169270000Y-62403500D03*
%TD*%
D22*
%TO.C,D4*%
X146050000Y-124400000D03*
D23*
X139950000Y-124400000D03*
%TD*%
D17*
%TO.C,R20*%
X152195137Y-67462997D03*
X150555137Y-67462997D03*
%TD*%
D24*
%TO.C,R3*%
X103597495Y-115996166D03*
X103597495Y-117636166D03*
%TD*%
D16*
%TO.C,C30*%
X201534466Y-63788500D03*
X201534466Y-62228500D03*
%TD*%
D17*
%TO.C,R32*%
X155840000Y-58990000D03*
X154200000Y-58990000D03*
%TD*%
D12*
%TO.C,R22*%
X145748515Y-67462997D03*
X147388515Y-67462997D03*
%TD*%
D16*
%TO.C,C24*%
X192384466Y-65694000D03*
X192384466Y-64134000D03*
%TD*%
D15*
%TO.C,C45*%
X183097058Y-86939771D03*
X181537058Y-86939771D03*
%TD*%
D20*
%TO.C,C38*%
X129572879Y-68263644D03*
X129572879Y-69823644D03*
%TD*%
D24*
%TO.C,R41*%
X160700000Y-71730000D03*
X160700000Y-73370000D03*
%TD*%
D14*
%TO.C,Q4*%
X205478003Y-59052354D03*
X205478003Y-60952354D03*
X207358003Y-60002354D03*
%TD*%
D18*
%TO.C,D5*%
X153000000Y-51530000D03*
X153000000Y-53110000D03*
%TD*%
D16*
%TO.C,C51*%
X138447646Y-87247750D03*
X138447646Y-85687750D03*
%TD*%
%TO.C,C57*%
X192797058Y-87249771D03*
X192797058Y-85689771D03*
%TD*%
D25*
%TO.C,U5*%
X146514480Y-64896729D03*
D26*
X146459480Y-65396729D03*
X146459480Y-65896729D03*
X147731480Y-65896729D03*
X147731480Y-65396729D03*
X147731480Y-64896729D03*
%TD*%
D16*
%TO.C,C54*%
X174270000Y-74690000D03*
X174270000Y-73130000D03*
%TD*%
D15*
%TO.C,C3*%
X127200000Y-93310000D03*
X125640000Y-93310000D03*
%TD*%
D20*
%TO.C,C29*%
X189064713Y-64129173D03*
X189064713Y-65689173D03*
%TD*%
D27*
%TO.C,U10*%
X168969595Y-93147210D03*
X168969595Y-91877210D03*
X168969595Y-90607210D03*
X168969595Y-89337210D03*
X168969595Y-88067210D03*
X168969595Y-86797210D03*
X168969595Y-85527210D03*
X168969595Y-84257210D03*
X168969595Y-82987210D03*
X168969595Y-81717210D03*
X168969595Y-80447210D03*
X168969595Y-79177210D03*
X168969595Y-77907210D03*
X168969595Y-76637210D03*
D28*
X167054595Y-75238210D03*
X165784595Y-75238210D03*
X164514595Y-75238210D03*
X163244595Y-75238210D03*
X161974595Y-75238210D03*
X160704595Y-75238210D03*
X159434595Y-75238210D03*
X158164595Y-75238210D03*
X156894595Y-75238210D03*
X155624595Y-75238210D03*
X154354595Y-75238210D03*
X153084595Y-75238210D03*
D27*
X151169595Y-76637210D03*
X151169595Y-77907210D03*
X151169595Y-79177210D03*
X151169595Y-80447210D03*
X151169595Y-81717210D03*
X151169595Y-82987210D03*
X151169595Y-84257210D03*
X151169595Y-85527210D03*
X151169595Y-86797210D03*
X151169595Y-88067210D03*
X151169595Y-89337210D03*
X151169595Y-90607210D03*
X151169595Y-91877210D03*
X151169595Y-93147210D03*
D29*
X162969095Y-86827710D03*
X162969095Y-85427710D03*
X162969095Y-84027710D03*
X161569095Y-86827710D03*
X161569095Y-85427710D03*
X161569095Y-84027710D03*
X160169095Y-86827710D03*
X160169095Y-85427710D03*
X160169095Y-84027710D03*
%TD*%
D30*
%TO.C,SW2*%
X145222818Y-75599933D03*
X145222818Y-79749933D03*
%TD*%
D24*
%TO.C,R37*%
X167050000Y-71730000D03*
X167050000Y-73370000D03*
%TD*%
%TO.C,R50*%
X120080093Y-66380498D03*
X120080093Y-68020498D03*
%TD*%
D31*
%TO.C,R48*%
X159440000Y-73370000D03*
X159440000Y-71730000D03*
%TD*%
D15*
%TO.C,C20*%
X127200000Y-89500000D03*
X125640000Y-89500000D03*
%TD*%
D24*
%TO.C,R38*%
X164520000Y-71730000D03*
X164520000Y-73370000D03*
%TD*%
D12*
%TO.C,R18*%
X140600000Y-58950000D03*
X142240000Y-58950000D03*
%TD*%
D15*
%TO.C,C36*%
X183097058Y-84399771D03*
X181537058Y-84399771D03*
%TD*%
D16*
%TO.C,C52*%
X204342793Y-104356322D03*
X204342793Y-102796322D03*
%TD*%
D12*
%TO.C,R24*%
X138500000Y-121120000D03*
X140140000Y-121120000D03*
%TD*%
D20*
%TO.C,C55*%
X192797058Y-82839771D03*
X192797058Y-84399771D03*
%TD*%
D32*
%TO.C,C41*%
X185384611Y-102057872D03*
X186944611Y-102057872D03*
%TD*%
D20*
%TO.C,C31*%
X190414713Y-64129173D03*
X190414713Y-65689173D03*
%TD*%
D15*
%TO.C,C4*%
X127200000Y-92040000D03*
X125640000Y-92040000D03*
%TD*%
D12*
%TO.C,R15*%
X125550000Y-81650000D03*
X127190000Y-81650000D03*
%TD*%
D24*
%TO.C,R39*%
X163240000Y-71730000D03*
X163240000Y-73370000D03*
%TD*%
D12*
%TO.C,R14*%
X147660000Y-82990000D03*
X149300000Y-82990000D03*
%TD*%
D24*
%TO.C,R56*%
X146262810Y-54819934D03*
X146262810Y-56459934D03*
%TD*%
D33*
%TO.C,L3*%
X184471481Y-61079255D03*
X182471481Y-61079255D03*
%TD*%
D20*
%TO.C,C9*%
X167240000Y-58983500D03*
X167240000Y-60543500D03*
%TD*%
D12*
%TO.C,R67*%
X203838003Y-57334854D03*
X205478003Y-57334854D03*
%TD*%
D11*
%TO.C,Q1*%
X151991480Y-63980729D03*
X151991480Y-64930729D03*
X151991480Y-65880729D03*
X154691480Y-65880729D03*
X154691480Y-64930729D03*
X154691480Y-63980729D03*
%TD*%
D20*
%TO.C,C21*%
X183300000Y-63640000D03*
X183300000Y-65200000D03*
%TD*%
D24*
%TO.C,R40*%
X161970000Y-71730000D03*
X161970000Y-73370000D03*
%TD*%
D34*
%TO.C,U2*%
X169890000Y-53456500D03*
X169890000Y-57163500D03*
%TD*%
D35*
%TO.C,B1*%
X175910000Y-73120000D03*
X187410000Y-73120000D03*
%TD*%
D36*
%TO.C,U3*%
X169890030Y-58985570D03*
X169890030Y-59635570D03*
X169890030Y-60285570D03*
X172090030Y-60285570D03*
X172090030Y-59635570D03*
X172090030Y-58985570D03*
%TD*%
D21*
%TO.C,D11*%
X212830000Y-58410000D03*
X212830000Y-59710500D03*
X214730000Y-59060000D03*
%TD*%
D16*
%TO.C,C53*%
X205692793Y-104356322D03*
X205692793Y-102796322D03*
%TD*%
D12*
%TO.C,R44*%
X192764611Y-103497872D03*
X194404611Y-103497872D03*
%TD*%
D15*
%TO.C,C5*%
X127200000Y-88230000D03*
X125640000Y-88230000D03*
%TD*%
%TO.C,C44*%
X183097058Y-85669771D03*
X181537058Y-85669771D03*
%TD*%
D12*
%TO.C,R33*%
X185304611Y-99357872D03*
X186944611Y-99357872D03*
%TD*%
%TO.C,R71*%
X209810000Y-57620000D03*
X211450000Y-57620000D03*
%TD*%
D15*
%TO.C,C33*%
X194374611Y-107227872D03*
X192814611Y-107227872D03*
%TD*%
D12*
%TO.C,R13*%
X125550000Y-78950000D03*
X127190000Y-78950000D03*
%TD*%
D20*
%TO.C,C35*%
X130922879Y-68263644D03*
X130922879Y-69823644D03*
%TD*%
D37*
%TO.C,D1*%
X173260000Y-53463500D03*
X173260000Y-56263500D03*
%TD*%
D20*
%TO.C,C2*%
X163029455Y-67048665D03*
X163029455Y-68608665D03*
%TD*%
D16*
%TO.C,C58*%
X194150000Y-87250000D03*
X194150000Y-85690000D03*
%TD*%
D38*
%TO.C,L4*%
X129434136Y-71925915D03*
X129434136Y-74045915D03*
%TD*%
D24*
%TO.C,R55*%
X125860093Y-63540498D03*
X125860093Y-65180498D03*
%TD*%
D39*
%TO.C,U9*%
X185393819Y-103502377D03*
X185393819Y-104772377D03*
X185393819Y-106042377D03*
X185393819Y-107312377D03*
X185393819Y-108582377D03*
X185393819Y-109852377D03*
X185393819Y-111122377D03*
X190631819Y-111122377D03*
X190631819Y-109852377D03*
X190631819Y-108582377D03*
X190631819Y-107312377D03*
X190631819Y-106042377D03*
X190631819Y-104772377D03*
X190631819Y-103502377D03*
%TD*%
D31*
%TO.C,R31*%
X147500000Y-52920000D03*
X147500000Y-51280000D03*
%TD*%
D36*
%TO.C,U11*%
X134710147Y-66639265D03*
X134710147Y-67289265D03*
X134710147Y-67939265D03*
X136910147Y-67939265D03*
X136910147Y-67289265D03*
X136910147Y-66639265D03*
%TD*%
D20*
%TO.C,C10*%
X168590755Y-58987341D03*
X168590755Y-60547341D03*
%TD*%
D31*
%TO.C,R61*%
X158140000Y-73370000D03*
X158140000Y-71730000D03*
%TD*%
D12*
%TO.C,R70*%
X199390000Y-52750000D03*
X201030000Y-52750000D03*
%TD*%
D24*
%TO.C,R2*%
X163029455Y-63508665D03*
X163029455Y-65148665D03*
%TD*%
D15*
%TO.C,C13*%
X149260000Y-77980000D03*
X147700000Y-77980000D03*
%TD*%
D12*
%TO.C,R63*%
X170849956Y-82984934D03*
X172489956Y-82984934D03*
%TD*%
D20*
%TO.C,C32*%
X132362879Y-66533644D03*
X132362879Y-68093644D03*
%TD*%
D40*
%TO.C,U4*%
X137160000Y-117675000D03*
X137160000Y-118325000D03*
X137160000Y-118975000D03*
X137160000Y-119625000D03*
X141560000Y-119625000D03*
X141560000Y-118975000D03*
X141560000Y-118325000D03*
X141560000Y-117675000D03*
%TD*%
D12*
%TO.C,R58*%
X136917646Y-92017750D03*
X138557646Y-92017750D03*
%TD*%
D17*
%TO.C,R8*%
X114030467Y-86492273D03*
X112390467Y-86492273D03*
%TD*%
%TO.C,R7*%
X112380000Y-58600000D03*
X114020000Y-58600000D03*
%TD*%
D18*
%TO.C,D6*%
X149000000Y-51520000D03*
X149000000Y-53100000D03*
%TD*%
D12*
%TO.C,R69*%
X184380000Y-52750000D03*
X186020000Y-52750000D03*
%TD*%
%TO.C,R21*%
X147670000Y-76630000D03*
X149310000Y-76630000D03*
%TD*%
D16*
%TO.C,C43*%
X134710147Y-65479265D03*
X134710147Y-63919265D03*
%TD*%
D21*
%TO.C,D10*%
X208200000Y-123700000D03*
X206300000Y-124350500D03*
X206300000Y-123050000D03*
%TD*%
D41*
%TO.C,J2*%
X161250000Y-56250000D03*
X160250000Y-56250000D03*
X159750000Y-56250000D03*
X158750000Y-56250000D03*
D42*
X157600000Y-56250000D03*
X156800000Y-56250000D03*
D41*
X158250000Y-56250000D03*
X159250000Y-56250000D03*
X160750000Y-56250000D03*
X161750000Y-56250000D03*
D42*
X162400000Y-56250000D03*
X163200000Y-56250000D03*
D43*
X160000000Y-51750000D03*
%TD*%
D20*
%TO.C,C12*%
X173390030Y-58985570D03*
X173390030Y-60545570D03*
%TD*%
%TO.C,C40*%
X128222879Y-68263644D03*
X128222879Y-69823644D03*
%TD*%
D16*
%TO.C,C27*%
X198834466Y-63788500D03*
X198834466Y-62228500D03*
%TD*%
D31*
%TO.C,R60*%
X155600000Y-73380000D03*
X155600000Y-71740000D03*
%TD*%
D15*
%TO.C,C34*%
X194374611Y-104847872D03*
X192814611Y-104847872D03*
%TD*%
D20*
%TO.C,C19*%
X143170000Y-118360000D03*
X143170000Y-119920000D03*
%TD*%
D32*
%TO.C,C15*%
X138500000Y-122470000D03*
X140060000Y-122470000D03*
%TD*%
D31*
%TO.C,R49*%
X120080093Y-65180498D03*
X120080093Y-63540498D03*
%TD*%
D12*
%TO.C,R51*%
X138210147Y-66009265D03*
X139850147Y-66009265D03*
%TD*%
D13*
%TO.C,L1*%
X172905826Y-62400820D03*
X170973826Y-62400820D03*
%TD*%
D12*
%TO.C,R10*%
X125560000Y-96010000D03*
X127200000Y-96010000D03*
%TD*%
D11*
%TO.C,U1*%
X159009455Y-65148665D03*
X159009455Y-66098665D03*
X159009455Y-67048665D03*
X161609455Y-67048665D03*
X161609455Y-65148665D03*
%TD*%
D20*
%TO.C,C11*%
X157579455Y-67068665D03*
X157579455Y-68628665D03*
%TD*%
D15*
%TO.C,C26*%
X127200000Y-90760000D03*
X125640000Y-90760000D03*
%TD*%
D21*
%TO.C,D3*%
X112382468Y-83345501D03*
X112382468Y-84646001D03*
X114282468Y-83995501D03*
%TD*%
D16*
%TO.C,C56*%
X194147058Y-84399771D03*
X194147058Y-82839771D03*
%TD*%
D24*
%TO.C,R52*%
X138220147Y-67289265D03*
X138220147Y-68929265D03*
%TD*%
D15*
%TO.C,C6*%
X127200000Y-85670000D03*
X125640000Y-85670000D03*
%TD*%
D12*
%TO.C,R6*%
X125570000Y-94660000D03*
X127210000Y-94660000D03*
%TD*%
D17*
%TO.C,R35*%
X172460000Y-77910000D03*
X170820000Y-77910000D03*
%TD*%
D32*
%TO.C,C42*%
X185384611Y-100707872D03*
X186944611Y-100707872D03*
%TD*%
D24*
%TO.C,R42*%
X139566197Y-70149385D03*
X139566197Y-71789385D03*
%TD*%
D17*
%TO.C,R28*%
X147731480Y-63706729D03*
X146091480Y-63706729D03*
%TD*%
D12*
%TO.C,R47*%
X181457058Y-88249771D03*
X183097058Y-88249771D03*
%TD*%
D17*
%TO.C,R25*%
X149310000Y-75280000D03*
X147670000Y-75280000D03*
%TD*%
D20*
%TO.C,C50*%
X136987646Y-82837750D03*
X136987646Y-84397750D03*
%TD*%
D24*
%TO.C,R30*%
X151500000Y-51280000D03*
X151500000Y-52920000D03*
%TD*%
D15*
%TO.C,C7*%
X127180000Y-84390000D03*
X125620000Y-84390000D03*
%TD*%
D12*
%TO.C,R66*%
X170850000Y-88140000D03*
X172490000Y-88140000D03*
%TD*%
%TO.C,R45*%
X192764611Y-108577872D03*
X194404611Y-108577872D03*
%TD*%
D31*
%TO.C,R53*%
X139580147Y-68939265D03*
X139580147Y-67299265D03*
%TD*%
D12*
%TO.C,R59*%
X197132793Y-106056322D03*
X198772793Y-106056322D03*
%TD*%
D16*
%TO.C,C48*%
X136987646Y-87247750D03*
X136987646Y-85687750D03*
%TD*%
D12*
%TO.C,R27*%
X125560000Y-97360000D03*
X127200000Y-97360000D03*
%TD*%
D44*
%TO.C,U7*%
X185874466Y-63134000D03*
X185874466Y-63634000D03*
X185874466Y-64134000D03*
X185874466Y-64634000D03*
X187774466Y-64634000D03*
X187774466Y-64134000D03*
X187774466Y-63634000D03*
X187774466Y-63134000D03*
D45*
X186824466Y-63884000D03*
%TD*%
D19*
%TO.C,U14*%
X185155308Y-84401521D03*
X185155308Y-85671521D03*
X185155308Y-86941521D03*
X185155308Y-88211521D03*
X185155308Y-89481521D03*
X185155308Y-90751521D03*
X185155308Y-92021521D03*
X185155308Y-93291521D03*
X190626308Y-93291521D03*
X190626308Y-92021521D03*
X190626308Y-90751521D03*
X190626308Y-89481521D03*
X190626308Y-88211521D03*
X190626308Y-86941521D03*
X190626308Y-85671521D03*
X190626308Y-84401521D03*
%TD*%
D17*
%TO.C,R19*%
X147398515Y-68812997D03*
X145758515Y-68812997D03*
%TD*%
D46*
%TO.C,D8*%
X176000000Y-61250000D03*
X176000000Y-59750000D03*
X179000000Y-59750000D03*
X179000000Y-61250000D03*
%TD*%
D12*
%TO.C,R57*%
X197132793Y-103336322D03*
X198772793Y-103336322D03*
%TD*%
D20*
%TO.C,C22*%
X148981024Y-65395382D03*
X148981024Y-66955382D03*
%TD*%
D47*
%TO.C,U8*%
X132362879Y-69328644D03*
X132362879Y-69828644D03*
X132362879Y-70328644D03*
X132362879Y-70828644D03*
X132362879Y-71328644D03*
D48*
X135362879Y-71328644D03*
X135362879Y-70828644D03*
X135362879Y-70328644D03*
X135362879Y-69828644D03*
X135362879Y-69328644D03*
D49*
X133862879Y-70333644D03*
%TD*%
D32*
%TO.C,C47*%
X197212793Y-104696322D03*
X198772793Y-104696322D03*
%TD*%
D17*
%TO.C,R11*%
X165529999Y-58959052D03*
X163889999Y-58959052D03*
%TD*%
D50*
%TO.C,U6*%
X195184466Y-62234000D03*
X195184466Y-63184000D03*
X195184466Y-64134000D03*
X197384466Y-64134000D03*
X197384466Y-62234000D03*
%TD*%
D17*
%TO.C,R1*%
X153680000Y-55570000D03*
X152040000Y-55570000D03*
%TD*%
D12*
%TO.C,R72*%
X192727058Y-92029771D03*
X194367058Y-92029771D03*
%TD*%
D51*
%TO.C,L5*%
X142185147Y-66005265D03*
X142185147Y-64073265D03*
%TD*%
D20*
%TO.C,C39*%
X131014136Y-72555915D03*
X131014136Y-74115915D03*
%TD*%
%TO.C,C18*%
X144520000Y-118360000D03*
X144520000Y-119920000D03*
%TD*%
D31*
%TO.C,R62*%
X156870000Y-73380000D03*
X156870000Y-71740000D03*
%TD*%
D16*
%TO.C,C49*%
X138447646Y-84397750D03*
X138447646Y-82837750D03*
%TD*%
D17*
%TO.C,R23*%
X152205137Y-68812997D03*
X150565137Y-68812997D03*
%TD*%
D16*
%TO.C,C46*%
X136920147Y-65479265D03*
X136920147Y-63919265D03*
%TD*%
D24*
%TO.C,R43*%
X138196197Y-70139385D03*
X138196197Y-71779385D03*
%TD*%
D15*
%TO.C,C17*%
X142240872Y-57605035D03*
X140680872Y-57605035D03*
%TD*%
D20*
%TO.C,C16*%
X167920000Y-62403500D03*
X167920000Y-63963500D03*
%TD*%
D24*
%TO.C,R54*%
X125860093Y-66380498D03*
X125860093Y-68020498D03*
%TD*%
M02*
