M48
; DRILL file KiCad 10.0.1 date 2026-04-28T23:51:59
; FORMAT={-:-/ absolute / metric / decimal}
; #@! TF.CreationDate,2026-04-28T23:51:59+02:00
; #@! TF.GenerationSoftware,Kicad,Pcbnew,10.0.1
; #@! TF.FileFunction,Plated,1,2,PTH
FMAT,2
METRIC
; #@! TA.AperFunction,Plated,PTH,ComponentDrill
T1C0.300
; #@! TA.AperFunction,Plated,PTH,ViaDrill
T2C0.400
; #@! TA.AperFunction,Plated,PTH,ComponentDrill
T3C0.500
; #@! TA.AperFunction,Plated,PTH,ComponentDrill
T4C0.600
; #@! TA.AperFunction,Plated,PTH,ComponentDrill
T5C1.000
; #@! TA.AperFunction,Plated,PTH,ComponentDrill
T6C1.100
; #@! TA.AperFunction,Plated,PTH,ComponentDrill
T7C1.200
; #@! TA.AperFunction,Plated,PTH,ComponentDrill
T8C1.400
; #@! TA.AperFunction,Plated,PTH,ComponentDrill
T9C1.900
; #@! TA.AperFunction,Plated,PTH,ComponentDrill
T10C3.200
%
G90
G05
T1
X158.0Y-50.75
X158.0Y-52.75
X162.0Y-50.75
X162.0Y-52.75
T2
X103.875Y-86.4
X103.9Y-58.4
X104.275Y-111.325
X106.922Y-115.653
X108.4Y-126.05
X109.5Y-65.12
X112.5Y-91.5
X114.241Y-54.927
X114.241Y-57.297
X114.251Y-82.709
X114.261Y-85.189
X115.675Y-56.125
X116.105Y-61.93
X116.675Y-51.962
X117.675Y-79.85
X117.7Y-86.3
X118.1Y-72.8
X120.5Y-118.275
X122.11Y-68.25
X122.12Y-63.02
X122.64Y-72.81
X124.502Y-93.31
X124.59Y-84.399
X124.75Y-63.025
X126.008Y-56.35
X128.175Y-81.65
X129.0Y-56.7
X130.475Y-78.55
X130.925Y-86.939
X130.925Y-88.209
X132.025Y-60.55
X132.363Y-68.738
X132.5Y-64.475
X133.225Y-67.55
X133.23Y-93.29
X133.238Y-86.939
X133.4Y-65.475
X133.44Y-89.475
X133.854Y-54.15
X135.01Y-61.875
X135.02Y-51.734
X135.61Y-82.82
X136.362Y-71.173
X137.16Y-120.4
X139.575Y-85.025
X139.925Y-56.7
X140.0Y-87.22
X140.0Y-89.22
X140.0Y-90.22
X140.0Y-91.22
X140.437Y-72.113
X140.78Y-67.29
X141.0Y-87.22
X141.275Y-70.85
X145.291Y-59.1
X145.6Y-71.2
X145.975Y-120.225
X146.05Y-122.9
X146.05Y-125.59
X146.91Y-77.99
X148.65Y-74.772
X149.375Y-75.525
X150.1Y-66.325
X150.45Y-51.28
X150.628Y-61.903
X153.2Y-58.98
X154.075Y-53.325
X156.45Y-64.15
X157.599Y-66.187
X159.101Y-54.985
X159.225Y-68.15
X159.44Y-70.74
X159.61Y-60.86
X159.625Y-59.26
X159.75Y-64.15
X160.7Y-70.75
X160.747Y-55.06
X161.97Y-70.74
X162.381Y-64.236
X162.52Y-119.24
X163.24Y-70.73
X164.37Y-59.92
X164.52Y-70.73
X165.825Y-63.062
X166.365Y-59.935
X167.05Y-70.73
X168.84Y-63.396
X169.854Y-75.21
X170.255Y-74.21
X170.779Y-67.362
X171.0Y-70.2
X172.75Y-68.375
X173.325Y-85.075
X173.325Y-87.775
X173.35Y-86.45
X173.35Y-84.075
X173.555Y-91.88
X173.665Y-61.99
X174.25Y-65.747
X175.358Y-63.275
X180.525Y-83.975
X180.525Y-90.15
X182.975Y-62.0
X183.747Y-87.675
X185.475Y-97.575
X185.679Y-65.451
X186.225Y-99.55
X186.945Y-100.95
X186.96Y-106.04
X186.965Y-54.15
X187.275Y-84.55
X187.525Y-97.525
X188.415Y-54.15
X188.46Y-60.33
X188.46Y-62.67
X189.225Y-88.212
X189.23Y-111.09
X189.449Y-105.536
X190.725Y-60.685
X190.968Y-99.457
X190.975Y-100.475
X190.975Y-101.475
X190.995Y-97.35
X190.995Y-98.457
X191.55Y-82.84
X191.897Y-88.9
X191.897Y-90.17
X191.897Y-91.44
X192.31Y-93.31
X192.5Y-121.96
X192.805Y-70.919
X192.815Y-106.02
X192.815Y-88.1
X193.255Y-69.92
X194.266Y-109.75
X194.339Y-99.662
X195.45Y-65.695
X195.78Y-103.53
X195.84Y-104.848
X196.025Y-84.875
X197.42Y-63.184
X197.54Y-119.09
X198.1Y-60.4
X200.263Y-56.017
X201.083Y-77.175
X202.705Y-57.3
X203.375Y-93.925
X203.597Y-97.703
X204.4Y-52.75
X205.1Y-61.84
X206.82Y-60.96
X207.21Y-104.72
X207.5Y-103.348
X210.697Y-117.436
X211.449Y-118.162
X212.267Y-118.738
X212.991Y-119.427
X213.175Y-109.825
X215.5Y-74.05
X215.5Y-103.5
X215.8Y-95.15
X216.0Y-93.25
X216.05Y-57.4
X216.4Y-126.075
X216.47Y-124.298
X217.77Y-62.94
X217.85Y-89.825
X217.85Y-91.33
T5
X120.91Y-58.69
X123.41Y-58.69
T6
X104.5Y-63.5
X104.5Y-91.5
X107.0Y-63.5
X107.0Y-91.5
X109.5Y-63.5
X109.5Y-91.5
X115.5Y-117.0
X118.0Y-117.0
X120.5Y-117.0
X137.75Y-52.75
X142.25Y-52.75
X157.5Y-117.0
X160.0Y-117.0
X162.5Y-117.0
X177.75Y-52.75
X182.25Y-52.75
X192.5Y-117.0
X192.75Y-52.75
X195.0Y-117.0
X197.25Y-52.75
X197.5Y-117.0
X210.5Y-75.972
X210.5Y-101.6
X213.0Y-75.972
X213.0Y-101.6
X215.5Y-75.972
X215.5Y-101.6
T7
X123.508Y-52.862
X126.008Y-52.862
X128.508Y-52.862
T8
X136.4Y-55.25
X143.6Y-55.25
X176.4Y-55.25
X183.6Y-55.25
X191.4Y-55.25
X198.6Y-55.25
T10
X116.0Y-67.5
X116.0Y-112.5
X204.0Y-67.5
X204.0Y-112.5
T3
G00X155.67Y-51.77
M15
G01X155.67Y-50.97
M16
G05
G00X155.67Y-56.12
M15
G01X155.67Y-55.02
M16
G05
G00X164.33Y-51.77
M15
G01X164.33Y-50.97
M16
G05
G00X164.33Y-56.12
M15
G01X164.33Y-55.02
M16
G05
T4
G00X101.95Y-58.4
M15
G01X102.55Y-58.4
M16
G05
G00X101.95Y-86.4
M15
G01X102.55Y-86.4
M16
G05
G00X103.6Y-126.05
M15
G01X103.6Y-125.45
M16
G05
G00X103.95Y-53.6
M15
G01X104.55Y-53.6
M16
G05
G00X103.95Y-81.6
M15
G01X104.55Y-81.6
M16
G05
G00X108.4Y-121.05
M15
G01X108.4Y-120.45
M16
G05
G00X108.4Y-128.05
M15
G01X108.4Y-127.45
M16
G05
G00X108.95Y-58.4
M15
G01X109.55Y-58.4
M16
G05
G00X108.95Y-86.4
M15
G01X109.55Y-86.4
M16
G05
G00X211.05Y-61.6
M15
G01X210.45Y-61.6
M16
G05
G00X211.6Y-126.05
M15
G01X211.6Y-125.45
M16
G05
G00X216.05Y-66.4
M15
G01X215.45Y-66.4
M16
G05
G00X216.4Y-121.05
M15
G01X216.4Y-120.45
M16
G05
G00X216.4Y-128.05
M15
G01X216.4Y-127.45
M16
G05
G00X218.05Y-61.6
M15
G01X217.45Y-61.6
M16
G05
T9
G00X102.6Y-70.35
M15
G01X102.6Y-70.65
M16
G05
G00X102.6Y-98.35
M15
G01X102.6Y-98.65
M16
G05
G00X111.4Y-70.35
M15
G01X111.4Y-70.65
M16
G05
G00X111.4Y-98.35
M15
G01X111.4Y-98.65
M16
G05
G00X113.6Y-123.85
M15
G01X113.6Y-124.15
M16
G05
G00X122.4Y-123.85
M15
G01X122.4Y-124.15
M16
G05
G00X155.6Y-123.85
M15
G01X155.6Y-124.15
M16
G05
G00X164.4Y-123.85
M15
G01X164.4Y-124.15
M16
G05
G00X190.6Y-123.85
M15
G01X190.6Y-124.15
M16
G05
G00X199.4Y-123.85
M15
G01X199.4Y-124.15
M16
G05
G00X208.6Y-82.822
M15
G01X208.6Y-83.122
M16
G05
G00X208.6Y-108.45
M15
G01X208.6Y-108.75
M16
G05
G00X217.4Y-82.822
M15
G01X217.4Y-83.122
M16
G05
G00X217.4Y-108.45
M15
G01X217.4Y-108.75
M16
G05
M30
