M48
; DRILL file {KiCad 9.0.5} date 2026-02-23T00:46:48+0100
; FORMAT={-:-/ absolute / metric / decimal}
; #@! TF.CreationDate,2026-02-23T00:46:48+01:00
; #@! TF.GenerationSoftware,Kicad,Pcbnew,9.0.5
; #@! TF.FileFunction,Plated,1,2,PTH
FMAT,2
METRIC
; #@! TA.AperFunction,Plated,PTH,ComponentDrill
T1C0.300
; #@! TA.AperFunction,Plated,PTH,ViaDrill
T2C0.400
; #@! TA.AperFunction,Plated,PTH,ComponentDrill
T3C0.500
; #@! TA.AperFunction,Plated,PTH,ComponentDrill
T4C0.900
; #@! TA.AperFunction,Plated,PTH,ComponentDrill
T5C0.914
; #@! TA.AperFunction,Plated,PTH,ComponentDrill
T6C1.000
; #@! TA.AperFunction,Plated,PTH,ComponentDrill
T7C1.100
; #@! TA.AperFunction,Plated,PTH,ComponentDrill
T8C1.400
; #@! TA.AperFunction,Plated,PTH,ComponentDrill
T9C1.900
; #@! TA.AperFunction,Plated,PTH,ComponentDrill
T10C3.200
%
G90
G05
T1
X158.0Y-50.75
X158.0Y-52.75
X162.0Y-50.75
X162.0Y-52.75
T2
X101.99Y-85.91
X102.0Y-57.99
X102.0Y-62.2
X102.0Y-90.1
X102.65Y-51.1
X103.23Y-88.0
X103.35Y-60.1
X103.51Y-115.78
X106.05Y-51.1
X106.05Y-53.18
X107.68Y-119.192
X107.69Y-120.642
X107.9Y-128.0
X110.01Y-126.63
X112.1Y-127.99
X113.448Y-82.73
X113.45Y-54.94
X113.45Y-57.31
X113.458Y-85.21
X120.07Y-68.86
X121.71Y-53.75
X121.71Y-56.54
X123.821Y-82.375
X123.827Y-80.023
X124.502Y-93.31
X124.59Y-84.399
X124.7Y-66.86
X126.01Y-56.35
X128.223Y-72.24
X128.89Y-67.54
X131.7Y-74.69
X133.184Y-72.987
X133.23Y-93.29
X133.238Y-86.939
X133.331Y-68.017
X133.854Y-54.15
X134.667Y-62.869
X135.02Y-51.734
X136.666Y-70.546
X137.08Y-71.891
X137.16Y-120.4
X137.51Y-59.08
X137.7Y-82.838
X137.72Y-87.248
X138.24Y-61.418
X138.24Y-63.92
X139.574Y-72.616
X140.02Y-82.745
X140.59Y-89.22
X140.59Y-90.22
X140.59Y-91.22
X140.606Y-88.22
X140.78Y-67.29
X141.02Y-80.844
X141.02Y-82.745
X141.296Y-63.184
X142.02Y-80.844
X142.02Y-82.745
X142.8Y-70.34
X142.832Y-60.568
X143.02Y-80.844
X143.02Y-82.745
X143.85Y-119.92
X143.86Y-60.57
X146.05Y-122.9
X146.05Y-125.59
X148.5Y-72.812
X149.5Y-72.8
X150.2Y-50.861
X150.555Y-66.54
X150.628Y-62.8
X152.059Y-50.861
X153.2Y-58.98
X153.852Y-52.322
X156.759Y-65.346
X159.101Y-54.985
X159.44Y-70.74
X159.61Y-58.99
X159.61Y-60.86
X160.19Y-68.629
X160.7Y-70.75
X160.747Y-55.06
X161.71Y-63.51
X161.97Y-70.74
X163.24Y-70.73
X164.52Y-70.73
X165.53Y-59.94
X167.05Y-70.73
X167.164Y-61.72
X167.87Y-60.547
X168.59Y-63.963
X171.65Y-74.82
X172.47Y-75.45
X173.42Y-64.75
X173.48Y-86.79
X173.48Y-88.14
X173.48Y-91.88
X173.49Y-84.257
X173.49Y-85.43
X179.465Y-55.49
X180.915Y-55.49
X181.456Y-91.24
X181.537Y-85.09
X181.537Y-86.31
X182.31Y-63.64
X184.371Y-97.97
X185.385Y-102.85
X185.87Y-62.14
X185.904Y-100.328
X186.05Y-98.682
X186.434Y-94.234
X186.824Y-65.136
X186.945Y-101.38
X186.96Y-106.04
X187.39Y-90.74
X188.39Y-89.48
X188.39Y-90.74
X188.81Y-94.29
X189.21Y-106.04
X190.03Y-52.025
X190.03Y-53.475
X190.046Y-99.489
X190.052Y-100.489
X190.058Y-98.489
X190.1Y-96.49
X190.1Y-97.49
X190.1Y-95.465
X190.46Y-60.68
X190.771Y-57.48
X190.771Y-67.41
X192.221Y-57.48
X192.221Y-67.41
X192.31Y-93.31
X192.815Y-106.02
X192.815Y-109.85
X192.815Y-111.12
X193.48Y-82.84
X193.48Y-87.24
X193.541Y-113.92
X194.375Y-105.98
X195.11Y-85.03
X195.35Y-65.694
X195.78Y-103.53
X195.84Y-104.848
X196.79Y-63.184
X200.29Y-106.937
X200.304Y-51.73
X201.12Y-64.8
X201.341Y-105.779
X203.38Y-57.34
X204.57Y-60.96
X204.91Y-124.45
X205.02Y-104.356
X205.79Y-123.745
X205.89Y-61.87
X207.049Y-88.07
X207.093Y-103.607
X207.25Y-60.96
X208.85Y-77.896
X208.85Y-79.797
X214.73Y-58.06
X215.87Y-128.0
X216.65Y-60.0
X217.84Y-91.305
X217.84Y-92.81
X218.0Y-57.89
X218.0Y-62.1
X218.01Y-126.64
T4
X210.873Y-117.89
X213.032Y-117.89
X215.191Y-117.89
X217.35Y-117.89
T5
X123.508Y-52.862
X126.008Y-52.862
X128.508Y-52.862
T6
X144.28Y-58.63
X146.78Y-58.63
T7
X104.5Y-63.4
X104.5Y-91.4
X107.0Y-63.4
X107.0Y-91.4
X109.5Y-63.4
X109.5Y-91.4
X116.05Y-117.0
X118.55Y-117.0
X121.05Y-117.0
X137.75Y-52.75
X142.25Y-52.75
X157.5Y-117.0
X160.0Y-117.0
X162.5Y-117.0
X177.75Y-52.75
X182.25Y-52.75
X192.5Y-117.0
X192.75Y-52.75
X195.0Y-117.0
X197.25Y-52.75
X197.5Y-117.0
X210.5Y-75.972
X210.5Y-101.6
X213.0Y-75.972
X213.0Y-101.6
X215.5Y-75.972
X215.5Y-101.6
T8
X136.4Y-55.25
X143.6Y-55.25
X176.4Y-55.25
X183.6Y-55.25
X191.4Y-55.25
X198.6Y-55.25
T10
X116.0Y-67.5
X116.0Y-112.5
X204.0Y-67.5
X204.0Y-112.5
T3
G00X155.67Y-51.77
M15
G01X155.67Y-50.97
M16
G05
G00X155.67Y-56.12
M15
G01X155.67Y-55.02
M16
G05
G00X164.33Y-51.77
M15
G01X164.33Y-50.97
M16
G05
G00X164.33Y-56.12
M15
G01X164.33Y-55.02
M16
G05
T9
G00X102.6Y-70.25
M15
G01X102.6Y-70.55
M16
G05
G00X102.6Y-98.25
M15
G01X102.6Y-98.55
M16
G05
G00X111.4Y-70.25
M15
G01X111.4Y-70.55
M16
G05
G00X111.4Y-98.25
M15
G01X111.4Y-98.55
M16
G05
G00X114.15Y-123.85
M15
G01X114.15Y-124.15
M16
G05
G00X122.95Y-123.85
M15
G01X122.95Y-124.15
M16
G05
G00X155.6Y-123.85
M15
G01X155.6Y-124.15
M16
G05
G00X164.4Y-123.85
M15
G01X164.4Y-124.15
M16
G05
G00X190.6Y-123.85
M15
G01X190.6Y-124.15
M16
G05
G00X199.4Y-123.85
M15
G01X199.4Y-124.15
M16
G05
G00X208.6Y-82.822
M15
G01X208.6Y-83.122
M16
G05
G00X208.6Y-108.45
M15
G01X208.6Y-108.75
M16
G05
G00X217.4Y-82.822
M15
G01X217.4Y-83.122
M16
G05
G00X217.4Y-108.45
M15
G01X217.4Y-108.75
M16
G05
M30
