%TF.GenerationSoftware,KiCad,Pcbnew,9.0.5*%
%TF.CreationDate,2026-02-23T00:46:43+01:00*%
%TF.ProjectId,Spikeling_v3.2,5370696b-656c-4696-9e67-5f76332e322e,rev?*%
%TF.SameCoordinates,Original*%
%TF.FileFunction,Other,User*%
%FSLAX46Y46*%
G04 Gerber Fmt 4.6, Leading zero omitted, Abs format (unit mm)*
G04 Created by KiCad (PCBNEW 9.0.5) date 2026-02-23 00:46:43*
%MOMM*%
%LPD*%
G01*
G04 APERTURE LIST*
%ADD10C,0.000000*%
G04 APERTURE END LIST*
D10*
%TO.C,U13*%
G36*
X200278226Y-102273361D02*
G01*
X200278226Y-102319283D01*
X200245754Y-102351755D01*
X200199832Y-102351755D01*
X200167360Y-102319283D01*
X200167360Y-102273361D01*
X200199832Y-102240889D01*
X200245754Y-102240889D01*
X200278226Y-102273361D01*
G37*
%TO.C,TV1*%
G36*
X158670268Y-58439071D02*
G01*
X158670268Y-58484993D01*
X158637796Y-58517465D01*
X158591874Y-58517465D01*
X158559402Y-58484993D01*
X158559402Y-58439071D01*
X158591874Y-58406599D01*
X158637796Y-58406599D01*
X158670268Y-58439071D01*
G37*
%TO.C,L2*%
G36*
X190477414Y-62923794D02*
G01*
X190477414Y-62969716D01*
X190444942Y-63002188D01*
X190399020Y-63002188D01*
X190366548Y-62969716D01*
X190366548Y-62923794D01*
X190399020Y-62891322D01*
X190444942Y-62891322D01*
X190477414Y-62923794D01*
G37*
%TO.C,VR4*%
G36*
X165705433Y-116127039D02*
G01*
X165705433Y-116172961D01*
X165672961Y-116205433D01*
X165627039Y-116205433D01*
X165594567Y-116172961D01*
X165594567Y-116127039D01*
X165627039Y-116094567D01*
X165672961Y-116094567D01*
X165705433Y-116127039D01*
G37*
%TO.C,U12*%
G36*
X129136829Y-83871539D02*
G01*
X129136829Y-83917461D01*
X129104357Y-83949933D01*
X129058435Y-83949933D01*
X129025963Y-83917461D01*
X129025963Y-83871539D01*
X129058435Y-83839067D01*
X129104357Y-83839067D01*
X129136829Y-83871539D01*
G37*
%TO.C,J4*%
G36*
X96955433Y-88477039D02*
G01*
X96955433Y-88522961D01*
X96922961Y-88555433D01*
X96877039Y-88555433D01*
X96844567Y-88522961D01*
X96844567Y-88477039D01*
X96877039Y-88444567D01*
X96922961Y-88444567D01*
X96955433Y-88477039D01*
G37*
%TO.C,D4*%
G36*
X146255433Y-122452039D02*
G01*
X146255433Y-122497961D01*
X146222961Y-122530433D01*
X146177039Y-122530433D01*
X146144567Y-122497961D01*
X146144567Y-122452039D01*
X146177039Y-122419567D01*
X146222961Y-122419567D01*
X146255433Y-122452039D01*
G37*
%TO.C,U5*%
G36*
X146389913Y-64623768D02*
G01*
X146389913Y-64669690D01*
X146357441Y-64702162D01*
X146311519Y-64702162D01*
X146279047Y-64669690D01*
X146279047Y-64623768D01*
X146311519Y-64591296D01*
X146357441Y-64591296D01*
X146389913Y-64623768D01*
G37*
%TO.C,J5*%
G36*
X218555433Y-133077039D02*
G01*
X218555433Y-133122961D01*
X218522961Y-133155433D01*
X218477039Y-133155433D01*
X218444567Y-133122961D01*
X218444567Y-133077039D01*
X218477039Y-133044567D01*
X218522961Y-133044567D01*
X218555433Y-133077039D01*
G37*
%TO.C,U10*%
G36*
X169125028Y-100615249D02*
G01*
X169125028Y-100661171D01*
X169092556Y-100693643D01*
X169046634Y-100693643D01*
X169014162Y-100661171D01*
X169014162Y-100615249D01*
X169046634Y-100582777D01*
X169092556Y-100582777D01*
X169125028Y-100615249D01*
G37*
%TO.C,VR1*%
G36*
X124255433Y-116127039D02*
G01*
X124255433Y-116172961D01*
X124222961Y-116205433D01*
X124177039Y-116205433D01*
X124144567Y-116172961D01*
X124144567Y-116127039D01*
X124177039Y-116094567D01*
X124222961Y-116094567D01*
X124255433Y-116127039D01*
G37*
%TO.C,SW3*%
G36*
X121686669Y-53865821D02*
G01*
X121686669Y-53911743D01*
X121654197Y-53944215D01*
X121608275Y-53944215D01*
X121575803Y-53911743D01*
X121575803Y-53865821D01*
X121608275Y-53833349D01*
X121654197Y-53833349D01*
X121686669Y-53865821D01*
G37*
%TO.C,Q1*%
G36*
X151996913Y-63457768D02*
G01*
X151996913Y-63503690D01*
X151964441Y-63536162D01*
X151918519Y-63536162D01*
X151886047Y-63503690D01*
X151886047Y-63457768D01*
X151918519Y-63425296D01*
X151964441Y-63425296D01*
X151996913Y-63457768D01*
G37*
%TO.C,VR7*%
G36*
X218705433Y-100727039D02*
G01*
X218705433Y-100772961D01*
X218672961Y-100805433D01*
X218627039Y-100805433D01*
X218594567Y-100772961D01*
X218594567Y-100727039D01*
X218627039Y-100694567D01*
X218672961Y-100694567D01*
X218705433Y-100727039D01*
G37*
%TO.C,U2*%
G36*
X168325433Y-53012039D02*
G01*
X168325433Y-53057961D01*
X168292961Y-53090433D01*
X168247039Y-53090433D01*
X168214567Y-53057961D01*
X168214567Y-53012039D01*
X168247039Y-52979567D01*
X168292961Y-52979567D01*
X168325433Y-53012039D01*
G37*
%TO.C,U3*%
G36*
X169995463Y-58612609D02*
G01*
X169995463Y-58658531D01*
X169962991Y-58691003D01*
X169917069Y-58691003D01*
X169884597Y-58658531D01*
X169884597Y-58612609D01*
X169917069Y-58580137D01*
X169962991Y-58580137D01*
X169995463Y-58612609D01*
G37*
%TO.C,U11*%
G36*
X134815580Y-66266304D02*
G01*
X134815580Y-66312226D01*
X134783108Y-66344698D01*
X134737186Y-66344698D01*
X134704714Y-66312226D01*
X134704714Y-66266304D01*
X134737186Y-66233832D01*
X134783108Y-66233832D01*
X134815580Y-66266304D01*
G37*
%TO.C,J6*%
G36*
X223155433Y-59477039D02*
G01*
X223155433Y-59522961D01*
X223122961Y-59555433D01*
X223077039Y-59555433D01*
X223044567Y-59522961D01*
X223044567Y-59477039D01*
X223077039Y-59444567D01*
X223122961Y-59444567D01*
X223155433Y-59477039D01*
G37*
%TO.C,U4*%
G36*
X136965433Y-117127039D02*
G01*
X136965433Y-117172961D01*
X136932961Y-117205433D01*
X136887039Y-117205433D01*
X136854567Y-117172961D01*
X136854567Y-117127039D01*
X136887039Y-117094567D01*
X136932961Y-117094567D01*
X136965433Y-117127039D01*
G37*
%TO.C,J3*%
G36*
X96955433Y-60577039D02*
G01*
X96955433Y-60622961D01*
X96922961Y-60655433D01*
X96877039Y-60655433D01*
X96844567Y-60622961D01*
X96844567Y-60577039D01*
X96877039Y-60544567D01*
X96922961Y-60544567D01*
X96955433Y-60577039D01*
G37*
%TO.C,SW4*%
G36*
X183705433Y-50227039D02*
G01*
X183705433Y-50272961D01*
X183672961Y-50305433D01*
X183627039Y-50305433D01*
X183594567Y-50272961D01*
X183594567Y-50227039D01*
X183627039Y-50194567D01*
X183672961Y-50194567D01*
X183705433Y-50227039D01*
G37*
%TO.C,SW1*%
G36*
X143705433Y-50227039D02*
G01*
X143705433Y-50272961D01*
X143672961Y-50305433D01*
X143627039Y-50305433D01*
X143594567Y-50272961D01*
X143594567Y-50227039D01*
X143627039Y-50194567D01*
X143672961Y-50194567D01*
X143705433Y-50227039D01*
G37*
%TO.C,L1*%
G36*
X172995259Y-61740359D02*
G01*
X172995259Y-61786281D01*
X172962787Y-61818753D01*
X172916865Y-61818753D01*
X172884393Y-61786281D01*
X172884393Y-61740359D01*
X172916865Y-61707887D01*
X172962787Y-61707887D01*
X172995259Y-61740359D01*
G37*
%TO.C,U1*%
G36*
X158964888Y-64625704D02*
G01*
X158964888Y-64671626D01*
X158932416Y-64704098D01*
X158886494Y-64704098D01*
X158854022Y-64671626D01*
X158854022Y-64625704D01*
X158886494Y-64593232D01*
X158932416Y-64593232D01*
X158964888Y-64625704D01*
G37*
%TO.C,VR2*%
G36*
X112705433Y-62527039D02*
G01*
X112705433Y-62572961D01*
X112672961Y-62605433D01*
X112627039Y-62605433D01*
X112594567Y-62572961D01*
X112594567Y-62527039D01*
X112627039Y-62494567D01*
X112672961Y-62494567D01*
X112705433Y-62527039D01*
G37*
%TO.C,VR6*%
G36*
X218705433Y-75099039D02*
G01*
X218705433Y-75144961D01*
X218672961Y-75177433D01*
X218627039Y-75177433D01*
X218594567Y-75144961D01*
X218594567Y-75099039D01*
X218627039Y-75066567D01*
X218672961Y-75066567D01*
X218705433Y-75099039D01*
G37*
%TO.C,U14*%
G36*
X184946241Y-83873560D02*
G01*
X184946241Y-83919482D01*
X184913769Y-83951954D01*
X184867847Y-83951954D01*
X184835375Y-83919482D01*
X184835375Y-83873560D01*
X184867847Y-83841088D01*
X184913769Y-83841088D01*
X184946241Y-83873560D01*
G37*
%TO.C,VR5*%
G36*
X200705433Y-116127039D02*
G01*
X200705433Y-116172961D01*
X200672961Y-116205433D01*
X200627039Y-116205433D01*
X200594567Y-116172961D01*
X200594567Y-116127039D01*
X200627039Y-116094567D01*
X200672961Y-116094567D01*
X200705433Y-116127039D01*
G37*
%TO.C,D8*%
G36*
X175805433Y-61877039D02*
G01*
X175805433Y-61922961D01*
X175772961Y-61955433D01*
X175727039Y-61955433D01*
X175694567Y-61922961D01*
X175694567Y-61877039D01*
X175727039Y-61844567D01*
X175772961Y-61844567D01*
X175805433Y-61877039D01*
G37*
%TO.C,U8*%
G36*
X132468436Y-68800497D02*
G01*
X132496026Y-68828087D01*
X132510958Y-68864135D01*
X132510958Y-68903153D01*
X132496026Y-68939201D01*
X132468436Y-68966791D01*
X132432388Y-68981723D01*
X132393370Y-68981723D01*
X132357322Y-68966791D01*
X132329732Y-68939201D01*
X132314800Y-68903153D01*
X132314800Y-68864135D01*
X132329732Y-68828087D01*
X132357322Y-68800497D01*
X132393370Y-68785565D01*
X132432388Y-68785565D01*
X132468436Y-68800497D01*
G37*
%TO.C,SW5*%
G36*
X198705433Y-50227039D02*
G01*
X198705433Y-50272961D01*
X198672961Y-50305433D01*
X198627039Y-50305433D01*
X198594567Y-50272961D01*
X198594567Y-50227039D01*
X198627039Y-50194567D01*
X198672961Y-50194567D01*
X198705433Y-50227039D01*
G37*
%TO.C,VR3*%
G36*
X112705433Y-90527039D02*
G01*
X112705433Y-90572961D01*
X112672961Y-90605433D01*
X112627039Y-90605433D01*
X112594567Y-90572961D01*
X112594567Y-90527039D01*
X112627039Y-90494567D01*
X112672961Y-90494567D01*
X112705433Y-90527039D01*
G37*
%TO.C,L5*%
G36*
X142878080Y-66016304D02*
G01*
X142878080Y-66062226D01*
X142845608Y-66094698D01*
X142799686Y-66094698D01*
X142767214Y-66062226D01*
X142767214Y-66016304D01*
X142799686Y-65983832D01*
X142845608Y-65983832D01*
X142878080Y-66016304D01*
G37*
%TO.C,J1*%
G36*
X110555433Y-133077039D02*
G01*
X110555433Y-133122961D01*
X110522961Y-133155433D01*
X110477039Y-133155433D01*
X110444567Y-133122961D01*
X110444567Y-133077039D01*
X110477039Y-133044567D01*
X110522961Y-133044567D01*
X110555433Y-133077039D01*
G37*
%TD*%
M02*
