%TF.GenerationSoftware,KiCad,Pcbnew,10.0.1*%
%TF.CreationDate,2026-06-24T19:03:45+02:00*%
%TF.ProjectId,Spikeling_v3.2,5370696b-656c-4696-9e67-5f76332e322e,rev?*%
%TF.SameCoordinates,Original*%
%TF.FileFunction,AssemblyDrawing,Bot*%
%FSLAX46Y46*%
G04 Gerber Fmt 4.6, Leading zero omitted, Abs format (unit mm)*
G04 Created by KiCad (PCBNEW 10.0.1) date 2026-06-24 19:03:45*
%MOMM*%
%LPD*%
G01*
G04 APERTURE LIST*
%ADD10C,0.150000*%
%ADD11C,0.075000*%
%ADD12C,0.045000*%
%ADD13C,0.100000*%
G04 APERTURE END LIST*
D10*
X215214285Y-122953042D02*
X215214285Y-121953042D01*
X215214285Y-121953042D02*
X214976190Y-121953042D01*
X214976190Y-121953042D02*
X214833333Y-122000661D01*
X214833333Y-122000661D02*
X214738095Y-122095899D01*
X214738095Y-122095899D02*
X214690476Y-122191137D01*
X214690476Y-122191137D02*
X214642857Y-122381613D01*
X214642857Y-122381613D02*
X214642857Y-122524470D01*
X214642857Y-122524470D02*
X214690476Y-122714946D01*
X214690476Y-122714946D02*
X214738095Y-122810184D01*
X214738095Y-122810184D02*
X214833333Y-122905423D01*
X214833333Y-122905423D02*
X214976190Y-122953042D01*
X214976190Y-122953042D02*
X215214285Y-122953042D01*
X213690476Y-122953042D02*
X214261904Y-122953042D01*
X213976190Y-122953042D02*
X213976190Y-121953042D01*
X213976190Y-121953042D02*
X214071428Y-122095899D01*
X214071428Y-122095899D02*
X214166666Y-122191137D01*
X214166666Y-122191137D02*
X214261904Y-122238756D01*
X212785714Y-121953042D02*
X213261904Y-121953042D01*
X213261904Y-121953042D02*
X213309523Y-122429232D01*
X213309523Y-122429232D02*
X213261904Y-122381613D01*
X213261904Y-122381613D02*
X213166666Y-122333994D01*
X213166666Y-122333994D02*
X212928571Y-122333994D01*
X212928571Y-122333994D02*
X212833333Y-122381613D01*
X212833333Y-122381613D02*
X212785714Y-122429232D01*
X212785714Y-122429232D02*
X212738095Y-122524470D01*
X212738095Y-122524470D02*
X212738095Y-122762565D01*
X212738095Y-122762565D02*
X212785714Y-122857803D01*
X212785714Y-122857803D02*
X212833333Y-122905423D01*
X212833333Y-122905423D02*
X212928571Y-122953042D01*
X212928571Y-122953042D02*
X213166666Y-122953042D01*
X213166666Y-122953042D02*
X213261904Y-122905423D01*
X213261904Y-122905423D02*
X213309523Y-122857803D01*
D11*
X215511904Y-121525632D02*
X215749999Y-121525632D01*
X215749999Y-121525632D02*
X215749999Y-121025632D01*
X215345237Y-121263727D02*
X215178570Y-121263727D01*
X215107142Y-121525632D02*
X215345237Y-121525632D01*
X215345237Y-121525632D02*
X215345237Y-121025632D01*
X215345237Y-121025632D02*
X215107142Y-121025632D01*
X214892856Y-121525632D02*
X214892856Y-121025632D01*
X214892856Y-121025632D02*
X214773808Y-121025632D01*
X214773808Y-121025632D02*
X214702380Y-121049442D01*
X214702380Y-121049442D02*
X214654761Y-121097061D01*
X214654761Y-121097061D02*
X214630951Y-121144680D01*
X214630951Y-121144680D02*
X214607142Y-121239918D01*
X214607142Y-121239918D02*
X214607142Y-121311346D01*
X214607142Y-121311346D02*
X214630951Y-121406584D01*
X214630951Y-121406584D02*
X214654761Y-121454203D01*
X214654761Y-121454203D02*
X214702380Y-121501823D01*
X214702380Y-121501823D02*
X214773808Y-121525632D01*
X214773808Y-121525632D02*
X214892856Y-121525632D01*
X214511904Y-121573251D02*
X214130951Y-121573251D01*
X213845237Y-121263727D02*
X213773809Y-121287537D01*
X213773809Y-121287537D02*
X213749999Y-121311346D01*
X213749999Y-121311346D02*
X213726190Y-121358965D01*
X213726190Y-121358965D02*
X213726190Y-121430394D01*
X213726190Y-121430394D02*
X213749999Y-121478013D01*
X213749999Y-121478013D02*
X213773809Y-121501823D01*
X213773809Y-121501823D02*
X213821428Y-121525632D01*
X213821428Y-121525632D02*
X214011904Y-121525632D01*
X214011904Y-121525632D02*
X214011904Y-121025632D01*
X214011904Y-121025632D02*
X213845237Y-121025632D01*
X213845237Y-121025632D02*
X213797618Y-121049442D01*
X213797618Y-121049442D02*
X213773809Y-121073251D01*
X213773809Y-121073251D02*
X213749999Y-121120870D01*
X213749999Y-121120870D02*
X213749999Y-121168489D01*
X213749999Y-121168489D02*
X213773809Y-121216108D01*
X213773809Y-121216108D02*
X213797618Y-121239918D01*
X213797618Y-121239918D02*
X213845237Y-121263727D01*
X213845237Y-121263727D02*
X214011904Y-121263727D01*
X213249999Y-121049442D02*
X213297618Y-121025632D01*
X213297618Y-121025632D02*
X213369047Y-121025632D01*
X213369047Y-121025632D02*
X213440475Y-121049442D01*
X213440475Y-121049442D02*
X213488094Y-121097061D01*
X213488094Y-121097061D02*
X213511904Y-121144680D01*
X213511904Y-121144680D02*
X213535713Y-121239918D01*
X213535713Y-121239918D02*
X213535713Y-121311346D01*
X213535713Y-121311346D02*
X213511904Y-121406584D01*
X213511904Y-121406584D02*
X213488094Y-121454203D01*
X213488094Y-121454203D02*
X213440475Y-121501823D01*
X213440475Y-121501823D02*
X213369047Y-121525632D01*
X213369047Y-121525632D02*
X213321428Y-121525632D01*
X213321428Y-121525632D02*
X213249999Y-121501823D01*
X213249999Y-121501823D02*
X213226190Y-121478013D01*
X213226190Y-121478013D02*
X213226190Y-121311346D01*
X213226190Y-121311346D02*
X213321428Y-121311346D01*
X213011904Y-121525632D02*
X213011904Y-121025632D01*
X212726190Y-121525632D02*
X212940475Y-121239918D01*
X212726190Y-121025632D02*
X213011904Y-121311346D01*
X212226190Y-121525632D02*
X212392856Y-121287537D01*
X212511904Y-121525632D02*
X212511904Y-121025632D01*
X212511904Y-121025632D02*
X212321428Y-121025632D01*
X212321428Y-121025632D02*
X212273809Y-121049442D01*
X212273809Y-121049442D02*
X212249999Y-121073251D01*
X212249999Y-121073251D02*
X212226190Y-121120870D01*
X212226190Y-121120870D02*
X212226190Y-121192299D01*
X212226190Y-121192299D02*
X212249999Y-121239918D01*
X212249999Y-121239918D02*
X212273809Y-121263727D01*
X212273809Y-121263727D02*
X212321428Y-121287537D01*
X212321428Y-121287537D02*
X212511904Y-121287537D01*
D12*
X214364285Y-124434668D02*
X214364285Y-124134668D01*
X214364285Y-124134668D02*
X214292856Y-124134668D01*
X214292856Y-124134668D02*
X214249999Y-124148954D01*
X214249999Y-124148954D02*
X214221428Y-124177525D01*
X214221428Y-124177525D02*
X214207142Y-124206097D01*
X214207142Y-124206097D02*
X214192856Y-124263240D01*
X214192856Y-124263240D02*
X214192856Y-124306097D01*
X214192856Y-124306097D02*
X214207142Y-124363240D01*
X214207142Y-124363240D02*
X214221428Y-124391811D01*
X214221428Y-124391811D02*
X214249999Y-124420383D01*
X214249999Y-124420383D02*
X214292856Y-124434668D01*
X214292856Y-124434668D02*
X214364285Y-124434668D01*
X213907142Y-124434668D02*
X214078571Y-124434668D01*
X213992856Y-124434668D02*
X213992856Y-124134668D01*
X213992856Y-124134668D02*
X214021428Y-124177525D01*
X214021428Y-124177525D02*
X214049999Y-124206097D01*
X214049999Y-124206097D02*
X214078571Y-124220383D01*
X213635714Y-124134668D02*
X213778571Y-124134668D01*
X213778571Y-124134668D02*
X213792857Y-124277525D01*
X213792857Y-124277525D02*
X213778571Y-124263240D01*
X213778571Y-124263240D02*
X213750000Y-124248954D01*
X213750000Y-124248954D02*
X213678571Y-124248954D01*
X213678571Y-124248954D02*
X213650000Y-124263240D01*
X213650000Y-124263240D02*
X213635714Y-124277525D01*
X213635714Y-124277525D02*
X213621428Y-124306097D01*
X213621428Y-124306097D02*
X213621428Y-124377525D01*
X213621428Y-124377525D02*
X213635714Y-124406097D01*
X213635714Y-124406097D02*
X213650000Y-124420383D01*
X213650000Y-124420383D02*
X213678571Y-124434668D01*
X213678571Y-124434668D02*
X213750000Y-124434668D01*
X213750000Y-124434668D02*
X213778571Y-124420383D01*
X213778571Y-124420383D02*
X213792857Y-124406097D01*
D10*
X126064763Y-63221009D02*
X125921906Y-63268628D01*
X125921906Y-63268628D02*
X125874287Y-63316247D01*
X125874287Y-63316247D02*
X125826668Y-63411485D01*
X125826668Y-63411485D02*
X125826668Y-63554342D01*
X125826668Y-63554342D02*
X125874287Y-63649580D01*
X125874287Y-63649580D02*
X125921906Y-63697200D01*
X125921906Y-63697200D02*
X126017144Y-63744819D01*
X126017144Y-63744819D02*
X126398096Y-63744819D01*
X126398096Y-63744819D02*
X126398096Y-62744819D01*
X126398096Y-62744819D02*
X126064763Y-62744819D01*
X126064763Y-62744819D02*
X125969525Y-62792438D01*
X125969525Y-62792438D02*
X125921906Y-62840057D01*
X125921906Y-62840057D02*
X125874287Y-62935295D01*
X125874287Y-62935295D02*
X125874287Y-63030533D01*
X125874287Y-63030533D02*
X125921906Y-63125771D01*
X125921906Y-63125771D02*
X125969525Y-63173390D01*
X125969525Y-63173390D02*
X126064763Y-63221009D01*
X126064763Y-63221009D02*
X126398096Y-63221009D01*
X124969525Y-63744819D02*
X124969525Y-63221009D01*
X124969525Y-63221009D02*
X125017144Y-63125771D01*
X125017144Y-63125771D02*
X125112382Y-63078152D01*
X125112382Y-63078152D02*
X125302858Y-63078152D01*
X125302858Y-63078152D02*
X125398096Y-63125771D01*
X124969525Y-63697200D02*
X125064763Y-63744819D01*
X125064763Y-63744819D02*
X125302858Y-63744819D01*
X125302858Y-63744819D02*
X125398096Y-63697200D01*
X125398096Y-63697200D02*
X125445715Y-63601961D01*
X125445715Y-63601961D02*
X125445715Y-63506723D01*
X125445715Y-63506723D02*
X125398096Y-63411485D01*
X125398096Y-63411485D02*
X125302858Y-63363866D01*
X125302858Y-63363866D02*
X125064763Y-63363866D01*
X125064763Y-63363866D02*
X124969525Y-63316247D01*
X124636191Y-63078152D02*
X124255239Y-63078152D01*
X124493334Y-62744819D02*
X124493334Y-63601961D01*
X124493334Y-63601961D02*
X124445715Y-63697200D01*
X124445715Y-63697200D02*
X124350477Y-63744819D01*
X124350477Y-63744819D02*
X124255239Y-63744819D01*
X124064762Y-63078152D02*
X123683810Y-63078152D01*
X123921905Y-62744819D02*
X123921905Y-63601961D01*
X123921905Y-63601961D02*
X123874286Y-63697200D01*
X123874286Y-63697200D02*
X123779048Y-63744819D01*
X123779048Y-63744819D02*
X123683810Y-63744819D01*
X122969524Y-63697200D02*
X123064762Y-63744819D01*
X123064762Y-63744819D02*
X123255238Y-63744819D01*
X123255238Y-63744819D02*
X123350476Y-63697200D01*
X123350476Y-63697200D02*
X123398095Y-63601961D01*
X123398095Y-63601961D02*
X123398095Y-63221009D01*
X123398095Y-63221009D02*
X123350476Y-63125771D01*
X123350476Y-63125771D02*
X123255238Y-63078152D01*
X123255238Y-63078152D02*
X123064762Y-63078152D01*
X123064762Y-63078152D02*
X122969524Y-63125771D01*
X122969524Y-63125771D02*
X122921905Y-63221009D01*
X122921905Y-63221009D02*
X122921905Y-63316247D01*
X122921905Y-63316247D02*
X123398095Y-63411485D01*
X122493333Y-63744819D02*
X122493333Y-63078152D01*
X122493333Y-63268628D02*
X122445714Y-63173390D01*
X122445714Y-63173390D02*
X122398095Y-63125771D01*
X122398095Y-63125771D02*
X122302857Y-63078152D01*
X122302857Y-63078152D02*
X122207619Y-63078152D01*
X121969523Y-63078152D02*
X121731428Y-63744819D01*
X121493333Y-63078152D02*
X121731428Y-63744819D01*
X121731428Y-63744819D02*
X121826666Y-63982914D01*
X121826666Y-63982914D02*
X121874285Y-64030533D01*
X121874285Y-64030533D02*
X121969523Y-64078152D01*
X121350476Y-63840057D02*
X120588571Y-63840057D01*
X119779047Y-63649580D02*
X119826666Y-63697200D01*
X119826666Y-63697200D02*
X119969523Y-63744819D01*
X119969523Y-63744819D02*
X120064761Y-63744819D01*
X120064761Y-63744819D02*
X120207618Y-63697200D01*
X120207618Y-63697200D02*
X120302856Y-63601961D01*
X120302856Y-63601961D02*
X120350475Y-63506723D01*
X120350475Y-63506723D02*
X120398094Y-63316247D01*
X120398094Y-63316247D02*
X120398094Y-63173390D01*
X120398094Y-63173390D02*
X120350475Y-62982914D01*
X120350475Y-62982914D02*
X120302856Y-62887676D01*
X120302856Y-62887676D02*
X120207618Y-62792438D01*
X120207618Y-62792438D02*
X120064761Y-62744819D01*
X120064761Y-62744819D02*
X119969523Y-62744819D01*
X119969523Y-62744819D02*
X119826666Y-62792438D01*
X119826666Y-62792438D02*
X119779047Y-62840057D01*
X118969523Y-63697200D02*
X119064761Y-63744819D01*
X119064761Y-63744819D02*
X119255237Y-63744819D01*
X119255237Y-63744819D02*
X119350475Y-63697200D01*
X119350475Y-63697200D02*
X119398094Y-63601961D01*
X119398094Y-63601961D02*
X119398094Y-63221009D01*
X119398094Y-63221009D02*
X119350475Y-63125771D01*
X119350475Y-63125771D02*
X119255237Y-63078152D01*
X119255237Y-63078152D02*
X119064761Y-63078152D01*
X119064761Y-63078152D02*
X118969523Y-63125771D01*
X118969523Y-63125771D02*
X118921904Y-63221009D01*
X118921904Y-63221009D02*
X118921904Y-63316247D01*
X118921904Y-63316247D02*
X119398094Y-63411485D01*
X118350475Y-63744819D02*
X118445713Y-63697200D01*
X118445713Y-63697200D02*
X118493332Y-63601961D01*
X118493332Y-63601961D02*
X118493332Y-62744819D01*
X117826665Y-63744819D02*
X117921903Y-63697200D01*
X117921903Y-63697200D02*
X117969522Y-63601961D01*
X117969522Y-63601961D02*
X117969522Y-62744819D01*
X122945714Y-61321009D02*
X122802857Y-61368628D01*
X122802857Y-61368628D02*
X122755238Y-61416247D01*
X122755238Y-61416247D02*
X122707619Y-61511485D01*
X122707619Y-61511485D02*
X122707619Y-61654342D01*
X122707619Y-61654342D02*
X122755238Y-61749580D01*
X122755238Y-61749580D02*
X122802857Y-61797200D01*
X122802857Y-61797200D02*
X122898095Y-61844819D01*
X122898095Y-61844819D02*
X123279047Y-61844819D01*
X123279047Y-61844819D02*
X123279047Y-60844819D01*
X123279047Y-60844819D02*
X122945714Y-60844819D01*
X122945714Y-60844819D02*
X122850476Y-60892438D01*
X122850476Y-60892438D02*
X122802857Y-60940057D01*
X122802857Y-60940057D02*
X122755238Y-61035295D01*
X122755238Y-61035295D02*
X122755238Y-61130533D01*
X122755238Y-61130533D02*
X122802857Y-61225771D01*
X122802857Y-61225771D02*
X122850476Y-61273390D01*
X122850476Y-61273390D02*
X122945714Y-61321009D01*
X122945714Y-61321009D02*
X123279047Y-61321009D01*
X122421904Y-60844819D02*
X121850476Y-60844819D01*
X122136190Y-61844819D02*
X122136190Y-60844819D01*
X120993333Y-61844819D02*
X121564761Y-61844819D01*
X121279047Y-61844819D02*
X121279047Y-60844819D01*
X121279047Y-60844819D02*
X121374285Y-60987676D01*
X121374285Y-60987676D02*
X121469523Y-61082914D01*
X121469523Y-61082914D02*
X121564761Y-61130533D01*
X178003247Y-62256430D02*
X177812771Y-62256430D01*
X177812771Y-62256430D02*
X177717533Y-62304049D01*
X177717533Y-62304049D02*
X177622295Y-62399287D01*
X177622295Y-62399287D02*
X177574676Y-62589763D01*
X177574676Y-62589763D02*
X177574676Y-62923096D01*
X177574676Y-62923096D02*
X177622295Y-63113572D01*
X177622295Y-63113572D02*
X177717533Y-63208811D01*
X177717533Y-63208811D02*
X177812771Y-63256430D01*
X177812771Y-63256430D02*
X178003247Y-63256430D01*
X178003247Y-63256430D02*
X178098485Y-63208811D01*
X178098485Y-63208811D02*
X178193723Y-63113572D01*
X178193723Y-63113572D02*
X178241342Y-62923096D01*
X178241342Y-62923096D02*
X178241342Y-62589763D01*
X178241342Y-62589763D02*
X178193723Y-62399287D01*
X178193723Y-62399287D02*
X178098485Y-62304049D01*
X178098485Y-62304049D02*
X178003247Y-62256430D01*
X177193723Y-63208811D02*
X177098485Y-63256430D01*
X177098485Y-63256430D02*
X176908009Y-63256430D01*
X176908009Y-63256430D02*
X176812771Y-63208811D01*
X176812771Y-63208811D02*
X176765152Y-63113572D01*
X176765152Y-63113572D02*
X176765152Y-63065953D01*
X176765152Y-63065953D02*
X176812771Y-62970715D01*
X176812771Y-62970715D02*
X176908009Y-62923096D01*
X176908009Y-62923096D02*
X177050866Y-62923096D01*
X177050866Y-62923096D02*
X177146104Y-62875477D01*
X177146104Y-62875477D02*
X177193723Y-62780239D01*
X177193723Y-62780239D02*
X177193723Y-62732620D01*
X177193723Y-62732620D02*
X177146104Y-62637382D01*
X177146104Y-62637382D02*
X177050866Y-62589763D01*
X177050866Y-62589763D02*
X176908009Y-62589763D01*
X176908009Y-62589763D02*
X176812771Y-62637382D01*
X175908009Y-63208811D02*
X176003247Y-63256430D01*
X176003247Y-63256430D02*
X176193723Y-63256430D01*
X176193723Y-63256430D02*
X176288961Y-63208811D01*
X176288961Y-63208811D02*
X176336580Y-63161191D01*
X176336580Y-63161191D02*
X176384199Y-63065953D01*
X176384199Y-63065953D02*
X176384199Y-62780239D01*
X176384199Y-62780239D02*
X176336580Y-62685001D01*
X176336580Y-62685001D02*
X176288961Y-62637382D01*
X176288961Y-62637382D02*
X176193723Y-62589763D01*
X176193723Y-62589763D02*
X176003247Y-62589763D01*
X176003247Y-62589763D02*
X175908009Y-62637382D01*
X175479437Y-63256430D02*
X175479437Y-62589763D01*
X175479437Y-62256430D02*
X175527056Y-62304049D01*
X175527056Y-62304049D02*
X175479437Y-62351668D01*
X175479437Y-62351668D02*
X175431818Y-62304049D01*
X175431818Y-62304049D02*
X175479437Y-62256430D01*
X175479437Y-62256430D02*
X175479437Y-62351668D01*
X174860390Y-63256430D02*
X174955628Y-63208811D01*
X174955628Y-63208811D02*
X175003247Y-63113572D01*
X175003247Y-63113572D02*
X175003247Y-62256430D01*
X174336580Y-63256430D02*
X174431818Y-63208811D01*
X174431818Y-63208811D02*
X174479437Y-63113572D01*
X174479437Y-63113572D02*
X174479437Y-62256430D01*
X173812770Y-63256430D02*
X173908008Y-63208811D01*
X173908008Y-63208811D02*
X173955627Y-63161191D01*
X173955627Y-63161191D02*
X174003246Y-63065953D01*
X174003246Y-63065953D02*
X174003246Y-62780239D01*
X174003246Y-62780239D02*
X173955627Y-62685001D01*
X173955627Y-62685001D02*
X173908008Y-62637382D01*
X173908008Y-62637382D02*
X173812770Y-62589763D01*
X173812770Y-62589763D02*
X173669913Y-62589763D01*
X173669913Y-62589763D02*
X173574675Y-62637382D01*
X173574675Y-62637382D02*
X173527056Y-62685001D01*
X173527056Y-62685001D02*
X173479437Y-62780239D01*
X173479437Y-62780239D02*
X173479437Y-63065953D01*
X173479437Y-63065953D02*
X173527056Y-63161191D01*
X173527056Y-63161191D02*
X173574675Y-63208811D01*
X173574675Y-63208811D02*
X173669913Y-63256430D01*
X173669913Y-63256430D02*
X173812770Y-63256430D01*
X173098484Y-63208811D02*
X173003246Y-63256430D01*
X173003246Y-63256430D02*
X172812770Y-63256430D01*
X172812770Y-63256430D02*
X172717532Y-63208811D01*
X172717532Y-63208811D02*
X172669913Y-63113572D01*
X172669913Y-63113572D02*
X172669913Y-63065953D01*
X172669913Y-63065953D02*
X172717532Y-62970715D01*
X172717532Y-62970715D02*
X172812770Y-62923096D01*
X172812770Y-62923096D02*
X172955627Y-62923096D01*
X172955627Y-62923096D02*
X173050865Y-62875477D01*
X173050865Y-62875477D02*
X173098484Y-62780239D01*
X173098484Y-62780239D02*
X173098484Y-62732620D01*
X173098484Y-62732620D02*
X173050865Y-62637382D01*
X173050865Y-62637382D02*
X172955627Y-62589763D01*
X172955627Y-62589763D02*
X172812770Y-62589763D01*
X172812770Y-62589763D02*
X172717532Y-62637382D01*
X171812770Y-63208811D02*
X171908008Y-63256430D01*
X171908008Y-63256430D02*
X172098484Y-63256430D01*
X172098484Y-63256430D02*
X172193722Y-63208811D01*
X172193722Y-63208811D02*
X172241341Y-63161191D01*
X172241341Y-63161191D02*
X172288960Y-63065953D01*
X172288960Y-63065953D02*
X172288960Y-62780239D01*
X172288960Y-62780239D02*
X172241341Y-62685001D01*
X172241341Y-62685001D02*
X172193722Y-62637382D01*
X172193722Y-62637382D02*
X172098484Y-62589763D01*
X172098484Y-62589763D02*
X171908008Y-62589763D01*
X171908008Y-62589763D02*
X171812770Y-62637382D01*
X171241341Y-63256430D02*
X171336579Y-63208811D01*
X171336579Y-63208811D02*
X171384198Y-63161191D01*
X171384198Y-63161191D02*
X171431817Y-63065953D01*
X171431817Y-63065953D02*
X171431817Y-62780239D01*
X171431817Y-62780239D02*
X171384198Y-62685001D01*
X171384198Y-62685001D02*
X171336579Y-62637382D01*
X171336579Y-62637382D02*
X171241341Y-62589763D01*
X171241341Y-62589763D02*
X171098484Y-62589763D01*
X171098484Y-62589763D02*
X171003246Y-62637382D01*
X171003246Y-62637382D02*
X170955627Y-62685001D01*
X170955627Y-62685001D02*
X170908008Y-62780239D01*
X170908008Y-62780239D02*
X170908008Y-63065953D01*
X170908008Y-63065953D02*
X170955627Y-63161191D01*
X170955627Y-63161191D02*
X171003246Y-63208811D01*
X171003246Y-63208811D02*
X171098484Y-63256430D01*
X171098484Y-63256430D02*
X171241341Y-63256430D01*
X170479436Y-62589763D02*
X170479436Y-63589763D01*
X170479436Y-62637382D02*
X170384198Y-62589763D01*
X170384198Y-62589763D02*
X170193722Y-62589763D01*
X170193722Y-62589763D02*
X170098484Y-62637382D01*
X170098484Y-62637382D02*
X170050865Y-62685001D01*
X170050865Y-62685001D02*
X170003246Y-62780239D01*
X170003246Y-62780239D02*
X170003246Y-63065953D01*
X170003246Y-63065953D02*
X170050865Y-63161191D01*
X170050865Y-63161191D02*
X170098484Y-63208811D01*
X170098484Y-63208811D02*
X170193722Y-63256430D01*
X170193722Y-63256430D02*
X170384198Y-63256430D01*
X170384198Y-63256430D02*
X170479436Y-63208811D01*
X169193722Y-63208811D02*
X169288960Y-63256430D01*
X169288960Y-63256430D02*
X169479436Y-63256430D01*
X169479436Y-63256430D02*
X169574674Y-63208811D01*
X169574674Y-63208811D02*
X169622293Y-63113572D01*
X169622293Y-63113572D02*
X169622293Y-62732620D01*
X169622293Y-62732620D02*
X169574674Y-62637382D01*
X169574674Y-62637382D02*
X169479436Y-62589763D01*
X169479436Y-62589763D02*
X169288960Y-62589763D01*
X169288960Y-62589763D02*
X169193722Y-62637382D01*
X169193722Y-62637382D02*
X169146103Y-62732620D01*
X169146103Y-62732620D02*
X169146103Y-62827858D01*
X169146103Y-62827858D02*
X169622293Y-62923096D01*
X167765150Y-62256430D02*
X167574674Y-62256430D01*
X167574674Y-62256430D02*
X167479436Y-62304049D01*
X167479436Y-62304049D02*
X167384198Y-62399287D01*
X167384198Y-62399287D02*
X167336579Y-62589763D01*
X167336579Y-62589763D02*
X167336579Y-62923096D01*
X167336579Y-62923096D02*
X167384198Y-63113572D01*
X167384198Y-63113572D02*
X167479436Y-63208811D01*
X167479436Y-63208811D02*
X167574674Y-63256430D01*
X167574674Y-63256430D02*
X167765150Y-63256430D01*
X167765150Y-63256430D02*
X167860388Y-63208811D01*
X167860388Y-63208811D02*
X167955626Y-63113572D01*
X167955626Y-63113572D02*
X168003245Y-62923096D01*
X168003245Y-62923096D02*
X168003245Y-62589763D01*
X168003245Y-62589763D02*
X167955626Y-62399287D01*
X167955626Y-62399287D02*
X167860388Y-62304049D01*
X167860388Y-62304049D02*
X167765150Y-62256430D01*
X166479436Y-62589763D02*
X166479436Y-63256430D01*
X166908007Y-62589763D02*
X166908007Y-63113572D01*
X166908007Y-63113572D02*
X166860388Y-63208811D01*
X166860388Y-63208811D02*
X166765150Y-63256430D01*
X166765150Y-63256430D02*
X166622293Y-63256430D01*
X166622293Y-63256430D02*
X166527055Y-63208811D01*
X166527055Y-63208811D02*
X166479436Y-63161191D01*
X166146102Y-62589763D02*
X165765150Y-62589763D01*
X166003245Y-62256430D02*
X166003245Y-63113572D01*
X166003245Y-63113572D02*
X165955626Y-63208811D01*
X165955626Y-63208811D02*
X165860388Y-63256430D01*
X165860388Y-63256430D02*
X165765150Y-63256430D01*
X165431816Y-62589763D02*
X165431816Y-63589763D01*
X165431816Y-62637382D02*
X165336578Y-62589763D01*
X165336578Y-62589763D02*
X165146102Y-62589763D01*
X165146102Y-62589763D02*
X165050864Y-62637382D01*
X165050864Y-62637382D02*
X165003245Y-62685001D01*
X165003245Y-62685001D02*
X164955626Y-62780239D01*
X164955626Y-62780239D02*
X164955626Y-63065953D01*
X164955626Y-63065953D02*
X165003245Y-63161191D01*
X165003245Y-63161191D02*
X165050864Y-63208811D01*
X165050864Y-63208811D02*
X165146102Y-63256430D01*
X165146102Y-63256430D02*
X165336578Y-63256430D01*
X165336578Y-63256430D02*
X165431816Y-63208811D01*
X164098483Y-62589763D02*
X164098483Y-63256430D01*
X164527054Y-62589763D02*
X164527054Y-63113572D01*
X164527054Y-63113572D02*
X164479435Y-63208811D01*
X164479435Y-63208811D02*
X164384197Y-63256430D01*
X164384197Y-63256430D02*
X164241340Y-63256430D01*
X164241340Y-63256430D02*
X164146102Y-63208811D01*
X164146102Y-63208811D02*
X164098483Y-63161191D01*
X163765149Y-62589763D02*
X163384197Y-62589763D01*
X163622292Y-62256430D02*
X163622292Y-63113572D01*
X163622292Y-63113572D02*
X163574673Y-63208811D01*
X163574673Y-63208811D02*
X163479435Y-63256430D01*
X163479435Y-63256430D02*
X163384197Y-63256430D01*
%TO.C,D15*%
D13*
X212500000Y-124048223D02*
X215500000Y-124048223D01*
X212500000Y-124548223D02*
X212500000Y-124048223D01*
X213250000Y-124548223D02*
X212750000Y-124048223D01*
X215500000Y-124048223D02*
X215500000Y-124548223D01*
X215500000Y-124548223D02*
X212500000Y-124548223D01*
X215000000Y-124548223D02*
G75*
G02*
X213000000Y-124548223I-1000000J0D01*
G01*
%TO.C,BT1*%
X123410000Y-57340000D02*
X122785000Y-56340000D01*
X124035000Y-56340000D02*
X123410000Y-57340000D01*
X118460000Y-56340000D02*
X125860000Y-56340000D01*
X125860000Y-62090000D01*
X118460000Y-62090000D01*
X118460000Y-56340000D01*
%TD*%
M02*
