%TF.GenerationSoftware,KiCad,Pcbnew,10.0.1*%
%TF.CreationDate,2026-06-24T19:03:45+02:00*%
%TF.ProjectId,Spikeling_v3.2,5370696b-656c-4696-9e67-5f76332e322e,rev?*%
%TF.SameCoordinates,Original*%
%TF.FileFunction,Other,User*%
%FSLAX46Y46*%
G04 Gerber Fmt 4.6, Leading zero omitted, Abs format (unit mm)*
G04 Created by KiCad (PCBNEW 10.0.1) date 2026-06-24 19:03:45*
%MOMM*%
%LPD*%
G01*
G04 APERTURE LIST*
%ADD10C,0.000000*%
G04 APERTURE END LIST*
D10*
%TO.C,VR4*%
G36*
X165705433Y-116127039D02*
G01*
X165705433Y-116172961D01*
X165672961Y-116205433D01*
X165627039Y-116205433D01*
X165594567Y-116172961D01*
X165594567Y-116127039D01*
X165627039Y-116094567D01*
X165672961Y-116094567D01*
X165705433Y-116127039D01*
G37*
%TO.C,U10*%
G36*
X129136829Y-83871539D02*
G01*
X129136829Y-83917461D01*
X129104357Y-83949933D01*
X129058435Y-83949933D01*
X129025963Y-83917461D01*
X129025963Y-83871539D01*
X129058435Y-83839067D01*
X129104357Y-83839067D01*
X129136829Y-83871539D01*
G37*
%TO.C,D13*%
G36*
X146255433Y-122452039D02*
G01*
X146255433Y-122497961D01*
X146222961Y-122530433D01*
X146177039Y-122530433D01*
X146144567Y-122497961D01*
X146144567Y-122452039D01*
X146177039Y-122419567D01*
X146222961Y-122419567D01*
X146255433Y-122452039D01*
G37*
%TO.C,U6*%
G36*
X146389913Y-64623768D02*
G01*
X146389913Y-64669690D01*
X146357441Y-64702162D01*
X146311519Y-64702162D01*
X146279047Y-64669690D01*
X146279047Y-64623768D01*
X146311519Y-64591296D01*
X146357441Y-64591296D01*
X146389913Y-64623768D01*
G37*
%TO.C,U12*%
G36*
X169125028Y-100615249D02*
G01*
X169125028Y-100661171D01*
X169092556Y-100693643D01*
X169046634Y-100693643D01*
X169014162Y-100661171D01*
X169014162Y-100615249D01*
X169046634Y-100582777D01*
X169092556Y-100582777D01*
X169125028Y-100615249D01*
G37*
%TO.C,VR3*%
G36*
X123705433Y-116127039D02*
G01*
X123705433Y-116172961D01*
X123672961Y-116205433D01*
X123627039Y-116205433D01*
X123594567Y-116172961D01*
X123594567Y-116127039D01*
X123627039Y-116094567D01*
X123672961Y-116094567D01*
X123705433Y-116127039D01*
G37*
%TO.C,Q1*%
G36*
X151996913Y-63457768D02*
G01*
X151996913Y-63503690D01*
X151964441Y-63536162D01*
X151918519Y-63536162D01*
X151886047Y-63503690D01*
X151886047Y-63457768D01*
X151918519Y-63425296D01*
X151964441Y-63425296D01*
X151996913Y-63457768D01*
G37*
%TO.C,VR7*%
G36*
X218705433Y-100727039D02*
G01*
X218705433Y-100772961D01*
X218672961Y-100805433D01*
X218627039Y-100805433D01*
X218594567Y-100772961D01*
X218594567Y-100727039D01*
X218627039Y-100694567D01*
X218672961Y-100694567D01*
X218705433Y-100727039D01*
G37*
%TO.C,U2*%
G36*
X170285433Y-58617039D02*
G01*
X170285433Y-58662961D01*
X170252961Y-58695433D01*
X170207039Y-58695433D01*
X170174567Y-58662961D01*
X170174567Y-58617039D01*
X170207039Y-58584567D01*
X170252961Y-58584567D01*
X170285433Y-58617039D01*
G37*
%TO.C,U8*%
G36*
X134815580Y-66266304D02*
G01*
X134815580Y-66312226D01*
X134783108Y-66344698D01*
X134737186Y-66344698D01*
X134704714Y-66312226D01*
X134704714Y-66266304D01*
X134737186Y-66233832D01*
X134783108Y-66233832D01*
X134815580Y-66266304D01*
G37*
%TO.C,U13*%
G36*
X136965433Y-117127039D02*
G01*
X136965433Y-117172961D01*
X136932961Y-117205433D01*
X136887039Y-117205433D01*
X136854567Y-117172961D01*
X136854567Y-117127039D01*
X136887039Y-117094567D01*
X136932961Y-117094567D01*
X136965433Y-117127039D01*
G37*
%TO.C,SW4*%
G36*
X183705433Y-50227039D02*
G01*
X183705433Y-50272961D01*
X183672961Y-50305433D01*
X183627039Y-50305433D01*
X183594567Y-50272961D01*
X183594567Y-50227039D01*
X183627039Y-50194567D01*
X183672961Y-50194567D01*
X183705433Y-50227039D01*
G37*
%TO.C,SW3*%
G36*
X143705433Y-50227039D02*
G01*
X143705433Y-50272961D01*
X143672961Y-50305433D01*
X143627039Y-50305433D01*
X143594567Y-50272961D01*
X143594567Y-50227039D01*
X143627039Y-50194567D01*
X143672961Y-50194567D01*
X143705433Y-50227039D01*
G37*
%TO.C,L1*%
G36*
X172235771Y-61639539D02*
G01*
X172235771Y-61685461D01*
X172203299Y-61717933D01*
X172157377Y-61717933D01*
X172124905Y-61685461D01*
X172124905Y-61639539D01*
X172157377Y-61607067D01*
X172203299Y-61607067D01*
X172235771Y-61639539D01*
G37*
%TO.C,U5*%
G36*
X158964888Y-64625704D02*
G01*
X158964888Y-64671626D01*
X158932416Y-64704098D01*
X158886494Y-64704098D01*
X158854022Y-64671626D01*
X158854022Y-64625704D01*
X158886494Y-64593232D01*
X158932416Y-64593232D01*
X158964888Y-64625704D01*
G37*
%TO.C,VR1*%
G36*
X112705433Y-62627039D02*
G01*
X112705433Y-62672961D01*
X112672961Y-62705433D01*
X112627039Y-62705433D01*
X112594567Y-62672961D01*
X112594567Y-62627039D01*
X112627039Y-62594567D01*
X112672961Y-62594567D01*
X112705433Y-62627039D01*
G37*
%TO.C,VR6*%
G36*
X218705433Y-75099039D02*
G01*
X218705433Y-75144961D01*
X218672961Y-75177433D01*
X218627039Y-75177433D01*
X218594567Y-75144961D01*
X218594567Y-75099039D01*
X218627039Y-75066567D01*
X218672961Y-75066567D01*
X218705433Y-75099039D01*
G37*
%TO.C,U11*%
G36*
X184946241Y-83873560D02*
G01*
X184946241Y-83919482D01*
X184913769Y-83951954D01*
X184867847Y-83951954D01*
X184835375Y-83919482D01*
X184835375Y-83873560D01*
X184867847Y-83841088D01*
X184913769Y-83841088D01*
X184946241Y-83873560D01*
G37*
%TO.C,VR5*%
G36*
X200705433Y-116127039D02*
G01*
X200705433Y-116172961D01*
X200672961Y-116205433D01*
X200627039Y-116205433D01*
X200594567Y-116172961D01*
X200594567Y-116127039D01*
X200627039Y-116094567D01*
X200672961Y-116094567D01*
X200705433Y-116127039D01*
G37*
%TO.C,D16*%
G36*
X175805433Y-61877039D02*
G01*
X175805433Y-61922961D01*
X175772961Y-61955433D01*
X175727039Y-61955433D01*
X175694567Y-61922961D01*
X175694567Y-61877039D01*
X175727039Y-61844567D01*
X175772961Y-61844567D01*
X175805433Y-61877039D01*
G37*
%TO.C,U7*%
G36*
X132468436Y-68800497D02*
G01*
X132496026Y-68828087D01*
X132510958Y-68864135D01*
X132510958Y-68903153D01*
X132496026Y-68939201D01*
X132468436Y-68966791D01*
X132432388Y-68981723D01*
X132393370Y-68981723D01*
X132357322Y-68966791D01*
X132329732Y-68939201D01*
X132314800Y-68903153D01*
X132314800Y-68864135D01*
X132329732Y-68828087D01*
X132357322Y-68800497D01*
X132393370Y-68785565D01*
X132432388Y-68785565D01*
X132468436Y-68800497D01*
G37*
%TO.C,SW5*%
G36*
X198705433Y-50227039D02*
G01*
X198705433Y-50272961D01*
X198672961Y-50305433D01*
X198627039Y-50305433D01*
X198594567Y-50272961D01*
X198594567Y-50227039D01*
X198627039Y-50194567D01*
X198672961Y-50194567D01*
X198705433Y-50227039D01*
G37*
%TO.C,VR2*%
G36*
X112705433Y-90627039D02*
G01*
X112705433Y-90672961D01*
X112672961Y-90705433D01*
X112627039Y-90705433D01*
X112594567Y-90672961D01*
X112594567Y-90627039D01*
X112627039Y-90594567D01*
X112672961Y-90594567D01*
X112705433Y-90627039D01*
G37*
%TO.C,L5*%
G36*
X142878080Y-66016304D02*
G01*
X142878080Y-66062226D01*
X142845608Y-66094698D01*
X142799686Y-66094698D01*
X142767214Y-66062226D01*
X142767214Y-66016304D01*
X142799686Y-65983832D01*
X142845608Y-65983832D01*
X142878080Y-66016304D01*
G37*
%TO.C,J7*%
G36*
X175415822Y-47951150D02*
G01*
X175415822Y-47997072D01*
X175383350Y-48029544D01*
X175337428Y-48029544D01*
X175304956Y-47997072D01*
X175304956Y-47951150D01*
X175337428Y-47918678D01*
X175383350Y-47918678D01*
X175415822Y-47951150D01*
G37*
%TD*%
M02*
